<?xml version="1.0" encoding="utf-8"?>
<!-- Generator: Adobe Illustrator 17.1.0, SVG Export Plug-In . SVG Version: 6.00 Build 0)  -->
<!DOCTYPE svg PUBLIC "-//W3C//DTD SVG 1.1//EN" "http://www.w3.org/Graphics/SVG/1.1/DTD/svg11.dtd">
<svg version="1.1" id="Layer_1" xmlns="http://www.w3.org/2000/svg" xmlns:xlink="http://www.w3.org/1999/xlink" x="0px" y="0px"
	 viewBox="0 0 200 187" enable-background="new 0 0 200 187" xml:space="preserve">
<line fill="none" stroke="#040407" stroke-width="5" stroke-miterlimit="10" x1="0" y1="174.5" x2="200" y2="174.5"/>
<line fill="none" stroke="#040407" stroke-width="5" stroke-miterlimit="10" x1="0" y1="184.5" x2="200" y2="184.5"/>
<rect x="20" y="162.5" fill="none" stroke="#040407" stroke-width="5" stroke-miterlimit="10" width="160" height="12"/>
<rect x="20" y="58.5" fill="none" stroke="#040407" stroke-width="5" stroke-miterlimit="10" width="160" height="12"/>
<rect x="20" y="14.5" fill="none" stroke="#040407" stroke-width="5" stroke-miterlimit="10" width="160" height="12"/>
<rect x="27" y="2.5" fill="#696A6C" stroke="#040407" stroke-width="5" stroke-miterlimit="10" width="146" height="12"/>
<rect x="27" y="70.5" fill="#696A6C" stroke="#040407" stroke-width="5" stroke-miterlimit="10" width="146" height="92"/>
<rect x="27" y="26.5" fill="#696A6C" stroke="#040407" stroke-width="5" stroke-miterlimit="10" width="146" height="32"/>
<rect x="45" y="70.5" fill="#FFFFFF" stroke="#040407" stroke-width="5" stroke-miterlimit="10" width="45" height="104"/>
<rect x="54" y="104.5" fill="#FFFFFF" stroke="#040407" stroke-width="5" stroke-miterlimit="10" width="27" height="70"/>
<rect x="46" y="26.5" fill="#ECEDEB" stroke="#040407" stroke-width="5" stroke-miterlimit="10" width="27" height="32"/>
<rect x="86.5" y="26.5" fill="#ECEDEB" stroke="#040407" stroke-width="5" stroke-miterlimit="10" width="27" height="32"/>
<rect x="127" y="26.5" fill="#ECEDEB" stroke="#040407" stroke-width="5" stroke-miterlimit="10" width="27" height="32"/>
<rect x="99" y="79.5" fill="#FFFFFF" stroke="#040407" stroke-width="5" stroke-miterlimit="10" width="65" height="74"/>
<rect x="99" y="141.5" fill="#FEF9FB" stroke="#040407" stroke-width="5" stroke-miterlimit="10" width="65" height="12"/>
<line fill="none" stroke="#040407" stroke-width="5" stroke-miterlimit="10" x1="45" y1="95.5" x2="90" y2="95.5"/>
<line fill="none" stroke="#040407" stroke-width="5" stroke-miterlimit="10" x1="100" y1="174.5" x2="100" y2="184.5"/>
<line fill="none" stroke="#040407" stroke-width="5" stroke-miterlimit="10" x1="55" y1="174.5" x2="55" y2="184.5"/>
<line fill="none" stroke="#040407" stroke-width="5" stroke-miterlimit="10" x1="10" y1="174.5" x2="10" y2="184.5"/>
<line fill="none" stroke="#040407" stroke-width="5" stroke-miterlimit="10" x1="145" y1="174.5" x2="145" y2="184.5"/>
<line fill="none" stroke="#040407" stroke-width="5" stroke-miterlimit="10" x1="190" y1="174.5" x2="190" y2="184.5"/>
<rect x="46" y="49.5" fill="#FEF9FB" stroke="#040407" stroke-width="5" stroke-miterlimit="10" width="27" height="9"/>
<rect x="86.5" y="49.5" fill="#FEF9FB" stroke="#040407" stroke-width="5" stroke-miterlimit="10" width="27" height="9"/>
<rect x="127" y="49.5" fill="#FEF9FB" stroke="#040407" stroke-width="5" stroke-miterlimit="10" width="27" height="9"/>
<path fill="#040404" d="M151.5,118.2c0.3,0,0.6,0,0.9,0c0.2,0.1,0.6,0,0.8,0.1c0.1,0.2-0.1,0.3,0,0.6c0,0.2,0.2,0.4,0.2,0.8
	c0,0.3-0.2,0.3-0.3,0.5c-0.1,0.3,0.1,1,0.1,1.5c0,0.5,0.1,1.1,0.1,1.5c0.1,1.1,0,2.3,0.3,3.1c0.2,0.8,1.2,1.6,1.3,2.7
	c0.1,1,0,2.2,0,3.3c-0.1,2.2-0.1,4.3-0.1,6.5c0,1.1,0.2,2.6-0.2,3c-0.4,0.4-1.3,0.3-2.1,0.4c-0.4,0-0.8,0-1.2,0
	c-0.7-0.2-1.9,0-2.3-0.6c-0.3-0.5-0.1-2.2-0.1-3.1c0-2.3,0-4.3-0.1-6.5c0-1.1-0.1-2.3,0-3.3c0.1-1,1.1-1.8,1.3-2.5
	c0.1-0.5,0.1-1,0.1-1.5c0.1-1.1,0.2-2,0.3-3c0-0.5,0.2-1.3,0.1-1.5c-0.1-0.2-0.3-0.3-0.3-0.6c0-0.2,0.2-0.4,0.3-0.7
	c0-0.3-0.2-0.4-0.1-0.6C150.7,118.2,151.2,118.3,151.5,118.2z"/>
<path fill="#040404" d="M140.9,118.2c0.3,0,0.6,0,0.9,0c0.2,0.1,0.6,0,0.8,0.1c0.1,0.2-0.1,0.3,0,0.6c0,0.2,0.2,0.4,0.2,0.8
	c0,0.3-0.2,0.3-0.3,0.5c-0.1,0.3,0.1,1,0.1,1.5c0,0.5,0.1,1.1,0.1,1.5c0.1,1.1,0,2.3,0.3,3.1c0.2,0.8,1.2,1.6,1.3,2.7
	c0.1,1,0,2.2,0,3.3c-0.1,2.2-0.1,4.3-0.1,6.5c0,1.1,0.2,2.6-0.2,3c-0.4,0.4-1.3,0.3-2.1,0.4c-0.4,0-0.8,0-1.2,0
	c-0.7-0.2-1.9,0-2.3-0.6c-0.3-0.5-0.1-2.2-0.1-3.1c0-2.3,0-4.3-0.1-6.5c0-1.1-0.1-2.3,0-3.3c0.1-1,1.1-1.8,1.3-2.5
	c0.1-0.5,0.1-1,0.1-1.5c0.1-1.1,0.2-2,0.3-3c0-0.5,0.2-1.3,0.1-1.5c-0.1-0.2-0.3-0.3-0.3-0.6c0-0.2,0.2-0.4,0.3-0.7
	c0-0.3-0.2-0.4-0.1-0.6C140.1,118.2,140.6,118.3,140.9,118.2z"/>
<circle fill="#040407" cx="63" cy="130.9" r="2.5"/>
</svg>
