<?xml version="1.0" encoding="utf-8"?>
<!-- Generator: Adobe Illustrator 17.1.0, SVG Export Plug-In . SVG Version: 6.00 Build 0)  -->
<!DOCTYPE svg PUBLIC "-//W3C//DTD SVG 1.1//EN" "http://www.w3.org/Graphics/SVG/1.1/DTD/svg11.dtd">
<svg version="1.1" id="Layer_1" xmlns="http://www.w3.org/2000/svg" xmlns:xlink="http://www.w3.org/1999/xlink" x="0px" y="0px"
	 viewBox="0 0 200 187" enable-background="new 0 0 200 187" xml:space="preserve">
<line fill="none" stroke="#040407" stroke-width="5" stroke-miterlimit="10" x1="0" y1="174.5" x2="200" y2="174.5"/>
<line fill="none" stroke="#040407" stroke-width="5" stroke-miterlimit="10" x1="0" y1="184.5" x2="200" y2="184.5"/>
<rect x="20" y="162.5" fill="none" stroke="#040407" stroke-width="5" stroke-miterlimit="10" width="160" height="12"/>
<rect x="20" y="58.5" fill="none" stroke="#040407" stroke-width="5" stroke-miterlimit="10" width="160" height="12"/>
<rect x="27" y="70.5" fill="#696A6C" stroke="#040407" stroke-width="5" stroke-miterlimit="10" width="146" height="92"/>
<rect x="64" y="95.5" fill="#FFFFFF" stroke="#040407" stroke-width="5" stroke-miterlimit="10" width="72" height="79"/>
<rect x="100" y="104.5" fill="#FFFFFF" stroke="#040407" stroke-width="5" stroke-miterlimit="10" width="27" height="70"/>
<rect x="27" y="2.5" fill="#ECEDEB" stroke="#040407" stroke-width="5" stroke-miterlimit="10" width="146" height="47"/>
<g>
	<g>
		<polyline fill="none" stroke="#717073" stroke-width="5" stroke-linecap="round" stroke-linejoin="round" points="36,40 36,40.5 
			36.5,40.5 		"/>
		
			<line fill="none" stroke="#717073" stroke-width="5" stroke-linecap="round" stroke-linejoin="round" stroke-dasharray="1.0003,7.0024" x1="43.5" y1="40.5" x2="160" y2="40.5"/>
		<polyline fill="none" stroke="#717073" stroke-width="5" stroke-linecap="round" stroke-linejoin="round" points="163.5,40.5 
			164,40.5 164,40 		"/>
		
			<line fill="none" stroke="#717073" stroke-width="5" stroke-linecap="round" stroke-linejoin="round" stroke-dasharray="0.9046,6.3323" x1="164" y1="33.7" x2="164" y2="15.1"/>
		<polyline fill="none" stroke="#717073" stroke-width="5" stroke-linecap="round" stroke-linejoin="round" points="164,12 
			164,11.5 163.5,11.5 		"/>
		
			<line fill="none" stroke="#717073" stroke-width="5" stroke-linecap="round" stroke-linejoin="round" stroke-dasharray="1.0003,7.0024" x1="156.5" y1="11.5" x2="40" y2="11.5"/>
		<polyline fill="none" stroke="#717073" stroke-width="5" stroke-linecap="round" stroke-linejoin="round" points="36.5,11.5 
			36,11.5 36,12 		"/>
		
			<line fill="none" stroke="#717073" stroke-width="5" stroke-linecap="round" stroke-linejoin="round" stroke-dasharray="0.9046,6.3323" x1="36" y1="18.3" x2="36" y2="36.9"/>
	</g>
</g>
<line fill="none" stroke="#040407" stroke-width="5" stroke-miterlimit="10" x1="64" y1="95.5" x2="136" y2="95.5"/>
<rect x="86.5" y="49.5" fill="#FEF9FB" stroke="#040407" stroke-width="5" stroke-miterlimit="10" width="27" height="9"/>
<circle fill="#040407" cx="109" cy="130.9" r="2.5"/>
<rect x="73" y="104.5" fill="#FFFFFF" stroke="#040407" stroke-width="5" stroke-miterlimit="10" width="27" height="70"/>
<circle fill="#040407" cx="91" cy="130.9" r="2.5"/>
<path d="M62.5,19.7h7.3v3h-4.3v1.9h2.6v3h-2.6v2h4.3v3h-7.4V19.7z"/>
<path d="M74.6,19.7h3.5l1.1,8.9l1.2-8.9h3.4l-2.4,12.7h-4.5L74.6,19.7z"/>
<path d="M89.1,19.7h7.3v3h-4.3v1.9h2.6v3h-2.6v2h4.3v3h-7.4V19.7z"/>
<path d="M102.1,19.7h3.4l2.8,6.6v-6.6h3.1v12.7h-3.4l-2.8-6.8v6.8h-3.1V19.7z"/>
<path d="M119.1,22.6h-2.5v-3h8.1v3h-2.5v9.8h-3.1V22.6z"/>
<path d="M129.4,27.7h3.2v0.2c0,1.4,0.4,1.8,1.1,1.8c0.7,0,1.1-0.5,1.1-1.2c0-1.7-5.3-0.6-5.3-5.2c0-2.1,1.7-3.7,4.1-3.7
	c2.6,0,4.1,1.7,4.1,4.3V24h-3.2c0-1.2-0.2-1.7-0.9-1.7c-0.7,0-0.9,0.4-0.9,0.9c0,1.8,5.3,0.8,5.3,5.2c0,2.4-1.7,4-4.3,4
	c-2.6,0-4.3-1.6-4.3-4.2V27.7z"/>
<rect x="145" y="79.5" fill="#ECEDEB" stroke="#040407" stroke-width="5" stroke-miterlimit="10" width="19" height="32"/>
<rect x="145" y="102.5" fill="#FEF9FB" stroke="#040407" stroke-width="5" stroke-miterlimit="10" width="19" height="9"/>
<rect x="145" y="120.5" fill="#ECEDEB" stroke="#040407" stroke-width="5" stroke-miterlimit="10" width="19" height="32"/>
<rect x="145" y="143.5" fill="#FEF9FB" stroke="#040407" stroke-width="5" stroke-miterlimit="10" width="19" height="9"/>
<rect x="36" y="79.5" fill="#ECEDEB" stroke="#040407" stroke-width="5" stroke-miterlimit="10" width="19" height="32"/>
<rect x="36" y="102.5" fill="#FEF9FB" stroke="#040407" stroke-width="5" stroke-miterlimit="10" width="19" height="9"/>
<rect x="36" y="120.5" fill="#ECEDEB" stroke="#040407" stroke-width="5" stroke-miterlimit="10" width="19" height="32"/>
<rect x="36" y="143.5" fill="#FEF9FB" stroke="#040407" stroke-width="5" stroke-miterlimit="10" width="19" height="9"/>
<line fill="none" stroke="#040407" stroke-width="5" stroke-miterlimit="10" x1="136" y1="95.5" x2="136" y2="70.5"/>
<line fill="none" stroke="#040407" stroke-width="5" stroke-miterlimit="10" x1="64" y1="95.5" x2="64" y2="70.5"/>
</svg>
