<?xml version="1.0" encoding="utf-8"?>
<!-- Generator: Adobe Illustrator 17.1.0, SVG Export Plug-In . SVG Version: 6.00 Build 0)  -->
<!DOCTYPE svg PUBLIC "-//W3C//DTD SVG 1.1//EN" "http://www.w3.org/Graphics/SVG/1.1/DTD/svg11.dtd">
<svg version="1.1" id="Layer_1" xmlns="http://www.w3.org/2000/svg" xmlns:xlink="http://www.w3.org/1999/xlink" x="0px" y="0px"
	 viewBox="0 0 110.9 110.9" enable-background="new 0 0 110.9 110.9" xml:space="preserve">
<g>
	<defs>
		<rect id="SVGID_1_" width="110.9" height="110.9"/>
	</defs>
	<clipPath id="SVGID_2_">
		<use xlink:href="#SVGID_1_"  overflow="visible"/>
	</clipPath>
	<path clip-path="url(#SVGID_2_)" fill="#FFFFFF" d="M55.5,110.9c30.6,0,55.5-24.8,55.5-55.5S86.1,0,55.5,0S0,24.8,0,55.5
		S24.8,110.9,55.5,110.9"/>
</g>
<g>
	<defs>
		<circle id="SVGID_3_" cx="55.5" cy="55.5" r="55.5"/>
	</defs>
	<clipPath id="SVGID_4_">
		<use xlink:href="#SVGID_3_"  overflow="visible"/>
	</clipPath>
	<path clip-path="url(#SVGID_4_)" fill="#00B5CC" d="M18.2,20.2c0,0.8,0.7,1.5,1.5,1.5s1.5-0.7,1.5-1.5c0-0.8-0.7-1.5-1.5-1.5
		S18.2,19.4,18.2,20.2 M14.8,18.7c-0.8,0-1.5,0.7-1.5,1.5c0,0.8,0.7,1.5,1.5,1.5c0.8,0,1.5-0.7,1.5-1.5
		C16.3,19.4,15.6,18.7,14.8,18.7 M9.9,18.7c-0.8,0-1.5,0.7-1.5,1.5c0,0.8,0.7,1.5,1.5,1.5c0.8,0,1.5-0.7,1.5-1.5
		C11.4,19.4,10.8,18.7,9.9,18.7 M5,18.7c-0.8,0-1.5,0.7-1.5,1.5c0,0.8,0.7,1.5,1.5,1.5c0.8,0,1.5-0.7,1.5-1.5
		C6.5,19.4,5.9,18.7,5,18.7 M1.7,20.2c0-0.8-0.7-1.5-1.5-1.5c-0.1,0-0.1,0-0.2,0v3c0.1,0,0.1,0,0.2,0C1,21.7,1.7,21,1.7,20.2
		 M18.8,15.7c0-0.8-0.7-1.5-1.5-1.5c-0.8,0-1.5,0.7-1.5,1.5c0,0.8,0.7,1.5,1.5,1.5C18.1,17.2,18.8,16.5,18.8,15.7 M13.9,15.7
		c0-0.8-0.7-1.5-1.5-1.5c-0.8,0-1.5,0.7-1.5,1.5c0,0.8,0.7,1.5,1.5,1.5C13.2,17.2,13.9,16.5,13.9,15.7 M9,15.7
		c0-0.8-0.7-1.5-1.5-1.5S6,14.9,6,15.7c0,0.8,0.7,1.5,1.5,1.5S9,16.5,9,15.7 M4.1,15.7c0-0.8-0.7-1.5-1.5-1.5s-1.5,0.7-1.5,1.5
		c0,0.8,0.7,1.5,1.5,1.5S4.1,16.5,4.1,15.7 M18.2,11.2c0,0.8,0.7,1.5,1.5,1.5s1.5-0.7,1.5-1.5c0-0.8-0.7-1.5-1.5-1.5
		S18.2,10.3,18.2,11.2 M14.8,12.7c0.8,0,1.5-0.7,1.5-1.5c0-0.8-0.7-1.5-1.5-1.5c-0.8,0-1.5,0.7-1.5,1.5C13.3,12,14,12.7,14.8,12.7
		 M9.9,12.7c0.8,0,1.5-0.7,1.5-1.5c0-0.8-0.7-1.5-1.5-1.5c-0.8,0-1.5,0.7-1.5,1.5C8.4,12,9.1,12.7,9.9,12.7 M5,12.7
		c0.8,0,1.5-0.7,1.5-1.5c0-0.8-0.7-1.5-1.5-1.5c-0.8,0-1.5,0.7-1.5,1.5C3.5,12,4.2,12.7,5,12.7 M1.7,11.2c0-0.8-0.7-1.5-1.5-1.5
		c-0.1,0-0.1,0-0.2,0v3c0.1,0,0.1,0,0.2,0C1,12.7,1.7,12,1.7,11.2 M15.8,6.7c0,0.8,0.7,1.5,1.5,1.5c0.8,0,1.5-0.7,1.5-1.5
		c0-0.8-0.7-1.5-1.5-1.5C16.4,5.2,15.8,5.8,15.8,6.7 M10.9,6.7c0,0.8,0.7,1.5,1.5,1.5c0.8,0,1.5-0.7,1.5-1.5c0-0.8-0.7-1.5-1.5-1.5
		C11.5,5.2,10.9,5.8,10.9,6.7 M6,6.7c0,0.8,0.7,1.5,1.5,1.5S9,7.5,9,6.7c0-0.8-0.7-1.5-1.5-1.5S6,5.8,6,6.7 M1.1,6.7
		c0,0.8,0.7,1.5,1.5,1.5s1.5-0.7,1.5-1.5c0-0.8-0.7-1.5-1.5-1.5S1.1,5.8,1.1,6.7 M19.7,3.7c0.8,0,1.5-0.7,1.5-1.5
		c0-0.8-0.7-1.5-1.5-1.5s-1.5,0.7-1.5,1.5C18.2,3,18.9,3.7,19.7,3.7 M14.8,3.7c0.8,0,1.5-0.7,1.5-1.5c0-0.8-0.7-1.5-1.5-1.5
		c-0.8,0-1.5,0.7-1.5,1.5C13.3,3,14,3.7,14.8,3.7 M9.9,3.7c0.8,0,1.5-0.7,1.5-1.5c0-0.8-0.7-1.5-1.5-1.5c-0.8,0-1.5,0.7-1.5,1.5
		C8.4,3,9.1,3.7,9.9,3.7 M5,3.7c0.8,0,1.5-0.7,1.5-1.5c0-0.8-0.7-1.5-1.5-1.5c-0.8,0-1.5,0.7-1.5,1.5C3.5,3,4.2,3.7,5,3.7 M1.7,2.2
		c0-0.8-0.7-1.5-1.5-1.5c-0.1,0-0.1,0-0.2,0v3c0.1,0,0.1,0,0.2,0C1,3.7,1.7,3,1.7,2.2 M20.6,15.7c0,0.8,0.7,1.5,1.5,1.5c0,0,0,0,0,0
		v-3c0,0,0,0,0,0C21.3,14.2,20.6,14.9,20.6,15.7 M20.6,6.7c0,0.8,0.7,1.5,1.5,1.5c0,0,0,0,0,0v-3c0,0,0,0,0,0
		C21.3,5.2,20.6,5.8,20.6,6.7 M0,0h22.2v22.2H0V0z"/>
	<path clip-path="url(#SVGID_4_)" fill="#EF4135" d="M64.6,17.9l2-4v-0.5h-2h-2.2L64.6,17.9z M51.1,9h-2.2l2.2,4.5L53.3,9H51.1z
		 M64.6,9l2-4V4.5h-2h-2.2L64.6,9z M64.6,13.5l2-4V9h-2h-2.2L64.6,13.5z M48.9,13.5l2.2,4.5l2.2-4.5h-2.2H48.9z M57.8,17.9l2.1,4.2
		h0.2l2.1-4.2h-2.2H57.8z M53.3,17.9l2.1,4.2h0.2l2.1-4.2h-2.2H53.3z M48.9,17.9l2.1,4.2h0.2l2.1-4.2h-2.2H48.9z M64.4,22.2h0.2
		l1.9-3.7v-0.5h-2h-2.2L64.4,22.2z M46.6,9h-2.2l2.2,4.5L48.9,9H46.6z M44.4,17.9l2.1,4.2h0.2l2.1-4.2h-2.2H44.4z M46.6,13.5h-2.2
		l2.2,4.5l2.2-4.5H46.6z M46.6,4.5h-2.2L46.6,9l2.2-4.5H46.6z M44.4,0l2.2,4.5L48.9,0H44.4z M66.5,0h-4.2l2.2,4.5l2-4V0z M62.3,0
		h-4.5l2.2,4.5L62.3,0z M53.3,0h-4.5l2.2,4.5L53.3,0z M57.8,0h-4.5l2.2,4.5L57.8,0z M60.1,9l2.2-4.5h-2.2h-2.2L60.1,9z M57.8,4.5
		h-2.2h-2.2L55.6,9L57.8,4.5z M60.1,13.5L62.3,9h-2.2h-2.2L60.1,13.5z M55.6,13.5L57.8,9h-2.2h-2.2L55.6,13.5z M60.1,17.9l2.2-4.5
		h-2.2h-2.2L60.1,17.9z M53.3,13.5l2.2,4.5l2.2-4.5h-2.2H53.3z M51.1,4.5h-2.2L51.1,9l2.2-4.5H51.1z M44.4,0h22.2v22.2H44.4V0z"/>
	<path clip-path="url(#SVGID_4_)" fill="#BB6CAC" d="M108.1,20.2c-0.6,0-0.8-0.1-1.2-0.3c-0.5-0.2-1.1-0.5-2.1-0.5
		c-1.1,0-1.7,0.3-2.1,0.5c-0.4,0.2-0.6,0.3-1.2,0.3c-0.6,0-0.8-0.1-1.2-0.3c-0.5-0.2-1.1-0.5-2.1-0.5c-1.1,0-1.7,0.3-2.1,0.5
		c-0.4,0.2-0.6,0.3-1.2,0.3c-0.6,0-0.8-0.1-1.2-0.3c-0.5-0.2-1.1-0.5-2.1-0.5c-1.1,0-1.7,0.3-2.1,0.5c-0.3,0.1-0.5,0.2-0.8,0.3v2
		h0.7c0.4-0.1,0.7-0.2,1-0.4c0.4-0.2,0.6-0.3,1.2-0.3c0.6,0,0.8,0.1,1.2,0.3c0.3,0.1,0.6,0.3,1,0.4H96c0.4-0.1,0.7-0.2,1-0.4
		c0.4-0.2,0.6-0.3,1.2-0.3s0.8,0.1,1.2,0.3c0.3,0.1,0.6,0.3,1,0.4h2.2c0.4-0.1,0.7-0.2,1-0.4c0.4-0.2,0.6-0.3,1.2-0.3
		c0.6,0,0.8,0.1,1.2,0.3c0.3,0.1,0.6,0.3,1,0.4h2.2c0.4-0.1,0.8-0.2,1-0.4c0.2-0.1,0.4-0.2,0.6-0.2v-2.1c-0.7,0.1-1.2,0.3-1.6,0.5
		C109,20.1,108.7,20.2,108.1,20.2 M108.1,15.3c-0.6,0-0.8-0.1-1.2-0.3c-0.5-0.2-1.1-0.5-2.1-0.5c-1.1,0-1.7,0.3-2.1,0.5
		c-0.4,0.2-0.6,0.3-1.2,0.3c-0.6,0-0.8-0.1-1.2-0.3c-0.5-0.2-1.1-0.5-2.1-0.5c-1.1,0-1.7,0.3-2.1,0.5c-0.4,0.2-0.6,0.3-1.2,0.3
		c-0.6,0-0.8-0.1-1.2-0.3c-0.5-0.2-1.1-0.5-2.1-0.5c-1.1,0-1.7,0.3-2.1,0.5c-0.3,0.1-0.5,0.2-0.8,0.3v2.1c0.8-0.1,1.3-0.3,1.7-0.5
		c0.4-0.2,0.6-0.3,1.2-0.3c0.6,0,0.8,0.1,1.2,0.3c0.5,0.2,1.1,0.5,2.1,0.5c1.1,0,1.7-0.3,2.1-0.5c0.4-0.2,0.6-0.3,1.2-0.3
		s0.8,0.1,1.2,0.3c0.5,0.2,1.1,0.5,2.1,0.5c1.1,0,1.7-0.3,2.1-0.5c0.4-0.2,0.6-0.3,1.2-0.3c0.6,0,0.8,0.1,1.2,0.3
		c0.5,0.2,1.1,0.5,2.1,0.5c1.1,0,1.7-0.3,2.1-0.5c0.2-0.1,0.4-0.2,0.6-0.2v-2.1c-0.7,0.1-1.2,0.3-1.6,0.5
		C109,15.2,108.7,15.3,108.1,15.3 M108.1,10.5c-0.6,0-0.8-0.1-1.2-0.3c-0.5-0.2-1.1-0.5-2.1-0.5c-1.1,0-1.7,0.3-2.1,0.5
		c-0.4,0.2-0.6,0.3-1.2,0.3c-0.6,0-0.8-0.1-1.2-0.3c-0.5-0.2-1.1-0.5-2.1-0.5c-1.1,0-1.7,0.3-2.1,0.5c-0.4,0.2-0.6,0.3-1.2,0.3
		c-0.6,0-0.8-0.1-1.2-0.3c-0.5-0.2-1.1-0.5-2.1-0.5c-1.1,0-1.7,0.3-2.1,0.5c-0.3,0.1-0.5,0.2-0.8,0.3v2.1c0.8-0.1,1.3-0.3,1.7-0.5
		c0.4-0.2,0.6-0.3,1.2-0.3c0.6,0,0.8,0.1,1.2,0.3c0.5,0.2,1.1,0.5,2.1,0.5c1.1,0,1.7-0.3,2.1-0.5c0.4-0.2,0.6-0.3,1.2-0.3
		s0.8,0.1,1.2,0.3c0.5,0.2,1.1,0.5,2.1,0.5c1.1,0,1.7-0.3,2.1-0.5c0.4-0.2,0.6-0.3,1.2-0.3c0.6,0,0.8,0.1,1.2,0.3
		c0.5,0.2,1.1,0.5,2.1,0.5c1.1,0,1.7-0.3,2.1-0.5c0.2-0.1,0.4-0.2,0.6-0.2V9.8c-0.7,0.1-1.2,0.3-1.6,0.5
		C109,10.4,108.7,10.5,108.1,10.5 M108.1,5.7c-0.6,0-0.8-0.1-1.2-0.3c-0.5-0.2-1.1-0.5-2.1-0.5c-1.1,0-1.7,0.3-2.1,0.5
		c-0.4,0.2-0.6,0.3-1.2,0.3c-0.6,0-0.8-0.1-1.2-0.3c-0.5-0.2-1.1-0.5-2.1-0.5c-1.1,0-1.7,0.3-2.1,0.5c-0.4,0.2-0.6,0.3-1.2,0.3
		c-0.6,0-0.8-0.1-1.2-0.3c-0.5-0.2-1.1-0.5-2.1-0.5c-1.1,0-1.7,0.3-2.1,0.5c-0.3,0.1-0.5,0.2-0.8,0.3v2.1c0.8-0.1,1.3-0.3,1.7-0.5
		C90.8,7.1,91.1,7,91.6,7c0.6,0,0.8,0.1,1.2,0.3c0.5,0.2,1.1,0.5,2.1,0.5c1.1,0,1.7-0.3,2.1-0.5C97.4,7.1,97.7,7,98.2,7
		s0.8,0.1,1.2,0.3c0.5,0.2,1.1,0.5,2.1,0.5c1.1,0,1.7-0.3,2.1-0.5c0.4-0.2,0.6-0.3,1.2-0.3c0.6,0,0.8,0.1,1.2,0.3
		c0.5,0.2,1.1,0.5,2.1,0.5c1.1,0,1.7-0.3,2.1-0.5c0.2-0.1,0.4-0.2,0.6-0.2V4.9c-0.7,0.1-1.2,0.3-1.6,0.5
		C109,5.6,108.7,5.7,108.1,5.7 M108.1,0.8c-0.6,0-0.8-0.1-1.2-0.3c-0.5-0.2-1.1-0.5-2.1-0.5c-1.1,0-1.7,0.3-2.1,0.5
		c-0.4,0.2-0.6,0.3-1.2,0.3c-0.6,0-0.8-0.1-1.2-0.3c-0.5-0.2-1.1-0.5-2.1-0.5c-1.1,0-1.7,0.3-2.1,0.5c-0.4,0.2-0.6,0.3-1.2,0.3
		c-0.6,0-0.8-0.1-1.2-0.3c-0.5-0.2-1.1-0.5-2.1-0.5c-1.1,0-1.7,0.3-2.1,0.5c-0.3,0.1-0.5,0.2-0.8,0.3v2.1c0.8-0.1,1.3-0.3,1.7-0.5
		c0.4-0.2,0.6-0.3,1.2-0.3c0.6,0,0.8,0.1,1.2,0.3c0.5,0.2,1.1,0.5,2.1,0.5c1.1,0,1.7-0.3,2.1-0.5c0.4-0.2,0.6-0.3,1.2-0.3
		s0.8,0.1,1.2,0.3c0.5,0.2,1.1,0.5,2.1,0.5c1.1,0,1.7-0.3,2.1-0.5c0.4-0.2,0.6-0.3,1.2-0.3c0.6,0,0.8,0.1,1.2,0.3
		c0.5,0.2,1.1,0.5,2.1,0.5c1.1,0,1.7-0.3,2.1-0.5c0.2-0.1,0.4-0.2,0.6-0.2V0.1c-0.7,0.1-1.2,0.3-1.6,0.5
		C109,0.7,108.7,0.8,108.1,0.8 M88.7,0h22.2v22.2H88.7V0z"/>
	<path clip-path="url(#SVGID_4_)" fill="#6CB33F" d="M44.4,19v-2.5l-5.4-5.4l5.4-5.4V3.1l-7.9,7.9L44.4,19z M44.4,14.6v-2.5l-1-1
		l1-1V7.6l-3.5,3.5L44.4,14.6z M36.8,0h-2.5l-1,1l-1-1h-2.5l3.5,3.5L36.8,0z M29.7,22.2h2.5l1-1l1,1h2.5l-3.5-3.5L29.7,22.2z
		 M25.3,22.2h2.5l5.4-5.4l5.4,5.4h2.5l-7.9-7.9L25.3,22.2z M41.2,0h-2.5l-5.4,5.4L27.9,0h-2.5l7.9,7.9L41.2,0z M43.1,0l-9.8,9.8
		L23.4,0h-1.3v1.2l9.8,9.8l-9.8,9.8v1.2h1.3l9.8-9.9l9.8,9.9h1.2v-1.3l-9.8-9.9l9.8-9.9V0H43.1z M22.2,7.6v2.5l1,1l-1,1v2.5l3.5-3.5
		L22.2,7.6z M22.2,3.2v2.5l5.4,5.4l-5.4,5.4V19l7.9-7.9L22.2,3.2z M22.2,0h22.2v22.2H22.2V0z"/>
	<path clip-path="url(#SVGID_4_)" fill="#00B5CC" d="M106.9,42.4c0,0.8,0.7,1.5,1.5,1.5c0.8,0,1.5-0.7,1.5-1.5
		c0-0.8-0.7-1.5-1.5-1.5C107.6,40.9,106.9,41.6,106.9,42.4 M103.5,40.9c-0.8,0-1.5,0.7-1.5,1.5c0,0.8,0.7,1.5,1.5,1.5
		c0.8,0,1.5-0.7,1.5-1.5C105,41.6,104.4,40.9,103.5,40.9 M98.7,40.9c-0.8,0-1.5,0.7-1.5,1.5c0,0.8,0.7,1.5,1.5,1.5
		c0.8,0,1.5-0.7,1.5-1.5C100.2,41.6,99.5,40.9,98.7,40.9 M93.8,40.9c-0.8,0-1.5,0.7-1.5,1.5c0,0.8,0.7,1.5,1.5,1.5
		c0.8,0,1.5-0.7,1.5-1.5C95.3,41.6,94.6,40.9,93.8,40.9 M90.4,42.4c0-0.8-0.7-1.5-1.5-1.5c-0.1,0-0.1,0-0.2,0v3c0.1,0,0.1,0,0.2,0
		C89.7,43.9,90.4,43.2,90.4,42.4 M107.5,37.9c0-0.8-0.7-1.5-1.5-1.5c-0.8,0-1.5,0.7-1.5,1.5c0,0.8,0.7,1.5,1.5,1.5
		C106.8,39.4,107.5,38.7,107.5,37.9 M102.6,37.9c0-0.8-0.7-1.5-1.5-1.5c-0.8,0-1.5,0.7-1.5,1.5c0,0.8,0.7,1.5,1.5,1.5
		C101.9,39.4,102.6,38.7,102.6,37.9 M97.7,37.9c0-0.8-0.7-1.5-1.5-1.5c-0.8,0-1.5,0.7-1.5,1.5c0,0.8,0.7,1.5,1.5,1.5
		C97,39.4,97.7,38.7,97.7,37.9 M92.8,37.9c0-0.8-0.7-1.5-1.5-1.5c-0.8,0-1.5,0.7-1.5,1.5c0,0.8,0.7,1.5,1.5,1.5
		C92.2,39.4,92.8,38.7,92.8,37.9 M106.9,33.4c0,0.8,0.7,1.5,1.5,1.5c0.8,0,1.5-0.7,1.5-1.5s-0.7-1.5-1.5-1.5
		C107.6,31.9,106.9,32.5,106.9,33.4 M103.5,34.9c0.8,0,1.5-0.7,1.5-1.5s-0.7-1.5-1.5-1.5c-0.8,0-1.5,0.7-1.5,1.5
		S102.7,34.9,103.5,34.9 M98.7,34.9c0.8,0,1.5-0.7,1.5-1.5s-0.7-1.5-1.5-1.5c-0.8,0-1.5,0.7-1.5,1.5S97.8,34.9,98.7,34.9 M93.8,34.9
		c0.8,0,1.5-0.7,1.5-1.5s-0.7-1.5-1.5-1.5c-0.8,0-1.5,0.7-1.5,1.5S92.9,34.9,93.8,34.9 M90.4,33.4c0-0.8-0.7-1.5-1.5-1.5
		c-0.1,0-0.1,0-0.2,0v3c0.1,0,0.1,0,0.2,0C89.7,34.9,90.4,34.2,90.4,33.4 M104.5,28.8c0,0.8,0.7,1.5,1.5,1.5c0.8,0,1.5-0.7,1.5-1.5
		c0-0.8-0.7-1.5-1.5-1.5C105.2,27.3,104.5,28,104.5,28.8 M99.6,28.8c0,0.8,0.7,1.5,1.5,1.5c0.8,0,1.5-0.7,1.5-1.5
		c0-0.8-0.7-1.5-1.5-1.5C100.3,27.3,99.6,28,99.6,28.8 M94.7,28.8c0,0.8,0.7,1.5,1.5,1.5c0.8,0,1.5-0.7,1.5-1.5
		c0-0.8-0.7-1.5-1.5-1.5C95.4,27.3,94.7,28,94.7,28.8 M89.8,28.8c0,0.8,0.7,1.5,1.5,1.5c0.8,0,1.5-0.7,1.5-1.5
		c0-0.8-0.7-1.5-1.5-1.5C90.5,27.3,89.8,28,89.8,28.8 M108.4,25.8c0.8,0,1.5-0.7,1.5-1.5c0-0.8-0.7-1.5-1.5-1.5
		c-0.8,0-1.5,0.7-1.5,1.5C106.9,25.2,107.6,25.8,108.4,25.8 M103.5,25.8c0.8,0,1.5-0.7,1.5-1.5c0-0.8-0.7-1.5-1.5-1.5
		c-0.8,0-1.5,0.7-1.5,1.5C102,25.2,102.7,25.8,103.5,25.8 M98.7,25.8c0.8,0,1.5-0.7,1.5-1.5c0-0.8-0.7-1.5-1.5-1.5
		c-0.8,0-1.5,0.7-1.5,1.5C97.2,25.2,97.8,25.8,98.7,25.8 M93.8,25.8c0.8,0,1.5-0.7,1.5-1.5c0-0.8-0.7-1.5-1.5-1.5
		c-0.8,0-1.5,0.7-1.5,1.5C92.3,25.2,92.9,25.8,93.8,25.8 M90.4,24.3c0-0.8-0.7-1.5-1.5-1.5c-0.1,0-0.1,0-0.2,0v3c0.1,0,0.1,0,0.2,0
		C89.7,25.8,90.4,25.2,90.4,24.3 M109.4,37.9c0,0.8,0.7,1.5,1.5,1.5c0,0,0,0,0,0v-3c0,0,0,0,0,0C110,36.4,109.4,37,109.4,37.9
		 M109.4,28.8c0,0.8,0.7,1.5,1.5,1.5c0,0,0,0,0,0v-3c0,0,0,0,0,0C110,27.3,109.4,28,109.4,28.8 M88.7,22.2h22.2v22.2H88.7V22.2z"/>
	<path clip-path="url(#SVGID_4_)" fill="#EF4135" d="M42.4,40.1l2-4v-0.5h-2h-2.2L42.4,40.1z M28.9,31.2h-2.2l2.2,4.5l2.2-4.5H28.9z
		 M42.4,31.2l2-4v-0.5h-2h-2.2L42.4,31.2z M42.4,35.6l2-4v-0.5h-2h-2.2L42.4,35.6z M26.7,35.6l2.2,4.5l2.2-4.5h-2.2H26.7z
		 M35.6,40.1l2.1,4.2H38l2.1-4.2h-2.2H35.6z M31.2,40.1l2.1,4.2h0.2l2.1-4.2h-2.2H31.2z M26.7,40.1l2.1,4.2H29l2.1-4.2h-2.2H26.7z
		 M42.2,44.4h0.2l1.9-3.7v-0.5h-2h-2.2L42.2,44.4z M24.4,31.2h-2.2l2.2,4.5l2.2-4.5H24.4z M22.2,40.1l2.1,4.2h0.2l2.1-4.2h-2.2H22.2
		z M24.4,35.6h-2.2l2.2,4.5l2.2-4.5H24.4z M24.4,26.7h-2.2l2.2,4.5l2.2-4.5H24.4z M22.2,22.2l2.2,4.5l2.2-4.5H22.2z M44.4,22.2h-4.2
		l2.2,4.5l2-4V22.2z M40.1,22.2h-4.5l2.2,4.5L40.1,22.2z M31.2,22.2h-4.5l2.2,4.5L31.2,22.2z M35.6,22.2h-4.5l2.2,4.5L35.6,22.2z
		 M37.9,31.2l2.2-4.5h-2.2h-2.2L37.9,31.2z M35.6,26.7h-2.2h-2.2l2.2,4.5L35.6,26.7z M37.9,35.6l2.2-4.5h-2.2h-2.2L37.9,35.6z
		 M33.4,35.6l2.2-4.5h-2.2h-2.2L33.4,35.6z M37.9,40.1l2.2-4.5h-2.2h-2.2L37.9,40.1z M31.2,35.6l2.2,4.5l2.2-4.5h-2.2H31.2z
		 M28.9,26.7h-2.2l2.2,4.5l2.2-4.5H28.9z M22.2,22.2h22.2v22.2H22.2V22.2z"/>
	<path clip-path="url(#SVGID_4_)" fill="#BB6CAC" d="M86,42.4c-0.6,0-0.8-0.1-1.2-0.3c-0.5-0.2-1.1-0.5-2.1-0.5
		c-1.1,0-1.7,0.3-2.1,0.5c-0.4,0.2-0.6,0.3-1.2,0.3c-0.6,0-0.8-0.1-1.2-0.3c-0.5-0.2-1.1-0.5-2.1-0.5c-1.1,0-1.7,0.3-2.1,0.5
		c-0.4,0.2-0.6,0.3-1.2,0.3c-0.6,0-0.8-0.1-1.2-0.3c-0.5-0.2-1.1-0.5-2.1-0.5c-1.1,0-1.7,0.3-2.1,0.5c-0.3,0.1-0.5,0.2-0.8,0.3v2
		h0.7c0.4-0.1,0.7-0.2,1-0.4c0.4-0.2,0.6-0.3,1.2-0.3c0.6,0,0.8,0.1,1.2,0.3c0.3,0.1,0.6,0.3,1,0.4h2.2c0.4-0.1,0.7-0.2,1-0.4
		c0.4-0.2,0.6-0.3,1.2-0.3c0.6,0,0.8,0.1,1.2,0.3c0.3,0.1,0.6,0.3,1,0.4h2.2c0.4-0.1,0.7-0.2,1-0.4c0.4-0.2,0.6-0.3,1.2-0.3
		c0.6,0,0.8,0.1,1.2,0.3c0.3,0.1,0.6,0.3,1,0.4h2.2c0.4-0.1,0.8-0.2,1-0.4c0.2-0.1,0.4-0.2,0.6-0.2v-2.1c-0.7,0.1-1.2,0.3-1.6,0.5
		C86.8,42.3,86.5,42.4,86,42.4 M86,37.5c-0.6,0-0.8-0.1-1.2-0.3c-0.5-0.2-1.1-0.5-2.1-0.5c-1.1,0-1.7,0.3-2.1,0.5
		c-0.4,0.2-0.6,0.3-1.2,0.3c-0.6,0-0.8-0.1-1.2-0.3c-0.5-0.2-1.1-0.5-2.1-0.5c-1.1,0-1.7,0.3-2.1,0.5c-0.4,0.2-0.6,0.3-1.2,0.3
		c-0.6,0-0.8-0.1-1.2-0.3c-0.5-0.2-1.1-0.5-2.1-0.5c-1.1,0-1.7,0.3-2.1,0.5c-0.3,0.1-0.5,0.2-0.8,0.3v2.1c0.8-0.1,1.3-0.3,1.7-0.5
		c0.4-0.2,0.6-0.3,1.2-0.3c0.6,0,0.8,0.1,1.2,0.3c0.5,0.2,1.1,0.5,2.1,0.5c1.1,0,1.7-0.3,2.1-0.5c0.4-0.2,0.6-0.3,1.2-0.3
		c0.6,0,0.8,0.1,1.2,0.3c0.5,0.2,1.1,0.5,2.1,0.5c1.1,0,1.7-0.3,2.1-0.5c0.4-0.2,0.6-0.3,1.2-0.3c0.6,0,0.8,0.1,1.2,0.3
		c0.5,0.2,1.1,0.5,2.1,0.5c1.1,0,1.7-0.3,2.1-0.5c0.2-0.1,0.4-0.2,0.6-0.2v-2.1c-0.7,0.1-1.2,0.3-1.6,0.5
		C86.8,37.4,86.5,37.5,86,37.5 M86,32.7c-0.6,0-0.8-0.1-1.2-0.3c-0.5-0.2-1.1-0.5-2.1-0.5c-1.1,0-1.7,0.3-2.1,0.5
		c-0.4,0.2-0.6,0.3-1.2,0.3c-0.6,0-0.8-0.1-1.2-0.3c-0.5-0.2-1.1-0.5-2.1-0.5c-1.1,0-1.7,0.3-2.1,0.5c-0.4,0.2-0.6,0.3-1.2,0.3
		c-0.6,0-0.8-0.1-1.2-0.3c-0.5-0.2-1.1-0.5-2.1-0.5c-1.1,0-1.7,0.3-2.1,0.5c-0.3,0.1-0.5,0.2-0.8,0.3v2.1c0.8-0.1,1.3-0.3,1.7-0.5
		c0.4-0.2,0.6-0.3,1.2-0.3c0.6,0,0.8,0.1,1.2,0.3c0.5,0.2,1.1,0.5,2.1,0.5c1.1,0,1.7-0.3,2.1-0.5c0.4-0.2,0.6-0.3,1.2-0.3
		c0.6,0,0.8,0.1,1.2,0.3c0.5,0.2,1.1,0.5,2.1,0.5c1.1,0,1.7-0.3,2.1-0.5c0.4-0.2,0.6-0.3,1.2-0.3c0.6,0,0.8,0.1,1.2,0.3
		c0.5,0.2,1.1,0.5,2.1,0.5c1.1,0,1.7-0.3,2.1-0.5c0.2-0.1,0.4-0.2,0.6-0.2V32c-0.7,0.1-1.2,0.3-1.6,0.5C86.8,32.6,86.5,32.7,86,32.7
		 M86,27.8c-0.6,0-0.8-0.1-1.2-0.3c-0.5-0.2-1.1-0.5-2.1-0.5c-1.1,0-1.7,0.3-2.1,0.5c-0.4,0.2-0.6,0.3-1.2,0.3
		c-0.6,0-0.8-0.1-1.2-0.3c-0.5-0.2-1.1-0.5-2.1-0.5c-1.1,0-1.7,0.3-2.1,0.5c-0.4,0.2-0.6,0.3-1.2,0.3c-0.6,0-0.8-0.1-1.2-0.3
		c-0.5-0.2-1.1-0.5-2.1-0.5c-1.1,0-1.7,0.3-2.1,0.5c-0.3,0.1-0.5,0.2-0.8,0.3v2.1c0.8-0.1,1.3-0.3,1.7-0.5c0.4-0.2,0.6-0.3,1.2-0.3
		c0.6,0,0.8,0.1,1.2,0.3c0.5,0.2,1.1,0.5,2.1,0.5c1.1,0,1.7-0.3,2.1-0.5c0.4-0.2,0.6-0.3,1.2-0.3c0.6,0,0.8,0.1,1.2,0.3
		c0.5,0.2,1.1,0.5,2.1,0.5c1.1,0,1.7-0.3,2.1-0.5c0.4-0.2,0.6-0.3,1.2-0.3c0.6,0,0.8,0.1,1.2,0.3c0.5,0.2,1.1,0.5,2.1,0.5
		c1.1,0,1.7-0.3,2.1-0.5c0.2-0.1,0.4-0.2,0.6-0.2v-2.1c-0.7,0.1-1.2,0.3-1.6,0.5C86.8,27.7,86.5,27.8,86,27.8 M86,23
		c-0.6,0-0.8-0.1-1.2-0.3c-0.5-0.2-1.1-0.5-2.1-0.5c-1.1,0-1.7,0.3-2.1,0.5c-0.4,0.2-0.6,0.3-1.2,0.3c-0.6,0-0.8-0.1-1.2-0.3
		c-0.5-0.2-1.1-0.5-2.1-0.5c-1.1,0-1.7,0.3-2.1,0.5c-0.4,0.2-0.6,0.3-1.2,0.3c-0.6,0-0.8-0.1-1.2-0.3c-0.5-0.2-1.1-0.5-2.1-0.5
		c-1.1,0-1.7,0.3-2.1,0.5c-0.3,0.1-0.5,0.2-0.8,0.3v2.1c0.8-0.1,1.3-0.3,1.7-0.5c0.4-0.2,0.6-0.3,1.2-0.3c0.6,0,0.8,0.1,1.2,0.3
		c0.5,0.2,1.1,0.5,2.1,0.5c1.1,0,1.7-0.3,2.1-0.5c0.4-0.2,0.6-0.3,1.2-0.3c0.6,0,0.8,0.1,1.2,0.3c0.5,0.2,1.1,0.5,2.1,0.5
		c1.1,0,1.7-0.3,2.1-0.5c0.4-0.2,0.6-0.3,1.2-0.3c0.6,0,0.8,0.1,1.2,0.3c0.5,0.2,1.1,0.5,2.1,0.5c1.1,0,1.7-0.3,2.1-0.5
		c0.2-0.1,0.4-0.2,0.6-0.2v-2.1c-0.7,0.1-1.2,0.3-1.6,0.5C86.8,22.9,86.5,23,86,23 M66.5,22.2h22.2v22.2H66.5V22.2z"/>
	<path clip-path="url(#SVGID_4_)" fill="#00B5CC" d="M84.7,64.6c0,0.8,0.7,1.5,1.5,1.5c0.8,0,1.5-0.7,1.5-1.5c0-0.8-0.7-1.5-1.5-1.5
		C85.4,63.1,84.7,63.7,84.7,64.6 M81.4,63.1c-0.8,0-1.5,0.7-1.5,1.5c0,0.8,0.7,1.5,1.5,1.5s1.5-0.7,1.5-1.5
		C82.9,63.7,82.2,63.1,81.4,63.1 M76.5,63.1c-0.8,0-1.5,0.7-1.5,1.5c0,0.8,0.7,1.5,1.5,1.5s1.5-0.7,1.5-1.5
		C78,63.7,77.3,63.1,76.5,63.1 M71.6,63.1c-0.8,0-1.5,0.7-1.5,1.5c0,0.8,0.7,1.5,1.5,1.5c0.8,0,1.5-0.7,1.5-1.5
		C73.1,63.7,72.4,63.1,71.6,63.1 M68.2,64.6c0-0.8-0.7-1.5-1.5-1.5c-0.1,0-0.1,0-0.2,0v3c0.1,0,0.1,0,0.2,0
		C67.5,66.1,68.2,65.4,68.2,64.6 M85.3,60.1c0-0.8-0.7-1.5-1.5-1.5c-0.8,0-1.5,0.7-1.5,1.5c0,0.8,0.7,1.5,1.5,1.5
		C84.6,61.6,85.3,60.9,85.3,60.1 M80.4,60.1c0-0.8-0.7-1.5-1.5-1.5s-1.5,0.7-1.5,1.5c0,0.8,0.7,1.5,1.5,1.5S80.4,60.9,80.4,60.1
		 M75.5,60.1c0-0.8-0.7-1.5-1.5-1.5c-0.8,0-1.5,0.7-1.5,1.5c0,0.8,0.7,1.5,1.5,1.5C74.9,61.6,75.5,60.9,75.5,60.1 M70.6,60.1
		c0-0.8-0.7-1.5-1.5-1.5c-0.8,0-1.5,0.7-1.5,1.5c0,0.8,0.7,1.5,1.5,1.5C70,61.6,70.6,60.9,70.6,60.1 M84.7,55.5
		c0,0.8,0.7,1.5,1.5,1.5c0.8,0,1.5-0.7,1.5-1.5c0-0.8-0.7-1.5-1.5-1.5C85.4,54,84.7,54.7,84.7,55.5 M81.4,57c0.8,0,1.5-0.7,1.5-1.5
		c0-0.8-0.7-1.5-1.5-1.5s-1.5,0.7-1.5,1.5C79.9,56.4,80.5,57,81.4,57 M76.5,57c0.8,0,1.5-0.7,1.5-1.5c0-0.8-0.7-1.5-1.5-1.5
		S75,54.7,75,55.5C75,56.4,75.6,57,76.5,57 M71.6,57c0.8,0,1.5-0.7,1.5-1.5c0-0.8-0.7-1.5-1.5-1.5c-0.8,0-1.5,0.7-1.5,1.5
		C70.1,56.4,70.8,57,71.6,57 M68.2,55.5c0-0.8-0.7-1.5-1.5-1.5c-0.1,0-0.1,0-0.2,0v3c0.1,0,0.1,0,0.2,0C67.5,57,68.2,56.4,68.2,55.5
		 M82.3,51c0,0.8,0.7,1.5,1.5,1.5c0.8,0,1.5-0.7,1.5-1.5c0-0.8-0.7-1.5-1.5-1.5C83,49.5,82.3,50.2,82.3,51 M77.4,51
		c0,0.8,0.7,1.5,1.5,1.5s1.5-0.7,1.5-1.5c0-0.8-0.7-1.5-1.5-1.5S77.4,50.2,77.4,51 M72.5,51c0,0.8,0.7,1.5,1.5,1.5
		c0.8,0,1.5-0.7,1.5-1.5c0-0.8-0.7-1.5-1.5-1.5C73.2,49.5,72.5,50.2,72.5,51 M67.6,51c0,0.8,0.7,1.5,1.5,1.5c0.8,0,1.5-0.7,1.5-1.5
		c0-0.8-0.7-1.5-1.5-1.5C68.3,49.5,67.6,50.2,67.6,51 M86.2,48c0.8,0,1.5-0.7,1.5-1.5c0-0.8-0.7-1.5-1.5-1.5c-0.8,0-1.5,0.7-1.5,1.5
		C84.7,47.4,85.4,48,86.2,48 M81.4,48c0.8,0,1.5-0.7,1.5-1.5c0-0.8-0.7-1.5-1.5-1.5s-1.5,0.7-1.5,1.5C79.9,47.4,80.5,48,81.4,48
		 M76.5,48c0.8,0,1.5-0.7,1.5-1.5c0-0.8-0.7-1.5-1.5-1.5S75,45.7,75,46.5C75,47.4,75.6,48,76.5,48 M71.6,48c0.8,0,1.5-0.7,1.5-1.5
		c0-0.8-0.7-1.5-1.5-1.5c-0.8,0-1.5,0.7-1.5,1.5C70.1,47.4,70.8,48,71.6,48 M68.2,46.5c0-0.8-0.7-1.5-1.5-1.5c-0.1,0-0.1,0-0.2,0v3
		c0.1,0,0.1,0,0.2,0C67.5,48,68.2,47.4,68.2,46.5 M87.2,60.1c0,0.8,0.7,1.5,1.5,1.5c0,0,0,0,0,0v-3c0,0,0,0,0,0
		C87.9,58.5,87.2,59.2,87.2,60.1 M87.2,51c0,0.8,0.7,1.5,1.5,1.5c0,0,0,0,0,0v-3c0,0,0,0,0,0C87.9,49.5,87.2,50.2,87.2,51
		 M66.5,44.4h22.2v22.2H66.5V44.4z"/>
	<path clip-path="url(#SVGID_4_)" fill="#EF4135" d="M20.2,62.3l2-4v-0.5h-2h-2.2L20.2,62.3z M6.7,53.3H4.5l2.2,4.5L9,53.3H6.7z
		 M20.2,53.3l2-4v-0.5h-2h-2.2L20.2,53.3z M20.2,57.8l2-4v-0.5h-2h-2.2L20.2,57.8z M4.5,57.8l2.2,4.5L9,57.8H6.7H4.5z M13.5,62.3
		l2.1,4.2h0.2l2.1-4.2h-2.2H13.5z M9,62.3l2.1,4.2h0.2l2.1-4.2h-2.2H9z M4.5,62.3l2.1,4.2h0.2L9,62.3H6.7H4.5z M20.1,66.6h0.2
		l1.9-3.7v-0.5h-2h-2.2L20.1,66.6z M2.2,53.3H0l2.2,4.5l2.2-4.5H2.2z M0,62.3l2.1,4.2h0.2l2.1-4.2H2.2H0z M2.2,57.8H0l2.2,4.5
		l2.2-4.5H2.2z M2.2,48.9H0l2.2,4.5l2.2-4.5H2.2z M0,44.4l2.2,4.5l2.2-4.5H0z M22.2,44.4h-4.2l2.2,4.5l2-4V44.4z M17.9,44.4h-4.5
		l2.2,4.5L17.9,44.4z M9,44.4H4.5l2.2,4.5L9,44.4z M13.5,44.4H9l2.2,4.5L13.5,44.4z M15.7,53.3l2.2-4.5h-2.2h-2.2L15.7,53.3z
		 M13.5,48.9h-2.2H9l2.2,4.5L13.5,48.9z M15.7,57.8l2.2-4.5h-2.2h-2.2L15.7,57.8z M11.2,57.8l2.2-4.5h-2.2H9L11.2,57.8z M15.7,62.3
		l2.2-4.5h-2.2h-2.2L15.7,62.3z M9,57.8l2.2,4.5l2.2-4.5h-2.2H9z M6.7,48.9H4.5l2.2,4.5L9,48.9H6.7z M0,44.4h22.2v22.2H0V44.4z"/>
	<path clip-path="url(#SVGID_4_)" fill="#EF4135" d="M108.9,84.5l2-4V80h-2h-2.2L108.9,84.5z M95.5,75.5h-2.2l2.2,4.5l2.2-4.5H95.5z
		 M108.9,75.5l2-4V71h-2h-2.2L108.9,75.5z M108.9,80l2-4v-0.5h-2h-2.2L108.9,80z M93.2,80l2.2,4.5l2.2-4.5h-2.2H93.2z M102.2,84.5
		l2.1,4.2h0.2l2.1-4.2h-2.2H102.2z M97.7,84.5l2.1,4.2h0.2l2.1-4.2h-2.2H97.7z M93.2,84.5l2.1,4.2h0.2l2.1-4.2h-2.2H93.2z
		 M108.8,88.7h0.2l1.9-3.7v-0.5h-2h-2.2L108.8,88.7z M91,75.5h-2.2L91,80l2.2-4.5H91z M88.7,84.5l2.1,4.2h0.2l2.1-4.2H91H88.7z
		 M91,80h-2.2l2.2,4.5l2.2-4.5H91z M91,71h-2.2l2.2,4.5l2.2-4.5H91z M88.7,66.6L91,71l2.2-4.5H88.7z M110.9,66.6h-4.2l2.2,4.5l2-4
		V66.6z M106.7,66.6h-4.5l2.2,4.5L106.7,66.6z M97.7,66.6h-4.5l2.2,4.5L97.7,66.6z M102.2,66.6h-4.5l2.2,4.5L102.2,66.6z
		 M104.4,75.5l2.2-4.5h-2.2h-2.2L104.4,75.5z M102.2,71h-2.2h-2.2l2.2,4.5L102.2,71z M104.4,80l2.2-4.5h-2.2h-2.2L104.4,80z
		 M99.9,80l2.2-4.5h-2.2h-2.2L99.9,80z M104.4,84.5l2.2-4.5h-2.2h-2.2L104.4,84.5z M97.7,80l2.2,4.5l2.2-4.5h-2.2H97.7z M95.5,71
		h-2.2l2.2,4.5l2.2-4.5H95.5z M88.7,66.6h22.2v22.2H88.7V66.6z"/>
	<path clip-path="url(#SVGID_4_)" fill="#BB6CAC" d="M63.8,64.6c-0.6,0-0.8-0.1-1.2-0.3c-0.5-0.2-1.1-0.5-2.1-0.5
		c-1.1,0-1.7,0.3-2.1,0.5c-0.4,0.2-0.6,0.3-1.2,0.3c-0.6,0-0.8-0.1-1.2-0.3c-0.5-0.2-1.1-0.5-2.1-0.5c-1.1,0-1.7,0.3-2.1,0.5
		c-0.4,0.2-0.6,0.3-1.2,0.3c-0.6,0-0.8-0.1-1.2-0.3c-0.5-0.2-1.1-0.5-2.1-0.5c-1.1,0-1.7,0.3-2.1,0.5c-0.3,0.1-0.5,0.2-0.8,0.3v2
		h0.7c0.4-0.1,0.8-0.2,1-0.4c0.4-0.2,0.6-0.3,1.2-0.3c0.6,0,0.8,0.1,1.2,0.3c0.3,0.1,0.6,0.3,1,0.4h2.2c0.4-0.1,0.8-0.2,1-0.4
		c0.4-0.2,0.6-0.3,1.2-0.3c0.6,0,0.8,0.1,1.2,0.3c0.3,0.1,0.6,0.3,1,0.4h2.2c0.4-0.1,0.7-0.2,1-0.4c0.4-0.2,0.6-0.3,1.2-0.3
		c0.6,0,0.8,0.1,1.2,0.3c0.3,0.1,0.6,0.3,1,0.4h2.2c0.4-0.1,0.8-0.2,1-0.4c0.2-0.1,0.4-0.2,0.6-0.2v-2.1c-0.7,0.1-1.2,0.3-1.6,0.5
		C64.6,64.4,64.4,64.6,63.8,64.6 M63.8,59.7c-0.6,0-0.8-0.1-1.2-0.3c-0.5-0.2-1.1-0.5-2.1-0.5c-1.1,0-1.7,0.3-2.1,0.5
		c-0.4,0.2-0.6,0.3-1.2,0.3c-0.6,0-0.8-0.1-1.2-0.3c-0.5-0.2-1.1-0.5-2.1-0.5c-1.1,0-1.7,0.3-2.1,0.5c-0.4,0.2-0.6,0.3-1.2,0.3
		c-0.6,0-0.8-0.1-1.2-0.3c-0.5-0.2-1.1-0.5-2.1-0.5c-1.1,0-1.7,0.3-2.1,0.5c-0.3,0.1-0.5,0.2-0.8,0.3v2.1c0.8-0.1,1.3-0.3,1.7-0.5
		c0.4-0.2,0.6-0.3,1.2-0.3c0.6,0,0.8,0.1,1.2,0.3c0.5,0.2,1.1,0.5,2.1,0.5c1.1,0,1.7-0.3,2.1-0.5c0.4-0.2,0.6-0.3,1.2-0.3
		c0.6,0,0.8,0.1,1.2,0.3c0.5,0.2,1.1,0.5,2.1,0.5c1.1,0,1.7-0.3,2.1-0.5c0.4-0.2,0.6-0.3,1.2-0.3c0.6,0,0.8,0.1,1.2,0.3
		c0.5,0.2,1.1,0.5,2.1,0.5c1.1,0,1.7-0.3,2.1-0.5c0.2-0.1,0.4-0.2,0.6-0.2V59c-0.7,0.1-1.2,0.3-1.6,0.5
		C64.6,59.6,64.4,59.7,63.8,59.7 M63.8,54.9c-0.6,0-0.8-0.1-1.2-0.3c-0.5-0.2-1.1-0.5-2.1-0.5c-1.1,0-1.7,0.3-2.1,0.5
		c-0.4,0.2-0.6,0.3-1.2,0.3c-0.6,0-0.8-0.1-1.2-0.3c-0.5-0.2-1.1-0.5-2.1-0.5c-1.1,0-1.7,0.3-2.1,0.5c-0.4,0.2-0.6,0.3-1.2,0.3
		c-0.6,0-0.8-0.1-1.2-0.3c-0.5-0.2-1.1-0.5-2.1-0.5c-1.1,0-1.7,0.3-2.1,0.5c-0.3,0.1-0.5,0.2-0.8,0.3V57c0.8-0.1,1.3-0.3,1.7-0.5
		c0.4-0.2,0.6-0.3,1.2-0.3c0.6,0,0.8,0.1,1.2,0.3c0.5,0.2,1.1,0.5,2.1,0.5c1.1,0,1.7-0.3,2.1-0.5c0.4-0.2,0.6-0.3,1.2-0.3
		c0.6,0,0.8,0.1,1.2,0.3c0.5,0.2,1.1,0.5,2.1,0.5c1.1,0,1.7-0.3,2.1-0.5c0.4-0.2,0.6-0.3,1.2-0.3c0.6,0,0.8,0.1,1.2,0.3
		c0.5,0.2,1.1,0.5,2.1,0.5c1.1,0,1.7-0.3,2.1-0.5c0.2-0.1,0.4-0.2,0.6-0.2v-2.1c-0.7,0.1-1.2,0.3-1.6,0.5
		C64.6,54.8,64.4,54.9,63.8,54.9 M63.8,50c-0.6,0-0.8-0.1-1.2-0.3c-0.5-0.2-1.1-0.5-2.1-0.5c-1.1,0-1.7,0.3-2.1,0.5
		C58,49.9,57.7,50,57.2,50c-0.6,0-0.8-0.1-1.2-0.3c-0.5-0.2-1.1-0.5-2.1-0.5c-1.1,0-1.7,0.3-2.1,0.5c-0.4,0.2-0.6,0.3-1.2,0.3
		c-0.6,0-0.8-0.1-1.2-0.3c-0.5-0.2-1.1-0.5-2.1-0.5c-1.1,0-1.7,0.3-2.1,0.5c-0.3,0.1-0.5,0.2-0.8,0.3v2.1c0.8-0.1,1.3-0.3,1.7-0.5
		c0.4-0.2,0.6-0.3,1.2-0.3c0.6,0,0.8,0.1,1.2,0.3c0.5,0.2,1.1,0.5,2.1,0.5c1.1,0,1.7-0.3,2.1-0.5c0.4-0.2,0.6-0.3,1.2-0.3
		c0.6,0,0.8,0.1,1.2,0.3c0.5,0.2,1.1,0.5,2.1,0.5c1.1,0,1.7-0.3,2.1-0.5c0.4-0.2,0.6-0.3,1.2-0.3c0.6,0,0.8,0.1,1.2,0.3
		c0.5,0.2,1.1,0.5,2.1,0.5c1.1,0,1.7-0.3,2.1-0.5c0.2-0.1,0.4-0.2,0.6-0.2v-2.1c-0.7,0.1-1.2,0.3-1.6,0.5C64.6,49.9,64.4,50,63.8,50
		 M63.8,45.2c-0.6,0-0.8-0.1-1.2-0.3c-0.5-0.2-1.1-0.5-2.1-0.5c-1.1,0-1.7,0.3-2.1,0.5c-0.4,0.2-0.6,0.3-1.2,0.3
		c-0.6,0-0.8-0.1-1.2-0.3c-0.5-0.2-1.1-0.5-2.1-0.5c-1.1,0-1.7,0.3-2.1,0.5c-0.4,0.2-0.6,0.3-1.2,0.3c-0.6,0-0.8-0.1-1.2-0.3
		c-0.5-0.2-1.1-0.5-2.1-0.5c-1.1,0-1.7,0.3-2.1,0.5c-0.3,0.1-0.5,0.2-0.8,0.3v2.1c0.8-0.1,1.3-0.3,1.7-0.5c0.4-0.2,0.6-0.3,1.2-0.3
		c0.6,0,0.8,0.1,1.2,0.3c0.5,0.2,1.1,0.5,2.1,0.5c1.1,0,1.7-0.3,2.1-0.5c0.4-0.2,0.6-0.3,1.2-0.3c0.6,0,0.8,0.1,1.2,0.3
		c0.5,0.2,1.1,0.5,2.1,0.5c1.1,0,1.7-0.3,2.1-0.5c0.4-0.2,0.6-0.3,1.2-0.3c0.6,0,0.8,0.1,1.2,0.3c0.5,0.2,1.1,0.5,2.1,0.5
		c1.1,0,1.7-0.3,2.1-0.5c0.2-0.1,0.4-0.2,0.6-0.2v-2.1c-0.7,0.1-1.2,0.3-1.6,0.5C64.6,45.1,64.4,45.2,63.8,45.2 M44.4,44.4h22.2
		v22.2H44.4V44.4z"/>
	<path clip-path="url(#SVGID_4_)" fill="#6CB33F" d="M22.2,41.2v-2.5l-5.4-5.4l5.4-5.4v-2.5l-7.9,7.9L22.2,41.2z M22.2,36.8v-2.5
		l-1-1l1-1v-2.5l-3.5,3.5L22.2,36.8z M14.6,22.2h-2.5l-1,1l-1-1H7.6l3.5,3.5L14.6,22.2z M7.6,44.4h2.5l1-1l1,1h2.5l-3.5-3.5
		L7.6,44.4z M3.2,44.4h2.5l5.4-5.4l5.4,5.4H19l-7.9-7.9L3.2,44.4z M19,22.2h-2.5l-5.4,5.4l-5.4-5.4H3.2l7.9,7.9L19,22.2z M20.9,22.2
		L11.1,32l-9.8-9.8H0v1.2l9.8,9.8L0,43.1v1.2h1.3l9.8-9.9l9.8,9.9h1.2v-1.3l-9.8-9.9l9.8-9.9v-1.2H20.9z M0,29.8v2.5l1,1l-1,1v2.5
		l3.5-3.5L0,29.8z M0,25.4v2.5l5.4,5.4L0,38.7v2.5l7.9-7.9L0,25.4z M0,22.2h22.2v22.2H0V22.2z"/>
	<path clip-path="url(#SVGID_4_)" fill="#6CB33F" d="M110.9,63.4v-2.5l-5.4-5.4l5.4-5.4v-2.5l-7.9,7.9L110.9,63.4z M110.9,58.9v-2.5
		l-1-1l1-1v-2.5l-3.5,3.5L110.9,58.9z M103.3,44.4h-2.5l-1,1l-1-1h-2.5l3.5,3.5L103.3,44.4z M96.3,66.6h2.5l1-1l1,1h2.5L99.8,63
		L96.3,66.6z M91.9,66.6h2.5l5.4-5.4l5.4,5.4h2.5l-7.9-7.9L91.9,66.6z M107.7,44.4h-2.5l-5.4,5.4l-5.4-5.4h-2.5l7.9,7.9L107.7,44.4z
		 M109.6,44.4l-9.8,9.8L90,44.4h-1.3v1.2l9.8,9.8l-9.8,9.8v1.2H90l9.8-9.9l9.8,9.9h1.2v-1.3l-9.8-9.9l9.8-9.9v-1.2H109.6z M88.7,52
		v2.5l1,1l-1,1V59l3.5-3.5L88.7,52z M88.7,47.5V50l5.4,5.4l-5.4,5.4v2.5l7.9-7.9L88.7,47.5z M88.7,44.4h22.2v22.2H88.7V44.4z"/>
	<path clip-path="url(#SVGID_4_)" fill="#00B5CC" d="M62.6,86.7c0,0.8,0.7,1.5,1.5,1.5c0.8,0,1.5-0.7,1.5-1.5c0-0.8-0.7-1.5-1.5-1.5
		C63.2,85.2,62.6,85.9,62.6,86.7 M59.2,85.2c-0.8,0-1.5,0.7-1.5,1.5c0,0.8,0.7,1.5,1.5,1.5c0.8,0,1.5-0.7,1.5-1.5
		C60.7,85.9,60,85.2,59.2,85.2 M54.3,85.2c-0.8,0-1.5,0.7-1.5,1.5c0,0.8,0.7,1.5,1.5,1.5c0.8,0,1.5-0.7,1.5-1.5
		C55.8,85.9,55.1,85.2,54.3,85.2 M49.4,85.2c-0.8,0-1.5,0.7-1.5,1.5c0,0.8,0.7,1.5,1.5,1.5c0.8,0,1.5-0.7,1.5-1.5
		C50.9,85.9,50.2,85.2,49.4,85.2 M46,86.7c0-0.8-0.7-1.5-1.5-1.5c-0.1,0-0.1,0-0.2,0v3c0,0,0.1,0,0.2,0C45.3,88.2,46,87.6,46,86.7
		 M63.1,82.2c0-0.8-0.7-1.5-1.5-1.5c-0.8,0-1.5,0.7-1.5,1.5s0.7,1.5,1.5,1.5C62.5,83.7,63.1,83.1,63.1,82.2 M58.2,82.2
		c0-0.8-0.7-1.5-1.5-1.5c-0.8,0-1.5,0.7-1.5,1.5s0.7,1.5,1.5,1.5C57.6,83.7,58.2,83.1,58.2,82.2 M53.4,82.2c0-0.8-0.7-1.5-1.5-1.5
		c-0.8,0-1.5,0.7-1.5,1.5s0.7,1.5,1.5,1.5C52.7,83.7,53.4,83.1,53.4,82.2 M48.5,82.2c0-0.8-0.7-1.5-1.5-1.5c-0.8,0-1.5,0.7-1.5,1.5
		s0.7,1.5,1.5,1.5C47.8,83.7,48.5,83.1,48.5,82.2 M62.6,77.7c0,0.8,0.7,1.5,1.5,1.5c0.8,0,1.5-0.7,1.5-1.5c0-0.8-0.7-1.5-1.5-1.5
		C63.2,76.2,62.6,76.9,62.6,77.7 M59.2,79.2c0.8,0,1.5-0.7,1.5-1.5c0-0.8-0.7-1.5-1.5-1.5c-0.8,0-1.5,0.7-1.5,1.5
		C57.7,78.6,58.3,79.2,59.2,79.2 M54.3,79.2c0.8,0,1.5-0.7,1.5-1.5c0-0.8-0.7-1.5-1.5-1.5c-0.8,0-1.5,0.7-1.5,1.5
		C52.8,78.6,53.5,79.2,54.3,79.2 M49.4,79.2c0.8,0,1.5-0.7,1.5-1.5c0-0.8-0.7-1.5-1.5-1.5c-0.8,0-1.5,0.7-1.5,1.5
		C47.9,78.6,48.6,79.2,49.4,79.2 M46,77.7c0-0.8-0.7-1.5-1.5-1.5c-0.1,0-0.1,0-0.2,0v3c0,0,0.1,0,0.2,0C45.3,79.2,46,78.6,46,77.7
		 M60.1,73.2c0,0.8,0.7,1.5,1.5,1.5c0.8,0,1.5-0.7,1.5-1.5c0-0.8-0.7-1.5-1.5-1.5C60.8,71.7,60.1,72.4,60.1,73.2 M55.2,73.2
		c0,0.8,0.7,1.5,1.5,1.5c0.8,0,1.5-0.7,1.5-1.5c0-0.8-0.7-1.5-1.5-1.5C55.9,71.7,55.2,72.4,55.2,73.2 M50.3,73.2
		c0,0.8,0.7,1.5,1.5,1.5c0.8,0,1.5-0.7,1.5-1.5c0-0.8-0.7-1.5-1.5-1.5C51,71.7,50.3,72.4,50.3,73.2 M45.5,73.2
		c0,0.8,0.7,1.5,1.5,1.5c0.8,0,1.5-0.7,1.5-1.5c0-0.8-0.7-1.5-1.5-1.5C46.1,71.7,45.5,72.4,45.5,73.2 M64.1,70.2
		c0.8,0,1.5-0.7,1.5-1.5c0-0.8-0.7-1.5-1.5-1.5c-0.8,0-1.5,0.7-1.5,1.5C62.6,69.5,63.2,70.2,64.1,70.2 M59.2,70.2
		c0.8,0,1.5-0.7,1.5-1.5c0-0.8-0.7-1.5-1.5-1.5c-0.8,0-1.5,0.7-1.5,1.5C57.7,69.5,58.3,70.2,59.2,70.2 M54.3,70.2
		c0.8,0,1.5-0.7,1.5-1.5c0-0.8-0.7-1.5-1.5-1.5c-0.8,0-1.5,0.7-1.5,1.5C52.8,69.5,53.5,70.2,54.3,70.2 M49.4,70.2
		c0.8,0,1.5-0.7,1.5-1.5c0-0.8-0.7-1.5-1.5-1.5c-0.8,0-1.5,0.7-1.5,1.5C47.9,69.5,48.6,70.2,49.4,70.2 M46,68.7
		c0-0.8-0.7-1.5-1.5-1.5c-0.1,0-0.1,0-0.2,0v3c0,0,0.1,0,0.2,0C45.3,70.2,46,69.5,46,68.7 M65,82.2c0,0.8,0.7,1.5,1.5,1.5
		c0,0,0,0,0,0v-3c0,0,0,0,0,0C65.7,80.7,65,81.4,65,82.2 M65,73.2c0,0.8,0.7,1.5,1.5,1.5c0,0,0,0,0,0v-3c0,0,0,0,0,0
		C65.7,71.7,65,72.4,65,73.2 M44.4,66.6h22.2v22.2H44.4V66.6z"/>
	<path clip-path="url(#SVGID_4_)" fill="#BB6CAC" d="M41.6,86.7c-0.6,0-0.8-0.1-1.2-0.3C40,86.2,39.4,86,38.3,86
		c-1.1,0-1.7,0.3-2.1,0.5c-0.4,0.2-0.6,0.3-1.2,0.3c-0.6,0-0.8-0.1-1.2-0.3c-0.5-0.2-1.1-0.5-2.1-0.5c-1.1,0-1.7,0.3-2.1,0.5
		c-0.4,0.2-0.6,0.3-1.2,0.3c-0.6,0-0.8-0.1-1.2-0.3c-0.5-0.2-1.1-0.5-2.1-0.5c-1.1,0-1.7,0.3-2.1,0.5c-0.3,0.1-0.5,0.2-0.8,0.3v2
		h0.7c0.4-0.1,0.7-0.2,1-0.4c0.4-0.2,0.6-0.3,1.2-0.3s0.8,0.1,1.2,0.3c0.3,0.1,0.6,0.3,1,0.4h2.2c0.4-0.1,0.8-0.2,1-0.4
		c0.4-0.2,0.6-0.3,1.2-0.3s0.8,0.1,1.2,0.3c0.3,0.1,0.6,0.3,1,0.4h2.2c0.4-0.1,0.8-0.2,1-0.4c0.4-0.2,0.6-0.3,1.2-0.3
		c0.6,0,0.8,0.1,1.2,0.3c0.3,0.1,0.6,0.3,1,0.4h2.2c0.4-0.1,0.8-0.2,1-0.4c0.2-0.1,0.4-0.2,0.6-0.2V86c-0.7,0.1-1.2,0.3-1.6,0.5
		C42.4,86.6,42.2,86.7,41.6,86.7 M41.6,81.9c-0.6,0-0.8-0.1-1.2-0.3c-0.5-0.2-1.1-0.5-2.1-0.5c-1.1,0-1.7,0.3-2.1,0.5
		c-0.4,0.2-0.6,0.3-1.2,0.3c-0.6,0-0.8-0.1-1.2-0.3c-0.5-0.2-1.1-0.5-2.1-0.5c-1.1,0-1.7,0.3-2.1,0.5c-0.4,0.2-0.6,0.3-1.2,0.3
		c-0.6,0-0.8-0.1-1.2-0.3c-0.5-0.2-1.1-0.5-2.1-0.5c-1.1,0-1.7,0.3-2.1,0.5c-0.3,0.1-0.5,0.2-0.8,0.3V84c0.8-0.1,1.3-0.3,1.7-0.5
		c0.4-0.2,0.6-0.3,1.2-0.3s0.8,0.1,1.2,0.3c0.5,0.2,1.1,0.5,2.1,0.5c1.1,0,1.7-0.3,2.1-0.5c0.4-0.2,0.6-0.3,1.2-0.3s0.8,0.1,1.2,0.3
		c0.5,0.2,1.1,0.5,2.1,0.5c1.1,0,1.7-0.3,2.1-0.5c0.4-0.2,0.6-0.3,1.2-0.3c0.6,0,0.8,0.1,1.2,0.3c0.5,0.2,1.1,0.5,2.1,0.5
		s1.7-0.3,2.1-0.5c0.2-0.1,0.4-0.2,0.6-0.2v-2.1c-0.7,0.1-1.2,0.3-1.6,0.5C42.4,81.8,42.2,81.9,41.6,81.9 M41.6,77.1
		c-0.6,0-0.8-0.1-1.2-0.3c-0.5-0.2-1.1-0.5-2.1-0.5c-1.1,0-1.7,0.3-2.1,0.5c-0.4,0.2-0.6,0.3-1.2,0.3c-0.6,0-0.8-0.1-1.2-0.3
		c-0.5-0.2-1.1-0.5-2.1-0.5c-1.1,0-1.7,0.3-2.1,0.5c-0.4,0.2-0.6,0.3-1.2,0.3c-0.6,0-0.8-0.1-1.2-0.3c-0.5-0.2-1.1-0.5-2.1-0.5
		c-1.1,0-1.7,0.3-2.1,0.5c-0.3,0.1-0.5,0.2-0.8,0.3v2.1c0.8-0.1,1.3-0.3,1.7-0.5c0.4-0.2,0.6-0.3,1.2-0.3s0.8,0.1,1.2,0.3
		c0.5,0.2,1.1,0.5,2.1,0.5c1.1,0,1.7-0.3,2.1-0.5c0.4-0.2,0.6-0.3,1.2-0.3s0.8,0.1,1.2,0.3c0.5,0.2,1.1,0.5,2.1,0.5
		c1.1,0,1.7-0.3,2.1-0.5c0.4-0.2,0.6-0.3,1.2-0.3c0.6,0,0.8,0.1,1.2,0.3c0.5,0.2,1.1,0.5,2.1,0.5s1.7-0.3,2.1-0.5
		c0.2-0.1,0.4-0.2,0.6-0.2v-2.1c-0.7,0.1-1.2,0.3-1.6,0.5C42.4,76.9,42.2,77.1,41.6,77.1 M41.6,72.2c-0.6,0-0.8-0.1-1.2-0.3
		c-0.5-0.2-1.1-0.5-2.1-0.5c-1.1,0-1.7,0.3-2.1,0.5c-0.4,0.2-0.6,0.3-1.2,0.3c-0.6,0-0.8-0.1-1.2-0.3c-0.5-0.2-1.1-0.5-2.1-0.5
		c-1.1,0-1.7,0.3-2.1,0.5c-0.4,0.2-0.6,0.3-1.2,0.3c-0.6,0-0.8-0.1-1.2-0.3c-0.5-0.2-1.1-0.5-2.1-0.5c-1.1,0-1.7,0.3-2.1,0.5
		c-0.3,0.1-0.5,0.2-0.8,0.3v2.1c0.8-0.1,1.3-0.3,1.7-0.5c0.4-0.2,0.6-0.3,1.2-0.3s0.8,0.1,1.2,0.3c0.5,0.2,1.1,0.5,2.1,0.5
		c1.1,0,1.7-0.3,2.1-0.5c0.4-0.2,0.6-0.3,1.2-0.3s0.8,0.1,1.2,0.3c0.5,0.2,1.1,0.5,2.1,0.5c1.1,0,1.7-0.3,2.1-0.5
		c0.4-0.2,0.6-0.3,1.2-0.3c0.6,0,0.8,0.1,1.2,0.3c0.5,0.2,1.1,0.5,2.1,0.5s1.7-0.3,2.1-0.5c0.2-0.1,0.4-0.2,0.6-0.2v-2.1
		c-0.7,0.1-1.2,0.3-1.6,0.5C42.4,72.1,42.2,72.2,41.6,72.2 M41.6,67.4c-0.6,0-0.8-0.1-1.2-0.3c-0.5-0.2-1.1-0.5-2.1-0.5
		c-1.1,0-1.7,0.3-2.1,0.5c-0.4,0.2-0.6,0.3-1.2,0.3c-0.6,0-0.8-0.1-1.2-0.3c-0.5-0.2-1.1-0.5-2.1-0.5c-1.1,0-1.7,0.3-2.1,0.5
		c-0.4,0.2-0.6,0.3-1.2,0.3c-0.6,0-0.8-0.1-1.2-0.3c-0.5-0.2-1.1-0.5-2.1-0.5c-1.1,0-1.7,0.3-2.1,0.5c-0.3,0.1-0.5,0.2-0.8,0.3v2.1
		c0.8-0.1,1.3-0.3,1.7-0.5c0.4-0.2,0.6-0.3,1.2-0.3s0.8,0.1,1.2,0.3c0.5,0.2,1.1,0.5,2.1,0.5c1.1,0,1.7-0.3,2.1-0.5
		c0.4-0.2,0.6-0.3,1.2-0.3s0.8,0.1,1.2,0.3c0.5,0.2,1.1,0.5,2.1,0.5c1.1,0,1.7-0.3,2.1-0.5c0.4-0.2,0.6-0.3,1.2-0.3
		c0.6,0,0.8,0.1,1.2,0.3c0.5,0.2,1.1,0.5,2.1,0.5s1.7-0.3,2.1-0.5c0.2-0.1,0.4-0.2,0.6-0.2v-2.1c-0.7,0.1-1.2,0.3-1.6,0.5
		C42.4,67.3,42.2,67.4,41.6,67.4 M22.2,66.6h22.2v22.2H22.2V66.6z"/>
	<path clip-path="url(#SVGID_4_)" fill="#6CB33F" d="M88.7,85.6v-2.5l-5.4-5.4l5.4-5.4v-2.5l-7.9,7.9L88.7,85.6z M88.7,81.1v-2.5
		l-1-1l1-1v-2.5l-3.5,3.5L88.7,81.1z M81.1,66.6h-2.5l-1,1l-1-1h-2.5l3.5,3.5L81.1,66.6z M74.1,88.7h2.5l1-1l1,1h2.5l-3.5-3.5
		L74.1,88.7z M69.7,88.7h2.5l5.4-5.4l5.4,5.4h2.5l-7.9-7.9L69.7,88.7z M85.5,66.6H83L77.6,72l-5.4-5.4h-2.5l7.9,7.9L85.5,66.6z
		 M87.4,66.6l-9.8,9.8l-9.8-9.8h-1.3v1.2l9.8,9.8l-9.8,9.8v1.2h1.3l9.8-9.9l9.8,9.9h1.2v-1.3l-9.8-9.9l9.8-9.9v-1.2H87.4z
		 M66.5,74.1v2.5l1,1l-1,1v2.5l3.5-3.5L66.5,74.1z M66.5,69.7v2.5l5.4,5.4l-5.4,5.4v2.5l7.9-7.9L66.5,69.7z M66.5,66.6h22.2v22.2
		H66.5V66.6z"/>
	<path clip-path="url(#SVGID_4_)" fill="#EF4135" d="M86.7,106.7l2-4v-0.5h-2h-2.2L86.7,106.7z M73.3,97.7H71l2.2,4.5l2.2-4.5H73.3z
		 M86.7,97.7l2-4v-0.5h-2h-2.2L86.7,97.7z M86.7,102.2l2-4v-0.5h-2h-2.2L86.7,102.2z M71,102.2l2.2,4.5l2.2-4.5h-2.2H71z M80,106.7
		l2.1,4.2h0.2l2.1-4.2h-2.2H80z M75.5,106.7l2.1,4.2h0.2l2.1-4.2h-2.2H75.5z M71,106.7l2.1,4.2h0.2l2.1-4.2h-2.2H71z M86.6,110.9
		h0.2l1.9-3.7v-0.5h-2h-2.2L86.6,110.9z M68.8,97.7h-2.2l2.2,4.5l2.2-4.5H68.8z M66.5,106.7l2.1,4.2h0.2l2.1-4.2h-2.2H66.5z
		 M68.8,102.2h-2.2l2.2,4.5l2.2-4.5H68.8z M68.8,93.2h-2.2l2.2,4.5l2.2-4.5H68.8z M66.5,88.7l2.2,4.5l2.2-4.5H66.5z M88.7,88.7h-4.2
		l2.2,4.5l2-4V88.7z M84.5,88.7H80l2.2,4.5L84.5,88.7z M75.5,88.7H71l2.2,4.5L75.5,88.7z M80,88.7h-4.5l2.2,4.5L80,88.7z M82.3,97.7
		l2.2-4.5h-2.2H80L82.3,97.7z M80,93.2h-2.2h-2.2l2.2,4.5L80,93.2z M82.3,102.2l2.2-4.5h-2.2H80L82.3,102.2z M77.8,102.2l2.2-4.5
		h-2.2h-2.2L77.8,102.2z M82.3,106.7l2.2-4.5h-2.2H80L82.3,106.7z M75.5,102.2l2.2,4.5l2.2-4.5h-2.2H75.5z M73.3,93.2H71l2.2,4.5
		l2.2-4.5H73.3z M66.5,88.7h22.2v22.2H66.5V88.7z"/>
	<path clip-path="url(#SVGID_4_)" fill="#00B5CC" d="M40.4,108.9c0,0.8,0.7,1.5,1.5,1.5c0.8,0,1.5-0.7,1.5-1.5s-0.7-1.5-1.5-1.5
		C41.1,107.4,40.4,108.1,40.4,108.9 M37,107.4c-0.8,0-1.5,0.7-1.5,1.5s0.7,1.5,1.5,1.5c0.8,0,1.5-0.7,1.5-1.5S37.8,107.4,37,107.4
		 M32.1,107.4c-0.8,0-1.5,0.7-1.5,1.5s0.7,1.5,1.5,1.5c0.8,0,1.5-0.7,1.5-1.5S32.9,107.4,32.1,107.4 M27.2,107.4
		c-0.8,0-1.5,0.7-1.5,1.5s0.7,1.5,1.5,1.5c0.8,0,1.5-0.7,1.5-1.5S28.1,107.4,27.2,107.4 M23.8,108.9c0-0.8-0.7-1.5-1.5-1.5
		c-0.1,0-0.1,0-0.2,0v3c0.1,0,0.1,0,0.2,0C23.2,110.4,23.8,109.8,23.8,108.9 M40.9,104.4c0-0.8-0.7-1.5-1.5-1.5
		c-0.8,0-1.5,0.7-1.5,1.5c0,0.8,0.7,1.5,1.5,1.5C40.3,105.9,40.9,105.2,40.9,104.4 M36.1,104.4c0-0.8-0.7-1.5-1.5-1.5
		c-0.8,0-1.5,0.7-1.5,1.5c0,0.8,0.7,1.5,1.5,1.5C35.4,105.9,36.1,105.2,36.1,104.4 M31.2,104.4c0-0.8-0.7-1.5-1.5-1.5
		c-0.8,0-1.5,0.7-1.5,1.5c0,0.8,0.7,1.5,1.5,1.5C30.5,105.9,31.2,105.2,31.2,104.4 M26.3,104.4c0-0.8-0.7-1.5-1.5-1.5
		c-0.8,0-1.5,0.7-1.5,1.5c0,0.8,0.7,1.5,1.5,1.5C25.6,105.9,26.3,105.2,26.3,104.4 M40.4,99.9c0,0.8,0.7,1.5,1.5,1.5
		c0.8,0,1.5-0.7,1.5-1.5c0-0.8-0.7-1.5-1.5-1.5C41.1,98.4,40.4,99.1,40.4,99.9 M37,101.4c0.8,0,1.5-0.7,1.5-1.5
		c0-0.8-0.7-1.5-1.5-1.5c-0.8,0-1.5,0.7-1.5,1.5C35.5,100.7,36.2,101.4,37,101.4 M32.1,101.4c0.8,0,1.5-0.7,1.5-1.5
		c0-0.8-0.7-1.5-1.5-1.5c-0.8,0-1.5,0.7-1.5,1.5C30.6,100.7,31.3,101.4,32.1,101.4 M27.2,101.4c0.8,0,1.5-0.7,1.5-1.5
		c0-0.8-0.7-1.5-1.5-1.5c-0.8,0-1.5,0.7-1.5,1.5C25.7,100.7,26.4,101.4,27.2,101.4 M23.8,99.9c0-0.8-0.7-1.5-1.5-1.5
		c-0.1,0-0.1,0-0.2,0v3c0.1,0,0.1,0,0.2,0C23.2,101.4,23.8,100.7,23.8,99.9 M37.9,95.4c0,0.8,0.7,1.5,1.5,1.5c0.8,0,1.5-0.7,1.5-1.5
		c0-0.8-0.7-1.5-1.5-1.5C38.6,93.9,37.9,94.6,37.9,95.4 M33,95.4c0,0.8,0.7,1.5,1.5,1.5c0.8,0,1.5-0.7,1.5-1.5
		c0-0.8-0.7-1.5-1.5-1.5C33.7,93.9,33,94.6,33,95.4 M28.2,95.4c0,0.8,0.7,1.5,1.5,1.5c0.8,0,1.5-0.7,1.5-1.5c0-0.8-0.7-1.5-1.5-1.5
		C28.8,93.9,28.2,94.6,28.2,95.4 M23.3,95.4c0,0.8,0.7,1.5,1.5,1.5c0.8,0,1.5-0.7,1.5-1.5c0-0.8-0.7-1.5-1.5-1.5
		C23.9,93.9,23.3,94.6,23.3,95.4 M41.9,92.4c0.8,0,1.5-0.7,1.5-1.5c0-0.8-0.7-1.5-1.5-1.5c-0.8,0-1.5,0.7-1.5,1.5
		C40.4,91.7,41.1,92.4,41.9,92.4 M37,92.4c0.8,0,1.5-0.7,1.5-1.5c0-0.8-0.7-1.5-1.5-1.5c-0.8,0-1.5,0.7-1.5,1.5
		C35.5,91.7,36.2,92.4,37,92.4 M32.1,92.4c0.8,0,1.5-0.7,1.5-1.5c0-0.8-0.7-1.5-1.5-1.5c-0.8,0-1.5,0.7-1.5,1.5
		C30.6,91.7,31.3,92.4,32.1,92.4 M27.2,92.4c0.8,0,1.5-0.7,1.5-1.5c0-0.8-0.7-1.5-1.5-1.5c-0.8,0-1.5,0.7-1.5,1.5
		C25.7,91.7,26.4,92.4,27.2,92.4 M23.8,90.9c0-0.8-0.7-1.5-1.5-1.5c-0.1,0-0.1,0-0.2,0v3c0.1,0,0.1,0,0.2,0
		C23.2,92.4,23.8,91.7,23.8,90.9 M42.8,104.4c0,0.8,0.7,1.5,1.5,1.5c0,0,0,0,0,0v-3c0,0,0,0,0,0C43.5,102.9,42.8,103.6,42.8,104.4
		 M42.8,95.4c0,0.8,0.7,1.5,1.5,1.5c0,0,0,0,0,0v-3c0,0,0,0,0,0C43.5,93.9,42.8,94.6,42.8,95.4 M22.2,88.7h22.2v22.2H22.2V88.7z"/>
	<path clip-path="url(#SVGID_4_)" fill="#BB6CAC" d="M19.4,108.9c-0.6,0-0.8-0.1-1.2-0.3c-0.5-0.2-1.1-0.5-2.1-0.5
		c-1.1,0-1.7,0.3-2.1,0.5c-0.4,0.2-0.6,0.3-1.2,0.3c-0.6,0-0.8-0.1-1.2-0.3c-0.5-0.2-1.1-0.5-2.1-0.5c-1.1,0-1.7,0.3-2.1,0.5
		c-0.4,0.2-0.6,0.3-1.2,0.3c-0.6,0-0.8-0.1-1.2-0.3c-0.5-0.2-1.1-0.5-2.1-0.5s-1.7,0.3-2.1,0.5c-0.3,0.1-0.5,0.2-0.8,0.3v2h0.7
		c0.4-0.1,0.8-0.2,1-0.4c0.4-0.2,0.6-0.3,1.2-0.3c0.6,0,0.8,0.1,1.2,0.3c0.3,0.1,0.6,0.3,1,0.4h2.2c0.4-0.1,0.7-0.2,1-0.4
		c0.4-0.2,0.6-0.3,1.2-0.3c0.6,0,0.8,0.1,1.2,0.3c0.3,0.1,0.6,0.3,1,0.4h2.2c0.4-0.1,0.8-0.2,1-0.4c0.4-0.2,0.6-0.3,1.2-0.3
		c0.6,0,0.8,0.1,1.2,0.3c0.3,0.1,0.6,0.3,1,0.4h2.2c0.4-0.1,0.7-0.2,1-0.4c0.2-0.1,0.4-0.2,0.6-0.2v-2.1c-0.7,0.1-1.2,0.3-1.6,0.5
		C20.2,108.8,20,108.9,19.4,108.9 M19.4,104.1c-0.6,0-0.8-0.1-1.2-0.3c-0.5-0.2-1.1-0.5-2.1-0.5c-1.1,0-1.7,0.3-2.1,0.5
		c-0.4,0.2-0.6,0.3-1.2,0.3c-0.6,0-0.8-0.1-1.2-0.3c-0.5-0.2-1.1-0.5-2.1-0.5c-1.1,0-1.7,0.3-2.1,0.5c-0.4,0.2-0.6,0.3-1.2,0.3
		c-0.6,0-0.8-0.1-1.2-0.3c-0.5-0.2-1.1-0.5-2.1-0.5s-1.7,0.3-2.1,0.5c-0.3,0.1-0.5,0.2-0.8,0.3v2.1c0.8-0.1,1.3-0.3,1.7-0.5
		c0.4-0.2,0.6-0.3,1.2-0.3c0.6,0,0.8,0.1,1.2,0.3c0.5,0.2,1.1,0.5,2.1,0.5c1.1,0,1.7-0.3,2.1-0.5c0.4-0.2,0.6-0.3,1.2-0.3
		c0.6,0,0.8,0.1,1.2,0.3c0.5,0.2,1.1,0.5,2.1,0.5c1.1,0,1.7-0.3,2.1-0.5c0.4-0.2,0.6-0.3,1.2-0.3c0.6,0,0.8,0.1,1.2,0.3
		c0.5,0.2,1.1,0.5,2.1,0.5c1.1,0,1.7-0.3,2.1-0.5c0.2-0.1,0.4-0.2,0.6-0.2v-2.1c-0.7,0.1-1.2,0.3-1.6,0.5
		C20.2,104,20,104.1,19.4,104.1 M19.4,99.2c-0.6,0-0.8-0.1-1.2-0.3c-0.5-0.2-1.1-0.5-2.1-0.5c-1.1,0-1.7,0.3-2.1,0.5
		c-0.4,0.2-0.6,0.3-1.2,0.3c-0.6,0-0.8-0.1-1.2-0.3c-0.5-0.2-1.1-0.5-2.1-0.5c-1.1,0-1.7,0.3-2.1,0.5c-0.4,0.2-0.6,0.3-1.2,0.3
		c-0.6,0-0.8-0.1-1.2-0.3c-0.5-0.2-1.1-0.5-2.1-0.5S1.2,98.7,0.8,99c-0.3,0.1-0.5,0.2-0.8,0.3v2.1c0.8-0.1,1.3-0.3,1.7-0.5
		c0.4-0.2,0.6-0.3,1.2-0.3c0.6,0,0.8,0.1,1.2,0.3c0.5,0.2,1.1,0.5,2.1,0.5c1.1,0,1.7-0.3,2.1-0.5c0.4-0.2,0.6-0.3,1.2-0.3
		c0.6,0,0.8,0.1,1.2,0.3c0.5,0.2,1.1,0.5,2.1,0.5c1.1,0,1.7-0.3,2.1-0.5c0.4-0.2,0.6-0.3,1.2-0.3c0.6,0,0.8,0.1,1.2,0.3
		c0.5,0.2,1.1,0.5,2.1,0.5c1.1,0,1.7-0.3,2.1-0.5c0.2-0.1,0.4-0.2,0.6-0.2v-2.1c-0.7,0.1-1.2,0.3-1.6,0.5
		C20.2,99.1,20,99.2,19.4,99.2 M19.4,94.4c-0.6,0-0.8-0.1-1.2-0.3c-0.5-0.2-1.1-0.5-2.1-0.5c-1.1,0-1.7,0.3-2.1,0.5
		c-0.4,0.2-0.6,0.3-1.2,0.3c-0.6,0-0.8-0.1-1.2-0.3c-0.5-0.2-1.1-0.5-2.1-0.5c-1.1,0-1.7,0.3-2.1,0.5c-0.4,0.2-0.6,0.3-1.2,0.3
		c-0.6,0-0.8-0.1-1.2-0.3c-0.5-0.2-1.1-0.5-2.1-0.5s-1.7,0.3-2.1,0.5c-0.3,0.1-0.5,0.2-0.8,0.3v2.1c0.8-0.1,1.3-0.3,1.7-0.5
		c0.4-0.2,0.6-0.3,1.2-0.3c0.6,0,0.8,0.1,1.2,0.3c0.5,0.2,1.1,0.5,2.1,0.5c1.1,0,1.7-0.3,2.1-0.5c0.4-0.2,0.6-0.3,1.2-0.3
		c0.6,0,0.8,0.1,1.2,0.3c0.5,0.2,1.1,0.5,2.1,0.5c1.1,0,1.7-0.3,2.1-0.5c0.4-0.2,0.6-0.3,1.2-0.3c0.6,0,0.8,0.1,1.2,0.3
		c0.5,0.2,1.1,0.5,2.1,0.5c1.1,0,1.7-0.3,2.1-0.5c0.2-0.1,0.4-0.2,0.6-0.2v-2.1c-0.7,0.1-1.2,0.3-1.6,0.5
		C20.2,94.3,20,94.4,19.4,94.4 M19.4,89.6c-0.6,0-0.8-0.1-1.2-0.3c-0.5-0.2-1.1-0.5-2.1-0.5c-1.1,0-1.7,0.3-2.1,0.5
		c-0.4,0.2-0.6,0.3-1.2,0.3c-0.6,0-0.8-0.1-1.2-0.3c-0.5-0.2-1.1-0.5-2.1-0.5c-1.1,0-1.7,0.3-2.1,0.5c-0.4,0.2-0.6,0.3-1.2,0.3
		c-0.6,0-0.8-0.1-1.2-0.3c-0.5-0.2-1.1-0.5-2.1-0.5s-1.7,0.3-2.1,0.5c-0.3,0.1-0.5,0.2-0.8,0.3v2.1c0.8-0.1,1.3-0.3,1.7-0.5
		c0.4-0.2,0.6-0.3,1.2-0.3c0.6,0,0.8,0.1,1.2,0.3c0.5,0.2,1.1,0.5,2.1,0.5c1.1,0,1.7-0.3,2.1-0.5c0.4-0.2,0.6-0.3,1.2-0.3
		c0.6,0,0.8,0.1,1.2,0.3c0.5,0.2,1.1,0.5,2.1,0.5c1.1,0,1.7-0.3,2.1-0.5c0.4-0.2,0.6-0.3,1.2-0.3c0.6,0,0.8,0.1,1.2,0.3
		c0.5,0.2,1.1,0.5,2.1,0.5c1.1,0,1.7-0.3,2.1-0.5c0.2-0.1,0.4-0.2,0.6-0.2v-2.1c-0.7,0.1-1.2,0.3-1.6,0.5
		C20.2,89.4,20,89.6,19.4,89.6 M0,88.7h22.2v22.2H0V88.7z"/>
	<path clip-path="url(#SVGID_4_)" fill="#6CB33F" d="M66.5,107.7v-2.5l-5.4-5.4l5.4-5.4v-2.5l-7.9,7.9L66.5,107.7z M66.5,103.3v-2.5
		l-1-1l1-1v-2.5L63,99.8L66.5,103.3z M58.9,88.7h-2.5l-1,1l-1-1H52l3.5,3.5L58.9,88.7z M51.9,110.9h2.5l1-1l1,1h2.5l-3.5-3.5
		L51.9,110.9z M47.5,110.9H50l5.4-5.4l5.4,5.4h2.5l-7.9-7.9L47.5,110.9z M63.4,88.7h-2.5l-5.4,5.4L50,88.7h-2.5l7.9,7.9L63.4,88.7z
		 M65.3,88.7l-9.8,9.8l-9.8-9.8h-1.3V90l9.8,9.8l-9.8,9.8v1.2h1.3l9.8-9.9l9.8,9.9h1.2v-1.3l-9.8-9.9l9.8-9.9v-1.2H65.3z M44.4,96.3
		v2.5l1,1l-1,1v2.5l3.5-3.5L44.4,96.3z M44.4,91.9v2.5l5.4,5.4l-5.4,5.4v2.5l7.9-7.9L44.4,91.9z M44.4,88.7h22.2v22.2H44.4V88.7z"/>
	<path clip-path="url(#SVGID_4_)" fill="#F8971D" d="M66.5,19.8v-2c2.9-0.4,5.2-2.9,5.2-5.9c0-3-2.3-5.5-5.2-5.9V4
		c4,0.4,7.2,3.8,7.2,7.9C73.7,16,70.6,19.4,66.5,19.8 M79.3,11.9c0-5.1-2.9-9.6-7.1-11.9h-5.6v0.9c5.7,0.4,10.2,5.2,10.2,11
		c0,4.7-2.9,8.7-7,10.3h4.8C77.4,19.7,79.3,16,79.3,11.9 M68.7,11.9c0-1.3-0.9-2.5-2.1-2.8v5.6C67.8,14.4,68.7,13.2,68.7,11.9
		 M88.7,3.1C88.3,2,87.8,1,87.3,0h-2.9c2.2,3.4,3.5,7.5,3.5,11.9c0,3.7-0.9,7.2-2.5,10.3h2.8c0.2-0.5,0.4-1,0.6-1.5V3.1z M80.6,0
		h-3.4c3.1,3,5.1,7.2,5.1,11.9c0,3.9-1.3,7.4-3.6,10.3h3.1c1.9-3,3-6.5,3-10.3C84.8,7.4,83.2,3.3,80.6,0"/>
	<path clip-path="url(#SVGID_4_)" fill="#F8971D" d="M44.4,42v-2c2.9-0.4,5.2-2.9,5.2-5.9c0-3-2.3-5.5-5.2-5.9v-2
		c4,0.4,7.2,3.8,7.2,7.9C51.5,38.2,48.4,41.6,44.4,42 M57.1,34.1c0-5.1-2.9-9.6-7.1-11.9h-5.6v0.9c5.7,0.4,10.2,5.2,10.2,11
		c0,4.7-2.9,8.7-7,10.3h4.8C55.2,41.9,57.1,38.2,57.1,34.1 M46.5,34.1c0-1.3-0.9-2.5-2.1-2.8v5.6C45.6,36.6,46.5,35.4,46.5,34.1
		 M66.5,25.3c-0.4-1.1-0.9-2.1-1.5-3.1h-2.9c2.2,3.4,3.5,7.5,3.5,11.9c0,3.7-0.9,7.2-2.5,10.3h2.8c0.2-0.5,0.4-1,0.6-1.5V25.3z
		 M58.4,22.2h-3.4c3.1,3,5.1,7.2,5.1,11.9c0,3.9-1.3,7.4-3.6,10.3h3.1c1.9-3,3-6.5,3-10.3C62.6,29.6,61.1,25.5,58.4,22.2"/>
	<path clip-path="url(#SVGID_4_)" fill="#F8971D" d="M22.2,64.2v-2c2.9-0.4,5.2-2.9,5.2-5.9c0-3-2.3-5.5-5.2-5.9v-2
		c4,0.4,7.2,3.8,7.2,7.9C29.3,60.4,26.2,63.8,22.2,64.2 M34.9,56.3c0-5.1-2.9-9.6-7.1-11.9h-5.6v0.9c5.7,0.4,10.2,5.2,10.2,11
		c0,4.7-2.9,8.7-7,10.3h4.8C33.1,64.1,34.9,60.4,34.9,56.3 M24.3,56.3c0-1.3-0.9-2.5-2.1-2.8v5.6C23.4,58.7,24.3,57.6,24.3,56.3
		 M44.4,47.5c-0.4-1.1-0.9-2.1-1.5-3.1H40c2.2,3.4,3.5,7.5,3.5,11.9c0,3.7-0.9,7.2-2.5,10.3h2.8c0.2-0.5,0.4-1,0.6-1.5V47.5z
		 M36.3,44.4h-3.4c3.1,3,5.1,7.2,5.1,11.9c0,3.9-1.3,7.4-3.6,10.3h3.1c1.9-3,3-6.5,3-10.3C40.4,51.8,38.9,47.6,36.3,44.4"/>
	<path clip-path="url(#SVGID_4_)" fill="#F8971D" d="M0,86.4v-2c2.9-0.4,5.2-2.9,5.2-5.9c0-3-2.3-5.5-5.2-5.9v-2
		c4,0.4,7.2,3.8,7.2,7.9C7.2,82.6,4,86,0,86.4 M12.7,78.5c0-5.1-2.9-9.6-7.1-11.9H0v0.9c5.7,0.4,10.2,5.2,10.2,11
		c0,4.7-2.9,8.7-7,10.3H8C10.9,86.3,12.7,82.6,12.7,78.5 M2.1,78.5c0-1.3-0.9-2.5-2.1-2.8v5.6C1.2,80.9,2.1,79.8,2.1,78.5
		 M22.2,69.7c-0.4-1.1-0.9-2.1-1.5-3.1h-2.9c2.2,3.4,3.5,7.5,3.5,11.9c0,3.7-0.9,7.2-2.5,10.3h2.8c0.2-0.5,0.4-1,0.6-1.5V69.7z
		 M14.1,66.6h-3.4c3.1,3,5.1,7.2,5.1,11.9c0,3.9-1.3,7.4-3.6,10.3h3.1c1.9-3,3-6.5,3-10.3C18.3,74,16.7,69.8,14.1,66.6"/>
	<path clip-path="url(#SVGID_4_)" fill="#F8971D" d="M88.7,108.6v-2c2.9-0.4,5.2-2.9,5.2-5.9s-2.3-5.5-5.2-5.9v-2
		c4,0.4,7.2,3.8,7.2,7.9S92.8,108.2,88.7,108.6 M101.4,100.6c0-5.1-2.9-9.6-7.1-11.9h-5.6v0.9c5.7,0.4,10.2,5.2,10.2,11
		c0,4.7-2.9,8.7-7,10.3h4.8C99.6,108.4,101.4,104.8,101.4,100.6 M90.9,100.6c0-1.3-0.9-2.5-2.1-2.8v5.6
		C90,103.1,90.9,102,90.9,100.6 M110.9,91.9c-0.4-1.1-0.9-2.1-1.5-3.1h-2.9c2.2,3.4,3.5,7.5,3.5,11.9c0,3.7-0.9,7.2-2.5,10.3h2.8
		c0.2-0.5,0.4-1,0.6-1.5V91.9z M102.8,88.7h-3.4c3.1,3,5.1,7.2,5.1,11.9c0,3.9-1.3,7.4-3.6,10.3h3.1c1.9-3,3-6.5,3-10.3
		C107,96.1,105.4,92,102.8,88.7"/>
</g>
</svg>
