<?xml version="1.0" encoding="utf-8"?>
<!-- Generator: Adobe Illustrator 17.1.0, SVG Export Plug-In . SVG Version: 6.00 Build 0)  -->
<!DOCTYPE svg PUBLIC "-//W3C//DTD SVG 1.1//EN" "http://www.w3.org/Graphics/SVG/1.1/DTD/svg11.dtd">
<svg version="1.1" id="Layer_1" xmlns="http://www.w3.org/2000/svg" xmlns:xlink="http://www.w3.org/1999/xlink" x="0px" y="0px"
	 viewBox="0 0 110.9 110.9" enable-background="new 0 0 110.9 110.9" xml:space="preserve">
<g>
	<defs>
		<rect id="SVGID_1_" width="110.9" height="110.9"/>
	</defs>
	<clipPath id="SVGID_2_">
		<use xlink:href="#SVGID_1_"  overflow="visible"/>
	</clipPath>
	<path clip-path="url(#SVGID_2_)" fill="#6CB33F" d="M55.5,110.9c30.6,0,55.5-24.8,55.5-55.5S86.1,0,55.5,0S0,24.8,0,55.5
		S24.8,110.9,55.5,110.9"/>
</g>
<g>
	<defs>
		<circle id="SVGID_3_" cx="55.5" cy="55.5" r="55.5"/>
	</defs>
	<clipPath id="SVGID_4_">
		<use xlink:href="#SVGID_3_"  overflow="visible"/>
	</clipPath>
	<polygon clip-path="url(#SVGID_4_)" fill="#FFFFFF" points="18.6,97.4 14.7,93.5 52.6,55.5 14.6,17.4 18.5,13.5 60.5,55.5 	"/>
	<polygon clip-path="url(#SVGID_4_)" fill="#FFFFFF" points="4.7,97.4 0.8,93.5 38.7,55.5 0.7,17.4 4.7,13.5 46.6,55.5 	"/>
	<polygon clip-path="url(#SVGID_4_)" fill="#FFFFFF" points="-9.2,97.4 -13.1,93.5 24.9,55.5 -13.2,17.4 -9.2,13.5 32.7,55.5 	"/>
	<polygon clip-path="url(#SVGID_4_)" fill="#FFFFFF" points="-23,97.4 -27,93.5 11,55.5 -27,17.4 -23.1,13.5 18.8,55.5 	"/>
	<polygon clip-path="url(#SVGID_4_)" fill="#FFFFFF" points="-36.9,97.4 -40.9,93.5 -2.9,55.5 -40.9,17.4 -37,13.5 4.9,55.5 	"/>
	<polygon clip-path="url(#SVGID_4_)" fill="#FFFFFF" points="94.6,97.4 52.6,55.4 94.5,13.5 98.4,17.4 60.5,55.4 98.5,93.5 	"/>
	<polygon clip-path="url(#SVGID_4_)" fill="#FFFFFF" points="56.6,45.5 14.6,3.5 18.5,-0.4 56.6,37.7 94.5,-0.4 98.4,3.5 	"/>
	<polygon clip-path="url(#SVGID_4_)" fill="#FFFFFF" points="94.5,111.3 56.5,73.3 18.5,111.3 14.6,107.4 56.5,65.4 98.4,107.4 	"/>
	<polygon clip-path="url(#SVGID_4_)" fill="#FFFFFF" points="94.5,125.2 56.5,87.1 18.5,125.2 14.6,121.3 56.5,79.3 98.4,121.3 	"/>
	<polygon clip-path="url(#SVGID_4_)" fill="#FFFFFF" points="94.5,139.1 56.5,101 18.5,139.1 14.6,135.2 56.5,93.2 98.4,135.2 	"/>
	<polygon clip-path="url(#SVGID_4_)" fill="#FFFFFF" points="94.5,153 56.5,114.9 18.5,153 14.6,149 56.5,107 98.4,149 	"/>
	<polygon clip-path="url(#SVGID_4_)" fill="#FFFFFF" points="56.6,31.6 14.6,-10.3 18.5,-14.3 56.6,23.8 94.5,-14.3 98.4,-10.4 	"/>
	<polygon clip-path="url(#SVGID_4_)" fill="#FFFFFF" points="56.6,17.8 14.6,-24.2 18.5,-28.2 56.6,9.9 94.5,-28.2 98.4,-24.2 	"/>
	<polygon clip-path="url(#SVGID_4_)" fill="#FFFFFF" points="56.6,3.9 14.6,-38.1 18.5,-42 56.6,-4 94.5,-42 98.4,-38.1 	"/>
	<polygon clip-path="url(#SVGID_4_)" fill="#FFFFFF" points="122.3,97.4 80.4,55.4 122.3,13.5 126.2,17.4 88.3,55.4 126.3,93.5 	"/>
	<polygon clip-path="url(#SVGID_4_)" fill="#FFFFFF" points="108.5,97.4 66.5,55.4 108.4,13.5 112.3,17.4 74.4,55.4 112.4,93.5 	"/>
	<polygon clip-path="url(#SVGID_4_)" fill="#FFFFFF" points="150.1,97.4 108.2,55.4 150,13.5 154,17.4 116,55.4 154,93.5 	"/>
	<polygon clip-path="url(#SVGID_4_)" fill="#FFFFFF" points="136.2,97.4 94.3,55.4 136.2,13.5 140.1,17.4 102.1,55.4 140.2,93.5 	
		"/>
</g>
</svg>
