<?xml version="1.0" encoding="utf-8"?>
<!-- Generator: Adobe Illustrator 17.1.0, SVG Export Plug-In . SVG Version: 6.00 Build 0)  -->
<!DOCTYPE svg PUBLIC "-//W3C//DTD SVG 1.1//EN" "http://www.w3.org/Graphics/SVG/1.1/DTD/svg11.dtd">
<svg version="1.1" id="Layer_1" xmlns="http://www.w3.org/2000/svg" xmlns:xlink="http://www.w3.org/1999/xlink" x="0px" y="0px"
	 viewBox="0 0 110.9 110.9" enable-background="new 0 0 110.9 110.9" xml:space="preserve">
<g>
	<defs>
		<rect id="SVGID_1_" width="110.9" height="110.9"/>
	</defs>
	<clipPath id="SVGID_2_">
		<use xlink:href="#SVGID_1_"  overflow="visible"/>
	</clipPath>
	<path clip-path="url(#SVGID_2_)" fill="#F8971D" d="M55.5,110.9c30.6,0,55.5-24.8,55.5-55.5S86.1,0,55.5,0S0,24.8,0,55.5
		S24.8,110.9,55.5,110.9"/>
</g>
<g>
	<defs>
		<circle id="SVGID_3_" cx="55.5" cy="55.5" r="55.5"/>
	</defs>
	<clipPath id="SVGID_4_">
		<use xlink:href="#SVGID_3_"  overflow="visible"/>
	</clipPath>
	<path clip-path="url(#SVGID_4_)" fill="none" stroke="#FFFFFF" stroke-width="11.393" stroke-miterlimit="10" d="M231.1,55.5
		c0,129.8-105.2,235.1-235.1,235.1c-129.8,0-235.1-105.2-235.1-235.1c0-129.8,105.2-235.1,235.1-235.1
		C125.8-179.6,231.1-74.4,231.1,55.5z M209.1,55.5c0,117.7-95.4,213.1-213.1,213.1c-117.7,0-213.1-95.4-213.1-213.1
		c0-117.7,95.4-213.1,213.1-213.1C113.7-157.7,209.1-62.3,209.1,55.5z M187.2,55.5C187.2,161,101.6,246.6-4,246.6
		S-195.2,161-195.2,55.5c0-105.6,85.6-191.2,191.2-191.2S187.2-50.1,187.2,55.5z M165.2,55.5c0,93.5-75.8,169.2-169.2,169.2
		s-169.2-75.8-169.2-169.2C-173.2-38-97.5-113.8-4-113.8S165.2-38,165.2,55.5z M143.3,55.5c0,81.4-65.9,147.3-147.3,147.3
		s-147.3-65.9-147.3-147.3C-151.3-25.9-85.4-91.8-4-91.8S143.3-25.9,143.3,55.5z M121.4,55.5c0,69.2-56.1,125.4-125.4,125.4
		c-69.2,0-125.4-56.1-125.4-125.4C-129.4-13.8-73.2-69.9-4-69.9C65.2-69.9,121.4-13.8,121.4,55.5z M99.4,55.5
		c0,57.1-46.3,103.4-103.4,103.4s-103.4-46.3-103.4-103.4C-107.4-1.7-61.1-48-4-48S99.4-1.7,99.4,55.5z M77.5,55.5
		c0,45-36.5,81.5-81.5,81.5c-45,0-81.5-36.5-81.5-81.5C-85.5,10.4-49-26-4-26C41-26,77.5,10.4,77.5,55.5z M55.5,55.5
		C55.5,88.3,28.9,115-4,115c-32.9,0-59.5-26.7-59.5-59.5C-63.5,22.6-36.9-4.1-4-4.1C28.9-4.1,55.5,22.6,55.5,55.5z M33.6,55.5
		c0,20.8-16.8,37.6-37.6,37.6c-20.8,0-37.6-16.8-37.6-37.6c0-20.8,16.8-37.6,37.6-37.6C16.8,17.9,33.6,34.7,33.6,55.5z M13.7,55.5
		c0,9.8-7.9,17.7-17.7,17.7s-17.7-7.9-17.7-17.7S-13.8,37.8-4,37.8S13.7,45.7,13.7,55.5z"/>
</g>
</svg>
