<?xml version="1.0" encoding="utf-8"?>
<!-- Generator: Adobe Illustrator 17.1.0, SVG Export Plug-In . SVG Version: 6.00 Build 0)  -->
<!DOCTYPE svg PUBLIC "-//W3C//DTD SVG 1.1//EN" "http://www.w3.org/Graphics/SVG/1.1/DTD/svg11.dtd">
<svg version="1.1" id="Layer_1" xmlns="http://www.w3.org/2000/svg" xmlns:xlink="http://www.w3.org/1999/xlink" x="0px" y="0px"
	 viewBox="0 0 200 175" enable-background="new 0 0 200 175" xml:space="preserve">
<line fill="none" stroke="#040407" stroke-width="5" stroke-miterlimit="10" x1="0" y1="162.5" x2="200" y2="162.5"/>
<line fill="none" stroke="#040407" stroke-width="5" stroke-miterlimit="10" x1="0" y1="172.5" x2="200" y2="172.5"/>
<rect x="20" y="150.5" fill="#696A6C" stroke="#040407" stroke-width="5" stroke-miterlimit="10" width="160" height="12"/>
<rect x="20" y="46.5" fill="#696A6C" stroke="#040407" stroke-width="5" stroke-miterlimit="10" width="160" height="12"/>
<rect x="20" y="2.5" fill="#696A6C" stroke="#040407" stroke-width="5" stroke-miterlimit="10" width="160" height="12"/>
<rect x="27" y="58.5" fill="none" stroke="#040407" stroke-width="5" stroke-miterlimit="10" width="146" height="92"/>
<rect x="27" y="14.5" fill="none" stroke="#040407" stroke-width="5" stroke-miterlimit="10" width="146" height="32"/>
<rect x="45" y="58.5" fill="#FFFFFF" stroke="#040407" stroke-width="5" stroke-miterlimit="10" width="45" height="104"/>
<rect x="54" y="83.5" fill="#FFFFFF" stroke="#040407" stroke-width="5" stroke-miterlimit="10" width="27" height="58"/>
<rect x="108" y="104.5" fill="#FFFFFF" stroke="#040407" stroke-width="5" stroke-miterlimit="10" width="47" height="37"/>
<rect x="99" y="67.5" fill="#FFFFFF" stroke="#040407" stroke-width="5" stroke-miterlimit="10" width="65" height="37"/>
<rect x="54" y="150.5" fill="#FFFFFF" stroke="#040407" stroke-width="5" stroke-miterlimit="10" width="27" height="12"/>
<rect x="99" y="129.5" fill="#FEF9FB" stroke="#040407" stroke-width="5" stroke-miterlimit="10" width="65" height="12"/>
<line fill="none" stroke="#040407" stroke-width="5" stroke-miterlimit="10" x1="45" y1="74.5" x2="90" y2="74.5"/>
<rect x="127" y="67.5" fill="#040407" width="9" height="37"/>
<rect x="109" y="67.5" fill="#040407" width="9" height="37"/>
<rect x="145" y="67.5" fill="#040407" width="9" height="37"/>
<path d="M53.4,28.2c0-2.6,1.7-4.2,4.3-4.2c2.6,0,4.3,1.6,4.3,4.2v0.4h-3.2c0-1.4-0.4-1.8-1.1-1.8c-0.7,0-1.1,0.5-1.1,1.8v3.7
	c0,1.4,0.4,1.8,1.1,1.8c0.8,0,1.2-0.5,1.2-1.7h-1.1v-2.2H62v6.6h-2.1l-0.2-0.6c-0.4,0.3-1.2,0.7-2.2,0.7c-2.6,0-4.1-1.6-4.1-4.2
	L53.4,28.2L53.4,28.2z"/>
<path d="M68,24.1h4.4c2.6,0,4.3,1.4,4.3,3.7c0,1.5-0.6,2.6-1.8,3.2l2.2,5.8h-3.5l-1.5-5.2h-1.1v5.2H68L68,24.1L68,24.1z M72.3,29.3
	c0.8,0,1.3-0.4,1.3-1.3s-0.6-1.2-1.3-1.2h-1.2v2.5L72.3,29.3L72.3,29.3z"/>
<path d="M82.4,28.2c0-2.6,1.7-4.2,4.3-4.2c2.6,0,4.3,1.6,4.3,4.2v4.5c0,2.6-1.7,4.2-4.3,4.2c-2.6,0-4.3-1.6-4.3-4.2
	C82.4,32.8,82.4,28.2,82.4,28.2z M87.8,28.7c0-1.4-0.4-1.8-1.1-1.8c-0.7,0-1.1,0.5-1.1,1.8v3.7c0,1.4,0.4,1.8,1.1,1.8
	c0.8,0,1.1-0.5,1.1-1.8V28.7z"/>
<path d="M96.9,28.2c0-2.6,1.7-4.2,4.3-4.2c2.6,0,4.3,1.6,4.3,4.2v0.4h-3.2c0-1.4-0.4-1.8-1.1-1.8c-0.7,0-1.1,0.5-1.1,1.8v3.7
	c0,1.4,0.4,1.8,1.1,1.8c0.8,0,1.1-0.5,1.1-1.8h3.2v0.4c0,2.6-1.7,4.2-4.3,4.2c-2.6,0-4.3-1.6-4.3-4.2V28.2z"/>
<path d="M111.1,24.1h7.3v3h-4.3V29h2.6v3h-2.6v2h4.3v3h-7.4L111.1,24.1L111.1,24.1z"/>
<path d="M124,24.1h4.4c2.6,0,4.3,1.4,4.3,3.7c0,1.5-0.6,2.6-1.8,3.2l2.2,5.8h-3.5l-1.5-5.2h-1.1v5.2H124L124,24.1L124,24.1z
	 M128.3,29.3c0.8,0,1.3-0.4,1.3-1.3s-0.6-1.2-1.3-1.2h-1.2v2.5L128.3,29.3L128.3,29.3z"/>
<path d="M140.6,33.3l-3-9.2h3.4l1.2,5l1.2-5h3.4l-3,9.2v3.5h-3.1L140.6,33.3L140.6,33.3z"/>
<path d="M14.7,131.3c0.5,0.1,0.8-1.2,1.4-1c0.8,0.8,0.4,1.8,0.7,2.9c0.2,0.6,0.8,1.4,1.1,2.1c0.3,0.8,0.6,1.6,0.9,2.4
	c0.6,1.8,0.8,3.7,1.3,5.2c0.1,0.4,0.5,0.9,0.8,1.2c1.4,1.6,3.2,2.6,4.6,4c2.2,2.3,3.1,5.9,2.6,10.1c-0.2,1.6-1.1,3.6,1.6,3.2
	c3.2-0.4,5.3-3.7,5-7.5c-0.2-2.1-1-3.9-1.7-5.7c-0.8-1.9-2.2-3.9-2.1-6c0.1-1.7,1.5-4.2,3.1-4.1c0.9,0.1,1.3,1,1.3,1.6
	c0,1.2-1,1.5-1.5,2.3c0.4,4.3,3.8,7.8,3.4,13.2c-0.2,2.4-1.3,4.3-2.8,5.8c-1.5,1.5-4.7,3.5-7.6,2.1c-0.4,0.1-0.3,0.6-0.7,0.6
	c-3-0.1-6.5,0.3-9.1-0.3c-0.1-1.9,2-2.1,3.6-2c-1.7-0.8-3-2-3.4-4.1c-1.5,1-1.4,4.8-3.1,5.7c-1,0.5-2.7,0.3-3.5-0.4
	c0.2-0.5,0-0.9,0.3-1.4c1-0.4,2.2-0.3,2.6-1.2c0.5-1.2,0.1-3.6,0-5c-0.1-1.5-0.2-3.2-0.8-4.4c-0.4-0.8-1.1-1.5-1.5-2.3
	c-0.4-0.9-0.8-1.9-0.8-3c0-2.9,1.8-4.2,2-7.2c-0.8-0.9-2.9,0-3.7-0.8c-0.1-0.1-0.7-1.7-0.7-1.9c0-0.5,0.9-0.8,1.2-1.4
	c0.2-0.3,0.2-1,0.5-1.4c0.8-0.9,2.3-0.8,3.1-1.1c0.4-0.9,0.3-2.2,1.2-2.6C14.3,129.8,14.5,130.5,14.7,131.3z"/>
</svg>
