<?xml version="1.0" encoding="utf-8"?>
<!-- Generator: Adobe Illustrator 17.1.0, SVG Export Plug-In . SVG Version: 6.00 Build 0)  -->
<!DOCTYPE svg PUBLIC "-//W3C//DTD SVG 1.1//EN" "http://www.w3.org/Graphics/SVG/1.1/DTD/svg11.dtd">
<svg version="1.1" id="Layer_1" xmlns="http://www.w3.org/2000/svg" xmlns:xlink="http://www.w3.org/1999/xlink" x="0px" y="0px"
	 viewBox="0 0 112 112" enable-background="new 0 0 112 112" xml:space="preserve">
<g>
	<defs>
		<circle id="SVGID_1_" cx="56" cy="56" r="55.5"/>
	</defs>
	<use xlink:href="#SVGID_1_"  overflow="visible" fill="#FF671B"/>
	<clipPath id="SVGID_2_">
		<use xlink:href="#SVGID_1_"  overflow="visible"/>
	</clipPath>
	<g clip-path="url(#SVGID_2_)">
		<path fill="#0777BE" d="M-157,23.4l-2.5-1.3l-0.8,0.6c0,0,6.8,6,9.4,6.8c2.6,0.8,10.1,1.3,9.8,2.3c-0.3,1.1-2.4,2.4-4,2
			c-1.6-0.4-3.7-0.1-7.9-2.4c-4.2-2.2-11.2-2.8-14,1.4c-2.8,4.2-5,12.1,3.5,15c0,0-3.5,11.4,10.4,16.4c4.9,1.8,16.1-9.4,16.5-10.7
			c0.4-1.3,0.6-6.5,2.5-5.8c1.9,0.7,0.7,7-2.4,11.9c-3.1,4.8,0.8,13.7,4.7,14.5c9.1,2,21.6-10.5,23.3-13.9
			c1.7-3.4,1.6-12.2,0.5-12.8c-5.7-3.4-7.5-4.9-3.5-4.4c3.9,0.4,16-4.8,16.9-7.2c2.5-7.2,1.6-13.3,1.6-13.3s2.7-6.3-1.5-9.9
			c-4.3-3.6-18.1-10.1-25,2.2c-6.9,12.3-6.4,8.4-6.2,6.4c0.2-2,5.4-8.3,5.2-14.3c-0.2-6-5.5-21.2-16-16.9
			C-147-5.7-151-1.5-153.8,1.9c-2.8,3.5,0.1,18.6,7.1,22c7,3.4,5.2,5.2,3.6,4.8C-144.7,28.3-153.4,25.7-157,23.4"/>
		<path fill="#EACA1B" d="M-129.7,53.8l-0.1,0c-1-0.1-1.1-1.5-1.2-2.1c-0.1-1.1-0.1-2.5-0.1-3.9c0-1.5,0-4.4-0.4-4.7
			c-0.2-0.1-0.6-0.3-1-0.3c-0.2,0-0.4,0-0.6,0.1c-0.9,0.3-1.7,1-2.4,2.3c-0.7,1.4-1.3,2-2,2c-0.1,0-0.3,0-0.4-0.1
			c-0.9-0.4-0.6-2.1,0-3.6c0.3-0.8,0.7-1.4,1.1-2c0.3-0.4,0.7-1.1,0.7-1.4c-0.1,0-0.2-0.1-0.4-0.1c-1.2-0.1-2.1-1-2.2-2.3
			c-0.1-1.2,0.6-2.6,2.3-3.2c1.5-0.4,2.7-0.8,2.9-1.3c0.1-0.2,0.1-0.6-0.1-1.1c-0.2-0.6-0.9-1.4-1.6-2.3c-1.1-1.3-2.1-2.5-1.8-3.5
			c0.1-0.3,0.3-0.8,1-1.1c0.6-0.2,1.1-0.3,1.5-0.1c0.7,0.3,1,1.1,1.3,1.9c0.3,0.8,0.5,1.4,1,1.5l0.1,0c0.4-0.9-0.9-4.4-1.9-5
			c-0.6-0.4-0.9-1.1-0.8-1.9c0.1-1.1,0.8-2.1,1.7-2.4c0.7-0.3,1.4-0.1,2,0.4c1.7,1.5,3.2,6.8,2.8,10c0.9-0.4,2.3-1.3,4.4-3.5
			c1.1-1.1,1.9-1.5,2.7-1.2c0.4,0.1,0.9,0.5,1,1.5c0.2,1.7-0.9,4.8-3,6.1c-0.8,0.5-1,0.9-1,1c0,0.1,0.1,0.1,0.2,0.2
			c0.2,0.1,0.4,0.1,0.7,0.1c0.8,0,1.8-0.4,2.6-1c1-0.8,1.9-1,2.7-0.5c0.8,0.4,1.2,1.4,1.1,2.5c-0.1,1.2-0.8,2.1-1.9,2.4
			c-1.6,0.5-3.1,1-4,1.3c1.5,1.6,4.1,4.7,2.9,7.1c-0.2,0.4-0.8,1.4-1.7,1.4c-1-0.1-1.5-1.4-2.1-3.4l-0.1-0.4
			c-0.2-0.7-1.2-1.3-1.8-1.3c-0.1,0-0.1,0-0.2,0c-0.5,0.2-0.3,1.3-0.2,1.7l0.1,0.3l-1.2,0.3l-0.1-0.3c-0.7-2.5,0.6-3,1-3.2
			c0.2,0,0.4-0.1,0.5-0.1c1.2,0,2.6,1,2.9,2.2l0.1,0.4c0.4,1.5,0.8,2.3,1,2.5c0.1-0.1,0.2-0.2,0.5-0.7c1-1.8-2.2-5.3-3.4-6.3
			l-0.8-0.7l1-0.3c0,0,2.4-0.8,5-1.6c0.6-0.2,1-0.7,1-1.3c0.1-0.6-0.1-1.1-0.5-1.3c-0.3-0.2-0.8,0-1.3,0.4c-1,0.8-2.2,1.3-3.3,1.3
			c-0.4,0-0.9-0.1-1.2-0.2c-0.6-0.3-0.9-0.7-0.9-1.2c0-0.5,0.2-1.3,1.6-2.1c1.7-1,2.6-3.7,2.4-5c0-0.3-0.1-0.5-0.2-0.5
			c-0.1,0-0.5,0.1-1.4,0.9c-3.9,3.9-5.9,4.1-6.1,4.1l-0.9,0l0.3-0.8c0.8-2.3-0.5-8.4-2.2-9.8c-0.3-0.2-0.5-0.3-0.8-0.2
			c-0.4,0.2-0.8,0.8-0.9,1.4c0,0.2,0,0.6,0.2,0.8c1.3,0.9,2.9,4.9,2.3,6.5c-0.2,0.6-0.8,0.9-1.4,0.8c-1.2-0.2-1.6-1.4-1.9-2.3
			c-0.2-0.5-0.4-1-0.6-1.2c-0.1,0-0.3,0-0.5,0.1c-0.1,0-0.3,0.1-0.3,0.2c-0.1,0.5,0.9,1.7,1.6,2.5c0.7,0.9,1.5,1.8,1.8,2.6
			c0.3,0.8,0.3,1.5,0,2.1c-0.5,1-1.7,1.4-3.7,2c-1.2,0.3-1.5,1.2-1.4,1.9c0,0.2,0.2,1.1,1.1,1.2c0.3,0,1.1,0.1,1.4,0.7
			c0.4,0.7-0.1,1.5-0.8,2.6c-0.3,0.6-0.7,1.2-1,1.9c-0.3,0.7-0.4,1.2-0.5,1.6c0.2-0.2,0.3-0.5,0.6-0.9c0.9-1.6,1.9-2.6,3.1-2.9
			c0.3-0.1,0.6-0.1,0.9-0.1c0.7,0,1.3,0.2,1.6,0.4c1,0.5,1,2.4,1,5.7c0,1.3,0,2.7,0.1,3.8c0,0.4,0.1,0.7,0.2,0.8
			c0.3-0.3,0.8-1.1,1.3-2.9c0.9-2.8-1-6.6-1-6.6l-0.1-0.3l1.1-0.6l0.1,0.3c0.2,0.4,2.1,4.4,1.1,7.5
			C-127.9,52.5-128.8,53.8-129.7,53.8L-129.7,53.8z"/>
		<path fill="#75C396" d="M-113.6,92c0,0-10.3,8-8.9,13.2c1.4,5.1,12.4,10,17.1,4.6c4.7-5.4,10.7-13,11.7-15.9
			c0.9-3-1.6-6.7-5.3-5.9C-102.7,88.7-108.4,88.5-113.6,92"/>
		<path fill="#F16993" d="M-122.9,78.8c0,0-2.1,7.8,4,9.7c6,1.9,18.5-9.7,11.5-12.5c-7-2.9-14.4-2.7-15.4,2.7L-122.9,78.8z"/>
		<path fill="#F16993" d="M-26.1,16.3c0,0-1.7-8.9-7.3-8.2c-5.6,0.7-10.6,17.8-3.8,17.8c6.8-0.1,12.5-3.5,11.1-9.4L-26.1,16.3z"/>
		<path fill="#0777BE" d="M-76.1,80.8c0,0-12.6,13.4-14,15.4c-1.4,2.1-10.9,16.9-0.8,21.6c10.1,4.7,25.5,3.2,30.1-1.2
			c4.6-4.4,13.2-19.8,9.2-28.6c-4-8.8-9.9-15.8-15.3-13.2C-72.3,77.4-76.1,80.8-76.1,80.8"/>
		<path fill="#60B74A" d="M-62.3,34.6c2.7,0,5.3,0.3,7.7,0.9c4.3,1.1,7.1,3.7,8.7,7.9c1.7,4.5,1.5,9.6,1.3,12.3
			c-0.1,0.6-1.8,2.9-8.8,5.6c-4.4,1.7-8.7,2.7-10.1,3c-6.6,0-12.3,4-17.4,7.5c-4.2,2.9-8.1,5.6-11.4,5.6c-0.6,0-1.2-0.1-1.8-0.3
			c-1.1-0.3-4.3-1.4-5.4-7.1c-0.7-3.5-0.2-6.7-0.2-6.7l0.1-0.5l0-0.2c0.3-1.2,2.3-5.5,6-11.4c4-6.2,7.4-9.9,8.9-10.9
			C-81,38.1-71.8,34.6-62.3,34.6 M-62.3,30.2c-10.3,0-20.3,3.8-24.8,6.6c-5.8,3.6-17.2,22.5-17,26c0,0-2.3,15.1,8.6,18.6
			c1.1,0.4,2.1,0.5,3.2,0.5c9.6,0,18.6-13.2,28.8-13.2c0.1,0,0.3,0,0.4,0c0,0,22.1-4.5,22.8-12.6c0.7-8.1-0.4-21.6-13.2-24.8
			C-56.4,30.5-59.4,30.2-62.3,30.2"/>
		<path fill="#75C396" d="M-2.5,72.1c0,0-0.4-19-20.4-17.8c-20,1.2-7.3,19.4-7.3,19.4s-14.9-6.8-17.4,2.7
			c-2.5,9.4,7.5,11.2,7.5,11.2s-13.2,8.7-4.2,18.3c6.4,6.9,22.7,4.7,22.7,4.7s10.8,4.4,12.4-4.4c1.6-8.9,0.3-16.5,0.3-16.5
			s14.2,1.8,17.7-8.8C12.3,70.1-2.5,72.1-2.5,72.1"/>
		<path fill="#EACA1B" d="M-19.8,94.1c-0.9,0-1.8-0.3-2.4-0.8c-1.8-1.6-2.3-4.3-2.4-5.8c-0.6,0.9-1.6,2.2-3.2,3.1
			c-0.6,0.4-1.2,0.6-1.9,0.6c-1,0-1.9-0.5-2.3-1.2c-0.6-1-0.5-2.4,0.4-3.7c1.4-2.1,3.6-2.4,4.9-2.5c-1.3-0.9-3.3-3.1-3-4.1
			c0-0.2,0.2-0.5,0.9-0.5c0.2,0,0.5,0,0.9,0.1c1.5,0.4,2.5,1.4,3.1,2.2c-0.1-2.1,0.3-5.1,1.4-6.4c0.6-0.7,1.3-0.9,2.2-0.6
			c1.6,0.6,2.1,2.3,1.6,5.3c-0.1,0.8-0.4,1.6-0.6,2.3c1.2-1.4,2.9-2.8,4.7-2.8c1,0,1.8,0.4,2.6,1.2c0.7,0.7,1,1.5,0.9,2.4
			c-0.2,1.8-1.9,3.4-2.5,3.9c0.6,1.9,0.2,3.7-0.9,5.1C-16.5,93.3-18.2,94.1-19.8,94.1 M-23.8,84.4l-0.1,1.8c0,0-0.2,4.5,2.2,6.6
			c0.5,0.4,1.1,0.6,1.9,0.6c1.4,0,2.9-0.8,3.8-2c1-1.3,1.3-3,0.7-4.8l-0.1-0.2l0.2-0.1c0,0,2.3-1.7,2.4-3.6c0.1-0.7-0.2-1.3-0.7-1.9
			c-0.6-0.7-1.3-1-2-1c-2.1,0-4.3,2.6-5.4,4.1l-1.7,2.3l1.1-2.6c0,0,0.8-2,1.2-4c0.3-1.8,0.4-4.1-1.1-4.6c-0.6-0.2-1-0.1-1.4,0.4
			c-1.4,1.5-1.4,6.1-1.1,7.7c0.1,0.2,0.1,0.4,0.1,0.4l-0.7,0.2c0-0.1-0.1-0.3-0.1-0.4c-0.3-0.8-1.1-2.8-3.5-3.4
			c-0.7-0.2-0.8-0.1-0.8-0.1c0,0,0,0.1,0,0.2c0.2,0.9,2.1,2.9,3,3.4c0.2,0.1,0.6,0.3,0.5,0.6c-0.1,0.3-0.4,0.3-0.9,0.4
			c-1.1,0.1-3.3,0.3-4.6,2.3c-0.8,1.2-0.9,2.3-0.4,3.1c0.6,0.9,2,1.2,3.2,0.4c2.4-1.5,3.5-3.9,3.5-3.9L-23.8,84.4z"/>
		<path fill="#F16993" d="M-31.2,122.6c0,0-14.3-12-17.7-13.3c-3.4-1.3-4.5,1.9-6.3,7.5c-1.8,5.7-10.5,21.6-4.9,24
			C-54.4,143.3-22.4,132.6-31.2,122.6"/>
		<path fill="#0777BE" d="M-14.7,24.8c0,0-10.1-2.4-19.5,6.7c0,0-6.5,12.8,2.2,17.8c8.7,5,19.7,1.5,22.6-4.8
			c2.9-6.3,0.7-6.7,2.9-10.8C-4.3,29.5-14.7,24.8-14.7,24.8"/>
		<path fill="#0777BE" d="M-19.5,140.6c0,0,10.1,2.4,19.5-6.7c9.5-9.1,6.5-12.8-2.2-17.8c-8.7-5-19.7-1.5-22.6,4.8
			c-2.9,6.3-0.5,8.9-2.7,13C-29.7,138.1-19.5,140.6-19.5,140.6"/>
		<path fill="#75C396" d="M-89.3,29.1l44.8-2c0,0,0.3-12.5-10.8-18.1c-11.1-5.6-27.4-1-30.5,5.2C-88.8,20.4-89.3,29.1-89.3,29.1"/>
		<path fill="#75C396" d="M-129.9,84.2c0,0-18.7-12.4-22-13.6c-3.3-1.2-4.8,0.2-4.7,4.2c0.1,4,0.1,6.6-2.3,9.5
			c-2.3,2.9-8.1,10.7-2.8,17.2c5.3,6.5,7.9,15.5,7.1,19.7c-0.9,4.3,2.9,8.4,10.1,7.5c7.2-1,16.4,3.3,20.4,6.4c4,3.1,25.1,3,25-6.9
			c-0.2-9.9-17.2-12.5-24-14.2c-6.7-1.8-21.2-8.5-15.6-12.8c5.7-4.3,14.2-5,14.2-5C-122.6,89.9-129.9,84.2-129.9,84.2"/>
		<path fill="#9C4899" d="M-26.9,45.9c0,0,4.6-2.4,3.5-5.1c-1.2-2.7-11.3-2.3-10.3,1.1C-32.7,45.3-30,47.6-26.9,45.9L-26.9,45.9z"/>
		<path fill="#0777BE" d="M13.1,23.4l-2.5-1.3l-0.8,0.6c0,0,6.8,6,9.4,6.8c2.6,0.8,10.1,1.3,9.8,2.3c-0.3,1.1-2.4,2.4-4,2
			c-1.6-0.4-3.7-0.1-7.9-2.4c-4.2-2.2-11.2-2.8-14,1.4c-2.8,4.2-5,12.1,3.5,15c0,0-3.5,11.4,10.4,16.4c4.9,1.8,16.1-9.4,16.5-10.7
			c0.4-1.3,0.6-6.5,2.5-5.8c1.9,0.7,0.7,7-2.4,11.9c-3.1,4.8,0.8,13.7,4.7,14.5c9.1,2,21.6-10.5,23.3-13.9
			c1.7-3.4,1.6-12.2,0.5-12.8c-5.7-3.4-7.5-4.9-3.5-4.4c3.9,0.4,16-4.8,16.9-7.2c2.5-7.2,1.6-13.3,1.6-13.3s2.7-6.3-1.5-9.9
			c-4.3-3.6-18.1-10.1-25,2.2c-6.9,12.3-6.4,8.4-6.2,6.4c0.2-2,5.4-8.3,5.2-14.3c-0.2-6-5.5-21.2-16-16.9
			C23.1-5.7,19.1-1.5,16.3,1.9c-2.8,3.5,0.1,18.6,7.1,22c7,3.4,5.2,5.2,3.6,4.8C25.4,28.3,16.7,25.7,13.1,23.4"/>
		<path fill="#EACA1B" d="M40.4,53.8l-0.1,0c-1-0.1-1.1-1.5-1.2-2.1c-0.1-1.1-0.1-2.5-0.1-3.9c0-1.5,0-4.4-0.4-4.7
			c-0.2-0.1-0.6-0.3-1-0.3c-0.2,0-0.4,0-0.6,0.1c-0.9,0.3-1.7,1-2.4,2.3c-0.7,1.4-1.3,2-2,2c-0.1,0-0.3,0-0.4-0.1
			c-0.9-0.4-0.6-2.1,0-3.6c0.3-0.8,0.7-1.4,1.1-2c0.3-0.4,0.7-1.1,0.7-1.4c-0.1,0-0.2-0.1-0.4-0.1c-1.2-0.1-2.1-1-2.2-2.3
			c-0.1-1.2,0.6-2.6,2.3-3.2c1.5-0.4,2.7-0.8,2.9-1.3c0.1-0.2,0.1-0.6-0.1-1.1c-0.2-0.6-0.9-1.4-1.6-2.3c-1.1-1.3-2.1-2.5-1.8-3.5
			c0.1-0.3,0.3-0.8,1-1.1c0.6-0.2,1.1-0.3,1.5-0.1c0.7,0.3,1,1.1,1.3,1.9c0.3,0.8,0.5,1.4,1,1.5l0.1,0c0.4-0.9-0.9-4.4-1.9-5
			c-0.6-0.4-0.9-1.1-0.8-1.9c0.1-1.1,0.8-2.1,1.7-2.4c0.7-0.3,1.4-0.1,2,0.4c1.7,1.5,3.2,6.8,2.8,10c0.9-0.4,2.3-1.3,4.4-3.5
			c1.1-1.1,1.9-1.5,2.7-1.2c0.4,0.1,0.9,0.5,1,1.5c0.2,1.7-0.9,4.8-3,6.1c-0.8,0.5-1,0.9-1,1c0,0.1,0.1,0.1,0.2,0.2
			c0.2,0.1,0.4,0.1,0.7,0.1c0.8,0,1.8-0.4,2.6-1c1-0.8,1.9-1,2.7-0.5C53,33,53.5,34,53.4,35c-0.1,1.2-0.8,2.1-1.9,2.4
			c-1.6,0.5-3.1,1-4,1.3c1.5,1.6,4.1,4.7,2.9,7.1c-0.2,0.4-0.8,1.4-1.7,1.4c-1-0.1-1.5-1.4-2.1-3.4l-0.1-0.4
			c-0.2-0.7-1.2-1.3-1.8-1.3c-0.1,0-0.1,0-0.2,0c-0.5,0.2-0.3,1.3-0.2,1.7l0.1,0.3l-1.2,0.3L43.2,44c-0.7-2.5,0.6-3,1-3.2
			c0.2,0,0.4-0.1,0.5-0.1c1.2,0,2.6,1,2.9,2.2l0.1,0.4c0.4,1.5,0.8,2.3,1,2.5c0.1-0.1,0.2-0.2,0.5-0.7c1-1.8-2.2-5.3-3.4-6.3
			l-0.8-0.7l1-0.3c0,0,2.4-0.8,5-1.6c0.6-0.2,1-0.7,1-1.3c0.1-0.6-0.1-1.1-0.5-1.3c-0.3-0.2-0.8,0-1.3,0.4c-1,0.8-2.2,1.3-3.3,1.3
			c-0.4,0-0.9-0.1-1.2-0.2c-0.6-0.3-0.9-0.7-0.9-1.2c0-0.5,0.2-1.3,1.6-2.1c1.7-1,2.6-3.7,2.4-5c0-0.3-0.1-0.5-0.2-0.5
			c-0.1,0-0.5,0.1-1.4,0.9c-3.9,3.9-5.9,4.1-6.1,4.1l-0.9,0l0.3-0.8c0.8-2.3-0.5-8.4-2.2-9.8c-0.3-0.2-0.5-0.3-0.8-0.2
			c-0.4,0.2-0.8,0.8-0.9,1.4c0,0.2,0,0.6,0.2,0.8c1.3,0.9,2.9,4.9,2.3,6.5c-0.2,0.6-0.8,0.9-1.4,0.8c-1.2-0.2-1.6-1.4-1.9-2.3
			c-0.2-0.5-0.4-1-0.6-1.2c-0.1,0-0.3,0-0.5,0.1c-0.1,0-0.3,0.1-0.3,0.2c-0.1,0.5,0.9,1.7,1.6,2.5c0.7,0.9,1.5,1.8,1.8,2.6
			c0.3,0.8,0.3,1.5,0,2.1c-0.5,1-1.7,1.4-3.7,2c-1.2,0.3-1.5,1.2-1.4,1.9c0,0.2,0.2,1.1,1.1,1.2c0.3,0,1.1,0.1,1.4,0.7
			c0.4,0.7-0.1,1.5-0.8,2.6c-0.3,0.6-0.7,1.2-1,1.9c-0.3,0.7-0.4,1.2-0.5,1.6c0.2-0.2,0.3-0.5,0.6-0.9c0.9-1.6,1.9-2.6,3.1-2.9
			c0.3-0.1,0.6-0.1,0.9-0.1c0.7,0,1.3,0.2,1.6,0.4c1,0.5,1,2.4,1,5.7c0,1.3,0,2.7,0.1,3.8c0,0.4,0.1,0.7,0.2,0.8
			c0.3-0.3,0.8-1.1,1.3-2.9c0.9-2.8-1-6.6-1-6.6l-0.1-0.3l1.1-0.6l0.1,0.3c0.2,0.4,2.1,4.4,1.1,7.5C42.2,52.5,41.3,53.8,40.4,53.8
			L40.4,53.8z"/>
		<path fill="#75C396" d="M56.5,92c0,0-10.3,8-8.9,13.2c1.4,5.1,12.4,10,17.1,4.6c4.7-5.4,10.7-13,11.7-15.9c0.9-3-1.6-6.7-5.3-5.9
			C67.4,88.7,61.7,88.5,56.5,92"/>
		<path fill="#75C396" d="M-10.3,2c0,0-10.3,8-8.9,13.2c1.4,5.1,12.4,10,17.1,4.6C2.6,14.4,8.6,6.8,9.5,3.9c0.9-3-1.6-6.7-5.3-5.9
			C0.7-1.3-5.1-1.5-10.3,2"/>
		<path fill="#F16993" d="M47.2,78.8c0,0-2.1,7.8,4,9.7c6,1.9,18.5-9.7,11.5-12.5c-7-2.9-14.4-2.7-15.4,2.7L47.2,78.8z"/>
		<path fill="#F16993" d="M144,16.3c0,0-1.7-8.9-7.3-8.2c-5.6,0.7-10.6,17.8-3.8,17.8c6.8-0.1,12.5-3.5,11.1-9.4L144,16.3z"/>
		<path fill="#0777BE" d="M94,80.8c0,0-12.6,13.4-14,15.4c-1.4,2.1-10.9,16.9-0.8,21.6c10.1,4.7,25.5,3.2,30.1-1.2
			c4.6-4.4,13.2-19.8,9.2-28.6c-4-8.8-9.9-15.8-15.3-13.2C97.8,77.4,94,80.8,94,80.8"/>
		<path fill="#60B74A" d="M107.8,34.6c2.7,0,5.3,0.3,7.7,0.9c4.3,1.1,7.1,3.7,8.7,7.9c1.7,4.5,1.5,9.6,1.3,12.3
			c-0.1,0.6-1.8,2.9-8.8,5.6c-4.4,1.7-8.8,2.7-10.1,3c-6.6,0-12.3,4-17.4,7.5c-4.2,2.9-8.1,5.6-11.4,5.6c-0.6,0-1.2-0.1-1.8-0.3
			c-1.1-0.3-4.3-1.4-5.4-7.1c-0.7-3.5-0.2-6.7-0.2-6.7l0.1-0.5l0-0.2c0.3-1.2,2.3-5.5,6-11.4c4-6.2,7.4-9.9,8.9-10.9
			C89.1,38.1,98.3,34.6,107.8,34.6 M107.8,30.2c-10.3,0-20.3,3.8-24.8,6.6c-5.8,3.6-17.2,22.5-17,26c0,0-2.3,15.1,8.6,18.6
			c1.1,0.4,2.1,0.5,3.2,0.5c9.6,0,18.6-13.2,28.8-13.2c0.1,0,0.2,0,0.4,0c0,0,22.1-4.5,22.8-12.6c0.7-8.1-0.4-21.6-13.3-24.8
			C113.7,30.5,110.7,30.2,107.8,30.2"/>
		<path fill="#75C396" d="M170.8,76.6c0,0-0.4-19-20.4-17.8c-20,1.2-7.3,19.4-7.3,19.4s-14.9-6.8-17.4,2.7
			c-2.5,9.4,7.5,11.2,7.5,11.2s-13.2,8.7-4.2,18.3c6.4,6.9,22.7,4.7,22.7,4.7s10.8,4.4,12.4-4.4c1.6-8.9,0.3-16.5,0.3-16.5
			s14.2,1.8,17.7-8.8C185.6,74.6,170.8,76.6,170.8,76.6"/>
		<path fill="#FF671B" d="M153.5,98.6c-0.9,0-1.8-0.3-2.4-0.8c-1.8-1.6-2.3-4.3-2.4-5.8c-0.6,0.9-1.6,2.2-3.2,3.1
			c-0.6,0.4-1.2,0.6-1.9,0.6c-1,0-1.9-0.5-2.3-1.2c-0.6-1-0.5-2.4,0.4-3.7c1.4-2.1,3.6-2.4,4.8-2.5c-1.3-0.9-3.3-3.1-3-4.1
			c0-0.2,0.2-0.5,0.9-0.5c0.2,0,0.5,0,0.9,0.1c1.5,0.4,2.5,1.4,3.1,2.2c-0.1-2.1,0.3-5.1,1.4-6.4c0.6-0.7,1.3-0.9,2.2-0.6
			c1.6,0.6,2.1,2.4,1.6,5.3c-0.1,0.8-0.4,1.6-0.6,2.3c1.2-1.4,2.9-2.8,4.7-2.8c1,0,1.8,0.4,2.6,1.2c0.7,0.7,1,1.5,0.9,2.4
			c-0.2,1.8-1.9,3.4-2.5,3.9c0.6,1.9,0.2,3.7-0.9,5.1C156.8,97.7,155.1,98.6,153.5,98.6 M149.5,88.9l-0.1,1.8c0,0-0.2,4.5,2.2,6.6
			c0.5,0.4,1.1,0.6,1.9,0.6c1.4,0,2.9-0.8,3.8-2c1-1.3,1.3-3,0.7-4.8L158,91l0.2-0.1c0,0,2.3-1.7,2.4-3.6c0.1-0.7-0.2-1.3-0.7-1.9
			c-0.6-0.7-1.3-1-2-1c-2.1,0-4.3,2.6-5.4,4.1l-1.7,2.3l1.1-2.6c0,0,0.8-2,1.2-4c0.3-1.8,0.4-4.1-1.1-4.6c-0.6-0.2-1-0.1-1.4,0.4
			c-1.4,1.5-1.4,6.1-1.1,7.7c0.1,0.2,0.1,0.4,0.1,0.4l-0.7,0.2c0-0.1-0.1-0.3-0.1-0.4c-0.3-0.8-1.1-2.8-3.5-3.4
			c-0.7-0.2-0.8-0.1-0.8-0.1c0,0,0,0.1,0,0.2c0.2,0.9,2.1,2.9,3,3.4c0.2,0.1,0.6,0.3,0.5,0.6c-0.1,0.3-0.4,0.3-0.9,0.4
			c-1.1,0.1-3.3,0.3-4.6,2.3c-0.8,1.2-0.9,2.3-0.4,3.1c0.6,0.9,2,1.2,3.2,0.4c2.4-1.5,3.5-3.9,3.5-3.9L149.5,88.9z"/>
		<path fill="#F16993" d="M131.2,134.4c0,0-7.4-17.1-9.9-19.8c-2.5-2.7-4.8-0.3-9,3.9c-4.2,4.3-19.1,14.6-15.1,19.3
			C101.3,142.5,134.6,147.3,131.2,134.4"/>
		<path fill="#0777BE" d="M155.4,26.7c0,0-10.1-2.4-19.5,6.7c0,0-6.5,12.8,2.2,17.8c8.7,5,19.7,1.5,22.6-4.8
			c2.9-6.3,0.7-6.7,2.9-10.8C165.8,31.4,155.4,26.7,155.4,26.7"/>
		<path fill="#0777BE" d="M140.2,148.2c0,0,9.5,4.1,20.4-3.3c10.9-7.4,8.6-11.5,0.9-17.9c-7.7-6.4-19.2-4.8-23.1,0.9
			c-3.9,5.8-2,8.7-4.8,12.4C130.6,144.1,140.2,148.2,140.2,148.2"/>
		<path fill="#75C396" d="M80.8,29.1l44.8-2c0,0,0.3-12.5-10.8-18.1c-11.1-5.6-27.4-1-30.5,5.2C81.3,20.4,80.8,29.1,80.8,29.1"/>
		<path fill="#75C396" d="M40.2,84.2c0,0-18.7-12.4-22-13.6c-3.3-1.2-4.8,0.2-4.7,4.2c0.1,4,0.1,6.6-2.3,9.5
			c-2.3,2.9-8.1,10.7-2.8,17.2c5.3,6.5,7.9,15.5,7.1,19.7c-0.9,4.3,2.9,8.4,10.1,7.5c7.2-1,16.4,3.3,20.4,6.4c4,3.1,25.1,3,25-6.9
			c-0.2-9.9-17.2-12.5-24-14.2s-21.2-8.5-15.6-12.8c5.7-4.3,14.2-5,14.2-5C47.5,89.9,40.2,84.2,40.2,84.2"/>
		<path fill="#9C4899" d="M143.2,47.8c0,0,4.6-2.4,3.5-5.1c-1.2-2.7-11.3-2.3-10.3,1.1C137.4,47.2,140.1,49.6,143.2,47.8L143.2,47.8
			z"/>
	</g>
</g>
</svg>
