<?xml version="1.0" encoding="utf-8"?>
<!-- Generator: Adobe Illustrator 17.1.0, SVG Export Plug-In . SVG Version: 6.00 Build 0)  -->
<!DOCTYPE svg PUBLIC "-//W3C//DTD SVG 1.1//EN" "http://www.w3.org/Graphics/SVG/1.1/DTD/svg11.dtd">
<svg version="1.1" id="Layer_1" xmlns="http://www.w3.org/2000/svg" xmlns:xlink="http://www.w3.org/1999/xlink" x="0px" y="0px"
	 viewBox="140 115 113.7 194.9" enable-background="new 140 115 113.7 194.9" xml:space="preserve">
<path fill="#FFFFFF" d="M253.7,212.5c0,1.7-0.6,3.2-2,4.5l-91,91c-1.3,1.3-2.8,2-4.5,2s-3.2-0.6-4.5-2l-9.8-9.8
	c-1.3-1.3-2-2.8-2-4.5s0.6-3.2,2-4.5l76.8-76.8L142,135.7c-1.3-1.3-2-2.8-2-4.5s0.6-3.2,2-4.5l9.8-9.8c1.3-1.3,2.8-2,4.5-2
	s3.2,0.6,4.5,2l91,91C253.1,209.3,253.7,210.8,253.7,212.5z"/>
</svg>
