<?xml version="1.0" encoding="utf-8"?>
<!-- Generator: Adobe Illustrator 17.1.0, SVG Export Plug-In . SVG Version: 6.00 Build 0)  -->
<!DOCTYPE svg PUBLIC "-//W3C//DTD SVG 1.1//EN" "http://www.w3.org/Graphics/SVG/1.1/DTD/svg11.dtd">
<svg version="1.1" id="Layer_1" xmlns="http://www.w3.org/2000/svg" xmlns:xlink="http://www.w3.org/1999/xlink" x="0px" y="0px"
	 viewBox="0 0 200 124" enable-background="new 0 0 200 124" xml:space="preserve">
<line fill="none" stroke="#040407" stroke-width="5" stroke-miterlimit="10" x1="0" y1="121.5" x2="200" y2="121.5"/>
<path fill="none" stroke="#040407" stroke-width="5" stroke-linecap="round" stroke-linejoin="round" stroke-miterlimit="10" d="
	M173.7,2.5h-62.9l6.1,103.9c0,4.5-2.5,15.1,24.4,15.1h1.9c27,0,24.4-10.6,24.4-15.1L173.7,2.5z"/>
<path fill="none" stroke="#040407" stroke-width="5" stroke-linecap="round" stroke-linejoin="round" stroke-miterlimit="10" d="
	M141.3,112.5c-12,0-15.1-2.3-15.4-2.7c-0.1-0.4-0.1-1.4,0-2c0-0.5,0-1,0-1.4v-0.3l-3.7-63.6"/>
<line fill="none" stroke="#000000" stroke-width="5" stroke-linecap="round" stroke-linejoin="round" stroke-miterlimit="10" x1="112.4" y1="17.8" x2="172.1" y2="17.8"/>
<line fill="none" stroke="#000000" stroke-width="5" stroke-linecap="round" stroke-linejoin="round" stroke-miterlimit="10" x1="39" y1="26.8" x2="88.1" y2="26.8"/>
<path fill="none" stroke="#000000" stroke-width="5" stroke-linecap="round" stroke-linejoin="round" stroke-miterlimit="10" d="
	M37.3,2.5l0.3,0.9c1.3,4.5,2,9.4,2,14.6c0,11.5-3.6,21.8-9.2,28.3l0,0l0,0c-2.6,4.7-4,10.2-4,15.8C26.3,80,38,94.5,56.2,96.8
	l0.3,0.4c0.9,1.5,1.5,4,1.5,7c0,2.5-0.4,4.7-1.1,6.3l-0.2,0.4l0.3,0.3c0,0.1,0,0.1,0,0.1c0,0,0,0.2-0.2,0.4
	c-0.2,0.2-0.6,0.6-1.1,0.9c-1.1,0.6-2.8,1.3-4.9,2c-4.2,1.3-7.8,2.5-14.4,3.4c-0.7,0.1-1.3,0.2-2,0.3H34l-0.2,0.3
	c-0.6,0.7-0.9,1.6-0.9,2.4v0.7h0.7h57.6h0.7v-0.7c0-1.1-0.5-2.1-1.3-3l-0.2-0.2l-0.2,0c-6.5-0.9-10-2.1-14.1-3.4
	c-2-0.6-3.7-1.3-4.7-1.9c-0.5-0.3-0.9-0.6-1.1-0.8c-0.2-0.2-0.2-0.3-0.2-0.3c0,0,0,0,0-0.1l0.2-0.3l-0.1-0.3
	c-0.7-1.5-1.1-3.8-1.1-6.2c0-3,0.7-5.5,1.5-7l0.2-0.4C89,94.5,100.8,80,100.8,62.2c0-5.7-1.4-11.1-4-15.8l0,0l0,0
	c-5.6-6.5-9.2-16.8-9.2-28.3c0-5.2,0.7-10.1,2-14.6l0.3-0.9h-0.9H38.2L37.3,2.5L37.3,2.5z"/>
<path fill="none" stroke="#000000" stroke-width="5" stroke-linecap="round" stroke-linejoin="round" stroke-miterlimit="10" d="
	M57.3,87.9c-13.2-1.7-22-12-22-25.6"/>
</svg>
