<?xml version="1.0" encoding="utf-8"?>
<!-- Generator: Adobe Illustrator 17.1.0, SVG Export Plug-In . SVG Version: 6.00 Build 0)  -->
<!DOCTYPE svg PUBLIC "-//W3C//DTD SVG 1.1//EN" "http://www.w3.org/Graphics/SVG/1.1/DTD/svg11.dtd">
<svg version="1.1" id="Layer_1" xmlns="http://www.w3.org/2000/svg" xmlns:xlink="http://www.w3.org/1999/xlink" x="0px" y="0px"
	 viewBox="0 0 512 512" enable-background="new 0 0 512 512" xml:space="preserve">
<path fill="#FFFFFF" d="M432.4,0H84.9C39.8,0,0,32.8,0,78v347.5C0,470.6,39.8,511,84.9,511h215.1c-0.4-67,0.1-141.6-0.2-206.4
	c-13.7-0.1-27.5-0.8-41.2-1.1c0.1-22.9,0-46.3,0-69.2c13.7-0.2,27.4-0.2,41.2-0.3c0.4-22.3-0.4-44.7,0.4-66.9
	c1.4-17.6,8.1-35.4,21.3-47.6c15.9-15.2,38.6-20.3,60-21c22.6-0.2,45.2-0.1,67.9-0.1c0.1,23.9,0.1,47.7,0,71.6
	c-14.6,0-29.3,0-43.9,0c-9.3-0.6-18.8,6.4-20.5,15.6c-0.2,16-0.1,31.9-0.1,47.9c21.4,0.1,42.9,0,64.3,0.1c-1.6,23.1-4.4,46.1-7.8,69
	c-18.9,0.2-37.9,1.9-56.8,2c-0.2,64.8,0,139.4-0.1,206.4h47.8c45.2,0,78.6-40.4,78.6-85.6V78C511,32.8,477.6,0,432.4,0z"/>
</svg>
