<?xml version="1.0" encoding="utf-8"?>
<!-- Generator: Adobe Illustrator 17.1.0, SVG Export Plug-In . SVG Version: 6.00 Build 0)  -->
<!DOCTYPE svg PUBLIC "-//W3C//DTD SVG 1.1//EN" "http://www.w3.org/Graphics/SVG/1.1/DTD/svg11.dtd">
<svg version="1.1" id="Layer_1" xmlns="http://www.w3.org/2000/svg" xmlns:xlink="http://www.w3.org/1999/xlink" x="0px" y="0px"
	 viewBox="0 0 110.9 110.9" enable-background="new 0 0 110.9 110.9" xml:space="preserve">
<g>
	<defs>
		<rect id="SVGID_1_" width="110.9" height="110.9"/>
	</defs>
	<clipPath id="SVGID_2_">
		<use xlink:href="#SVGID_1_"  overflow="visible"/>
	</clipPath>
	<path clip-path="url(#SVGID_2_)" fill="#BB6CAC" d="M55.5,110.9c30.6,0,55.5-24.8,55.5-55.5S86.1,0,55.5,0S0,24.8,0,55.5
		S24.8,110.9,55.5,110.9"/>
</g>
<g>
	<defs>
		<circle id="SVGID_3_" cx="55.5" cy="55.5" r="55.5"/>
	</defs>
	<clipPath id="SVGID_4_">
		<use xlink:href="#SVGID_3_"  overflow="visible"/>
	</clipPath>
	<path clip-path="url(#SVGID_4_)" fill="#FFFFFF" d="M436,14.9c-5.2,0-8-1.3-10.2-2.3c-1.7-0.8-2.9-1.3-5.6-1.3
		c-2.8,0-3.9,0.5-5.6,1.3c-2.2,1-5,2.3-10.2,2.3c-5.2,0-8-1.3-10.2-2.3c-1.7-0.8-2.9-1.3-5.6-1.3c-2.8,0-3.9,0.5-5.6,1.3
		c-2.2,1-5,2.3-10.2,2.3c-5.2,0-8-1.3-10.2-2.3c-1.7-0.8-2.9-1.3-5.6-1.3c-2.8,0-3.9,0.5-5.6,1.3c-2.2,1-5,2.3-10.2,2.3
		c-5.2,0-8-1.3-10.2-2.3c-1.7-0.8-2.9-1.3-5.6-1.3c-2.8,0-3.9,0.5-5.6,1.3c-2.2,1-5,2.3-10.2,2.3c-5.2,0-8-1.3-10.2-2.3
		c-1.7-0.8-2.9-1.3-5.6-1.3c-2.8,0-3.9,0.5-5.6,1.3c-2.3,1-5,2.3-10.2,2.3s-8-1.3-10.2-2.3c-1.7-0.8-2.9-1.3-5.6-1.3
		c-2.8,0-3.9,0.5-5.6,1.3c-2.2,1-5,2.3-10.2,2.3c-5.2,0-8-1.3-10.2-2.3c-1.7-0.8-2.9-1.3-5.6-1.3c-2.8,0-3.9,0.5-5.6,1.3
		c-2.2,1-5,2.3-10.2,2.3c-5.2,0-8-1.3-10.2-2.3c-1.7-0.8-2.9-1.3-5.6-1.3s-3.9,0.5-5.6,1.3c-2.3,1-5,2.3-10.2,2.3
		c-5.2,0-8-1.3-10.2-2.3c-1.7-0.8-2.9-1.3-5.6-1.3c-2.8,0-3.9,0.5-5.6,1.3c-2.2,1-5.1,2.3-10.2,2.3c-5.2,0-8-1.3-10.2-2.3
		c-1.7-0.8-2.9-1.3-5.6-1.3c-2.8,0-3.9,0.5-5.6,1.3c-2.3,1-5,2.3-10.2,2.3c-5.2,0-8-1.3-10.2-2.3c-1.7-0.8-2.9-1.3-5.6-1.3
		c-2.8,0-3.9,0.5-5.6,1.3c-2.2,1-5,2.3-10.2,2.3c-5.2,0-8-1.3-10.2-2.3c-1.7-0.8-2.9-1.3-5.6-1.3c-2.8,0-3.9,0.5-5.6,1.3
		c-2.3,1-5,2.3-10.2,2.3c-5.2,0-8-1.3-10.2-2.3c-1.7-0.8-2.9-1.3-5.6-1.3c-2.8,0-3.9,0.5-5.6,1.3c-2.2,1-5,2.3-10.2,2.3
		c-5.2,0-8-1.3-10.2-2.3c-1.7-0.8-2.9-1.3-5.6-1.3c-2.8,0-3.9,0.5-5.6,1.3c-2.2,1-5.1,2.3-10.2,2.3c-5.2,0-8-1.3-10.2-2.3
		c-1.7-0.8-2.9-1.3-5.6-1.3c-2.8,0-3.9,0.5-5.6,1.3c-2.2,1-5,2.3-10.2,2.3c-5.2,0-8-1.3-10.2-2.3c-1.7-0.8-2.9-1.3-5.6-1.3
		c-2.8,0-3.9,0.5-5.6,1.3c-2.2,1-5,2.3-10.2,2.3c-5.2,0-8-1.3-10.2-2.3c-1.7-0.8-2.9-1.3-5.6-1.3c-2.8,0-3.9,0.5-5.6,1.3
		c-2.2,1-5,2.3-10.2,2.3c-5.2,0-8-1.3-10.2-2.3c-1.7-0.8-2.9-1.3-5.6-1.3c-2.8,0-3.9,0.5-5.6,1.3c-2.2,1-5,2.3-10.2,2.3
		c-5.2,0-8-1.3-10.2-2.3c-1.7-0.8-2.9-1.3-5.6-1.3c-2.8,0-3.9,0.5-5.6,1.3c-2.2,1-5,2.3-10.2,2.3c-5.2,0-8-1.3-10.2-2.3
		c-1.7-0.8-2.9-1.3-5.6-1.3c-2.8,0-3.9,0.5-5.6,1.3c-2.2,1-5,2.3-10.2,2.3c-5.2,0-8-1.3-10.2-2.3c-1.7-0.8-2.9-1.3-5.6-1.3
		c-2.8,0-3.9,0.5-5.6,1.3c-2.2,1-5,2.3-10.2,2.3c-5.2,0-8-1.3-10.2-2.3c-1.7-0.8-2.9-1.3-5.6-1.3c-2.8,0-3.9,0.5-5.6,1.3
		c-2.2,1-5.1,2.3-10.2,2.3c-5.2,0-8-1.3-10.2-2.3c-1.7-0.8-2.9-1.3-5.6-1.3c-2.8,0-3.9,0.5-5.6,1.3c-2.2,1-5,2.3-10.2,2.3
		c-5.2,0-8-1.3-10.2-2.3c-1.7-0.8-2.9-1.3-5.6-1.3V1.1c5.2,0,8,1.3,10.2,2.3c1.7,0.8,2.9,1.3,5.6,1.3c2.8,0,3.9-0.5,5.6-1.3
		c2.2-1,5-2.3,10.2-2.3c5.2,0,8,1.3,10.2,2.3c1.7,0.8,2.9,1.3,5.6,1.3c2.8,0,3.9-0.5,5.6-1.3c2.2-1,5-2.3,10.2-2.3
		c5.2,0,8,1.3,10.2,2.3c1.7,0.8,2.9,1.3,5.6,1.3c2.8,0,3.9-0.5,5.6-1.3c2.2-1,5-2.3,10.2-2.3c5.2,0,8,1.3,10.2,2.3
		c1.7,0.8,2.9,1.3,5.6,1.3c2.8,0,3.9-0.5,5.6-1.3c2.2-1,5-2.3,10.2-2.3c5.2,0,8,1.3,10.2,2.3c1.7,0.8,2.9,1.3,5.6,1.3
		c2.8,0,3.9-0.5,5.6-1.3c2.2-1,5-2.3,10.2-2.3c5.2,0,8,1.3,10.2,2.3c1.7,0.8,2.9,1.3,5.6,1.3c2.8,0,3.9-0.5,5.6-1.3
		c2.2-1,5-2.3,10.2-2.3c5.2,0,8,1.3,10.2,2.3c1.7,0.8,2.9,1.3,5.6,1.3c2.8,0,3.9-0.5,5.6-1.3c2.2-1,5-2.3,10.2-2.3
		c5.2,0,8,1.3,10.2,2.3c1.7,0.8,2.9,1.3,5.6,1.3c2.8,0,3.9-0.5,5.6-1.3c2.2-1,5-2.3,10.2-2.3c5.2,0,8,1.3,10.2,2.3
		c1.7,0.8,2.9,1.3,5.6,1.3s3.9-0.5,5.6-1.3c2.2-1,5-2.3,10.2-2.3c5.2,0,8,1.3,10.2,2.3c1.7,0.8,2.9,1.3,5.6,1.3s3.9-0.5,5.6-1.3
		c2.2-1,5-2.3,10.2-2.3c5.2,0,8,1.3,10.2,2.3c1.7,0.8,2.9,1.3,5.6,1.3c2.8,0,3.9-0.5,5.6-1.3c2.2-1,5.1-2.3,10.2-2.3
		c5.2,0,8,1.3,10.2,2.3c1.7,0.8,2.9,1.3,5.6,1.3c2.8,0,3.9-0.5,5.6-1.3c2.2-1,5-2.3,10.2-2.3c5.2,0,8,1.3,10.2,2.3
		c1.7,0.8,2.9,1.3,5.6,1.3c2.8,0,3.9-0.5,5.6-1.3c2.2-1,5-2.3,10.2-2.3c5.2,0,8,1.3,10.2,2.3c1.7,0.8,2.9,1.3,5.6,1.3
		c2.8,0,3.9-0.5,5.6-1.3c2.2-1,5-2.3,10.2-2.3c5.2,0,8,1.3,10.2,2.3c1.7,0.8,2.9,1.3,5.6,1.3c2.8,0,3.9-0.5,5.6-1.3
		c2.2-1,5-2.3,10.2-2.3c5.2,0,8,1.3,10.2,2.3c1.7,0.8,2.9,1.3,5.6,1.3c2.8,0,3.9-0.5,5.6-1.3c2.3-1,5.1-2.3,10.2-2.3
		c5.2,0,8,1.3,10.2,2.3c1.7,0.8,2.9,1.3,5.6,1.3c2.8,0,3.9-0.5,5.6-1.3c2.2-1,5-2.3,10.2-2.3c5.2,0,8,1.3,10.2,2.3
		c1.7,0.8,2.9,1.3,5.6,1.3s3.9-0.5,5.6-1.3c2.2-1,5-2.3,10.2-2.3s8,1.3,10.2,2.3c1.7,0.8,2.9,1.3,5.6,1.3c2.8,0,3.9-0.5,5.6-1.3
		c2.2-1,5-2.3,10.2-2.3c5.2,0,8,1.3,10.2,2.3c1.7,0.8,2.9,1.3,5.6,1.3c2.8,0,3.9-0.5,5.6-1.3c2.2-1,5.1-2.3,10.2-2.3
		c5.2,0,8,1.3,10.2,2.3c1.7,0.8,2.9,1.3,5.6,1.3c2.8,0,3.9-0.5,5.6-1.3c2.2-1,5-2.3,10.2-2.3s8,1.3,10.2,2.3
		c1.7,0.8,2.9,1.3,5.6,1.3c2.8,0,3.9-0.5,5.6-1.3c2.2-1,5-2.3,10.2-2.3c5.2,0,8,1.3,10.2,2.3c1.7,0.8,2.9,1.3,5.6,1.3
		c2.8,0,3.9-0.5,5.6-1.3c2.2-1,5-2.3,10.2-2.3c5.2,0,8,1.3,10.2,2.3c1.7,0.8,2.9,1.3,5.6,1.3c2.8,0,3.9-0.5,5.6-1.3
		c2.2-1,5-2.3,10.2-2.3v10.1c-2.8,0-3.9,0.5-5.6,1.3C444,13.6,441.2,14.9,436,14.9"/>
	<path clip-path="url(#SVGID_4_)" fill="#FFFFFF" d="M436,38.1c-5.2,0-8-1.3-10.2-2.3c-1.7-0.8-2.9-1.3-5.6-1.3
		c-2.8,0-3.9,0.5-5.6,1.3c-2.2,1-5,2.3-10.2,2.3c-5.2,0-8-1.3-10.2-2.3c-1.7-0.8-2.9-1.3-5.6-1.3c-2.8,0-3.9,0.5-5.6,1.3
		c-2.2,1-5,2.3-10.2,2.3c-5.2,0-8-1.3-10.2-2.3c-1.7-0.8-2.9-1.3-5.6-1.3c-2.8,0-3.9,0.5-5.6,1.3c-2.2,1-5,2.3-10.2,2.3
		c-5.2,0-8-1.3-10.2-2.3c-1.7-0.8-2.9-1.3-5.6-1.3c-2.8,0-3.9,0.5-5.6,1.3c-2.2,1-5,2.3-10.2,2.3c-5.2,0-8-1.3-10.2-2.3
		c-1.7-0.8-2.9-1.3-5.6-1.3c-2.8,0-3.9,0.5-5.6,1.3c-2.3,1-5,2.3-10.2,2.3s-8-1.3-10.2-2.3c-1.7-0.8-2.9-1.3-5.6-1.3
		c-2.8,0-3.9,0.5-5.6,1.3c-2.2,1-5,2.3-10.2,2.3c-5.2,0-8-1.3-10.2-2.3c-1.7-0.8-2.9-1.3-5.6-1.3c-2.8,0-3.9,0.5-5.6,1.3
		c-2.2,1-5,2.3-10.2,2.3c-5.2,0-8-1.3-10.2-2.3c-1.7-0.8-2.9-1.3-5.6-1.3s-3.9,0.5-5.6,1.3c-2.3,1-5,2.3-10.2,2.3
		c-5.2,0-8-1.3-10.2-2.3c-1.7-0.8-2.9-1.3-5.6-1.3c-2.8,0-3.9,0.5-5.6,1.3c-2.2,1-5.1,2.3-10.2,2.3c-5.2,0-8-1.3-10.2-2.3
		c-1.7-0.8-2.9-1.3-5.6-1.3c-2.8,0-3.9,0.5-5.6,1.3c-2.3,1-5,2.3-10.2,2.3c-5.2,0-8-1.3-10.2-2.3c-1.7-0.8-2.9-1.3-5.6-1.3
		c-2.8,0-3.9,0.5-5.6,1.3c-2.2,1-5,2.3-10.2,2.3c-5.2,0-8-1.3-10.2-2.3c-1.7-0.8-2.9-1.3-5.6-1.3c-2.8,0-3.9,0.5-5.6,1.3
		c-2.3,1-5,2.3-10.2,2.3c-5.2,0-8-1.3-10.2-2.3c-1.7-0.8-2.9-1.3-5.6-1.3c-2.8,0-3.9,0.5-5.6,1.3c-2.2,1-5,2.3-10.2,2.3
		c-5.2,0-8-1.3-10.2-2.3c-1.7-0.8-2.9-1.3-5.6-1.3c-2.8,0-3.9,0.5-5.6,1.3c-2.2,1-5.1,2.3-10.2,2.3c-5.2,0-8-1.3-10.2-2.3
		c-1.7-0.8-2.9-1.3-5.6-1.3c-2.8,0-3.9,0.5-5.6,1.3c-2.2,1-5,2.3-10.2,2.3c-5.2,0-8-1.3-10.2-2.3c-1.7-0.8-2.9-1.3-5.6-1.3
		c-2.8,0-3.9,0.5-5.6,1.3c-2.2,1-5,2.3-10.2,2.3c-5.2,0-8-1.3-10.2-2.3c-1.7-0.8-2.9-1.3-5.6-1.3c-2.8,0-3.9,0.5-5.6,1.3
		c-2.2,1-5,2.3-10.2,2.3c-5.2,0-8-1.3-10.2-2.3c-1.7-0.8-2.9-1.3-5.6-1.3c-2.8,0-3.9,0.5-5.6,1.3c-2.2,1-5,2.3-10.2,2.3
		c-5.2,0-8-1.3-10.2-2.3c-1.7-0.8-2.9-1.3-5.6-1.3c-2.8,0-3.9,0.5-5.6,1.3c-2.2,1-5,2.3-10.2,2.3c-5.2,0-8-1.3-10.2-2.3
		c-1.7-0.8-2.9-1.3-5.6-1.3c-2.8,0-3.9,0.5-5.6,1.3c-2.2,1-5,2.3-10.2,2.3c-5.2,0-8-1.3-10.2-2.3c-1.7-0.8-2.9-1.3-5.6-1.3
		c-2.8,0-3.9,0.5-5.6,1.3c-2.2,1-5,2.3-10.2,2.3c-5.2,0-8-1.3-10.2-2.3c-1.7-0.8-2.9-1.3-5.6-1.3c-2.8,0-3.9,0.5-5.6,1.3
		c-2.2,1-5.1,2.3-10.2,2.3c-5.2,0-8-1.3-10.2-2.3c-1.7-0.8-2.9-1.3-5.6-1.3c-2.8,0-3.9,0.5-5.6,1.3c-2.2,1-5,2.3-10.2,2.3
		c-5.2,0-8-1.3-10.2-2.3c-1.7-0.8-2.9-1.3-5.6-1.3V24.3c5.2,0,8,1.3,10.2,2.3c1.7,0.8,2.9,1.3,5.6,1.3c2.8,0,3.9-0.5,5.6-1.3
		c2.2-1,5-2.3,10.2-2.3c5.2,0,8,1.3,10.2,2.3c1.7,0.8,2.9,1.3,5.6,1.3c2.8,0,3.9-0.5,5.6-1.3c2.2-1,5-2.3,10.2-2.3
		c5.2,0,8,1.3,10.2,2.3c1.7,0.8,2.9,1.3,5.6,1.3c2.8,0,3.9-0.5,5.6-1.3c2.2-1,5-2.3,10.2-2.3c5.2,0,8,1.3,10.2,2.3
		c1.7,0.8,2.9,1.3,5.6,1.3c2.8,0,3.9-0.5,5.6-1.3c2.2-1,5-2.3,10.2-2.3c5.2,0,8,1.3,10.2,2.3c1.7,0.8,2.9,1.3,5.6,1.3
		c2.8,0,3.9-0.5,5.6-1.3c2.2-1,5-2.3,10.2-2.3c5.2,0,8,1.3,10.2,2.3c1.7,0.8,2.9,1.3,5.6,1.3c2.8,0,3.9-0.5,5.6-1.3
		c2.2-1,5-2.3,10.2-2.3c5.2,0,8,1.3,10.2,2.3c1.7,0.8,2.9,1.3,5.6,1.3c2.8,0,3.9-0.5,5.6-1.3c2.2-1,5-2.3,10.2-2.3
		c5.2,0,8,1.3,10.2,2.3c1.7,0.8,2.9,1.3,5.6,1.3c2.8,0,3.9-0.5,5.6-1.3c2.2-1,5-2.3,10.2-2.3c5.2,0,8,1.3,10.2,2.3
		c1.7,0.8,2.9,1.3,5.6,1.3s3.9-0.5,5.6-1.3c2.2-1,5-2.3,10.2-2.3c5.2,0,8,1.3,10.2,2.3c1.7,0.8,2.9,1.3,5.6,1.3s3.9-0.5,5.6-1.3
		c2.2-1,5-2.3,10.2-2.3c5.2,0,8,1.3,10.2,2.3c1.7,0.8,2.9,1.3,5.6,1.3c2.8,0,3.9-0.5,5.6-1.3c2.2-1,5.1-2.3,10.2-2.3
		c5.2,0,8,1.3,10.2,2.3c1.7,0.8,2.9,1.3,5.6,1.3c2.8,0,3.9-0.5,5.6-1.3c2.2-1,5-2.3,10.2-2.3c5.2,0,8,1.3,10.2,2.3
		c1.7,0.8,2.9,1.3,5.6,1.3c2.8,0,3.9-0.5,5.6-1.3c2.2-1,5-2.3,10.2-2.3c5.2,0,8,1.3,10.2,2.3c1.7,0.8,2.9,1.3,5.6,1.3
		c2.8,0,3.9-0.5,5.6-1.3c2.2-1,5-2.3,10.2-2.3c5.2,0,8,1.3,10.2,2.3c1.7,0.8,2.9,1.3,5.6,1.3c2.8,0,3.9-0.5,5.6-1.3
		c2.2-1,5-2.3,10.2-2.3c5.2,0,8,1.3,10.2,2.3c1.7,0.8,2.9,1.3,5.6,1.3c2.8,0,3.9-0.5,5.6-1.3c2.3-1,5.1-2.3,10.2-2.3
		c5.2,0,8,1.3,10.2,2.3c1.7,0.8,2.9,1.3,5.6,1.3c2.8,0,3.9-0.5,5.6-1.3c2.2-1,5-2.3,10.2-2.3c5.2,0,8,1.3,10.2,2.3
		c1.7,0.8,2.9,1.3,5.6,1.3s3.9-0.5,5.6-1.3c2.2-1,5-2.3,10.2-2.3s8,1.3,10.2,2.3c1.7,0.8,2.9,1.3,5.6,1.3c2.8,0,3.9-0.5,5.6-1.3
		c2.2-1,5-2.3,10.2-2.3c5.2,0,8,1.3,10.2,2.3c1.7,0.8,2.9,1.3,5.6,1.3c2.8,0,3.9-0.5,5.6-1.3c2.2-1,5.1-2.3,10.2-2.3
		c5.2,0,8,1.3,10.2,2.3c1.7,0.8,2.9,1.3,5.6,1.3c2.8,0,3.9-0.5,5.6-1.3c2.2-1,5-2.3,10.2-2.3s8,1.3,10.2,2.3
		c1.7,0.8,2.9,1.3,5.6,1.3c2.8,0,3.9-0.5,5.6-1.3c2.2-1,5-2.3,10.2-2.3c5.2,0,8,1.3,10.2,2.3c1.7,0.8,2.9,1.3,5.6,1.3
		c2.8,0,3.9-0.5,5.6-1.3c2.2-1,5-2.3,10.2-2.3c5.2,0,8,1.3,10.2,2.3c1.7,0.8,2.9,1.3,5.6,1.3c2.8,0,3.9-0.5,5.6-1.3
		c2.2-1,5-2.3,10.2-2.3v10.1c-2.8,0-3.9,0.5-5.6,1.3C444,36.8,441.2,38.1,436,38.1"/>
	<path clip-path="url(#SVGID_4_)" fill="#FFFFFF" d="M436,61.3c-5.2,0-8-1.3-10.2-2.3c-1.7-0.8-2.9-1.3-5.6-1.3
		c-2.8,0-3.9,0.5-5.6,1.3c-2.2,1-5,2.3-10.2,2.3c-5.2,0-8-1.3-10.2-2.3c-1.7-0.8-2.9-1.3-5.6-1.3c-2.8,0-3.9,0.5-5.6,1.3
		c-2.2,1-5,2.3-10.2,2.3c-5.2,0-8-1.3-10.2-2.3c-1.7-0.8-2.9-1.3-5.6-1.3c-2.8,0-3.9,0.5-5.6,1.3c-2.2,1-5,2.3-10.2,2.3
		c-5.2,0-8-1.3-10.2-2.3c-1.7-0.8-2.9-1.3-5.6-1.3c-2.8,0-3.9,0.5-5.6,1.3c-2.2,1-5,2.3-10.2,2.3c-5.2,0-8-1.3-10.2-2.3
		c-1.7-0.8-2.9-1.3-5.6-1.3c-2.8,0-3.9,0.5-5.6,1.3c-2.3,1-5,2.3-10.2,2.3s-8-1.3-10.2-2.3c-1.7-0.8-2.9-1.3-5.6-1.3
		c-2.8,0-3.9,0.5-5.6,1.3c-2.2,1-5,2.3-10.2,2.3c-5.2,0-8-1.3-10.2-2.3c-1.7-0.8-2.9-1.3-5.6-1.3c-2.8,0-3.9,0.5-5.6,1.3
		c-2.2,1-5,2.3-10.2,2.3c-5.2,0-8-1.3-10.2-2.3c-1.7-0.8-2.9-1.3-5.6-1.3s-3.9,0.5-5.6,1.3c-2.3,1-5,2.3-10.2,2.3
		c-5.2,0-8-1.3-10.2-2.3c-1.7-0.8-2.9-1.3-5.6-1.3c-2.8,0-3.9,0.5-5.6,1.3c-2.2,1-5.1,2.3-10.2,2.3c-5.2,0-8-1.3-10.2-2.3
		c-1.7-0.8-2.9-1.3-5.6-1.3c-2.8,0-3.9,0.5-5.6,1.3c-2.3,1-5,2.3-10.2,2.3c-5.2,0-8-1.3-10.2-2.3c-1.7-0.8-2.9-1.3-5.6-1.3
		c-2.8,0-3.9,0.5-5.6,1.3c-2.2,1-5,2.3-10.2,2.3c-5.2,0-8-1.3-10.2-2.3c-1.7-0.8-2.9-1.3-5.6-1.3c-2.8,0-3.9,0.5-5.6,1.3
		c-2.3,1-5,2.3-10.2,2.3c-5.2,0-8-1.3-10.2-2.3c-1.7-0.8-2.9-1.3-5.6-1.3c-2.8,0-3.9,0.5-5.6,1.3c-2.2,1-5,2.3-10.2,2.3
		c-5.2,0-8-1.3-10.2-2.3c-1.7-0.8-2.9-1.3-5.6-1.3c-2.8,0-3.9,0.5-5.6,1.3c-2.2,1-5.1,2.3-10.2,2.3c-5.2,0-8-1.3-10.2-2.3
		c-1.7-0.8-2.9-1.3-5.6-1.3c-2.8,0-3.9,0.5-5.6,1.3c-2.2,1-5,2.3-10.2,2.3c-5.2,0-8-1.3-10.2-2.3c-1.7-0.8-2.9-1.3-5.6-1.3
		c-2.8,0-3.9,0.5-5.6,1.3c-2.2,1-5,2.3-10.2,2.3c-5.2,0-8-1.3-10.2-2.3c-1.7-0.8-2.9-1.3-5.6-1.3c-2.8,0-3.9,0.5-5.6,1.3
		c-2.2,1-5,2.3-10.2,2.3c-5.2,0-8-1.3-10.2-2.3c-1.7-0.8-2.9-1.3-5.6-1.3c-2.8,0-3.9,0.5-5.6,1.3c-2.2,1-5,2.3-10.2,2.3
		c-5.2,0-8-1.3-10.2-2.3c-1.7-0.8-2.9-1.3-5.6-1.3c-2.8,0-3.9,0.5-5.6,1.3c-2.2,1-5,2.3-10.2,2.3c-5.2,0-8-1.3-10.2-2.3
		c-1.7-0.8-2.9-1.3-5.6-1.3c-2.8,0-3.9,0.5-5.6,1.3c-2.2,1-5,2.3-10.2,2.3c-5.2,0-8-1.3-10.2-2.3c-1.7-0.8-2.9-1.3-5.6-1.3
		c-2.8,0-3.9,0.5-5.6,1.3c-2.2,1-5,2.3-10.2,2.3c-5.2,0-8-1.3-10.2-2.3c-1.7-0.8-2.9-1.3-5.6-1.3c-2.8,0-3.9,0.5-5.6,1.3
		c-2.2,1-5.1,2.3-10.2,2.3c-5.2,0-8-1.3-10.2-2.3c-1.7-0.8-2.9-1.3-5.6-1.3c-2.8,0-3.9,0.5-5.6,1.3c-2.2,1-5,2.3-10.2,2.3
		c-5.2,0-8-1.3-10.2-2.3c-1.7-0.8-2.9-1.3-5.6-1.3V47.5c5.2,0,8,1.3,10.2,2.3c1.7,0.8,2.9,1.3,5.6,1.3c2.8,0,3.9-0.5,5.6-1.3
		c2.2-1,5-2.3,10.2-2.3c5.2,0,8,1.3,10.2,2.3c1.7,0.8,2.9,1.3,5.6,1.3c2.8,0,3.9-0.5,5.6-1.3c2.2-1,5-2.3,10.2-2.3
		c5.2,0,8,1.3,10.2,2.3c1.7,0.8,2.9,1.3,5.6,1.3c2.8,0,3.9-0.5,5.6-1.3c2.2-1,5-2.3,10.2-2.3c5.2,0,8,1.3,10.2,2.3
		c1.7,0.8,2.9,1.3,5.6,1.3c2.8,0,3.9-0.5,5.6-1.3c2.2-1,5-2.3,10.2-2.3c5.2,0,8,1.3,10.2,2.3c1.7,0.8,2.9,1.3,5.6,1.3
		c2.8,0,3.9-0.5,5.6-1.3c2.2-1,5-2.3,10.2-2.3c5.2,0,8,1.3,10.2,2.3c1.7,0.8,2.9,1.3,5.6,1.3c2.8,0,3.9-0.5,5.6-1.3
		c2.2-1,5-2.3,10.2-2.3c5.2,0,8,1.3,10.2,2.3c1.7,0.8,2.9,1.3,5.6,1.3c2.8,0,3.9-0.5,5.6-1.3c2.2-1,5-2.3,10.2-2.3
		c5.2,0,8,1.3,10.2,2.3c1.7,0.8,2.9,1.3,5.6,1.3c2.8,0,3.9-0.5,5.6-1.3c2.2-1,5-2.3,10.2-2.3c5.2,0,8,1.3,10.2,2.3
		c1.7,0.8,2.9,1.3,5.6,1.3s3.9-0.5,5.6-1.3c2.2-1,5-2.3,10.2-2.3c5.2,0,8,1.3,10.2,2.3c1.7,0.8,2.9,1.3,5.6,1.3s3.9-0.5,5.6-1.3
		c2.2-1,5-2.3,10.2-2.3c5.2,0,8,1.3,10.2,2.3c1.7,0.8,2.9,1.3,5.6,1.3c2.8,0,3.9-0.5,5.6-1.3c2.2-1,5.1-2.3,10.2-2.3
		c5.2,0,8,1.3,10.2,2.3c1.7,0.8,2.9,1.3,5.6,1.3c2.8,0,3.9-0.5,5.6-1.3c2.2-1,5-2.3,10.2-2.3c5.2,0,8,1.3,10.2,2.3
		c1.7,0.8,2.9,1.3,5.6,1.3c2.8,0,3.9-0.5,5.6-1.3c2.2-1,5-2.3,10.2-2.3c5.2,0,8,1.3,10.2,2.3c1.7,0.8,2.9,1.3,5.6,1.3
		c2.8,0,3.9-0.5,5.6-1.3c2.2-1,5-2.3,10.2-2.3c5.2,0,8,1.3,10.2,2.3c1.7,0.8,2.9,1.3,5.6,1.3c2.8,0,3.9-0.5,5.6-1.3
		c2.2-1,5-2.3,10.2-2.3c5.2,0,8,1.3,10.2,2.3c1.7,0.8,2.9,1.3,5.6,1.3c2.8,0,3.9-0.5,5.6-1.3c2.3-1,5.1-2.3,10.2-2.3
		c5.2,0,8,1.3,10.2,2.3c1.7,0.8,2.9,1.3,5.6,1.3c2.8,0,3.9-0.5,5.6-1.3c2.2-1,5-2.3,10.2-2.3c5.2,0,8,1.3,10.2,2.3
		c1.7,0.8,2.9,1.3,5.6,1.3s3.9-0.5,5.6-1.3c2.2-1,5-2.3,10.2-2.3s8,1.3,10.2,2.3c1.7,0.8,2.9,1.3,5.6,1.3c2.8,0,3.9-0.5,5.6-1.3
		c2.2-1,5-2.3,10.2-2.3c5.2,0,8,1.3,10.2,2.3c1.7,0.8,2.9,1.3,5.6,1.3c2.8,0,3.9-0.5,5.6-1.3c2.2-1,5.1-2.3,10.2-2.3
		c5.2,0,8,1.3,10.2,2.3c1.7,0.8,2.9,1.3,5.6,1.3c2.8,0,3.9-0.5,5.6-1.3c2.2-1,5-2.3,10.2-2.3s8,1.3,10.2,2.3
		c1.7,0.8,2.9,1.3,5.6,1.3c2.8,0,3.9-0.5,5.6-1.3c2.2-1,5-2.3,10.2-2.3c5.2,0,8,1.3,10.2,2.3c1.7,0.8,2.9,1.3,5.6,1.3
		c2.8,0,3.9-0.5,5.6-1.3c2.2-1,5-2.3,10.2-2.3c5.2,0,8,1.3,10.2,2.3c1.7,0.8,2.9,1.3,5.6,1.3c2.8,0,3.9-0.5,5.6-1.3
		c2.2-1,5-2.3,10.2-2.3v10.1c-2.8,0-3.9,0.5-5.6,1.3C444,60,441.2,61.3,436,61.3"/>
	<path clip-path="url(#SVGID_4_)" fill="#FFFFFF" d="M436,84.5c-5.2,0-8-1.3-10.2-2.3c-1.7-0.8-2.9-1.3-5.6-1.3
		c-2.8,0-3.9,0.5-5.6,1.3c-2.2,1-5,2.3-10.2,2.3c-5.2,0-8-1.3-10.2-2.3c-1.7-0.8-2.9-1.3-5.6-1.3c-2.8,0-3.9,0.5-5.6,1.3
		c-2.2,1-5,2.3-10.2,2.3c-5.2,0-8-1.3-10.2-2.3c-1.7-0.8-2.9-1.3-5.6-1.3c-2.8,0-3.9,0.5-5.6,1.3c-2.2,1-5,2.3-10.2,2.3
		c-5.2,0-8-1.3-10.2-2.3c-1.7-0.8-2.9-1.3-5.6-1.3c-2.8,0-3.9,0.5-5.6,1.3c-2.2,1-5,2.3-10.2,2.3c-5.2,0-8-1.3-10.2-2.3
		c-1.7-0.8-2.9-1.3-5.6-1.3c-2.8,0-3.9,0.5-5.6,1.3c-2.3,1-5,2.3-10.2,2.3s-8-1.3-10.2-2.3c-1.7-0.8-2.9-1.3-5.6-1.3
		c-2.8,0-3.9,0.5-5.6,1.3c-2.2,1-5,2.3-10.2,2.3c-5.2,0-8-1.3-10.2-2.3c-1.7-0.8-2.9-1.3-5.6-1.3c-2.8,0-3.9,0.5-5.6,1.3
		c-2.2,1-5,2.3-10.2,2.3c-5.2,0-8-1.3-10.2-2.3c-1.7-0.8-2.9-1.3-5.6-1.3s-3.9,0.5-5.6,1.3c-2.3,1-5,2.3-10.2,2.3
		c-5.2,0-8-1.3-10.2-2.3c-1.7-0.8-2.9-1.3-5.6-1.3c-2.8,0-3.9,0.5-5.6,1.3c-2.2,1-5.1,2.3-10.2,2.3c-5.2,0-8-1.3-10.2-2.3
		c-1.7-0.8-2.9-1.3-5.6-1.3c-2.8,0-3.9,0.5-5.6,1.3c-2.3,1-5,2.3-10.2,2.3c-5.2,0-8-1.3-10.2-2.3c-1.7-0.8-2.9-1.3-5.6-1.3
		c-2.8,0-3.9,0.5-5.6,1.3c-2.2,1-5,2.3-10.2,2.3c-5.2,0-8-1.3-10.2-2.3c-1.7-0.8-2.9-1.3-5.6-1.3c-2.8,0-3.9,0.5-5.6,1.3
		c-2.3,1-5,2.3-10.2,2.3c-5.2,0-8-1.3-10.2-2.3c-1.7-0.8-2.9-1.3-5.6-1.3c-2.8,0-3.9,0.5-5.6,1.3c-2.2,1-5,2.3-10.2,2.3
		c-5.2,0-8-1.3-10.2-2.3c-1.7-0.8-2.9-1.3-5.6-1.3c-2.8,0-3.9,0.5-5.6,1.3c-2.2,1-5.1,2.3-10.2,2.3c-5.2,0-8-1.3-10.2-2.3
		c-1.7-0.8-2.9-1.3-5.6-1.3c-2.8,0-3.9,0.5-5.6,1.3c-2.2,1-5,2.3-10.2,2.3c-5.2,0-8-1.3-10.2-2.3c-1.7-0.8-2.9-1.3-5.6-1.3
		c-2.8,0-3.9,0.5-5.6,1.3c-2.2,1-5,2.3-10.2,2.3c-5.2,0-8-1.3-10.2-2.3c-1.7-0.8-2.9-1.3-5.6-1.3c-2.8,0-3.9,0.5-5.6,1.3
		c-2.2,1-5,2.3-10.2,2.3c-5.2,0-8-1.3-10.2-2.3c-1.7-0.8-2.9-1.3-5.6-1.3c-2.8,0-3.9,0.5-5.6,1.3c-2.2,1-5,2.3-10.2,2.3
		c-5.2,0-8-1.3-10.2-2.3c-1.7-0.8-2.9-1.3-5.6-1.3c-2.8,0-3.9,0.5-5.6,1.3c-2.2,1-5,2.3-10.2,2.3c-5.2,0-8-1.3-10.2-2.3
		c-1.7-0.8-2.9-1.3-5.6-1.3c-2.8,0-3.9,0.5-5.6,1.3c-2.2,1-5,2.3-10.2,2.3c-5.2,0-8-1.3-10.2-2.3c-1.7-0.8-2.9-1.3-5.6-1.3
		c-2.8,0-3.9,0.5-5.6,1.3c-2.2,1-5,2.3-10.2,2.3c-5.2,0-8-1.3-10.2-2.3c-1.7-0.8-2.9-1.3-5.6-1.3c-2.8,0-3.9,0.5-5.6,1.3
		c-2.2,1-5.1,2.3-10.2,2.3c-5.2,0-8-1.3-10.2-2.3c-1.7-0.8-2.9-1.3-5.6-1.3c-2.8,0-3.9,0.5-5.6,1.3c-2.2,1-5,2.3-10.2,2.3
		c-5.2,0-8-1.3-10.2-2.3c-1.7-0.8-2.9-1.3-5.6-1.3V70.7c5.2,0,8,1.3,10.2,2.3c1.7,0.8,2.9,1.3,5.6,1.3c2.8,0,3.9-0.5,5.6-1.3
		c2.2-1,5-2.3,10.2-2.3c5.2,0,8,1.3,10.2,2.3c1.7,0.8,2.9,1.3,5.6,1.3c2.8,0,3.9-0.5,5.6-1.3c2.2-1,5-2.3,10.2-2.3
		c5.2,0,8,1.3,10.2,2.3c1.7,0.8,2.9,1.3,5.6,1.3c2.8,0,3.9-0.5,5.6-1.3c2.2-1,5-2.3,10.2-2.3c5.2,0,8,1.3,10.2,2.3
		c1.7,0.8,2.9,1.3,5.6,1.3c2.8,0,3.9-0.5,5.6-1.3c2.2-1,5-2.3,10.2-2.3c5.2,0,8,1.3,10.2,2.3c1.7,0.8,2.9,1.3,5.6,1.3
		c2.8,0,3.9-0.5,5.6-1.3c2.2-1,5-2.3,10.2-2.3c5.2,0,8,1.3,10.2,2.3c1.7,0.8,2.9,1.3,5.6,1.3c2.8,0,3.9-0.5,5.6-1.3
		c2.2-1,5-2.3,10.2-2.3c5.2,0,8,1.3,10.2,2.3c1.7,0.8,2.9,1.3,5.6,1.3c2.8,0,3.9-0.5,5.6-1.3c2.2-1,5-2.3,10.2-2.3
		c5.2,0,8,1.3,10.2,2.3c1.7,0.8,2.9,1.3,5.6,1.3c2.8,0,3.9-0.5,5.6-1.3c2.2-1,5-2.3,10.2-2.3c5.2,0,8,1.3,10.2,2.3
		c1.7,0.8,2.9,1.3,5.6,1.3s3.9-0.5,5.6-1.3c2.2-1,5-2.3,10.2-2.3c5.2,0,8,1.3,10.2,2.3c1.7,0.8,2.9,1.3,5.6,1.3s3.9-0.5,5.6-1.3
		c2.2-1,5-2.3,10.2-2.3c5.2,0,8,1.3,10.2,2.3c1.7,0.8,2.9,1.3,5.6,1.3c2.8,0,3.9-0.5,5.6-1.3c2.2-1,5.1-2.3,10.2-2.3
		c5.2,0,8,1.3,10.2,2.3c1.7,0.8,2.9,1.3,5.6,1.3c2.8,0,3.9-0.5,5.6-1.3c2.2-1,5-2.3,10.2-2.3c5.2,0,8,1.3,10.2,2.3
		c1.7,0.8,2.9,1.3,5.6,1.3c2.8,0,3.9-0.5,5.6-1.3c2.2-1,5-2.3,10.2-2.3c5.2,0,8,1.3,10.2,2.3c1.7,0.8,2.9,1.3,5.6,1.3
		c2.8,0,3.9-0.5,5.6-1.3c2.2-1,5-2.3,10.2-2.3c5.2,0,8,1.3,10.2,2.3c1.7,0.8,2.9,1.3,5.6,1.3c2.8,0,3.9-0.5,5.6-1.3
		c2.2-1,5-2.3,10.2-2.3c5.2,0,8,1.3,10.2,2.3c1.7,0.8,2.9,1.3,5.6,1.3c2.8,0,3.9-0.5,5.6-1.3c2.3-1,5.1-2.3,10.2-2.3
		c5.2,0,8,1.3,10.2,2.3c1.7,0.8,2.9,1.3,5.6,1.3c2.8,0,3.9-0.5,5.6-1.3c2.2-1,5-2.3,10.2-2.3c5.2,0,8,1.3,10.2,2.3
		c1.7,0.8,2.9,1.3,5.6,1.3s3.9-0.5,5.6-1.3c2.2-1,5-2.3,10.2-2.3s8,1.3,10.2,2.3c1.7,0.8,2.9,1.3,5.6,1.3c2.8,0,3.9-0.5,5.6-1.3
		c2.2-1,5-2.3,10.2-2.3c5.2,0,8,1.3,10.2,2.3c1.7,0.8,2.9,1.3,5.6,1.3c2.8,0,3.9-0.5,5.6-1.3c2.2-1,5.1-2.3,10.2-2.3
		c5.2,0,8,1.3,10.2,2.3c1.7,0.8,2.9,1.3,5.6,1.3c2.8,0,3.9-0.5,5.6-1.3c2.2-1,5-2.3,10.2-2.3s8,1.3,10.2,2.3
		c1.7,0.8,2.9,1.3,5.6,1.3c2.8,0,3.9-0.5,5.6-1.3c2.2-1,5-2.3,10.2-2.3c5.2,0,8,1.3,10.2,2.3c1.7,0.8,2.9,1.3,5.6,1.3
		c2.8,0,3.9-0.5,5.6-1.3c2.2-1,5-2.3,10.2-2.3c5.2,0,8,1.3,10.2,2.3c1.7,0.8,2.9,1.3,5.6,1.3c2.8,0,3.9-0.5,5.6-1.3
		c2.2-1,5-2.3,10.2-2.3v10.1c-2.8,0-3.9,0.5-5.6,1.3C444,83.2,441.2,84.5,436,84.5"/>
	<path clip-path="url(#SVGID_4_)" fill="#FFFFFF" d="M436,107.8c-5.2,0-8-1.3-10.2-2.3c-1.7-0.8-2.9-1.3-5.6-1.3
		c-2.8,0-3.9,0.5-5.6,1.3c-2.2,1-5,2.3-10.2,2.3c-5.2,0-8-1.3-10.2-2.3c-1.7-0.8-2.9-1.3-5.6-1.3c-2.8,0-3.9,0.5-5.6,1.3
		c-2.2,1-5,2.3-10.2,2.3c-5.2,0-8-1.3-10.2-2.3c-1.7-0.8-2.9-1.3-5.6-1.3c-2.8,0-3.9,0.5-5.6,1.3c-2.2,1-5,2.3-10.2,2.3
		c-5.2,0-8-1.3-10.2-2.3c-1.7-0.8-2.9-1.3-5.6-1.3c-2.8,0-3.9,0.5-5.6,1.3c-2.2,1-5,2.3-10.2,2.3c-5.2,0-8-1.3-10.2-2.3
		c-1.7-0.8-2.9-1.3-5.6-1.3c-2.8,0-3.9,0.5-5.6,1.3c-2.3,1-5,2.3-10.2,2.3s-8-1.3-10.2-2.3c-1.7-0.8-2.9-1.3-5.6-1.3
		c-2.8,0-3.9,0.5-5.6,1.3c-2.2,1-5,2.3-10.2,2.3c-5.2,0-8-1.3-10.2-2.3c-1.7-0.8-2.9-1.3-5.6-1.3c-2.8,0-3.9,0.5-5.6,1.3
		c-2.2,1-5,2.3-10.2,2.3c-5.2,0-8-1.3-10.2-2.3c-1.7-0.8-2.9-1.3-5.6-1.3s-3.9,0.5-5.6,1.3c-2.3,1-5,2.3-10.2,2.3
		c-5.2,0-8-1.3-10.2-2.3c-1.7-0.8-2.9-1.3-5.6-1.3c-2.8,0-3.9,0.5-5.6,1.3c-2.2,1-5.1,2.3-10.2,2.3c-5.2,0-8-1.3-10.2-2.3
		c-1.7-0.8-2.9-1.3-5.6-1.3c-2.8,0-3.9,0.5-5.6,1.3c-2.3,1-5,2.3-10.2,2.3c-5.2,0-8-1.3-10.2-2.3c-1.7-0.8-2.9-1.3-5.6-1.3
		c-2.8,0-3.9,0.5-5.6,1.3c-2.2,1-5,2.3-10.2,2.3c-5.2,0-8-1.3-10.2-2.3c-1.7-0.8-2.9-1.3-5.6-1.3c-2.8,0-3.9,0.5-5.6,1.3
		c-2.3,1-5,2.3-10.2,2.3c-5.2,0-8-1.3-10.2-2.3c-1.7-0.8-2.9-1.3-5.6-1.3c-2.8,0-3.9,0.5-5.6,1.3c-2.2,1-5,2.3-10.2,2.3
		c-5.2,0-8-1.3-10.2-2.3c-1.7-0.8-2.9-1.3-5.6-1.3c-2.8,0-3.9,0.5-5.6,1.3c-2.2,1-5.1,2.3-10.2,2.3c-5.2,0-8-1.3-10.2-2.3
		c-1.7-0.8-2.9-1.3-5.6-1.3c-2.8,0-3.9,0.5-5.6,1.3c-2.2,1-5,2.3-10.2,2.3c-5.2,0-8-1.3-10.2-2.3c-1.7-0.8-2.9-1.3-5.6-1.3
		c-2.8,0-3.9,0.5-5.6,1.3c-2.2,1-5,2.3-10.2,2.3c-5.2,0-8-1.3-10.2-2.3c-1.7-0.8-2.9-1.3-5.6-1.3c-2.8,0-3.9,0.5-5.6,1.3
		c-2.2,1-5,2.3-10.2,2.3c-5.2,0-8-1.3-10.2-2.3c-1.7-0.8-2.9-1.3-5.6-1.3c-2.8,0-3.9,0.5-5.6,1.3c-2.2,1-5,2.3-10.2,2.3
		c-5.2,0-8-1.3-10.2-2.3c-1.7-0.8-2.9-1.3-5.6-1.3c-2.8,0-3.9,0.5-5.6,1.3c-2.2,1-5,2.3-10.2,2.3c-5.2,0-8-1.3-10.2-2.3
		c-1.7-0.8-2.9-1.3-5.6-1.3c-2.8,0-3.9,0.5-5.6,1.3c-2.2,1-5,2.3-10.2,2.3c-5.2,0-8-1.3-10.2-2.3c-1.7-0.8-2.9-1.3-5.6-1.3
		c-2.8,0-3.9,0.5-5.6,1.3c-2.2,1-5,2.3-10.2,2.3c-5.2,0-8-1.3-10.2-2.3c-1.7-0.8-2.9-1.3-5.6-1.3c-2.8,0-3.9,0.5-5.6,1.3
		c-2.2,1-5.1,2.3-10.2,2.3c-5.2,0-8-1.3-10.2-2.3c-1.7-0.8-2.9-1.3-5.6-1.3c-2.8,0-3.9,0.5-5.6,1.3c-2.2,1-5,2.3-10.2,2.3
		c-5.2,0-8-1.3-10.2-2.3c-1.7-0.8-2.9-1.3-5.6-1.3V94c5.2,0,8,1.3,10.2,2.3c1.7,0.8,2.9,1.3,5.6,1.3c2.8,0,3.9-0.5,5.6-1.3
		c2.2-1,5-2.3,10.2-2.3c5.2,0,8,1.3,10.2,2.3c1.7,0.8,2.9,1.3,5.6,1.3c2.8,0,3.9-0.5,5.6-1.3c2.2-1,5-2.3,10.2-2.3
		c5.2,0,8,1.3,10.2,2.3c1.7,0.8,2.9,1.3,5.6,1.3c2.8,0,3.9-0.5,5.6-1.3c2.2-1,5-2.3,10.2-2.3c5.2,0,8,1.3,10.2,2.3
		c1.7,0.8,2.9,1.3,5.6,1.3c2.8,0,3.9-0.5,5.6-1.3c2.2-1,5-2.3,10.2-2.3c5.2,0,8,1.3,10.2,2.3c1.7,0.8,2.9,1.3,5.6,1.3
		c2.8,0,3.9-0.5,5.6-1.3c2.2-1,5-2.3,10.2-2.3c5.2,0,8,1.3,10.2,2.3c1.7,0.8,2.9,1.3,5.6,1.3c2.8,0,3.9-0.5,5.6-1.3
		c2.2-1,5-2.3,10.2-2.3c5.2,0,8,1.3,10.2,2.3c1.7,0.8,2.9,1.3,5.6,1.3c2.8,0,3.9-0.5,5.6-1.3c2.2-1,5-2.3,10.2-2.3
		c5.2,0,8,1.3,10.2,2.3c1.7,0.8,2.9,1.3,5.6,1.3c2.8,0,3.9-0.5,5.6-1.3c2.2-1,5-2.3,10.2-2.3c5.2,0,8,1.3,10.2,2.3
		c1.7,0.8,2.9,1.3,5.6,1.3s3.9-0.5,5.6-1.3c2.2-1,5-2.3,10.2-2.3c5.2,0,8,1.3,10.2,2.3c1.7,0.8,2.9,1.3,5.6,1.3s3.9-0.5,5.6-1.3
		c2.2-1,5-2.3,10.2-2.3c5.2,0,8,1.3,10.2,2.3c1.7,0.8,2.9,1.3,5.6,1.3c2.8,0,3.9-0.5,5.6-1.3c2.2-1,5.1-2.3,10.2-2.3
		c5.2,0,8,1.3,10.2,2.3c1.7,0.8,2.9,1.3,5.6,1.3c2.8,0,3.9-0.5,5.6-1.3c2.2-1,5-2.3,10.2-2.3c5.2,0,8,1.3,10.2,2.3
		c1.7,0.8,2.9,1.3,5.6,1.3c2.8,0,3.9-0.5,5.6-1.3c2.2-1,5-2.3,10.2-2.3c5.2,0,8,1.3,10.2,2.3c1.7,0.8,2.9,1.3,5.6,1.3
		c2.8,0,3.9-0.5,5.6-1.3c2.2-1,5-2.3,10.2-2.3c5.2,0,8,1.3,10.2,2.3c1.7,0.8,2.9,1.3,5.6,1.3c2.8,0,3.9-0.5,5.6-1.3
		c2.2-1,5-2.3,10.2-2.3c5.2,0,8,1.3,10.2,2.3c1.7,0.8,2.9,1.3,5.6,1.3c2.8,0,3.9-0.5,5.6-1.3c2.3-1,5.1-2.3,10.2-2.3
		c5.2,0,8,1.3,10.2,2.3c1.7,0.8,2.9,1.3,5.6,1.3c2.8,0,3.9-0.5,5.6-1.3c2.2-1,5-2.3,10.2-2.3c5.2,0,8,1.3,10.2,2.3
		c1.7,0.8,2.9,1.3,5.6,1.3s3.9-0.5,5.6-1.3c2.2-1,5-2.3,10.2-2.3s8,1.3,10.2,2.3c1.7,0.8,2.9,1.3,5.6,1.3c2.8,0,3.9-0.5,5.6-1.3
		c2.2-1,5-2.3,10.2-2.3c5.2,0,8,1.3,10.2,2.3c1.7,0.8,2.9,1.3,5.6,1.3c2.8,0,3.9-0.5,5.6-1.3c2.2-1,5.1-2.3,10.2-2.3
		c5.2,0,8,1.3,10.2,2.3c1.7,0.8,2.9,1.3,5.6,1.3c2.8,0,3.9-0.5,5.6-1.3c2.2-1,5-2.3,10.2-2.3s8,1.3,10.2,2.3
		c1.7,0.8,2.9,1.3,5.6,1.3c2.8,0,3.9-0.5,5.6-1.3c2.2-1,5-2.3,10.2-2.3c5.2,0,8,1.3,10.2,2.3c1.7,0.8,2.9,1.3,5.6,1.3
		c2.8,0,3.9-0.5,5.6-1.3c2.2-1,5-2.3,10.2-2.3c5.2,0,8,1.3,10.2,2.3c1.7,0.8,2.9,1.3,5.6,1.3c2.8,0,3.9-0.5,5.6-1.3
		c2.2-1,5-2.3,10.2-2.3v10.1c-2.8,0-3.9,0.5-5.6,1.3C444,106.5,441.2,107.8,436,107.8"/>
	<path clip-path="url(#SVGID_4_)" fill="#FFFFFF" d="M436,14.8c-5.2,0-8-1.3-10.2-2.3c-1.7-0.8-2.9-1.3-5.6-1.3
		c-2.8,0-3.9,0.5-5.6,1.3c-2.2,1-5,2.3-10.2,2.3c-5.2,0-8-1.3-10.2-2.3c-1.7-0.8-2.9-1.3-5.6-1.3c-2.8,0-3.9,0.5-5.6,1.3
		c-2.2,1-5,2.3-10.2,2.3c-5.2,0-8-1.3-10.2-2.3c-1.7-0.8-2.9-1.3-5.6-1.3c-2.8,0-3.9,0.5-5.6,1.3c-2.2,1-5,2.3-10.2,2.3
		c-5.2,0-8-1.3-10.2-2.3c-1.7-0.8-2.9-1.3-5.6-1.3c-2.8,0-3.9,0.5-5.6,1.3c-2.2,1-5,2.3-10.2,2.3c-5.2,0-8-1.3-10.2-2.3
		c-1.7-0.8-2.9-1.3-5.6-1.3c-2.8,0-3.9,0.5-5.6,1.3c-2.3,1-5,2.3-10.2,2.3s-8-1.3-10.2-2.3c-1.7-0.8-2.9-1.3-5.6-1.3
		c-2.8,0-3.9,0.5-5.6,1.3c-2.2,1-5,2.3-10.2,2.3c-5.2,0-8-1.3-10.2-2.3c-1.7-0.8-2.9-1.3-5.6-1.3c-2.8,0-3.9,0.5-5.6,1.3
		c-2.2,1-5,2.3-10.2,2.3c-5.2,0-8-1.3-10.2-2.3c-1.7-0.8-2.9-1.3-5.6-1.3s-3.9,0.5-5.6,1.3c-2.3,1-5,2.3-10.2,2.3
		c-5.2,0-8-1.3-10.2-2.3c-1.7-0.8-2.9-1.3-5.6-1.3c-2.8,0-3.9,0.5-5.6,1.3c-2.2,1-5.1,2.3-10.2,2.3c-5.2,0-8-1.3-10.2-2.3
		c-1.7-0.8-2.9-1.3-5.6-1.3c-2.8,0-3.9,0.5-5.6,1.3c-2.3,1-5,2.3-10.2,2.3c-5.2,0-8-1.3-10.2-2.3c-1.7-0.8-2.9-1.3-5.6-1.3
		c-2.8,0-3.9,0.5-5.6,1.3c-2.2,1-5,2.3-10.2,2.3c-5.2,0-8-1.3-10.2-2.3c-1.7-0.8-2.9-1.3-5.6-1.3c-2.8,0-3.9,0.5-5.6,1.3
		c-2.3,1-5,2.3-10.2,2.3c-5.2,0-8-1.3-10.2-2.3c-1.7-0.8-2.9-1.3-5.6-1.3c-2.8,0-3.9,0.5-5.6,1.3c-2.2,1-5,2.3-10.2,2.3
		c-5.2,0-8-1.3-10.2-2.3c-1.7-0.8-2.9-1.3-5.6-1.3c-2.8,0-3.9,0.5-5.6,1.3c-2.2,1-5.1,2.3-10.2,2.3c-5.2,0-8-1.3-10.2-2.3
		c-1.7-0.8-2.9-1.3-5.6-1.3c-2.8,0-3.9,0.5-5.6,1.3c-2.2,1-5,2.3-10.2,2.3c-5.2,0-8-1.3-10.2-2.3c-1.7-0.8-2.9-1.3-5.6-1.3
		c-2.8,0-3.9,0.5-5.6,1.3c-2.2,1-5,2.3-10.2,2.3c-5.2,0-8-1.3-10.2-2.3c-1.7-0.8-2.9-1.3-5.6-1.3c-2.8,0-3.9,0.5-5.6,1.3
		c-2.2,1-5,2.3-10.2,2.3c-5.2,0-8-1.3-10.2-2.3c-1.7-0.8-2.9-1.3-5.6-1.3c-2.8,0-3.9,0.5-5.6,1.3c-2.2,1-5,2.3-10.2,2.3
		c-5.2,0-8-1.3-10.2-2.3c-1.7-0.8-2.9-1.3-5.6-1.3c-2.8,0-3.9,0.5-5.6,1.3c-2.2,1-5,2.3-10.2,2.3c-5.2,0-8-1.3-10.2-2.3
		c-1.7-0.8-2.9-1.3-5.6-1.3c-2.8,0-3.9,0.5-5.6,1.3c-2.2,1-5,2.3-10.2,2.3c-5.2,0-8-1.3-10.2-2.3c-1.7-0.8-2.9-1.3-5.6-1.3
		c-2.8,0-3.9,0.5-5.6,1.3c-2.2,1-5,2.3-10.2,2.3c-5.2,0-8-1.3-10.2-2.3c-1.7-0.8-2.9-1.3-5.6-1.3c-2.8,0-3.9,0.5-5.6,1.3
		c-2.2,1-5.1,2.3-10.2,2.3c-5.2,0-8-1.3-10.2-2.3c-1.7-0.8-2.9-1.3-5.6-1.3c-2.8,0-3.9,0.5-5.6,1.3c-2.2,1-5,2.3-10.2,2.3
		c-5.2,0-8-1.3-10.2-2.3c-1.7-0.8-2.9-1.3-5.6-1.3V1c5.2,0,8,1.3,10.2,2.3c1.7,0.8,2.9,1.3,5.6,1.3c2.8,0,3.9-0.5,5.6-1.3
		c2.2-1,5-2.3,10.2-2.3c5.2,0,8,1.3,10.2,2.3c1.7,0.8,2.9,1.3,5.6,1.3c2.8,0,3.9-0.5,5.6-1.3c2.2-1,5-2.3,10.2-2.3
		c5.2,0,8,1.3,10.2,2.3c1.7,0.8,2.9,1.3,5.6,1.3c2.8,0,3.9-0.5,5.6-1.3c2.2-1,5-2.3,10.2-2.3c5.2,0,8,1.3,10.2,2.3
		c1.7,0.8,2.9,1.3,5.6,1.3c2.8,0,3.9-0.5,5.6-1.3c2.2-1,5-2.3,10.2-2.3c5.2,0,8,1.3,10.2,2.3c1.7,0.8,2.9,1.3,5.6,1.3
		c2.8,0,3.9-0.5,5.6-1.3c2.2-1,5-2.3,10.2-2.3c5.2,0,8,1.3,10.2,2.3c1.7,0.8,2.9,1.3,5.6,1.3c2.8,0,3.9-0.5,5.6-1.3
		c2.2-1,5-2.3,10.2-2.3c5.2,0,8,1.3,10.2,2.3c1.7,0.8,2.9,1.3,5.6,1.3c2.8,0,3.9-0.5,5.6-1.3C-95,2.3-92.2,1-87,1
		c5.2,0,8,1.3,10.2,2.3c1.7,0.8,2.9,1.3,5.6,1.3c2.8,0,3.9-0.5,5.6-1.3c2.2-1,5-2.3,10.2-2.3c5.2,0,8,1.3,10.2,2.3
		c1.7,0.8,2.9,1.3,5.6,1.3s3.9-0.5,5.6-1.3c2.2-1,5-2.3,10.2-2.3c5.2,0,8,1.3,10.2,2.3c1.7,0.8,2.9,1.3,5.6,1.3s3.9-0.5,5.6-1.3
		C0.1,2.3,2.9,1,8.1,1c5.2,0,8,1.3,10.2,2.3c1.7,0.8,2.9,1.3,5.6,1.3c2.8,0,3.9-0.5,5.6-1.3c2.2-1,5.1-2.3,10.2-2.3
		c5.2,0,8,1.3,10.2,2.3c1.7,0.8,2.9,1.3,5.6,1.3c2.8,0,3.9-0.5,5.6-1.3c2.2-1,5-2.3,10.2-2.3c5.2,0,8,1.3,10.2,2.3
		c1.7,0.8,2.9,1.3,5.6,1.3c2.8,0,3.9-0.5,5.6-1.3c2.2-1,5-2.3,10.2-2.3c5.2,0,8,1.3,10.2,2.3c1.7,0.8,2.9,1.3,5.6,1.3
		c2.8,0,3.9-0.5,5.6-1.3c2.2-1,5-2.3,10.2-2.3c5.2,0,8,1.3,10.2,2.3c1.7,0.8,2.9,1.3,5.6,1.3c2.8,0,3.9-0.5,5.6-1.3
		c2.2-1,5-2.3,10.2-2.3c5.2,0,8,1.3,10.2,2.3c1.7,0.8,2.9,1.3,5.6,1.3c2.8,0,3.9-0.5,5.6-1.3c2.3-1,5.1-2.3,10.2-2.3
		c5.2,0,8,1.3,10.2,2.3c1.7,0.8,2.9,1.3,5.6,1.3c2.8,0,3.9-0.5,5.6-1.3c2.2-1,5-2.3,10.2-2.3c5.2,0,8,1.3,10.2,2.3
		c1.7,0.8,2.9,1.3,5.6,1.3s3.9-0.5,5.6-1.3c2.2-1,5-2.3,10.2-2.3s8,1.3,10.2,2.3c1.7,0.8,2.9,1.3,5.6,1.3c2.8,0,3.9-0.5,5.6-1.3
		c2.2-1,5-2.3,10.2-2.3c5.2,0,8,1.3,10.2,2.3c1.7,0.8,2.9,1.3,5.6,1.3c2.8,0,3.9-0.5,5.6-1.3c2.2-1,5.1-2.3,10.2-2.3
		c5.2,0,8,1.3,10.2,2.3c1.7,0.8,2.9,1.3,5.6,1.3c2.8,0,3.9-0.5,5.6-1.3c2.2-1,5-2.3,10.2-2.3s8,1.3,10.2,2.3
		c1.7,0.8,2.9,1.3,5.6,1.3c2.8,0,3.9-0.5,5.6-1.3c2.2-1,5-2.3,10.2-2.3c5.2,0,8,1.3,10.2,2.3c1.7,0.8,2.9,1.3,5.6,1.3
		c2.8,0,3.9-0.5,5.6-1.3c2.2-1,5-2.3,10.2-2.3c5.2,0,8,1.3,10.2,2.3c1.7,0.8,2.9,1.3,5.6,1.3c2.8,0,3.9-0.5,5.6-1.3
		c2.2-1,5-2.3,10.2-2.3v10.1c-2.8,0-3.9,0.5-5.6,1.3C444,13.5,441.2,14.8,436,14.8"/>
</g>
</svg>
