<?xml version="1.0" encoding="utf-8"?>
<!-- Generator: Adobe Illustrator 17.1.0, SVG Export Plug-In . SVG Version: 6.00 Build 0)  -->
<!DOCTYPE svg PUBLIC "-//W3C//DTD SVG 1.1//EN" "http://www.w3.org/Graphics/SVG/1.1/DTD/svg11.dtd">
<svg version="1.1" id="Layer_1" xmlns="http://www.w3.org/2000/svg" xmlns:xlink="http://www.w3.org/1999/xlink" x="0px" y="0px"
	 viewBox="0 0 200 200" enable-background="new 0 0 200 200" xml:space="preserve">
<line fill="none" stroke="#040407" stroke-width="5" stroke-miterlimit="10" x1="0" y1="197.5" x2="200" y2="197.5"/>
<path fill="none" stroke="#000000" stroke-width="5" stroke-linecap="round" stroke-linejoin="round" stroke-miterlimit="10" d="
	M160,197.5c27,0,26.4-10.6,26.4-15.1c0-4.5-1.5-12-1.5-12c-0.4-9.9,0.4-13.6,0.6-25.3c0.3-11.7,1-18.3,1-24.7c0-6.5-3.1-14-7.8-18.7
	c-4.8-4.7-5.2-9.1-5.2-9.1c-1.4-13.9-3.7-24.8-3.7-24.8l-3.3-15.7l2.2-1l-0.5-10.4c-1.7-3.1-2.6-2.9-2.6-2.9l-0.4-2.6
	c1.3-1.3,0-1.9,0-1.9s1.1-1.3,1.1-3.3c0-2.1-2.3-2.4-2.3-2.4h-4.8h-4.8c0,0-2.3,0.4-2.3,2.4c0,2.1,1.1,3.3,1.1,3.3s-1.3,0.6,0,1.9
	l-0.4,2.6c0,0-0.9-0.2-2.6,2.9l-0.5,10.4l2.2,1l-3.3,15.7c0,0-2.2,11-3.7,24.8c0,0-0.4,4.4-5.2,9.1c-4.8,4.7-7.8,12.2-7.8,18.7
	c0,6.5,0.7,13,1,24.7c0.3,11.7,1.1,15.4,0.6,25.3c0,0-1.5,7.5-1.5,12c0,4.5-0.5,15.1,26.4,15.1H160z"/>
<path fill="#141006" d="M152,134.9v-5.6h2.8V142L152,134.9z M149.2,137.7v5.6h-2.8v-12.7L149.2,137.7z M146.4,129.3h2.8l5.6,14.1
	H152L146.4,129.3z"/>
<path fill="#141006" d="M160.8,124.6h2.8l-2.5,6.3l-1.4-3.5L160.8,124.6z M160.8,131.7v11.7H158v-11.7l-2.8-7h2.8L160.8,131.7z"/>
<path fill="#141006" d="M167.8,140.5c0.7-0.1,1.1-0.7,1.1-1.4h2.8c0,2.2-1.6,4.1-4,4.2L167.8,140.5L167.8,140.5z M169,133.5
	c0-0.7-0.5-1.3-1.1-1.4v-2.9c2.3,0.1,4,2,4,4.2L169,133.5L169,133.5z M167.3,143.4c-2.3-0.1-4-2-4-4.2v-5.6c0-2.2,1.6-4.1,4-4.2v2.9
	c-0.7,0.1-1.1,0.7-1.1,1.4v5.6c0,0.7,0.5,1.3,1.1,1.4V143.4z"/>
<path fill="#141006" d="M144,114.1h1.7v4.4c0,0.7,0.2,1,0.6,1c0.4,0,0.6-0.3,0.6-1v-4.4h1.7v4.7c0,1.4-0.9,2.3-2.3,2.3
	c-1.4,0-2.3-0.9-2.3-2.3L144,114.1L144,114.1z"/>
<polygon fill="#141006" points="153.3,114.1 153.3,117.7 151.8,114.1 149.9,114.1 149.9,121 151.6,121 151.6,117.3 153.1,121 
	155,121 155,114.1 "/>
<rect x="156.3" y="114.1" fill="#141006" width="1.7" height="6.9"/>
<polygon fill="#141006" points="158.9,114.1 158.9,115.7 160.3,115.7 160.3,121 161.9,121 161.9,115.7 163.3,115.7 163.3,114.1 "/>
<polygon fill="#141006" points="164.3,114.1 164.3,121 168.3,121 168.3,119.4 166,119.4 166,118.4 167.4,118.4 167.4,116.8 
	166,116.8 166,115.7 168.3,115.7 168.3,114.1 "/>
<path fill="#141006" d="M171.8,119.6c0.4,0,0.6-0.3,0.6-1v-2c0-0.7-0.2-1-0.6-1H171v4L171.8,119.6L171.8,119.6z M169.4,114.1h2.4
	c1.4,0,2.3,0.8,2.3,2.2v2.4c0,1.4-0.9,2.2-2.3,2.2h-2.4V114.1z"/>
<path fill="#141006" d="M144.5,152.4c0.4,0,0.7-0.3,0.7-0.8s-0.3-0.8-0.7-0.8h-0.7v1.5L144.5,152.4L144.5,152.4z M144.5,149.7
	c0.4,0,0.7-0.2,0.7-0.7c0-0.4-0.3-0.7-0.7-0.7h-0.7v1.3H144.5z M142.2,146.9h2.4c1.4,0,2.2,0.6,2.2,1.9c0,0.7-0.4,1.2-0.9,1.4
	c0.5,0.2,1,0.7,1,1.4c0,1.5-0.9,2.1-2.3,2.1h-2.4V146.9z"/>
<polygon fill="#141006" points="150.7,146.9 150.1,149.7 149.5,146.9 147.6,146.9 149.2,151.9 149.2,153.8 150.9,153.8 150.9,151.9 
	152.5,146.9 "/>
<path fill="#141006" d="M157.2,152.4c0.4,0,0.7-0.3,0.7-0.8s-0.3-0.8-0.7-0.8h-0.7v1.5L157.2,152.4L157.2,152.4z M157.2,149.7
	c0.4,0,0.7-0.2,0.7-0.7c0-0.4-0.3-0.7-0.7-0.7h-0.7v1.3H157.2z M154.9,146.9h2.4c1.4,0,2.2,0.6,2.2,1.9c0,0.7-0.4,1.2-0.9,1.4
	c0.5,0.2,1,0.7,1,1.4c0,1.5-0.9,2.1-2.3,2.1h-2.4V146.9z"/>
<polygon fill="#141006" points="160.8,146.9 160.8,153.8 164.8,153.8 164.8,152.2 162.5,152.2 162.5,151.2 163.9,151.2 163.9,149.6 
	162.5,149.6 162.5,148.5 164.8,148.5 164.8,146.9 "/>
<polygon fill="#141006" points="165.9,146.9 165.9,153.8 169.9,153.8 169.9,152.2 167.5,152.2 167.5,151.2 169,151.2 169,149.6 
	167.5,149.6 167.5,148.5 169.8,148.5 169.8,146.9 "/>
<path fill="#141006" d="M173.3,149.7c0.4,0,0.7-0.2,0.7-0.7c0-0.4-0.3-0.7-0.7-0.7h-0.7v1.3H173.3z M171,146.9h2.4
	c1.4,0,2.3,0.7,2.3,2c0,0.8-0.4,1.4-1,1.7l1.2,3.1H174l-0.8-2.8h-0.6v2.8H171V146.9z"/>
<path fill="none" stroke="#231F20" stroke-width="5" stroke-linecap="round" stroke-linejoin="round" stroke-miterlimit="10" d="
	M42.9,73.7c12.4-13.2,12.4-35.6,12.4-35.6s-2.5-0.1-2.6-1.5s1.3-19.1,1.3-19.1s0.3-2.4,2.6-2.4c0,0-3.1-1.6-0.3-3.1
	c0,0-1.8-0.9-2.1-7.7c0,0,0.2-1.8,11.6-1.8h1.5c11.4,0,11.6,1.8,11.6,1.8c-0.2,6.8-2.1,7.7-2.1,7.7c2.8,1.5-0.3,3.1-0.3,3.1
	c2.3,0,2.6,2.4,2.6,2.4s1.4,17.7,1.3,19.1s-2.6,1.5-2.6,1.5c0,19.3,11.8,17.7,11.8,17.7s4.7,0,6.2,0s15.6,0.9,15.6,14.6
	c0,13.7-13.9,16.9-13.9,16.9c0,4,4.4,7.3,4.4,7.3c20,11.1,19.9,30.2,19.9,30.2s0,9.4,0,29.4s-19.4,32.5-19.4,32.5
	c-0.1,10.3-25.1,10.9-33.5,10.9l-3.1,0c-9.1,0-32.6-0.9-32.7-10.9c0,0-19.4-12.5-19.4-32.5s0-29.4,0-29.4s-0.1-19.1,19.9-30.2
	c0,0,2.8-2.3,2.8-9.3c0,0-0.8-4,1.6-6.2C40.1,76.8,42.9,73.7,42.9,73.7z"/>
<circle fill="none" stroke="#231F20" stroke-width="5" stroke-linecap="round" stroke-linejoin="round" stroke-miterlimit="10" cx="96.8" cy="70" r="6.3"/>
<rect x="22.5" y="125.6" width="90" height="1.8"/>
<path d="M24.7,140.1h-2.2v-10.9h2.2V140.1z M25.1,129.2H29v2.2h-3.9V129.2z M25.1,133.5H28v2.2h-2.8V133.5z"/>
<path d="M32,140.1h-2.2v-10.9H32V140.1z"/>
<path d="M37.2,140.1H35l-2.2-10.9H35L37.2,140.1z M36.3,133.6l0.9-4.4h2.2l-2,9.9L36.3,133.6z"/>
<path d="M42.3,140.1h-2.2v-10.9h2.2V140.1z M42.7,129.2h3.9v2.2h-3.9V129.2z M42.7,133.5h2.8v2.2h-2.8V133.5z M42.7,137.9h3.9v2.2
	h-3.9V137.9z"/>
<path d="M52.4,140.1h-2.2v-10.9h2.2V140.1z M52.8,129.2h0.7c1.9,0,3.3,1.4,3.3,3.3c0,1.9-1.4,3.3-3.3,3.3h-0.7v-2.2h0.7
	c0.6,0,1.1-0.5,1.1-1.1c0-0.6-0.5-1.1-1.1-1.1h-0.7V129.2z M56.8,136.8c0,1.9-1.4,3.3-3.3,3.3h-0.7v-2.2h0.7c0.6,0,1.1-0.5,1.1-1.1
	c0-0.4-0.1-0.6-0.3-0.8c0.8-0.2,1.3-0.5,1.9-1.1C56.6,135.5,56.8,136.1,56.8,136.8z"/>
<path d="M60.6,140.1c-1.8-0.1-3-1.6-3-3.3v-4.3c0-1.7,1.3-3.2,3-3.3v2.2c-0.5,0.1-0.9,0.5-0.9,1.1v4.3c0,0.6,0.4,1,0.9,1.1V140.1z
	 M61,137.9c0.5-0.1,0.9-0.5,0.9-1.1v-4.3c0-0.6-0.4-1-0.9-1.1v-2.2c1.8,0.1,3.1,1.6,3.1,3.3v4.3c0,1.7-1.3,3.2-3.1,3.3
	C61,140.1,61,137.9,61,137.9z"/>
<path d="M67.1,140.1H65v-10.9h2.2V140.1z M67.5,129.2h0.7c1.9,0,3.3,1.4,3.3,3.3c0,1.9-1.4,3.3-3.3,3.3h-0.7v-2.2h0.7
	c0.6,0,1.1-0.5,1.1-1.1c0-0.6-0.5-1.1-1.1-1.1h-0.7V129.2z M71.5,140.1h-2.2l-1.6-3.9h0.5c0.6,0,1.1-0.1,1.5-0.3L71.5,140.1z"/>
<path d="M75.4,140.1c-1.8-0.1-3-1.6-3-3.3v-4.3c0-1.7,1.3-3.2,3-3.3v2.2c-0.5,0.1-0.9,0.5-0.9,1.1v4.3c0,0.6,0.4,1,0.9,1.1V140.1z
	 M75.8,137.9c0.5-0.1,0.9-0.5,0.9-1.1v-4.3c0-0.6-0.4-1-0.9-1.1v-2.2c1.8,0.1,3,1.6,3,3.3v4.3c0,1.7-1.3,3.2-3,3.3V137.9z"/>
<path d="M82.7,140.1c-1.8-0.1-3.1-1.6-3.1-3.3v-7.6h2.2v7.6c0,0.6,0.4,1,0.9,1.1V140.1z M83.1,137.9c0.5-0.1,0.9-0.5,0.9-1.1v-7.6
	h2.2v7.6c0,1.7-1.3,3.2-3,3.3C83.1,140.1,83.1,137.9,83.1,137.9z"/>
<path d="M89.2,136.8c0,0.6,0.4,1,0.9,1.1v2.2c-1.8-0.1-3-1.6-3-3.3v-4.3c0-1.7,1.3-3.2,3-3.3v2.2c-0.5,0.1-0.9,0.5-0.9,1.1V136.8z
	 M90.5,137.9c0.5-0.1,0.9-0.5,0.9-1.1v-1.1h-1.1v-2.2h3.3v3.3c0,1.7-1.3,3.2-3.1,3.3V137.9z M90.5,129.2c1.8,0.1,3.1,1.6,3.1,3.3
	h-2.2c0-0.6-0.4-1-0.9-1.1V129.2z"/>
<path d="M98.4,135.7h-1.8v4.3h-2.2v-10.9h2.2v4.4h1.8V135.7z M98.8,129.2h2.2v10.9h-2.2V129.2z"/>
<path d="M105.2,137.9c0.5-0.1,0.9-0.5,0.9-1.1c0-0.6-0.5-1.1-1.1-1.1c-1.8,0-3.3-1.4-3.3-3.3c0-1.7,1.3-3.2,3.1-3.3v2.2
	c-0.5,0.1-0.9,0.5-0.9,1.1c0,0.6,0.5,1.1,1.1,1.1c1.8,0,3.3,1.4,3.3,3.3c0,1.7-1.3,3.2-3.1,3.3V137.9z M103.9,136.8
	c0,0.6,0.4,1,0.9,1.1v2.2c-1.8-0.1-3.1-1.6-3.1-3.3L103.9,136.8L103.9,136.8z M106.1,132.5c0-0.6-0.4-1-0.9-1.1v-2.2
	c1.8,0.1,3.1,1.5,3.1,3.3L106.1,132.5L106.1,132.5z"/>
<path d="M24.7,154.5h-2.2v-10.9h2.2V154.5z M25.1,143.6h0.7c1.9,0,3.3,1.4,3.3,3.3s-1.4,3.3-3.3,3.3h-0.7V148h0.7
	c0.6,0,1.1-0.5,1.1-1.1c0-0.6-0.5-1.1-1.1-1.1h-0.7V143.6z M29,151.3c0,1.9-1.4,3.2-3.3,3.2h-0.7v-2.2h0.7c0.6,0,1.1-0.5,1.1-1.1
	c0-0.4-0.1-0.6-0.3-0.8c0.8-0.2,1.3-0.5,1.9-1.1C28.9,149.9,29,150.5,29,151.3z"/>
<path d="M32,154.5h-2.2v-10.9H32V154.5z M32.4,143.6h0.7c1.9,0,3.3,1.4,3.3,3.3s-1.4,3.3-3.3,3.3h-0.7V148h0.7
	c0.6,0,1.1-0.5,1.1-1.1c0-0.6-0.5-1.1-1.1-1.1h-0.7V143.6z M36.4,154.5h-2.2l-1.6-3.9h0.5c0.6,0,1.1-0.1,1.6-0.3L36.4,154.5z"/>
<path d="M39.4,154.5h-2.2v-10.9h2.2V154.5z M39.8,143.6h3.9v2.2h-3.9C39.8,145.8,39.8,143.6,39.8,143.6z M39.8,148h2.8v2.2h-2.8V148
	z M39.8,152.3h3.9v2.2h-3.9C39.8,154.5,39.8,152.3,39.8,152.3z"/>
<path d="M48.8,154.5h-2.2l-2.2-10.9h2.2L48.8,154.5z M48,148.1l0.9-4.4H51l-2,9.9L48,148.1z M53.2,154.5H51l-0.9-4.4l1.1-5.4
	L53.2,154.5z M52.3,148.1l0.9-4.4h2.2l-2,9.9L52.3,148.1z"/>
<path d="M58.3,154.5h-2.2v-10.9h2.2V154.5z"/>
<path d="M59.3,143.6h2.2l4.3,10.9h-2.2L59.3,143.6z M61.5,150.2v4.3h-2.2v-9.8L61.5,150.2z M63.7,148v-4.4h2.2v9.8L63.7,148z"/>
<path d="M68.9,151.2c0,0.6,0.4,1,0.9,1.1v2.2c-1.8-0.1-3.1-1.6-3.1-3.3v-4.3c0-1.7,1.3-3.2,3.1-3.3v2.2c-0.5,0.1-0.9,0.5-0.9,1.1
	V151.2z M70.2,152.3c0.5-0.1,0.9-0.5,0.9-1.1v-1.1H70V148h3.2v3.2c0,1.7-1.3,3.2-3,3.3V152.3z M70.2,143.7c1.8,0.1,3,1.5,3,3.3h-2.2
	c0-0.6-0.4-1-0.9-1.1V143.7z"/>
<path d="M79.9,154.5c-1.8-0.1-3-1.6-3-3.3v-4.3c0-1.7,1.3-3.2,3-3.3v2.2c-0.5,0.1-0.9,0.5-0.9,1.1v4.3c0,0.6,0.4,1,0.9,1.1V154.5z
	 M81.1,146.9c0-0.6-0.4-1-0.9-1.1v-2.2c1.8,0.1,3.1,1.5,3.1,3.3L81.1,146.9L81.1,146.9z M80.3,152.3c0.5-0.1,0.9-0.5,0.9-1.1h2.2
	c0,1.7-1.3,3.2-3.1,3.3V152.3z"/>
<path d="M87.2,152.5c-1.8-0.1-3-1.6-3-3.3v-2.3c0-1.7,1.3-3.2,3-3.3v2.2c-0.5,0.1-0.9,0.5-0.9,1.1v2.3c0,0.6,0.4,1,0.9,1.1V152.5z
	 M87.6,150.3c0.5-0.1,0.9-0.5,0.9-1.1v-2.3c0-0.6-0.4-1-0.9-1.1v-2.2c1.8,0.1,3.1,1.5,3.1,3.3v2.3c0,1.7-1.3,3.2-3.1,3.3V150.3z"/>
<rect x="84.5" y="153.4" width="5.7" height="1.1"/>
</svg>
