<?xml version="1.0" encoding="utf-8"?>
<!-- Generator: Adobe Illustrator 17.1.0, SVG Export Plug-In . SVG Version: 6.00 Build 0)  -->
<!DOCTYPE svg PUBLIC "-//W3C//DTD SVG 1.1//EN" "http://www.w3.org/Graphics/SVG/1.1/DTD/svg11.dtd">
<svg version="1.1" id="Layer_1" xmlns="http://www.w3.org/2000/svg" xmlns:xlink="http://www.w3.org/1999/xlink" x="0px" y="0px"
	 viewBox="0 0 112 112" enable-background="new 0 0 112 112" xml:space="preserve">
<g>
	<defs>
		<circle id="SVGID_1_" cx="56" cy="56" r="55.5"/>
	</defs>
	<use xlink:href="#SVGID_1_"  overflow="visible" fill="#00ACC8"/>
	<clipPath id="SVGID_2_">
		<use xlink:href="#SVGID_1_"  overflow="visible"/>
	</clipPath>
	<g clip-path="url(#SVGID_2_)">
		<path fill="#FFFFFF" d="M468.5-111.5c0,4.4-3.6,8-8,8c-4.4,0-8-3.6-8-8c0-4.4,3.6-8,8-8C464.9-119.5,468.5-115.9,468.5-111.5"/>
		<path fill="#FFFFFF" d="M494.5-111.5c0,4.4-3.6,8-8,8c-4.4,0-8-3.6-8-8c0-4.4,3.6-8,8-8C490.9-119.5,494.5-115.9,494.5-111.5"/>
		<path fill="#FFFFFF" d="M520.5-111.5c0,4.4-3.6,8-8,8c-4.4,0-8-3.6-8-8c0-4.4,3.6-8,8-8C516.9-119.5,520.5-115.9,520.5-111.5"/>
		<path fill="#FFFFFF" d="M546.5-111.5c0,4.4-3.6,8-8,8c-4.4,0-8-3.6-8-8c0-4.4,3.6-8,8-8C542.9-119.5,546.5-115.9,546.5-111.5"/>
		<path fill="#FFFFFF" d="M572.4-111.5c0,4.4-3.6,8-8,8c-4.4,0-8-3.6-8-8c0-4.4,3.6-8,8-8C568.8-119.5,572.4-115.9,572.4-111.5"/>
		<path fill="#FFFFFF" d="M455.5-87.5c0,4.4-3.6,8-8,8c-4.4,0-8-3.6-8-8c0-4.4,3.6-8,8-8C452-95.5,455.5-92,455.5-87.5"/>
		<path fill="#FFFFFF" d="M481.5-87.5c0,4.4-3.6,8-8,8c-4.4,0-8-3.6-8-8c0-4.4,3.6-8,8-8C477.9-95.5,481.5-92,481.5-87.5"/>
		<path fill="#FFFFFF" d="M507.5-87.5c0,4.4-3.6,8-8,8c-4.4,0-8-3.6-8-8c0-4.4,3.6-8,8-8C503.9-95.5,507.5-92,507.5-87.5"/>
		<path fill="#FFFFFF" d="M533.5-87.5c0,4.4-3.6,8-8,8c-4.4,0-8-3.6-8-8c0-4.4,3.6-8,8-8C529.9-95.5,533.5-92,533.5-87.5"/>
		<path fill="#FFFFFF" d="M559.4-87.5c0,4.4-3.6,8-8,8c-4.4,0-8-3.6-8-8c0-4.4,3.6-8,8-8C555.9-95.5,559.4-92,559.4-87.5"/>
		<path fill="#FFFFFF" d="M468.5-63.6c0,4.4-3.6,8-8,8c-4.4,0-8-3.6-8-8c0-4.4,3.6-8,8-8C464.9-71.6,468.5-68,468.5-63.6"/>
		<path fill="#FFFFFF" d="M494.5-63.6c0,4.4-3.6,8-8,8c-4.4,0-8-3.6-8-8c0-4.4,3.6-8,8-8C490.9-71.6,494.5-68,494.5-63.6"/>
		<path fill="#FFFFFF" d="M520.5-63.6c0,4.4-3.6,8-8,8c-4.4,0-8-3.6-8-8c0-4.4,3.6-8,8-8C516.9-71.6,520.5-68,520.5-63.6"/>
		<path fill="#FFFFFF" d="M546.5-63.6c0,4.4-3.6,8-8,8c-4.4,0-8-3.6-8-8c0-4.4,3.6-8,8-8C542.9-71.6,546.5-68,546.5-63.6"/>
		<path fill="#FFFFFF" d="M572.4-63.6c0,4.4-3.6,8-8,8c-4.4,0-8-3.6-8-8c0-4.4,3.6-8,8-8C568.8-71.6,572.4-68,572.4-63.6"/>
		<path fill="#FFFFFF" d="M455.5-39.6c0,4.4-3.6,8-8,8c-4.4,0-8-3.6-8-8c0-4.4,3.6-8,8-8C452-47.6,455.5-44,455.5-39.6"/>
		<path fill="#FFFFFF" d="M481.5-39.6c0,4.4-3.6,8-8,8c-4.4,0-8-3.6-8-8c0-4.4,3.6-8,8-8C477.9-47.6,481.5-44,481.5-39.6"/>
		<path fill="#FFFFFF" d="M507.5-39.6c0,4.4-3.6,8-8,8c-4.4,0-8-3.6-8-8c0-4.4,3.6-8,8-8C503.9-47.6,507.5-44,507.5-39.6"/>
		<path fill="#FFFFFF" d="M533.5-39.6c0,4.4-3.6,8-8,8c-4.4,0-8-3.6-8-8c0-4.4,3.6-8,8-8C529.9-47.6,533.5-44,533.5-39.6"/>
		<path fill="#FFFFFF" d="M559.4-39.6c0,4.4-3.6,8-8,8c-4.4,0-8-3.6-8-8c0-4.4,3.6-8,8-8C555.9-47.6,559.4-44,559.4-39.6"/>
		<path fill="#FFFFFF" d="M468.5-15.6c0,4.4-3.6,8-8,8c-4.4,0-8-3.6-8-8c0-4.4,3.6-8,8-8C464.9-23.6,468.5-20,468.5-15.6"/>
		<path fill="#FFFFFF" d="M494.5-15.6c0,4.4-3.6,8-8,8c-4.4,0-8-3.6-8-8c0-4.4,3.6-8,8-8C490.9-23.6,494.5-20,494.5-15.6"/>
		<path fill="#FFFFFF" d="M520.5-15.6c0,4.4-3.6,8-8,8c-4.4,0-8-3.6-8-8c0-4.4,3.6-8,8-8C516.9-23.6,520.5-20,520.5-15.6"/>
		<path fill="#FFFFFF" d="M546.5-15.6c0,4.4-3.6,8-8,8c-4.4,0-8-3.6-8-8c0-4.4,3.6-8,8-8C542.9-23.6,546.5-20,546.5-15.6"/>
		<path fill="#FFFFFF" d="M572.4-15.6c0,4.4-3.6,8-8,8c-4.4,0-8-3.6-8-8c0-4.4,3.6-8,8-8C568.8-23.6,572.4-20,572.4-15.6"/>
		<path fill="#FFFFFF" d="M455.5,8.4c0,4.4-3.6,8-8,8c-4.4,0-8-3.6-8-8c0-4.4,3.6-8,8-8C452,0.4,455.5,4,455.5,8.4"/>
		<path fill="#FFFFFF" d="M481.5,8.4c0,4.4-3.6,8-8,8c-4.4,0-8-3.6-8-8c0-4.4,3.6-8,8-8C477.9,0.4,481.5,4,481.5,8.4"/>
		<path fill="#FFFFFF" d="M507.5,8.4c0,4.4-3.6,8-8,8c-4.4,0-8-3.6-8-8c0-4.4,3.6-8,8-8C503.9,0.4,507.5,4,507.5,8.4"/>
		<path fill="#FFFFFF" d="M533.5,8.4c0,4.4-3.6,8-8,8c-4.4,0-8-3.6-8-8c0-4.4,3.6-8,8-8C529.9,0.4,533.5,4,533.5,8.4"/>
		<path fill="#FFFFFF" d="M559.4,8.4c0,4.4-3.6,8-8,8c-4.4,0-8-3.6-8-8c0-4.4,3.6-8,8-8C555.9,0.4,559.4,4,559.4,8.4"/>
		<path fill="#FFFFFF" d="M468.5,32.4c0,4.4-3.6,8-8,8c-4.4,0-8-3.6-8-8c0-4.4,3.6-8,8-8C464.9,24.4,468.5,27.9,468.5,32.4"/>
		<path fill="#FFFFFF" d="M494.5,32.4c0,4.4-3.6,8-8,8c-4.4,0-8-3.6-8-8c0-4.4,3.6-8,8-8C490.9,24.4,494.5,27.9,494.5,32.4"/>
		<path fill="#FFFFFF" d="M520.5,32.4c0,4.4-3.6,8-8,8c-4.4,0-8-3.6-8-8c0-4.4,3.6-8,8-8C516.9,24.4,520.5,27.9,520.5,32.4"/>
		<path fill="#FFFFFF" d="M546.5,32.4c0,4.4-3.6,8-8,8c-4.4,0-8-3.6-8-8c0-4.4,3.6-8,8-8C542.9,24.4,546.5,27.9,546.5,32.4"/>
		<path fill="#FFFFFF" d="M572.4,32.4c0,4.4-3.6,8-8,8c-4.4,0-8-3.6-8-8c0-4.4,3.6-8,8-8C568.8,24.4,572.4,27.9,572.4,32.4"/>
		<path fill="#FFFFFF" d="M455.5,56.3c0,4.4-3.6,8-8,8c-4.4,0-8-3.6-8-8c0-4.4,3.6-8,8-8C452,48.3,455.5,51.9,455.5,56.3"/>
		<path fill="#FFFFFF" d="M481.5,56.3c0,4.4-3.6,8-8,8c-4.4,0-8-3.6-8-8c0-4.4,3.6-8,8-8C477.9,48.3,481.5,51.9,481.5,56.3"/>
		<path fill="#FFFFFF" d="M507.5,56.3c0,4.4-3.6,8-8,8c-4.4,0-8-3.6-8-8c0-4.4,3.6-8,8-8C503.9,48.3,507.5,51.9,507.5,56.3"/>
		<path fill="#FFFFFF" d="M533.5,56.3c0,4.4-3.6,8-8,8c-4.4,0-8-3.6-8-8c0-4.4,3.6-8,8-8C529.9,48.3,533.5,51.9,533.5,56.3"/>
		<path fill="#FFFFFF" d="M559.4,56.3c0,4.4-3.6,8-8,8c-4.4,0-8-3.6-8-8c0-4.4,3.6-8,8-8C555.9,48.3,559.4,51.9,559.4,56.3"/>
		<path fill="#FFFFFF" d="M338.6-111.5c0,4.4-3.6,8-8,8c-4.4,0-8-3.6-8-8c0-4.4,3.6-8,8-8C335.1-119.5,338.6-115.9,338.6-111.5"/>
		<path fill="#FFFFFF" d="M364.6-111.5c0,4.4-3.6,8-8,8c-4.4,0-8-3.6-8-8c0-4.4,3.6-8,8-8C361-119.5,364.6-115.9,364.6-111.5"/>
		<path fill="#FFFFFF" d="M390.6-111.5c0,4.4-3.6,8-8,8c-4.4,0-8-3.6-8-8c0-4.4,3.6-8,8-8C387-119.5,390.6-115.9,390.6-111.5"/>
		<path fill="#FFFFFF" d="M416.6-111.5c0,4.4-3.6,8-8,8c-4.4,0-8-3.6-8-8c0-4.4,3.6-8,8-8C413-119.5,416.6-115.9,416.6-111.5"/>
		<path fill="#FFFFFF" d="M442.5-111.5c0,4.4-3.6,8-8,8c-4.4,0-8-3.6-8-8c0-4.4,3.6-8,8-8C439-119.5,442.5-115.9,442.5-111.5"/>
		<path fill="#FFFFFF" d="M325.6-87.5c0,4.4-3.6,8-8,8c-4.4,0-8-3.6-8-8c0-4.4,3.6-8,8-8C322.1-95.5,325.6-92,325.6-87.5"/>
		<path fill="#FFFFFF" d="M351.6-87.5c0,4.4-3.6,8-8,8c-4.4,0-8-3.6-8-8c0-4.4,3.6-8,8-8C348-95.5,351.6-92,351.6-87.5"/>
		<path fill="#FFFFFF" d="M377.6-87.5c0,4.4-3.6,8-8,8c-4.4,0-8-3.6-8-8c0-4.4,3.6-8,8-8C374-95.5,377.6-92,377.6-87.5"/>
		<path fill="#FFFFFF" d="M403.6-87.5c0,4.4-3.6,8-8,8c-4.4,0-8-3.6-8-8c0-4.4,3.6-8,8-8C400-95.5,403.6-92,403.6-87.5"/>
		<path fill="#FFFFFF" d="M429.6-87.5c0,4.4-3.6,8-8,8c-4.4,0-8-3.6-8-8c0-4.4,3.6-8,8-8C426-95.5,429.6-92,429.6-87.5"/>
		<path fill="#FFFFFF" d="M338.6-63.6c0,4.4-3.6,8-8,8c-4.4,0-8-3.6-8-8c0-4.4,3.6-8,8-8C335.1-71.6,338.6-68,338.6-63.6"/>
		<path fill="#FFFFFF" d="M364.6-63.6c0,4.4-3.6,8-8,8c-4.4,0-8-3.6-8-8c0-4.4,3.6-8,8-8C361-71.6,364.6-68,364.6-63.6"/>
		<path fill="#FFFFFF" d="M390.6-63.6c0,4.4-3.6,8-8,8c-4.4,0-8-3.6-8-8c0-4.4,3.6-8,8-8C387-71.6,390.6-68,390.6-63.6"/>
		<path fill="#FFFFFF" d="M416.6-63.6c0,4.4-3.6,8-8,8c-4.4,0-8-3.6-8-8c0-4.4,3.6-8,8-8C413-71.6,416.6-68,416.6-63.6"/>
		<path fill="#FFFFFF" d="M442.5-63.6c0,4.4-3.6,8-8,8c-4.4,0-8-3.6-8-8c0-4.4,3.6-8,8-8C439-71.6,442.5-68,442.5-63.6"/>
		<path fill="#FFFFFF" d="M325.6-39.6c0,4.4-3.6,8-8,8c-4.4,0-8-3.6-8-8c0-4.4,3.6-8,8-8C322.1-47.6,325.6-44,325.6-39.6"/>
		<path fill="#FFFFFF" d="M351.6-39.6c0,4.4-3.6,8-8,8c-4.4,0-8-3.6-8-8c0-4.4,3.6-8,8-8C348-47.6,351.6-44,351.6-39.6"/>
		<path fill="#FFFFFF" d="M377.6-39.6c0,4.4-3.6,8-8,8c-4.4,0-8-3.6-8-8c0-4.4,3.6-8,8-8C374-47.6,377.6-44,377.6-39.6"/>
		<path fill="#FFFFFF" d="M403.6-39.6c0,4.4-3.6,8-8,8c-4.4,0-8-3.6-8-8c0-4.4,3.6-8,8-8C400-47.6,403.6-44,403.6-39.6"/>
		<path fill="#FFFFFF" d="M429.6-39.6c0,4.4-3.6,8-8,8c-4.4,0-8-3.6-8-8c0-4.4,3.6-8,8-8C426-47.6,429.6-44,429.6-39.6"/>
		<path fill="#FFFFFF" d="M338.6-15.6c0,4.4-3.6,8-8,8c-4.4,0-8-3.6-8-8c0-4.4,3.6-8,8-8C335.1-23.6,338.6-20,338.6-15.6"/>
		<path fill="#FFFFFF" d="M364.6-15.6c0,4.4-3.6,8-8,8c-4.4,0-8-3.6-8-8c0-4.4,3.6-8,8-8C361-23.6,364.6-20,364.6-15.6"/>
		<path fill="#FFFFFF" d="M390.6-15.6c0,4.4-3.6,8-8,8c-4.4,0-8-3.6-8-8c0-4.4,3.6-8,8-8C387-23.6,390.6-20,390.6-15.6"/>
		<path fill="#FFFFFF" d="M416.6-15.6c0,4.4-3.6,8-8,8c-4.4,0-8-3.6-8-8c0-4.4,3.6-8,8-8C413-23.6,416.6-20,416.6-15.6"/>
		<path fill="#FFFFFF" d="M442.5-15.6c0,4.4-3.6,8-8,8c-4.4,0-8-3.6-8-8c0-4.4,3.6-8,8-8C439-23.6,442.5-20,442.5-15.6"/>
		<path fill="#FFFFFF" d="M325.6,8.4c0,4.4-3.6,8-8,8c-4.4,0-8-3.6-8-8c0-4.4,3.6-8,8-8C322.1,0.4,325.6,4,325.6,8.4"/>
		<path fill="#FFFFFF" d="M351.6,8.4c0,4.4-3.6,8-8,8c-4.4,0-8-3.6-8-8c0-4.4,3.6-8,8-8C348,0.4,351.6,4,351.6,8.4"/>
		<path fill="#FFFFFF" d="M377.6,8.4c0,4.4-3.6,8-8,8c-4.4,0-8-3.6-8-8c0-4.4,3.6-8,8-8C374,0.4,377.6,4,377.6,8.4"/>
		<path fill="#FFFFFF" d="M403.6,8.4c0,4.4-3.6,8-8,8c-4.4,0-8-3.6-8-8c0-4.4,3.6-8,8-8C400,0.4,403.6,4,403.6,8.4"/>
		<path fill="#FFFFFF" d="M429.6,8.4c0,4.4-3.6,8-8,8c-4.4,0-8-3.6-8-8c0-4.4,3.6-8,8-8C426,0.4,429.6,4,429.6,8.4"/>
		<path fill="#FFFFFF" d="M338.6,32.4c0,4.4-3.6,8-8,8c-4.4,0-8-3.6-8-8c0-4.4,3.6-8,8-8C335.1,24.4,338.6,27.9,338.6,32.4"/>
		<path fill="#FFFFFF" d="M364.6,32.4c0,4.4-3.6,8-8,8c-4.4,0-8-3.6-8-8c0-4.4,3.6-8,8-8C361,24.4,364.6,27.9,364.6,32.4"/>
		<path fill="#FFFFFF" d="M390.6,32.4c0,4.4-3.6,8-8,8c-4.4,0-8-3.6-8-8c0-4.4,3.6-8,8-8C387,24.4,390.6,27.9,390.6,32.4"/>
		<path fill="#FFFFFF" d="M416.6,32.4c0,4.4-3.6,8-8,8c-4.4,0-8-3.6-8-8c0-4.4,3.6-8,8-8C413,24.4,416.6,27.9,416.6,32.4"/>
		<path fill="#FFFFFF" d="M442.5,32.4c0,4.4-3.6,8-8,8c-4.4,0-8-3.6-8-8c0-4.4,3.6-8,8-8C439,24.4,442.5,27.9,442.5,32.4"/>
		<path fill="#FFFFFF" d="M325.6,56.3c0,4.4-3.6,8-8,8c-4.4,0-8-3.6-8-8c0-4.4,3.6-8,8-8C322.1,48.3,325.6,51.9,325.6,56.3"/>
		<path fill="#FFFFFF" d="M351.6,56.3c0,4.4-3.6,8-8,8c-4.4,0-8-3.6-8-8c0-4.4,3.6-8,8-8C348,48.3,351.6,51.9,351.6,56.3"/>
		<path fill="#FFFFFF" d="M377.6,56.3c0,4.4-3.6,8-8,8c-4.4,0-8-3.6-8-8c0-4.4,3.6-8,8-8C374,48.3,377.6,51.9,377.6,56.3"/>
		<path fill="#FFFFFF" d="M403.6,56.3c0,4.4-3.6,8-8,8c-4.4,0-8-3.6-8-8c0-4.4,3.6-8,8-8C400,48.3,403.6,51.9,403.6,56.3"/>
		<path fill="#FFFFFF" d="M429.6,56.3c0,4.4-3.6,8-8,8c-4.4,0-8-3.6-8-8c0-4.4,3.6-8,8-8C426,48.3,429.6,51.9,429.6,56.3"/>
		<path fill="#FFFFFF" d="M208.7-111.5c0,4.4-3.6,8-8,8c-4.4,0-8-3.6-8-8c0-4.4,3.6-8,8-8C205.2-119.5,208.7-115.9,208.7-111.5"/>
		<path fill="#FFFFFF" d="M234.7-111.5c0,4.4-3.6,8-8,8c-4.4,0-8-3.6-8-8c0-4.4,3.6-8,8-8C231.1-119.5,234.7-115.9,234.7-111.5"/>
		<path fill="#FFFFFF" d="M260.7-111.5c0,4.4-3.6,8-8,8c-4.4,0-8-3.6-8-8c0-4.4,3.6-8,8-8C257.1-119.5,260.7-115.9,260.7-111.5"/>
		<path fill="#FFFFFF" d="M286.7-111.5c0,4.4-3.6,8-8,8c-4.4,0-8-3.6-8-8c0-4.4,3.6-8,8-8C283.1-119.5,286.7-115.9,286.7-111.5"/>
		<path fill="#FFFFFF" d="M312.7-111.5c0,4.4-3.6,8-8,8c-4.4,0-8-3.6-8-8c0-4.4,3.6-8,8-8C309.1-119.5,312.7-115.9,312.7-111.5"/>
		<path fill="#FFFFFF" d="M195.8-87.5c0,4.4-3.6,8-8,8c-4.4,0-8-3.6-8-8c0-4.4,3.6-8,8-8C192.2-95.5,195.8-92,195.8-87.5"/>
		<path fill="#FFFFFF" d="M221.7-87.5c0,4.4-3.6,8-8,8c-4.4,0-8-3.6-8-8c0-4.4,3.6-8,8-8C218.2-95.5,221.7-92,221.7-87.5"/>
		<path fill="#FFFFFF" d="M247.7-87.5c0,4.4-3.6,8-8,8c-4.4,0-8-3.6-8-8c0-4.4,3.6-8,8-8C244.1-95.5,247.7-92,247.7-87.5"/>
		<path fill="#FFFFFF" d="M273.7-87.5c0,4.4-3.6,8-8,8c-4.4,0-8-3.6-8-8c0-4.4,3.6-8,8-8C270.1-95.5,273.7-92,273.7-87.5"/>
		<path fill="#FFFFFF" d="M299.7-87.5c0,4.4-3.6,8-8,8c-4.4,0-8-3.6-8-8c0-4.4,3.6-8,8-8C296.1-95.5,299.7-92,299.7-87.5"/>
		<path fill="#FFFFFF" d="M208.7-63.6c0,4.4-3.6,8-8,8c-4.4,0-8-3.6-8-8c0-4.4,3.6-8,8-8C205.2-71.6,208.7-68,208.7-63.6"/>
		<path fill="#FFFFFF" d="M234.7-63.6c0,4.4-3.6,8-8,8c-4.4,0-8-3.6-8-8c0-4.4,3.6-8,8-8C231.1-71.6,234.7-68,234.7-63.6"/>
		<path fill="#FFFFFF" d="M260.7-63.6c0,4.4-3.6,8-8,8c-4.4,0-8-3.6-8-8c0-4.4,3.6-8,8-8C257.1-71.6,260.7-68,260.7-63.6"/>
		<path fill="#FFFFFF" d="M286.7-63.6c0,4.4-3.6,8-8,8c-4.4,0-8-3.6-8-8c0-4.4,3.6-8,8-8C283.1-71.6,286.7-68,286.7-63.6"/>
		<path fill="#FFFFFF" d="M312.7-63.6c0,4.4-3.6,8-8,8c-4.4,0-8-3.6-8-8c0-4.4,3.6-8,8-8C309.1-71.6,312.7-68,312.7-63.6"/>
		<path fill="#FFFFFF" d="M195.8-39.6c0,4.4-3.6,8-8,8c-4.4,0-8-3.6-8-8c0-4.4,3.6-8,8-8C192.2-47.6,195.8-44,195.8-39.6"/>
		<path fill="#FFFFFF" d="M221.7-39.6c0,4.4-3.6,8-8,8c-4.4,0-8-3.6-8-8c0-4.4,3.6-8,8-8C218.2-47.6,221.7-44,221.7-39.6"/>
		<path fill="#FFFFFF" d="M247.7-39.6c0,4.4-3.6,8-8,8c-4.4,0-8-3.6-8-8c0-4.4,3.6-8,8-8C244.1-47.6,247.7-44,247.7-39.6"/>
		<path fill="#FFFFFF" d="M273.7-39.6c0,4.4-3.6,8-8,8c-4.4,0-8-3.6-8-8c0-4.4,3.6-8,8-8C270.1-47.6,273.7-44,273.7-39.6"/>
		<path fill="#FFFFFF" d="M299.7-39.6c0,4.4-3.6,8-8,8c-4.4,0-8-3.6-8-8c0-4.4,3.6-8,8-8C296.1-47.6,299.7-44,299.7-39.6"/>
		<path fill="#FFFFFF" d="M208.7-15.6c0,4.4-3.6,8-8,8c-4.4,0-8-3.6-8-8c0-4.4,3.6-8,8-8C205.2-23.6,208.7-20,208.7-15.6"/>
		<path fill="#FFFFFF" d="M234.7-15.6c0,4.4-3.6,8-8,8c-4.4,0-8-3.6-8-8c0-4.4,3.6-8,8-8C231.1-23.6,234.7-20,234.7-15.6"/>
		<path fill="#FFFFFF" d="M260.7-15.6c0,4.4-3.6,8-8,8c-4.4,0-8-3.6-8-8c0-4.4,3.6-8,8-8C257.1-23.6,260.7-20,260.7-15.6"/>
		<path fill="#FFFFFF" d="M286.7-15.6c0,4.4-3.6,8-8,8c-4.4,0-8-3.6-8-8c0-4.4,3.6-8,8-8C283.1-23.6,286.7-20,286.7-15.6"/>
		<path fill="#FFFFFF" d="M312.7-15.6c0,4.4-3.6,8-8,8c-4.4,0-8-3.6-8-8c0-4.4,3.6-8,8-8C309.1-23.6,312.7-20,312.7-15.6"/>
		<path fill="#FFFFFF" d="M195.8,8.4c0,4.4-3.6,8-8,8c-4.4,0-8-3.6-8-8c0-4.4,3.6-8,8-8C192.2,0.4,195.8,4,195.8,8.4"/>
		<path fill="#FFFFFF" d="M221.7,8.4c0,4.4-3.6,8-8,8c-4.4,0-8-3.6-8-8c0-4.4,3.6-8,8-8C218.2,0.4,221.7,4,221.7,8.4"/>
		<path fill="#FFFFFF" d="M247.7,8.4c0,4.4-3.6,8-8,8c-4.4,0-8-3.6-8-8c0-4.4,3.6-8,8-8C244.1,0.4,247.7,4,247.7,8.4"/>
		<path fill="#FFFFFF" d="M273.7,8.4c0,4.4-3.6,8-8,8c-4.4,0-8-3.6-8-8c0-4.4,3.6-8,8-8C270.1,0.4,273.7,4,273.7,8.4"/>
		<path fill="#FFFFFF" d="M299.7,8.4c0,4.4-3.6,8-8,8c-4.4,0-8-3.6-8-8c0-4.4,3.6-8,8-8C296.1,0.4,299.7,4,299.7,8.4"/>
		<path fill="#FFFFFF" d="M208.7,32.4c0,4.4-3.6,8-8,8c-4.4,0-8-3.6-8-8c0-4.4,3.6-8,8-8C205.2,24.4,208.7,27.9,208.7,32.4"/>
		<path fill="#FFFFFF" d="M234.7,32.4c0,4.4-3.6,8-8,8c-4.4,0-8-3.6-8-8c0-4.4,3.6-8,8-8C231.1,24.4,234.7,27.9,234.7,32.4"/>
		<path fill="#FFFFFF" d="M260.7,32.4c0,4.4-3.6,8-8,8c-4.4,0-8-3.6-8-8c0-4.4,3.6-8,8-8C257.1,24.4,260.7,27.9,260.7,32.4"/>
		<path fill="#FFFFFF" d="M286.7,32.4c0,4.4-3.6,8-8,8c-4.4,0-8-3.6-8-8c0-4.4,3.6-8,8-8C283.1,24.4,286.7,27.9,286.7,32.4"/>
		<path fill="#FFFFFF" d="M312.7,32.4c0,4.4-3.6,8-8,8c-4.4,0-8-3.6-8-8c0-4.4,3.6-8,8-8C309.1,24.4,312.7,27.9,312.7,32.4"/>
		<path fill="#FFFFFF" d="M195.8,56.3c0,4.4-3.6,8-8,8c-4.4,0-8-3.6-8-8c0-4.4,3.6-8,8-8C192.2,48.3,195.8,51.9,195.8,56.3"/>
		<path fill="#FFFFFF" d="M221.7,56.3c0,4.4-3.6,8-8,8c-4.4,0-8-3.6-8-8c0-4.4,3.6-8,8-8C218.2,48.3,221.7,51.9,221.7,56.3"/>
		<path fill="#FFFFFF" d="M247.7,56.3c0,4.4-3.6,8-8,8c-4.4,0-8-3.6-8-8c0-4.4,3.6-8,8-8C244.1,48.3,247.7,51.9,247.7,56.3"/>
		<path fill="#FFFFFF" d="M273.7,56.3c0,4.4-3.6,8-8,8c-4.4,0-8-3.6-8-8c0-4.4,3.6-8,8-8C270.1,48.3,273.7,51.9,273.7,56.3"/>
		<path fill="#FFFFFF" d="M299.7,56.3c0,4.4-3.6,8-8,8c-4.4,0-8-3.6-8-8c0-4.4,3.6-8,8-8C296.1,48.3,299.7,51.9,299.7,56.3"/>
		<path fill="#FFFFFF" d="M78.9-111.5c0,4.4-3.6,8-8,8c-4.4,0-8-3.6-8-8c0-4.4,3.6-8,8-8C75.3-119.5,78.9-115.9,78.9-111.5"/>
		<path fill="#FFFFFF" d="M104.8-111.5c0,4.4-3.6,8-8,8c-4.4,0-8-3.6-8-8c0-4.4,3.6-8,8-8C101.3-119.5,104.8-115.9,104.8-111.5"/>
		<path fill="#FFFFFF" d="M130.8-111.5c0,4.4-3.6,8-8,8c-4.4,0-8-3.6-8-8c0-4.4,3.6-8,8-8C127.2-119.5,130.8-115.9,130.8-111.5"/>
		<path fill="#FFFFFF" d="M156.8-111.5c0,4.4-3.6,8-8,8c-4.4,0-8-3.6-8-8c0-4.4,3.6-8,8-8C153.2-119.5,156.8-115.9,156.8-111.5"/>
		<path fill="#FFFFFF" d="M182.8-111.5c0,4.4-3.6,8-8,8c-4.4,0-8-3.6-8-8c0-4.4,3.6-8,8-8C179.2-119.5,182.8-115.9,182.8-111.5"/>
		<path fill="#FFFFFF" d="M65.9-87.5c0,4.4-3.6,8-8,8c-4.4,0-8-3.6-8-8c0-4.4,3.6-8,8-8C62.3-95.5,65.9-92,65.9-87.5"/>
		<path fill="#FFFFFF" d="M91.8-87.5c0,4.4-3.6,8-8,8c-4.4,0-8-3.6-8-8c0-4.4,3.6-8,8-8C88.3-95.5,91.8-92,91.8-87.5"/>
		<path fill="#FFFFFF" d="M117.8-87.5c0,4.4-3.6,8-8,8c-4.4,0-8-3.6-8-8c0-4.4,3.6-8,8-8C114.2-95.5,117.8-92,117.8-87.5"/>
		<path fill="#FFFFFF" d="M143.8-87.5c0,4.4-3.6,8-8,8c-4.4,0-8-3.6-8-8c0-4.4,3.6-8,8-8C140.2-95.5,143.8-92,143.8-87.5"/>
		<path fill="#FFFFFF" d="M169.8-87.5c0,4.4-3.6,8-8,8c-4.4,0-8-3.6-8-8c0-4.4,3.6-8,8-8C166.2-95.5,169.8-92,169.8-87.5"/>
		<path fill="#FFFFFF" d="M78.9-63.6c0,4.4-3.6,8-8,8c-4.4,0-8-3.6-8-8c0-4.4,3.6-8,8-8C75.3-71.6,78.9-68,78.9-63.6"/>
		<path fill="#FFFFFF" d="M104.8-63.6c0,4.4-3.6,8-8,8c-4.4,0-8-3.6-8-8c0-4.4,3.6-8,8-8C101.3-71.6,104.8-68,104.8-63.6"/>
		<path fill="#FFFFFF" d="M130.8-63.6c0,4.4-3.6,8-8,8c-4.4,0-8-3.6-8-8c0-4.4,3.6-8,8-8C127.2-71.6,130.8-68,130.8-63.6"/>
		<path fill="#FFFFFF" d="M156.8-63.6c0,4.4-3.6,8-8,8c-4.4,0-8-3.6-8-8c0-4.4,3.6-8,8-8C153.2-71.6,156.8-68,156.8-63.6"/>
		<path fill="#FFFFFF" d="M182.8-63.6c0,4.4-3.6,8-8,8c-4.4,0-8-3.6-8-8c0-4.4,3.6-8,8-8C179.2-71.6,182.8-68,182.8-63.6"/>
		<path fill="#FFFFFF" d="M65.9-39.6c0,4.4-3.6,8-8,8c-4.4,0-8-3.6-8-8c0-4.4,3.6-8,8-8C62.3-47.6,65.9-44,65.9-39.6"/>
		<path fill="#FFFFFF" d="M91.8-39.6c0,4.4-3.6,8-8,8c-4.4,0-8-3.6-8-8c0-4.4,3.6-8,8-8C88.3-47.6,91.8-44,91.8-39.6"/>
		<path fill="#FFFFFF" d="M117.8-39.6c0,4.4-3.6,8-8,8c-4.4,0-8-3.6-8-8c0-4.4,3.6-8,8-8C114.2-47.6,117.8-44,117.8-39.6"/>
		<path fill="#FFFFFF" d="M143.8-39.6c0,4.4-3.6,8-8,8c-4.4,0-8-3.6-8-8c0-4.4,3.6-8,8-8C140.2-47.6,143.8-44,143.8-39.6"/>
		<path fill="#FFFFFF" d="M169.8-39.6c0,4.4-3.6,8-8,8c-4.4,0-8-3.6-8-8c0-4.4,3.6-8,8-8C166.2-47.6,169.8-44,169.8-39.6"/>
		<path fill="#FFFFFF" d="M78.9-15.6c0,4.4-3.6,8-8,8c-4.4,0-8-3.6-8-8c0-4.4,3.6-8,8-8C75.3-23.6,78.9-20,78.9-15.6"/>
		<path fill="#FFFFFF" d="M104.8-15.6c0,4.4-3.6,8-8,8c-4.4,0-8-3.6-8-8c0-4.4,3.6-8,8-8C101.3-23.6,104.8-20,104.8-15.6"/>
		<path fill="#FFFFFF" d="M130.8-15.6c0,4.4-3.6,8-8,8c-4.4,0-8-3.6-8-8c0-4.4,3.6-8,8-8C127.2-23.6,130.8-20,130.8-15.6"/>
		<path fill="#FFFFFF" d="M156.8-15.6c0,4.4-3.6,8-8,8c-4.4,0-8-3.6-8-8c0-4.4,3.6-8,8-8C153.2-23.6,156.8-20,156.8-15.6"/>
		<path fill="#FFFFFF" d="M182.8-15.6c0,4.4-3.6,8-8,8c-4.4,0-8-3.6-8-8c0-4.4,3.6-8,8-8C179.2-23.6,182.8-20,182.8-15.6"/>
		<path fill="#FFFFFF" d="M65.9,8.4c0,4.4-3.6,8-8,8c-4.4,0-8-3.6-8-8c0-4.4,3.6-8,8-8C62.3,0.4,65.9,4,65.9,8.4"/>
		<path fill="#FFFFFF" d="M91.8,8.4c0,4.4-3.6,8-8,8c-4.4,0-8-3.6-8-8c0-4.4,3.6-8,8-8C88.3,0.4,91.8,4,91.8,8.4"/>
		<path fill="#FFFFFF" d="M117.8,8.4c0,4.4-3.6,8-8,8c-4.4,0-8-3.6-8-8c0-4.4,3.6-8,8-8C114.2,0.4,117.8,4,117.8,8.4"/>
		<path fill="#FFFFFF" d="M143.8,8.4c0,4.4-3.6,8-8,8c-4.4,0-8-3.6-8-8c0-4.4,3.6-8,8-8C140.2,0.4,143.8,4,143.8,8.4"/>
		<path fill="#FFFFFF" d="M169.8,8.4c0,4.4-3.6,8-8,8c-4.4,0-8-3.6-8-8c0-4.4,3.6-8,8-8C166.2,0.4,169.8,4,169.8,8.4"/>
		<path fill="#FFFFFF" d="M78.9,32.4c0,4.4-3.6,8-8,8c-4.4,0-8-3.6-8-8c0-4.4,3.6-8,8-8C75.3,24.4,78.9,27.9,78.9,32.4"/>
		<path fill="#FFFFFF" d="M104.8,32.4c0,4.4-3.6,8-8,8c-4.4,0-8-3.6-8-8c0-4.4,3.6-8,8-8C101.3,24.4,104.8,27.9,104.8,32.4"/>
		<path fill="#FFFFFF" d="M130.8,32.4c0,4.4-3.6,8-8,8c-4.4,0-8-3.6-8-8c0-4.4,3.6-8,8-8C127.2,24.4,130.8,27.9,130.8,32.4"/>
		<path fill="#FFFFFF" d="M156.8,32.4c0,4.4-3.6,8-8,8c-4.4,0-8-3.6-8-8c0-4.4,3.6-8,8-8C153.2,24.4,156.8,27.9,156.8,32.4"/>
		<path fill="#FFFFFF" d="M182.8,32.4c0,4.4-3.6,8-8,8c-4.4,0-8-3.6-8-8c0-4.4,3.6-8,8-8C179.2,24.4,182.8,27.9,182.8,32.4"/>
		<path fill="#FFFFFF" d="M65.9,56.3c0,4.4-3.6,8-8,8c-4.4,0-8-3.6-8-8c0-4.4,3.6-8,8-8C62.3,48.3,65.9,51.9,65.9,56.3"/>
		<path fill="#FFFFFF" d="M91.8,56.3c0,4.4-3.6,8-8,8c-4.4,0-8-3.6-8-8c0-4.4,3.6-8,8-8C88.3,48.3,91.8,51.9,91.8,56.3"/>
		<path fill="#FFFFFF" d="M117.8,56.3c0,4.4-3.6,8-8,8c-4.4,0-8-3.6-8-8c0-4.4,3.6-8,8-8C114.2,48.3,117.8,51.9,117.8,56.3"/>
		<path fill="#FFFFFF" d="M143.8,56.3c0,4.4-3.6,8-8,8c-4.4,0-8-3.6-8-8c0-4.4,3.6-8,8-8C140.2,48.3,143.8,51.9,143.8,56.3"/>
		<path fill="#FFFFFF" d="M169.8,56.3c0,4.4-3.6,8-8,8c-4.4,0-8-3.6-8-8c0-4.4,3.6-8,8-8C166.2,48.3,169.8,51.9,169.8,56.3"/>
		<path fill="#FFFFFF" d="M468.5,80.3c0,4.4-3.6,8-8,8c-4.4,0-8-3.6-8-8c0-4.4,3.6-8,8-8C464.9,72.3,468.5,75.9,468.5,80.3"/>
		<path fill="#FFFFFF" d="M494.5,80.3c0,4.4-3.6,8-8,8c-4.4,0-8-3.6-8-8c0-4.4,3.6-8,8-8C490.9,72.3,494.5,75.9,494.5,80.3"/>
		<path fill="#FFFFFF" d="M520.5,80.3c0,4.4-3.6,8-8,8c-4.4,0-8-3.6-8-8c0-4.4,3.6-8,8-8C516.9,72.3,520.5,75.9,520.5,80.3"/>
		<path fill="#FFFFFF" d="M546.5,80.3c0,4.4-3.6,8-8,8c-4.4,0-8-3.6-8-8c0-4.4,3.6-8,8-8C542.9,72.3,546.5,75.9,546.5,80.3"/>
		<path fill="#FFFFFF" d="M572.4,80.3c0,4.4-3.6,8-8,8c-4.4,0-8-3.6-8-8c0-4.4,3.6-8,8-8C568.8,72.3,572.4,75.9,572.4,80.3"/>
		<path fill="#FFFFFF" d="M455.5,104.3c0,4.4-3.6,8-8,8c-4.4,0-8-3.6-8-8c0-4.4,3.6-8,8-8C452,96.3,455.5,99.9,455.5,104.3"/>
		<path fill="#FFFFFF" d="M481.5,104.3c0,4.4-3.6,8-8,8c-4.4,0-8-3.6-8-8c0-4.4,3.6-8,8-8C477.9,96.3,481.5,99.9,481.5,104.3"/>
		<path fill="#FFFFFF" d="M507.5,104.3c0,4.4-3.6,8-8,8c-4.4,0-8-3.6-8-8c0-4.4,3.6-8,8-8C503.9,96.3,507.5,99.9,507.5,104.3"/>
		<path fill="#FFFFFF" d="M533.5,104.3c0,4.4-3.6,8-8,8c-4.4,0-8-3.6-8-8c0-4.4,3.6-8,8-8C529.9,96.3,533.5,99.9,533.5,104.3"/>
		<path fill="#FFFFFF" d="M559.4,104.3c0,4.4-3.6,8-8,8c-4.4,0-8-3.6-8-8c0-4.4,3.6-8,8-8C555.9,96.3,559.4,99.9,559.4,104.3"/>
		<path fill="#FFFFFF" d="M468.5,128.3c0,4.4-3.6,8-8,8c-4.4,0-8-3.6-8-8c0-4.4,3.6-8,8-8C464.9,120.3,468.5,123.9,468.5,128.3"/>
		<path fill="#FFFFFF" d="M494.5,128.3c0,4.4-3.6,8-8,8c-4.4,0-8-3.6-8-8c0-4.4,3.6-8,8-8C490.9,120.3,494.5,123.9,494.5,128.3"/>
		<path fill="#FFFFFF" d="M520.5,128.3c0,4.4-3.6,8-8,8c-4.4,0-8-3.6-8-8c0-4.4,3.6-8,8-8C516.9,120.3,520.5,123.9,520.5,128.3"/>
		<path fill="#FFFFFF" d="M546.5,128.3c0,4.4-3.6,8-8,8c-4.4,0-8-3.6-8-8c0-4.4,3.6-8,8-8C542.9,120.3,546.5,123.9,546.5,128.3"/>
		<path fill="#FFFFFF" d="M572.4,128.3c0,4.4-3.6,8-8,8c-4.4,0-8-3.6-8-8c0-4.4,3.6-8,8-8C568.8,120.3,572.4,123.9,572.4,128.3"/>
		<path fill="#FFFFFF" d="M455.5,152.3c0,4.4-3.6,8-8,8c-4.4,0-8-3.6-8-8c0-4.4,3.6-8,8-8C452,144.3,455.5,147.8,455.5,152.3"/>
		<path fill="#FFFFFF" d="M481.5,152.3c0,4.4-3.6,8-8,8c-4.4,0-8-3.6-8-8c0-4.4,3.6-8,8-8C477.9,144.3,481.5,147.8,481.5,152.3"/>
		<path fill="#FFFFFF" d="M507.5,152.3c0,4.4-3.6,8-8,8c-4.4,0-8-3.6-8-8c0-4.4,3.6-8,8-8C503.9,144.3,507.5,147.8,507.5,152.3"/>
		<path fill="#FFFFFF" d="M533.5,152.3c0,4.4-3.6,8-8,8c-4.4,0-8-3.6-8-8c0-4.4,3.6-8,8-8C529.9,144.3,533.5,147.8,533.5,152.3"/>
		<path fill="#FFFFFF" d="M559.4,152.3c0,4.4-3.6,8-8,8c-4.4,0-8-3.6-8-8c0-4.4,3.6-8,8-8C555.9,144.3,559.4,147.8,559.4,152.3"/>
		<path fill="#FFFFFF" d="M468.5,176.2c0,4.4-3.6,8-8,8c-4.4,0-8-3.6-8-8c0-4.4,3.6-8,8-8C464.9,168.2,468.5,171.8,468.5,176.2"/>
		<path fill="#FFFFFF" d="M494.5,176.2c0,4.4-3.6,8-8,8c-4.4,0-8-3.6-8-8c0-4.4,3.6-8,8-8C490.9,168.2,494.5,171.8,494.5,176.2"/>
		<path fill="#FFFFFF" d="M520.5,176.2c0,4.4-3.6,8-8,8c-4.4,0-8-3.6-8-8c0-4.4,3.6-8,8-8C516.9,168.2,520.5,171.8,520.5,176.2"/>
		<path fill="#FFFFFF" d="M546.5,176.2c0,4.4-3.6,8-8,8c-4.4,0-8-3.6-8-8c0-4.4,3.6-8,8-8C542.9,168.2,546.5,171.8,546.5,176.2"/>
		<path fill="#FFFFFF" d="M572.4,176.2c0,4.4-3.6,8-8,8c-4.4,0-8-3.6-8-8c0-4.4,3.6-8,8-8C568.8,168.2,572.4,171.8,572.4,176.2"/>
		<path fill="#FFFFFF" d="M455.5,200.2c0,4.4-3.6,8-8,8c-4.4,0-8-3.6-8-8c0-4.4,3.6-8,8-8C452,192.2,455.5,195.8,455.5,200.2"/>
		<path fill="#FFFFFF" d="M481.5,200.2c0,4.4-3.6,8-8,8c-4.4,0-8-3.6-8-8c0-4.4,3.6-8,8-8C477.9,192.2,481.5,195.8,481.5,200.2"/>
		<path fill="#FFFFFF" d="M507.5,200.2c0,4.4-3.6,8-8,8c-4.4,0-8-3.6-8-8c0-4.4,3.6-8,8-8C503.9,192.2,507.5,195.8,507.5,200.2"/>
		<path fill="#FFFFFF" d="M533.5,200.2c0,4.4-3.6,8-8,8c-4.4,0-8-3.6-8-8c0-4.4,3.6-8,8-8C529.9,192.2,533.5,195.8,533.5,200.2"/>
		<path fill="#FFFFFF" d="M559.4,200.2c0,4.4-3.6,8-8,8c-4.4,0-8-3.6-8-8c0-4.4,3.6-8,8-8C555.9,192.2,559.4,195.8,559.4,200.2"/>
		<path fill="#FFFFFF" d="M468.5,224.2c0,4.4-3.6,8-8,8c-4.4,0-8-3.6-8-8c0-4.4,3.6-8,8-8C464.9,216.2,468.5,219.8,468.5,224.2"/>
		<path fill="#FFFFFF" d="M494.5,224.2c0,4.4-3.6,8-8,8c-4.4,0-8-3.6-8-8c0-4.4,3.6-8,8-8C490.9,216.2,494.5,219.8,494.5,224.2"/>
		<path fill="#FFFFFF" d="M520.5,224.2c0,4.4-3.6,8-8,8c-4.4,0-8-3.6-8-8c0-4.4,3.6-8,8-8C516.9,216.2,520.5,219.8,520.5,224.2"/>
		<path fill="#FFFFFF" d="M546.5,224.2c0,4.4-3.6,8-8,8c-4.4,0-8-3.6-8-8c0-4.4,3.6-8,8-8C542.9,216.2,546.5,219.8,546.5,224.2"/>
		<path fill="#FFFFFF" d="M572.4,224.2c0,4.4-3.6,8-8,8c-4.4,0-8-3.6-8-8c0-4.4,3.6-8,8-8C568.8,216.2,572.4,219.8,572.4,224.2"/>
		<path fill="#FFFFFF" d="M455.5,248.2c0,4.4-3.6,8-8,8c-4.4,0-8-3.6-8-8c0-4.4,3.6-8,8-8C452,240.2,455.5,243.8,455.5,248.2"/>
		<path fill="#FFFFFF" d="M481.5,248.2c0,4.4-3.6,8-8,8c-4.4,0-8-3.6-8-8c0-4.4,3.6-8,8-8C477.9,240.2,481.5,243.8,481.5,248.2"/>
		<path fill="#FFFFFF" d="M507.5,248.2c0,4.4-3.6,8-8,8c-4.4,0-8-3.6-8-8c0-4.4,3.6-8,8-8C503.9,240.2,507.5,243.8,507.5,248.2"/>
		<path fill="#FFFFFF" d="M533.5,248.2c0,4.4-3.6,8-8,8c-4.4,0-8-3.6-8-8c0-4.4,3.6-8,8-8C529.9,240.2,533.5,243.8,533.5,248.2"/>
		<path fill="#FFFFFF" d="M559.4,248.2c0,4.4-3.6,8-8,8c-4.4,0-8-3.6-8-8c0-4.4,3.6-8,8-8C555.9,240.2,559.4,243.8,559.4,248.2"/>
		<path fill="#FFFFFF" d="M338.6,80.3c0,4.4-3.6,8-8,8c-4.4,0-8-3.6-8-8c0-4.4,3.6-8,8-8C335.1,72.3,338.6,75.9,338.6,80.3"/>
		<path fill="#FFFFFF" d="M364.6,80.3c0,4.4-3.6,8-8,8c-4.4,0-8-3.6-8-8c0-4.4,3.6-8,8-8C361,72.3,364.6,75.9,364.6,80.3"/>
		<path fill="#FFFFFF" d="M390.6,80.3c0,4.4-3.6,8-8,8c-4.4,0-8-3.6-8-8c0-4.4,3.6-8,8-8C387,72.3,390.6,75.9,390.6,80.3"/>
		<path fill="#FFFFFF" d="M416.6,80.3c0,4.4-3.6,8-8,8c-4.4,0-8-3.6-8-8c0-4.4,3.6-8,8-8C413,72.3,416.6,75.9,416.6,80.3"/>
		<path fill="#FFFFFF" d="M442.5,80.3c0,4.4-3.6,8-8,8c-4.4,0-8-3.6-8-8c0-4.4,3.6-8,8-8C439,72.3,442.5,75.9,442.5,80.3"/>
		<path fill="#FFFFFF" d="M325.6,104.3c0,4.4-3.6,8-8,8c-4.4,0-8-3.6-8-8c0-4.4,3.6-8,8-8C322.1,96.3,325.6,99.9,325.6,104.3"/>
		<path fill="#FFFFFF" d="M351.6,104.3c0,4.4-3.6,8-8,8c-4.4,0-8-3.6-8-8c0-4.4,3.6-8,8-8C348,96.3,351.6,99.9,351.6,104.3"/>
		<path fill="#FFFFFF" d="M377.6,104.3c0,4.4-3.6,8-8,8c-4.4,0-8-3.6-8-8c0-4.4,3.6-8,8-8C374,96.3,377.6,99.9,377.6,104.3"/>
		<path fill="#FFFFFF" d="M403.6,104.3c0,4.4-3.6,8-8,8c-4.4,0-8-3.6-8-8c0-4.4,3.6-8,8-8C400,96.3,403.6,99.9,403.6,104.3"/>
		<path fill="#FFFFFF" d="M429.6,104.3c0,4.4-3.6,8-8,8c-4.4,0-8-3.6-8-8c0-4.4,3.6-8,8-8C426,96.3,429.6,99.9,429.6,104.3"/>
		<path fill="#FFFFFF" d="M338.6,128.3c0,4.4-3.6,8-8,8c-4.4,0-8-3.6-8-8c0-4.4,3.6-8,8-8C335.1,120.3,338.6,123.9,338.6,128.3"/>
		<path fill="#FFFFFF" d="M364.6,128.3c0,4.4-3.6,8-8,8c-4.4,0-8-3.6-8-8c0-4.4,3.6-8,8-8C361,120.3,364.6,123.9,364.6,128.3"/>
		<path fill="#FFFFFF" d="M390.6,128.3c0,4.4-3.6,8-8,8c-4.4,0-8-3.6-8-8c0-4.4,3.6-8,8-8C387,120.3,390.6,123.9,390.6,128.3"/>
		<path fill="#FFFFFF" d="M416.6,128.3c0,4.4-3.6,8-8,8c-4.4,0-8-3.6-8-8c0-4.4,3.6-8,8-8C413,120.3,416.6,123.9,416.6,128.3"/>
		<path fill="#FFFFFF" d="M442.5,128.3c0,4.4-3.6,8-8,8c-4.4,0-8-3.6-8-8c0-4.4,3.6-8,8-8C439,120.3,442.5,123.9,442.5,128.3"/>
		<path fill="#FFFFFF" d="M325.6,152.3c0,4.4-3.6,8-8,8c-4.4,0-8-3.6-8-8c0-4.4,3.6-8,8-8C322.1,144.3,325.6,147.8,325.6,152.3"/>
		<path fill="#FFFFFF" d="M351.6,152.3c0,4.4-3.6,8-8,8c-4.4,0-8-3.6-8-8c0-4.4,3.6-8,8-8C348,144.3,351.6,147.8,351.6,152.3"/>
		<path fill="#FFFFFF" d="M377.6,152.3c0,4.4-3.6,8-8,8c-4.4,0-8-3.6-8-8c0-4.4,3.6-8,8-8C374,144.3,377.6,147.8,377.6,152.3"/>
		<path fill="#FFFFFF" d="M403.6,152.3c0,4.4-3.6,8-8,8c-4.4,0-8-3.6-8-8c0-4.4,3.6-8,8-8C400,144.3,403.6,147.8,403.6,152.3"/>
		<path fill="#FFFFFF" d="M429.6,152.3c0,4.4-3.6,8-8,8c-4.4,0-8-3.6-8-8c0-4.4,3.6-8,8-8C426,144.3,429.6,147.8,429.6,152.3"/>
		<path fill="#FFFFFF" d="M338.6,176.2c0,4.4-3.6,8-8,8c-4.4,0-8-3.6-8-8c0-4.4,3.6-8,8-8C335.1,168.2,338.6,171.8,338.6,176.2"/>
		<path fill="#FFFFFF" d="M364.6,176.2c0,4.4-3.6,8-8,8c-4.4,0-8-3.6-8-8c0-4.4,3.6-8,8-8C361,168.2,364.6,171.8,364.6,176.2"/>
		<path fill="#FFFFFF" d="M390.6,176.2c0,4.4-3.6,8-8,8c-4.4,0-8-3.6-8-8c0-4.4,3.6-8,8-8C387,168.2,390.6,171.8,390.6,176.2"/>
		<path fill="#FFFFFF" d="M416.6,176.2c0,4.4-3.6,8-8,8c-4.4,0-8-3.6-8-8c0-4.4,3.6-8,8-8C413,168.2,416.6,171.8,416.6,176.2"/>
		<path fill="#FFFFFF" d="M442.5,176.2c0,4.4-3.6,8-8,8c-4.4,0-8-3.6-8-8c0-4.4,3.6-8,8-8C439,168.2,442.5,171.8,442.5,176.2"/>
		<path fill="#FFFFFF" d="M325.6,200.2c0,4.4-3.6,8-8,8c-4.4,0-8-3.6-8-8c0-4.4,3.6-8,8-8C322.1,192.2,325.6,195.8,325.6,200.2"/>
		<path fill="#FFFFFF" d="M351.6,200.2c0,4.4-3.6,8-8,8c-4.4,0-8-3.6-8-8c0-4.4,3.6-8,8-8C348,192.2,351.6,195.8,351.6,200.2"/>
		<path fill="#FFFFFF" d="M377.6,200.2c0,4.4-3.6,8-8,8c-4.4,0-8-3.6-8-8c0-4.4,3.6-8,8-8C374,192.2,377.6,195.8,377.6,200.2"/>
		<path fill="#FFFFFF" d="M403.6,200.2c0,4.4-3.6,8-8,8c-4.4,0-8-3.6-8-8c0-4.4,3.6-8,8-8C400,192.2,403.6,195.8,403.6,200.2"/>
		<path fill="#FFFFFF" d="M429.6,200.2c0,4.4-3.6,8-8,8c-4.4,0-8-3.6-8-8c0-4.4,3.6-8,8-8C426,192.2,429.6,195.8,429.6,200.2"/>
		<path fill="#FFFFFF" d="M338.6,224.2c0,4.4-3.6,8-8,8c-4.4,0-8-3.6-8-8c0-4.4,3.6-8,8-8C335.1,216.2,338.6,219.8,338.6,224.2"/>
		<path fill="#FFFFFF" d="M364.6,224.2c0,4.4-3.6,8-8,8c-4.4,0-8-3.6-8-8c0-4.4,3.6-8,8-8C361,216.2,364.6,219.8,364.6,224.2"/>
		<path fill="#FFFFFF" d="M390.6,224.2c0,4.4-3.6,8-8,8c-4.4,0-8-3.6-8-8c0-4.4,3.6-8,8-8C387,216.2,390.6,219.8,390.6,224.2"/>
		<path fill="#FFFFFF" d="M416.6,224.2c0,4.4-3.6,8-8,8c-4.4,0-8-3.6-8-8c0-4.4,3.6-8,8-8C413,216.2,416.6,219.8,416.6,224.2"/>
		<path fill="#FFFFFF" d="M442.5,224.2c0,4.4-3.6,8-8,8c-4.4,0-8-3.6-8-8c0-4.4,3.6-8,8-8C439,216.2,442.5,219.8,442.5,224.2"/>
		<path fill="#FFFFFF" d="M325.6,248.2c0,4.4-3.6,8-8,8c-4.4,0-8-3.6-8-8c0-4.4,3.6-8,8-8C322.1,240.2,325.6,243.8,325.6,248.2"/>
		<path fill="#FFFFFF" d="M351.6,248.2c0,4.4-3.6,8-8,8c-4.4,0-8-3.6-8-8c0-4.4,3.6-8,8-8C348,240.2,351.6,243.8,351.6,248.2"/>
		<path fill="#FFFFFF" d="M377.6,248.2c0,4.4-3.6,8-8,8c-4.4,0-8-3.6-8-8c0-4.4,3.6-8,8-8C374,240.2,377.6,243.8,377.6,248.2"/>
		<path fill="#FFFFFF" d="M403.6,248.2c0,4.4-3.6,8-8,8c-4.4,0-8-3.6-8-8c0-4.4,3.6-8,8-8C400,240.2,403.6,243.8,403.6,248.2"/>
		<path fill="#FFFFFF" d="M429.6,248.2c0,4.4-3.6,8-8,8c-4.4,0-8-3.6-8-8c0-4.4,3.6-8,8-8C426,240.2,429.6,243.8,429.6,248.2"/>
		<path fill="#FFFFFF" d="M208.7,80.3c0,4.4-3.6,8-8,8c-4.4,0-8-3.6-8-8c0-4.4,3.6-8,8-8C205.2,72.3,208.7,75.9,208.7,80.3"/>
		<path fill="#FFFFFF" d="M234.7,80.3c0,4.4-3.6,8-8,8c-4.4,0-8-3.6-8-8c0-4.4,3.6-8,8-8C231.1,72.3,234.7,75.9,234.7,80.3"/>
		<path fill="#FFFFFF" d="M260.7,80.3c0,4.4-3.6,8-8,8c-4.4,0-8-3.6-8-8c0-4.4,3.6-8,8-8C257.1,72.3,260.7,75.9,260.7,80.3"/>
		<path fill="#FFFFFF" d="M286.7,80.3c0,4.4-3.6,8-8,8c-4.4,0-8-3.6-8-8c0-4.4,3.6-8,8-8C283.1,72.3,286.7,75.9,286.7,80.3"/>
		<path fill="#FFFFFF" d="M312.7,80.3c0,4.4-3.6,8-8,8c-4.4,0-8-3.6-8-8c0-4.4,3.6-8,8-8C309.1,72.3,312.7,75.9,312.7,80.3"/>
		<path fill="#FFFFFF" d="M195.8,104.3c0,4.4-3.6,8-8,8c-4.4,0-8-3.6-8-8c0-4.4,3.6-8,8-8C192.2,96.3,195.8,99.9,195.8,104.3"/>
		<path fill="#FFFFFF" d="M221.7,104.3c0,4.4-3.6,8-8,8c-4.4,0-8-3.6-8-8c0-4.4,3.6-8,8-8C218.2,96.3,221.7,99.9,221.7,104.3"/>
		<path fill="#FFFFFF" d="M247.7,104.3c0,4.4-3.6,8-8,8c-4.4,0-8-3.6-8-8c0-4.4,3.6-8,8-8C244.1,96.3,247.7,99.9,247.7,104.3"/>
		<path fill="#FFFFFF" d="M273.7,104.3c0,4.4-3.6,8-8,8c-4.4,0-8-3.6-8-8c0-4.4,3.6-8,8-8C270.1,96.3,273.7,99.9,273.7,104.3"/>
		<path fill="#FFFFFF" d="M299.7,104.3c0,4.4-3.6,8-8,8c-4.4,0-8-3.6-8-8c0-4.4,3.6-8,8-8C296.1,96.3,299.7,99.9,299.7,104.3"/>
		<path fill="#FFFFFF" d="M208.7,128.3c0,4.4-3.6,8-8,8c-4.4,0-8-3.6-8-8c0-4.4,3.6-8,8-8C205.2,120.3,208.7,123.9,208.7,128.3"/>
		<path fill="#FFFFFF" d="M234.7,128.3c0,4.4-3.6,8-8,8c-4.4,0-8-3.6-8-8c0-4.4,3.6-8,8-8C231.1,120.3,234.7,123.9,234.7,128.3"/>
		<path fill="#FFFFFF" d="M260.7,128.3c0,4.4-3.6,8-8,8c-4.4,0-8-3.6-8-8c0-4.4,3.6-8,8-8C257.1,120.3,260.7,123.9,260.7,128.3"/>
		<path fill="#FFFFFF" d="M286.7,128.3c0,4.4-3.6,8-8,8c-4.4,0-8-3.6-8-8c0-4.4,3.6-8,8-8C283.1,120.3,286.7,123.9,286.7,128.3"/>
		<path fill="#FFFFFF" d="M312.7,128.3c0,4.4-3.6,8-8,8c-4.4,0-8-3.6-8-8c0-4.4,3.6-8,8-8C309.1,120.3,312.7,123.9,312.7,128.3"/>
		<path fill="#FFFFFF" d="M195.8,152.3c0,4.4-3.6,8-8,8c-4.4,0-8-3.6-8-8c0-4.4,3.6-8,8-8C192.2,144.3,195.8,147.8,195.8,152.3"/>
		<path fill="#FFFFFF" d="M221.7,152.3c0,4.4-3.6,8-8,8c-4.4,0-8-3.6-8-8c0-4.4,3.6-8,8-8C218.2,144.3,221.7,147.8,221.7,152.3"/>
		<path fill="#FFFFFF" d="M247.7,152.3c0,4.4-3.6,8-8,8c-4.4,0-8-3.6-8-8c0-4.4,3.6-8,8-8C244.1,144.3,247.7,147.8,247.7,152.3"/>
		<path fill="#FFFFFF" d="M273.7,152.3c0,4.4-3.6,8-8,8c-4.4,0-8-3.6-8-8c0-4.4,3.6-8,8-8C270.1,144.3,273.7,147.8,273.7,152.3"/>
		<path fill="#FFFFFF" d="M299.7,152.3c0,4.4-3.6,8-8,8c-4.4,0-8-3.6-8-8c0-4.4,3.6-8,8-8C296.1,144.3,299.7,147.8,299.7,152.3"/>
		<path fill="#FFFFFF" d="M208.7,176.2c0,4.4-3.6,8-8,8c-4.4,0-8-3.6-8-8c0-4.4,3.6-8,8-8C205.2,168.2,208.7,171.8,208.7,176.2"/>
		<path fill="#FFFFFF" d="M234.7,176.2c0,4.4-3.6,8-8,8c-4.4,0-8-3.6-8-8c0-4.4,3.6-8,8-8C231.1,168.2,234.7,171.8,234.7,176.2"/>
		<path fill="#FFFFFF" d="M260.7,176.2c0,4.4-3.6,8-8,8c-4.4,0-8-3.6-8-8c0-4.4,3.6-8,8-8C257.1,168.2,260.7,171.8,260.7,176.2"/>
		<path fill="#FFFFFF" d="M286.7,176.2c0,4.4-3.6,8-8,8c-4.4,0-8-3.6-8-8c0-4.4,3.6-8,8-8C283.1,168.2,286.7,171.8,286.7,176.2"/>
		<path fill="#FFFFFF" d="M312.7,176.2c0,4.4-3.6,8-8,8c-4.4,0-8-3.6-8-8c0-4.4,3.6-8,8-8C309.1,168.2,312.7,171.8,312.7,176.2"/>
		<path fill="#FFFFFF" d="M195.8,200.2c0,4.4-3.6,8-8,8c-4.4,0-8-3.6-8-8c0-4.4,3.6-8,8-8C192.2,192.2,195.8,195.8,195.8,200.2"/>
		<path fill="#FFFFFF" d="M221.7,200.2c0,4.4-3.6,8-8,8c-4.4,0-8-3.6-8-8c0-4.4,3.6-8,8-8C218.2,192.2,221.7,195.8,221.7,200.2"/>
		<path fill="#FFFFFF" d="M247.7,200.2c0,4.4-3.6,8-8,8c-4.4,0-8-3.6-8-8c0-4.4,3.6-8,8-8C244.1,192.2,247.7,195.8,247.7,200.2"/>
		<path fill="#FFFFFF" d="M273.7,200.2c0,4.4-3.6,8-8,8c-4.4,0-8-3.6-8-8c0-4.4,3.6-8,8-8C270.1,192.2,273.7,195.8,273.7,200.2"/>
		<path fill="#FFFFFF" d="M299.7,200.2c0,4.4-3.6,8-8,8c-4.4,0-8-3.6-8-8c0-4.4,3.6-8,8-8C296.1,192.2,299.7,195.8,299.7,200.2"/>
		<path fill="#FFFFFF" d="M208.7,224.2c0,4.4-3.6,8-8,8c-4.4,0-8-3.6-8-8c0-4.4,3.6-8,8-8C205.2,216.2,208.7,219.8,208.7,224.2"/>
		<path fill="#FFFFFF" d="M234.7,224.2c0,4.4-3.6,8-8,8c-4.4,0-8-3.6-8-8c0-4.4,3.6-8,8-8C231.1,216.2,234.7,219.8,234.7,224.2"/>
		<path fill="#FFFFFF" d="M260.7,224.2c0,4.4-3.6,8-8,8c-4.4,0-8-3.6-8-8c0-4.4,3.6-8,8-8C257.1,216.2,260.7,219.8,260.7,224.2"/>
		<path fill="#FFFFFF" d="M286.7,224.2c0,4.4-3.6,8-8,8c-4.4,0-8-3.6-8-8c0-4.4,3.6-8,8-8C283.1,216.2,286.7,219.8,286.7,224.2"/>
		<path fill="#FFFFFF" d="M312.7,224.2c0,4.4-3.6,8-8,8c-4.4,0-8-3.6-8-8c0-4.4,3.6-8,8-8C309.1,216.2,312.7,219.8,312.7,224.2"/>
		<path fill="#FFFFFF" d="M195.8,248.2c0,4.4-3.6,8-8,8c-4.4,0-8-3.6-8-8c0-4.4,3.6-8,8-8C192.2,240.2,195.8,243.8,195.8,248.2"/>
		<path fill="#FFFFFF" d="M221.7,248.2c0,4.4-3.6,8-8,8c-4.4,0-8-3.6-8-8c0-4.4,3.6-8,8-8C218.2,240.2,221.7,243.8,221.7,248.2"/>
		<path fill="#FFFFFF" d="M247.7,248.2c0,4.4-3.6,8-8,8c-4.4,0-8-3.6-8-8c0-4.4,3.6-8,8-8C244.1,240.2,247.7,243.8,247.7,248.2"/>
		<path fill="#FFFFFF" d="M273.7,248.2c0,4.4-3.6,8-8,8c-4.4,0-8-3.6-8-8c0-4.4,3.6-8,8-8C270.1,240.2,273.7,243.8,273.7,248.2"/>
		<path fill="#FFFFFF" d="M299.7,248.2c0,4.4-3.6,8-8,8c-4.4,0-8-3.6-8-8c0-4.4,3.6-8,8-8C296.1,240.2,299.7,243.8,299.7,248.2"/>
		<path fill="#FFFFFF" d="M78.9,80.3c0,4.4-3.6,8-8,8c-4.4,0-8-3.6-8-8c0-4.4,3.6-8,8-8C75.3,72.3,78.9,75.9,78.9,80.3"/>
		<path fill="#FFFFFF" d="M104.8,80.3c0,4.4-3.6,8-8,8c-4.4,0-8-3.6-8-8c0-4.4,3.6-8,8-8C101.3,72.3,104.8,75.9,104.8,80.3"/>
		<path fill="#FFFFFF" d="M130.8,80.3c0,4.4-3.6,8-8,8c-4.4,0-8-3.6-8-8c0-4.4,3.6-8,8-8C127.2,72.3,130.8,75.9,130.8,80.3"/>
		<path fill="#FFFFFF" d="M156.8,80.3c0,4.4-3.6,8-8,8c-4.4,0-8-3.6-8-8c0-4.4,3.6-8,8-8C153.2,72.3,156.8,75.9,156.8,80.3"/>
		<path fill="#FFFFFF" d="M182.8,80.3c0,4.4-3.6,8-8,8c-4.4,0-8-3.6-8-8c0-4.4,3.6-8,8-8C179.2,72.3,182.8,75.9,182.8,80.3"/>
		<path fill="#FFFFFF" d="M65.9,104.3c0,4.4-3.6,8-8,8c-4.4,0-8-3.6-8-8c0-4.4,3.6-8,8-8C62.3,96.3,65.9,99.9,65.9,104.3"/>
		<path fill="#FFFFFF" d="M91.8,104.3c0,4.4-3.6,8-8,8c-4.4,0-8-3.6-8-8c0-4.4,3.6-8,8-8C88.3,96.3,91.8,99.9,91.8,104.3"/>
		<path fill="#FFFFFF" d="M117.8,104.3c0,4.4-3.6,8-8,8c-4.4,0-8-3.6-8-8c0-4.4,3.6-8,8-8C114.2,96.3,117.8,99.9,117.8,104.3"/>
		<path fill="#FFFFFF" d="M143.8,104.3c0,4.4-3.6,8-8,8c-4.4,0-8-3.6-8-8c0-4.4,3.6-8,8-8C140.2,96.3,143.8,99.9,143.8,104.3"/>
		<path fill="#FFFFFF" d="M169.8,104.3c0,4.4-3.6,8-8,8c-4.4,0-8-3.6-8-8c0-4.4,3.6-8,8-8C166.2,96.3,169.8,99.9,169.8,104.3"/>
		<path fill="#FFFFFF" d="M78.9,128.3c0,4.4-3.6,8-8,8c-4.4,0-8-3.6-8-8c0-4.4,3.6-8,8-8C75.3,120.3,78.9,123.9,78.9,128.3"/>
		<path fill="#FFFFFF" d="M104.8,128.3c0,4.4-3.6,8-8,8c-4.4,0-8-3.6-8-8c0-4.4,3.6-8,8-8C101.3,120.3,104.8,123.9,104.8,128.3"/>
		<path fill="#FFFFFF" d="M130.8,128.3c0,4.4-3.6,8-8,8c-4.4,0-8-3.6-8-8c0-4.4,3.6-8,8-8C127.2,120.3,130.8,123.9,130.8,128.3"/>
		<path fill="#FFFFFF" d="M156.8,128.3c0,4.4-3.6,8-8,8c-4.4,0-8-3.6-8-8c0-4.4,3.6-8,8-8C153.2,120.3,156.8,123.9,156.8,128.3"/>
		<path fill="#FFFFFF" d="M182.8,128.3c0,4.4-3.6,8-8,8c-4.4,0-8-3.6-8-8c0-4.4,3.6-8,8-8C179.2,120.3,182.8,123.9,182.8,128.3"/>
		<path fill="#FFFFFF" d="M65.9,152.3c0,4.4-3.6,8-8,8c-4.4,0-8-3.6-8-8c0-4.4,3.6-8,8-8C62.3,144.3,65.9,147.8,65.9,152.3"/>
		<path fill="#FFFFFF" d="M91.8,152.3c0,4.4-3.6,8-8,8c-4.4,0-8-3.6-8-8c0-4.4,3.6-8,8-8C88.3,144.3,91.8,147.8,91.8,152.3"/>
		<path fill="#FFFFFF" d="M117.8,152.3c0,4.4-3.6,8-8,8c-4.4,0-8-3.6-8-8c0-4.4,3.6-8,8-8C114.2,144.3,117.8,147.8,117.8,152.3"/>
		<path fill="#FFFFFF" d="M143.8,152.3c0,4.4-3.6,8-8,8c-4.4,0-8-3.6-8-8c0-4.4,3.6-8,8-8C140.2,144.3,143.8,147.8,143.8,152.3"/>
		<path fill="#FFFFFF" d="M169.8,152.3c0,4.4-3.6,8-8,8c-4.4,0-8-3.6-8-8c0-4.4,3.6-8,8-8C166.2,144.3,169.8,147.8,169.8,152.3"/>
		<path fill="#FFFFFF" d="M78.9,176.2c0,4.4-3.6,8-8,8c-4.4,0-8-3.6-8-8c0-4.4,3.6-8,8-8C75.3,168.2,78.9,171.8,78.9,176.2"/>
		<path fill="#FFFFFF" d="M104.8,176.2c0,4.4-3.6,8-8,8c-4.4,0-8-3.6-8-8c0-4.4,3.6-8,8-8C101.3,168.2,104.8,171.8,104.8,176.2"/>
		<path fill="#FFFFFF" d="M130.8,176.2c0,4.4-3.6,8-8,8c-4.4,0-8-3.6-8-8c0-4.4,3.6-8,8-8C127.2,168.2,130.8,171.8,130.8,176.2"/>
		<path fill="#FFFFFF" d="M156.8,176.2c0,4.4-3.6,8-8,8c-4.4,0-8-3.6-8-8c0-4.4,3.6-8,8-8C153.2,168.2,156.8,171.8,156.8,176.2"/>
		<path fill="#FFFFFF" d="M182.8,176.2c0,4.4-3.6,8-8,8c-4.4,0-8-3.6-8-8c0-4.4,3.6-8,8-8C179.2,168.2,182.8,171.8,182.8,176.2"/>
		<path fill="#FFFFFF" d="M65.9,200.2c0,4.4-3.6,8-8,8c-4.4,0-8-3.6-8-8c0-4.4,3.6-8,8-8C62.3,192.2,65.9,195.8,65.9,200.2"/>
		<path fill="#FFFFFF" d="M91.8,200.2c0,4.4-3.6,8-8,8c-4.4,0-8-3.6-8-8c0-4.4,3.6-8,8-8C88.3,192.2,91.8,195.8,91.8,200.2"/>
		<path fill="#FFFFFF" d="M117.8,200.2c0,4.4-3.6,8-8,8c-4.4,0-8-3.6-8-8c0-4.4,3.6-8,8-8C114.2,192.2,117.8,195.8,117.8,200.2"/>
		<path fill="#FFFFFF" d="M143.8,200.2c0,4.4-3.6,8-8,8c-4.4,0-8-3.6-8-8c0-4.4,3.6-8,8-8C140.2,192.2,143.8,195.8,143.8,200.2"/>
		<path fill="#FFFFFF" d="M169.8,200.2c0,4.4-3.6,8-8,8c-4.4,0-8-3.6-8-8c0-4.4,3.6-8,8-8C166.2,192.2,169.8,195.8,169.8,200.2"/>
		<path fill="#FFFFFF" d="M78.9,224.2c0,4.4-3.6,8-8,8c-4.4,0-8-3.6-8-8c0-4.4,3.6-8,8-8C75.3,216.2,78.9,219.8,78.9,224.2"/>
		<path fill="#FFFFFF" d="M104.8,224.2c0,4.4-3.6,8-8,8c-4.4,0-8-3.6-8-8c0-4.4,3.6-8,8-8C101.3,216.2,104.8,219.8,104.8,224.2"/>
		<path fill="#FFFFFF" d="M130.8,224.2c0,4.4-3.6,8-8,8c-4.4,0-8-3.6-8-8c0-4.4,3.6-8,8-8C127.2,216.2,130.8,219.8,130.8,224.2"/>
		<path fill="#FFFFFF" d="M156.8,224.2c0,4.4-3.6,8-8,8c-4.4,0-8-3.6-8-8c0-4.4,3.6-8,8-8C153.2,216.2,156.8,219.8,156.8,224.2"/>
		<path fill="#FFFFFF" d="M182.8,224.2c0,4.4-3.6,8-8,8c-4.4,0-8-3.6-8-8c0-4.4,3.6-8,8-8C179.2,216.2,182.8,219.8,182.8,224.2"/>
		<path fill="#FFFFFF" d="M65.9,248.2c0,4.4-3.6,8-8,8c-4.4,0-8-3.6-8-8c0-4.4,3.6-8,8-8C62.3,240.2,65.9,243.8,65.9,248.2"/>
		<path fill="#FFFFFF" d="M91.8,248.2c0,4.4-3.6,8-8,8c-4.4,0-8-3.6-8-8c0-4.4,3.6-8,8-8C88.3,240.2,91.8,243.8,91.8,248.2"/>
		<path fill="#FFFFFF" d="M117.8,248.2c0,4.4-3.6,8-8,8c-4.4,0-8-3.6-8-8c0-4.4,3.6-8,8-8C114.2,240.2,117.8,243.8,117.8,248.2"/>
		<path fill="#FFFFFF" d="M143.8,248.2c0,4.4-3.6,8-8,8c-4.4,0-8-3.6-8-8c0-4.4,3.6-8,8-8C140.2,240.2,143.8,243.8,143.8,248.2"/>
		<path fill="#FFFFFF" d="M169.8,248.2c0,4.4-3.6,8-8,8c-4.4,0-8-3.6-8-8c0-4.4,3.6-8,8-8C166.2,240.2,169.8,243.8,169.8,248.2"/>
		<path fill="#FFFFFF" d="M-51-111.5c0,4.4-3.6,8-8,8c-4.4,0-8-3.6-8-8c0-4.4,3.6-8,8-8C-54.6-119.5-51-115.9-51-111.5"/>
		<path fill="#FFFFFF" d="M-25.1-111.5c0,4.4-3.6,8-8,8c-4.4,0-8-3.6-8-8c0-4.4,3.6-8,8-8C-28.6-119.5-25.1-115.9-25.1-111.5"/>
		<path fill="#FFFFFF" d="M0.9-111.5c0,4.4-3.6,8-8,8c-4.4,0-8-3.6-8-8c0-4.4,3.6-8,8-8C-2.7-119.5,0.9-115.9,0.9-111.5"/>
		<path fill="#FFFFFF" d="M26.9-111.5c0,4.4-3.6,8-8,8c-4.4,0-8-3.6-8-8c0-4.4,3.6-8,8-8C23.3-119.5,26.9-115.9,26.9-111.5"/>
		<path fill="#FFFFFF" d="M52.9-111.5c0,4.4-3.6,8-8,8c-4.4,0-8-3.6-8-8c0-4.4,3.6-8,8-8C49.3-119.5,52.9-115.9,52.9-111.5"/>
		<path fill="#FFFFFF" d="M-64-87.5c0,4.4-3.6,8-8,8c-4.4,0-8-3.6-8-8c0-4.4,3.6-8,8-8C-67.6-95.5-64-92-64-87.5"/>
		<path fill="#FFFFFF" d="M-38-87.5c0,4.4-3.6,8-8,8c-4.4,0-8-3.6-8-8c0-4.4,3.6-8,8-8C-41.6-95.5-38-92-38-87.5"/>
		<path fill="#FFFFFF" d="M-12.1-87.5c0,4.4-3.6,8-8,8c-4.4,0-8-3.6-8-8c0-4.4,3.6-8,8-8C-15.6-95.5-12.1-92-12.1-87.5"/>
		<path fill="#FFFFFF" d="M13.9-87.5c0,4.4-3.6,8-8,8c-4.4,0-8-3.6-8-8c0-4.4,3.6-8,8-8C10.3-95.5,13.9-92,13.9-87.5"/>
		<path fill="#FFFFFF" d="M39.9-87.5c0,4.4-3.6,8-8,8c-4.4,0-8-3.6-8-8c0-4.4,3.6-8,8-8C36.3-95.5,39.9-92,39.9-87.5"/>
		<path fill="#FFFFFF" d="M-51-63.6c0,4.4-3.6,8-8,8c-4.4,0-8-3.6-8-8c0-4.4,3.6-8,8-8C-54.6-71.6-51-68-51-63.6"/>
		<path fill="#FFFFFF" d="M-25.1-63.6c0,4.4-3.6,8-8,8c-4.4,0-8-3.6-8-8c0-4.4,3.6-8,8-8C-28.6-71.6-25.1-68-25.1-63.6"/>
		<path fill="#FFFFFF" d="M0.9-63.6c0,4.4-3.6,8-8,8c-4.4,0-8-3.6-8-8c0-4.4,3.6-8,8-8C-2.7-71.6,0.9-68,0.9-63.6"/>
		<path fill="#FFFFFF" d="M26.9-63.6c0,4.4-3.6,8-8,8c-4.4,0-8-3.6-8-8c0-4.4,3.6-8,8-8C23.3-71.6,26.9-68,26.9-63.6"/>
		<path fill="#FFFFFF" d="M52.9-63.6c0,4.4-3.6,8-8,8c-4.4,0-8-3.6-8-8c0-4.4,3.6-8,8-8C49.3-71.6,52.9-68,52.9-63.6"/>
		<path fill="#FFFFFF" d="M-64-39.6c0,4.4-3.6,8-8,8c-4.4,0-8-3.6-8-8c0-4.4,3.6-8,8-8C-67.6-47.6-64-44-64-39.6"/>
		<path fill="#FFFFFF" d="M-38-39.6c0,4.4-3.6,8-8,8c-4.4,0-8-3.6-8-8c0-4.4,3.6-8,8-8C-41.6-47.6-38-44-38-39.6"/>
		<path fill="#FFFFFF" d="M-12.1-39.6c0,4.4-3.6,8-8,8c-4.4,0-8-3.6-8-8c0-4.4,3.6-8,8-8C-15.6-47.6-12.1-44-12.1-39.6"/>
		<path fill="#FFFFFF" d="M13.9-39.6c0,4.4-3.6,8-8,8c-4.4,0-8-3.6-8-8c0-4.4,3.6-8,8-8C10.3-47.6,13.9-44,13.9-39.6"/>
		<path fill="#FFFFFF" d="M39.9-39.6c0,4.4-3.6,8-8,8c-4.4,0-8-3.6-8-8c0-4.4,3.6-8,8-8C36.3-47.6,39.9-44,39.9-39.6"/>
		<path fill="#FFFFFF" d="M-51-15.6c0,4.4-3.6,8-8,8c-4.4,0-8-3.6-8-8c0-4.4,3.6-8,8-8C-54.6-23.6-51-20-51-15.6"/>
		<path fill="#FFFFFF" d="M-25.1-15.6c0,4.4-3.6,8-8,8c-4.4,0-8-3.6-8-8c0-4.4,3.6-8,8-8C-28.6-23.6-25.1-20-25.1-15.6"/>
		<path fill="#FFFFFF" d="M0.9-15.6c0,4.4-3.6,8-8,8c-4.4,0-8-3.6-8-8c0-4.4,3.6-8,8-8C-2.7-23.6,0.9-20,0.9-15.6"/>
		<path fill="#FFFFFF" d="M26.9-15.6c0,4.4-3.6,8-8,8c-4.4,0-8-3.6-8-8c0-4.4,3.6-8,8-8C23.3-23.6,26.9-20,26.9-15.6"/>
		<path fill="#FFFFFF" d="M52.9-15.6c0,4.4-3.6,8-8,8c-4.4,0-8-3.6-8-8c0-4.4,3.6-8,8-8C49.3-23.6,52.9-20,52.9-15.6"/>
		<path fill="#FFFFFF" d="M-64,8.4c0,4.4-3.6,8-8,8c-4.4,0-8-3.6-8-8c0-4.4,3.6-8,8-8C-67.6,0.4-64,4-64,8.4"/>
		<path fill="#FFFFFF" d="M-38,8.4c0,4.4-3.6,8-8,8c-4.4,0-8-3.6-8-8c0-4.4,3.6-8,8-8C-41.6,0.4-38,4-38,8.4"/>
		<path fill="#FFFFFF" d="M-12.1,8.4c0,4.4-3.6,8-8,8c-4.4,0-8-3.6-8-8c0-4.4,3.6-8,8-8C-15.6,0.4-12.1,4-12.1,8.4"/>
		<path fill="#FFFFFF" d="M13.9,8.4c0,4.4-3.6,8-8,8c-4.4,0-8-3.6-8-8c0-4.4,3.6-8,8-8C10.3,0.4,13.9,4,13.9,8.4"/>
		<path fill="#FFFFFF" d="M39.9,8.4c0,4.4-3.6,8-8,8c-4.4,0-8-3.6-8-8c0-4.4,3.6-8,8-8C36.3,0.4,39.9,4,39.9,8.4"/>
		<path fill="#FFFFFF" d="M-51,32.4c0,4.4-3.6,8-8,8c-4.4,0-8-3.6-8-8c0-4.4,3.6-8,8-8C-54.6,24.4-51,27.9-51,32.4"/>
		<path fill="#FFFFFF" d="M-25.1,32.4c0,4.4-3.6,8-8,8c-4.4,0-8-3.6-8-8c0-4.4,3.6-8,8-8C-28.6,24.4-25.1,27.9-25.1,32.4"/>
		<path fill="#FFFFFF" d="M0.9,32.4c0,4.4-3.6,8-8,8c-4.4,0-8-3.6-8-8c0-4.4,3.6-8,8-8C-2.7,24.4,0.9,27.9,0.9,32.4"/>
		<path fill="#FFFFFF" d="M26.9,32.4c0,4.4-3.6,8-8,8c-4.4,0-8-3.6-8-8c0-4.4,3.6-8,8-8C23.3,24.4,26.9,27.9,26.9,32.4"/>
		<path fill="#FFFFFF" d="M52.9,32.4c0,4.4-3.6,8-8,8c-4.4,0-8-3.6-8-8c0-4.4,3.6-8,8-8C49.3,24.4,52.9,27.9,52.9,32.4"/>
		<path fill="#FFFFFF" d="M-64,56.3c0,4.4-3.6,8-8,8c-4.4,0-8-3.6-8-8c0-4.4,3.6-8,8-8C-67.6,48.3-64,51.9-64,56.3"/>
		<path fill="#FFFFFF" d="M-38,56.3c0,4.4-3.6,8-8,8c-4.4,0-8-3.6-8-8c0-4.4,3.6-8,8-8C-41.6,48.3-38,51.9-38,56.3"/>
		<path fill="#FFFFFF" d="M-12.1,56.3c0,4.4-3.6,8-8,8c-4.4,0-8-3.6-8-8c0-4.4,3.6-8,8-8C-15.6,48.3-12.1,51.9-12.1,56.3"/>
		<path fill="#FFFFFF" d="M13.9,56.3c0,4.4-3.6,8-8,8c-4.4,0-8-3.6-8-8c0-4.4,3.6-8,8-8C10.3,48.3,13.9,51.9,13.9,56.3"/>
		<path fill="#FFFFFF" d="M39.9,56.3c0,4.4-3.6,8-8,8c-4.4,0-8-3.6-8-8c0-4.4,3.6-8,8-8C36.3,48.3,39.9,51.9,39.9,56.3"/>
		<path fill="#FFFFFF" d="M-180.9-111.5c0,4.4-3.6,8-8,8c-4.4,0-8-3.6-8-8c0-4.4,3.6-8,8-8C-184.5-119.5-180.9-115.9-180.9-111.5"/>
		<path fill="#FFFFFF" d="M-154.9-111.5c0,4.4-3.6,8-8,8c-4.4,0-8-3.6-8-8c0-4.4,3.6-8,8-8C-158.5-119.5-154.9-115.9-154.9-111.5"/>
		<path fill="#FFFFFF" d="M-129-111.5c0,4.4-3.6,8-8,8c-4.4,0-8-3.6-8-8c0-4.4,3.6-8,8-8C-132.5-119.5-129-115.9-129-111.5"/>
		<path fill="#FFFFFF" d="M-103-111.5c0,4.4-3.6,8-8,8c-4.4,0-8-3.6-8-8c0-4.4,3.6-8,8-8C-106.6-119.5-103-115.9-103-111.5"/>
		<path fill="#FFFFFF" d="M-77-111.5c0,4.4-3.6,8-8,8c-4.4,0-8-3.6-8-8c0-4.4,3.6-8,8-8C-80.6-119.5-77-115.9-77-111.5"/>
		<path fill="#FFFFFF" d="M-193.9-87.5c0,4.4-3.6,8-8,8c-4.4,0-8-3.6-8-8c0-4.4,3.6-8,8-8C-197.5-95.5-193.9-92-193.9-87.5"/>
		<path fill="#FFFFFF" d="M-167.9-87.5c0,4.4-3.6,8-8,8c-4.4,0-8-3.6-8-8c0-4.4,3.6-8,8-8C-171.5-95.5-167.9-92-167.9-87.5"/>
		<path fill="#FFFFFF" d="M-142-87.5c0,4.4-3.6,8-8,8c-4.4,0-8-3.6-8-8c0-4.4,3.6-8,8-8C-145.5-95.5-142-92-142-87.5"/>
		<path fill="#FFFFFF" d="M-116-87.5c0,4.4-3.6,8-8,8c-4.4,0-8-3.6-8-8c0-4.4,3.6-8,8-8C-119.6-95.5-116-92-116-87.5"/>
		<path fill="#FFFFFF" d="M-90-87.5c0,4.4-3.6,8-8,8c-4.4,0-8-3.6-8-8c0-4.4,3.6-8,8-8C-93.6-95.5-90-92-90-87.5"/>
		<path fill="#FFFFFF" d="M-180.9-63.6c0,4.4-3.6,8-8,8c-4.4,0-8-3.6-8-8c0-4.4,3.6-8,8-8C-184.5-71.6-180.9-68-180.9-63.6"/>
		<path fill="#FFFFFF" d="M-154.9-63.6c0,4.4-3.6,8-8,8c-4.4,0-8-3.6-8-8c0-4.4,3.6-8,8-8C-158.5-71.6-154.9-68-154.9-63.6"/>
		<path fill="#FFFFFF" d="M-129-63.6c0,4.4-3.6,8-8,8c-4.4,0-8-3.6-8-8c0-4.4,3.6-8,8-8C-132.5-71.6-129-68-129-63.6"/>
		<path fill="#FFFFFF" d="M-103-63.6c0,4.4-3.6,8-8,8c-4.4,0-8-3.6-8-8c0-4.4,3.6-8,8-8C-106.6-71.6-103-68-103-63.6"/>
		<path fill="#FFFFFF" d="M-77-63.6c0,4.4-3.6,8-8,8c-4.4,0-8-3.6-8-8c0-4.4,3.6-8,8-8C-80.6-71.6-77-68-77-63.6"/>
		<path fill="#FFFFFF" d="M-193.9-39.6c0,4.4-3.6,8-8,8c-4.4,0-8-3.6-8-8c0-4.4,3.6-8,8-8C-197.5-47.6-193.9-44-193.9-39.6"/>
		<path fill="#FFFFFF" d="M-167.9-39.6c0,4.4-3.6,8-8,8c-4.4,0-8-3.6-8-8c0-4.4,3.6-8,8-8C-171.5-47.6-167.9-44-167.9-39.6"/>
		<path fill="#FFFFFF" d="M-142-39.6c0,4.4-3.6,8-8,8c-4.4,0-8-3.6-8-8c0-4.4,3.6-8,8-8C-145.5-47.6-142-44-142-39.6"/>
		<path fill="#FFFFFF" d="M-116-39.6c0,4.4-3.6,8-8,8c-4.4,0-8-3.6-8-8c0-4.4,3.6-8,8-8C-119.6-47.6-116-44-116-39.6"/>
		<path fill="#FFFFFF" d="M-90-39.6c0,4.4-3.6,8-8,8c-4.4,0-8-3.6-8-8c0-4.4,3.6-8,8-8C-93.6-47.6-90-44-90-39.6"/>
		<path fill="#FFFFFF" d="M-180.9-15.6c0,4.4-3.6,8-8,8c-4.4,0-8-3.6-8-8c0-4.4,3.6-8,8-8C-184.5-23.6-180.9-20-180.9-15.6"/>
		<path fill="#FFFFFF" d="M-154.9-15.6c0,4.4-3.6,8-8,8c-4.4,0-8-3.6-8-8c0-4.4,3.6-8,8-8C-158.5-23.6-154.9-20-154.9-15.6"/>
		<path fill="#FFFFFF" d="M-129-15.6c0,4.4-3.6,8-8,8c-4.4,0-8-3.6-8-8c0-4.4,3.6-8,8-8C-132.5-23.6-129-20-129-15.6"/>
		<path fill="#FFFFFF" d="M-103-15.6c0,4.4-3.6,8-8,8c-4.4,0-8-3.6-8-8c0-4.4,3.6-8,8-8C-106.6-23.6-103-20-103-15.6"/>
		<path fill="#FFFFFF" d="M-77-15.6c0,4.4-3.6,8-8,8c-4.4,0-8-3.6-8-8c0-4.4,3.6-8,8-8C-80.6-23.6-77-20-77-15.6"/>
		<path fill="#FFFFFF" d="M-193.9,8.4c0,4.4-3.6,8-8,8c-4.4,0-8-3.6-8-8c0-4.4,3.6-8,8-8C-197.5,0.4-193.9,4-193.9,8.4"/>
		<path fill="#FFFFFF" d="M-167.9,8.4c0,4.4-3.6,8-8,8c-4.4,0-8-3.6-8-8c0-4.4,3.6-8,8-8C-171.5,0.4-167.9,4-167.9,8.4"/>
		<path fill="#FFFFFF" d="M-142,8.4c0,4.4-3.6,8-8,8c-4.4,0-8-3.6-8-8c0-4.4,3.6-8,8-8C-145.5,0.4-142,4-142,8.4"/>
		<path fill="#FFFFFF" d="M-116,8.4c0,4.4-3.6,8-8,8c-4.4,0-8-3.6-8-8c0-4.4,3.6-8,8-8C-119.6,0.4-116,4-116,8.4"/>
		<path fill="#FFFFFF" d="M-90,8.4c0,4.4-3.6,8-8,8c-4.4,0-8-3.6-8-8c0-4.4,3.6-8,8-8C-93.6,0.4-90,4-90,8.4"/>
		<path fill="#FFFFFF" d="M-180.9,32.4c0,4.4-3.6,8-8,8c-4.4,0-8-3.6-8-8c0-4.4,3.6-8,8-8C-184.5,24.4-180.9,27.9-180.9,32.4"/>
		<path fill="#FFFFFF" d="M-154.9,32.4c0,4.4-3.6,8-8,8c-4.4,0-8-3.6-8-8c0-4.4,3.6-8,8-8C-158.5,24.4-154.9,27.9-154.9,32.4"/>
		<path fill="#FFFFFF" d="M-129,32.4c0,4.4-3.6,8-8,8c-4.4,0-8-3.6-8-8c0-4.4,3.6-8,8-8C-132.5,24.4-129,27.9-129,32.4"/>
		<path fill="#FFFFFF" d="M-103,32.4c0,4.4-3.6,8-8,8c-4.4,0-8-3.6-8-8c0-4.4,3.6-8,8-8C-106.6,24.4-103,27.9-103,32.4"/>
		<path fill="#FFFFFF" d="M-77,32.4c0,4.4-3.6,8-8,8c-4.4,0-8-3.6-8-8c0-4.4,3.6-8,8-8C-80.6,24.4-77,27.9-77,32.4"/>
		<path fill="#FFFFFF" d="M-193.9,56.3c0,4.4-3.6,8-8,8c-4.4,0-8-3.6-8-8c0-4.4,3.6-8,8-8C-197.5,48.3-193.9,51.9-193.9,56.3"/>
		<path fill="#FFFFFF" d="M-167.9,56.3c0,4.4-3.6,8-8,8c-4.4,0-8-3.6-8-8c0-4.4,3.6-8,8-8C-171.5,48.3-167.9,51.9-167.9,56.3"/>
		<path fill="#FFFFFF" d="M-142,56.3c0,4.4-3.6,8-8,8c-4.4,0-8-3.6-8-8c0-4.4,3.6-8,8-8C-145.5,48.3-142,51.9-142,56.3"/>
		<path fill="#FFFFFF" d="M-116,56.3c0,4.4-3.6,8-8,8c-4.4,0-8-3.6-8-8c0-4.4,3.6-8,8-8C-119.6,48.3-116,51.9-116,56.3"/>
		<path fill="#FFFFFF" d="M-90,56.3c0,4.4-3.6,8-8,8c-4.4,0-8-3.6-8-8c0-4.4,3.6-8,8-8C-93.6,48.3-90,51.9-90,56.3"/>
		<path fill="#FFFFFF" d="M-310.8-111.5c0,4.4-3.6,8-8,8c-4.4,0-8-3.6-8-8c0-4.4,3.6-8,8-8C-314.4-119.5-310.8-115.9-310.8-111.5"/>
		<path fill="#FFFFFF" d="M-284.8-111.5c0,4.4-3.6,8-8,8c-4.4,0-8-3.6-8-8c0-4.4,3.6-8,8-8C-288.4-119.5-284.8-115.9-284.8-111.5"/>
		<path fill="#FFFFFF" d="M-258.9-111.5c0,4.4-3.6,8-8,8c-4.4,0-8-3.6-8-8c0-4.4,3.6-8,8-8C-262.4-119.5-258.9-115.9-258.9-111.5"/>
		<path fill="#FFFFFF" d="M-232.9-111.5c0,4.4-3.6,8-8,8c-4.4,0-8-3.6-8-8c0-4.4,3.6-8,8-8C-236.5-119.5-232.9-115.9-232.9-111.5"/>
		<path fill="#FFFFFF" d="M-206.9-111.5c0,4.4-3.6,8-8,8c-4.4,0-8-3.6-8-8c0-4.4,3.6-8,8-8C-210.5-119.5-206.9-115.9-206.9-111.5"/>
		<path fill="#FFFFFF" d="M-323.8-87.5c0,4.4-3.6,8-8,8c-4.4,0-8-3.6-8-8c0-4.4,3.6-8,8-8C-327.4-95.5-323.8-92-323.8-87.5"/>
		<path fill="#FFFFFF" d="M-297.8-87.5c0,4.4-3.6,8-8,8c-4.4,0-8-3.6-8-8c0-4.4,3.6-8,8-8C-301.4-95.5-297.8-92-297.8-87.5"/>
		<path fill="#FFFFFF" d="M-271.8-87.5c0,4.4-3.6,8-8,8c-4.4,0-8-3.6-8-8c0-4.4,3.6-8,8-8C-275.4-95.5-271.8-92-271.8-87.5"/>
		<path fill="#FFFFFF" d="M-245.9-87.5c0,4.4-3.6,8-8,8c-4.4,0-8-3.6-8-8c0-4.4,3.6-8,8-8C-249.4-95.5-245.9-92-245.9-87.5"/>
		<path fill="#FFFFFF" d="M-219.9-87.5c0,4.4-3.6,8-8,8c-4.4,0-8-3.6-8-8c0-4.4,3.6-8,8-8C-223.5-95.5-219.9-92-219.9-87.5"/>
		<path fill="#FFFFFF" d="M-310.8-63.6c0,4.4-3.6,8-8,8c-4.4,0-8-3.6-8-8c0-4.4,3.6-8,8-8C-314.4-71.6-310.8-68-310.8-63.6"/>
		<path fill="#FFFFFF" d="M-284.8-63.6c0,4.4-3.6,8-8,8c-4.4,0-8-3.6-8-8c0-4.4,3.6-8,8-8C-288.4-71.6-284.8-68-284.8-63.6"/>
		<path fill="#FFFFFF" d="M-258.9-63.6c0,4.4-3.6,8-8,8c-4.4,0-8-3.6-8-8c0-4.4,3.6-8,8-8C-262.4-71.6-258.9-68-258.9-63.6"/>
		<path fill="#FFFFFF" d="M-232.9-63.6c0,4.4-3.6,8-8,8c-4.4,0-8-3.6-8-8c0-4.4,3.6-8,8-8C-236.5-71.6-232.9-68-232.9-63.6"/>
		<path fill="#FFFFFF" d="M-206.9-63.6c0,4.4-3.6,8-8,8c-4.4,0-8-3.6-8-8c0-4.4,3.6-8,8-8C-210.5-71.6-206.9-68-206.9-63.6"/>
		<path fill="#FFFFFF" d="M-323.8-39.6c0,4.4-3.6,8-8,8c-4.4,0-8-3.6-8-8c0-4.4,3.6-8,8-8C-327.4-47.6-323.8-44-323.8-39.6"/>
		<path fill="#FFFFFF" d="M-297.8-39.6c0,4.4-3.6,8-8,8c-4.4,0-8-3.6-8-8c0-4.4,3.6-8,8-8C-301.4-47.6-297.8-44-297.8-39.6"/>
		<path fill="#FFFFFF" d="M-271.8-39.6c0,4.4-3.6,8-8,8c-4.4,0-8-3.6-8-8c0-4.4,3.6-8,8-8C-275.4-47.6-271.8-44-271.8-39.6"/>
		<path fill="#FFFFFF" d="M-245.9-39.6c0,4.4-3.6,8-8,8c-4.4,0-8-3.6-8-8c0-4.4,3.6-8,8-8C-249.4-47.6-245.9-44-245.9-39.6"/>
		<path fill="#FFFFFF" d="M-219.9-39.6c0,4.4-3.6,8-8,8c-4.4,0-8-3.6-8-8c0-4.4,3.6-8,8-8C-223.5-47.6-219.9-44-219.9-39.6"/>
		<path fill="#FFFFFF" d="M-310.8-15.6c0,4.4-3.6,8-8,8c-4.4,0-8-3.6-8-8c0-4.4,3.6-8,8-8C-314.4-23.6-310.8-20-310.8-15.6"/>
		<path fill="#FFFFFF" d="M-284.8-15.6c0,4.4-3.6,8-8,8c-4.4,0-8-3.6-8-8c0-4.4,3.6-8,8-8C-288.4-23.6-284.8-20-284.8-15.6"/>
		<path fill="#FFFFFF" d="M-258.9-15.6c0,4.4-3.6,8-8,8c-4.4,0-8-3.6-8-8c0-4.4,3.6-8,8-8C-262.4-23.6-258.9-20-258.9-15.6"/>
		<path fill="#FFFFFF" d="M-232.9-15.6c0,4.4-3.6,8-8,8c-4.4,0-8-3.6-8-8c0-4.4,3.6-8,8-8C-236.5-23.6-232.9-20-232.9-15.6"/>
		<path fill="#FFFFFF" d="M-206.9-15.6c0,4.4-3.6,8-8,8c-4.4,0-8-3.6-8-8c0-4.4,3.6-8,8-8C-210.5-23.6-206.9-20-206.9-15.6"/>
		<path fill="#FFFFFF" d="M-323.8,8.4c0,4.4-3.6,8-8,8c-4.4,0-8-3.6-8-8c0-4.4,3.6-8,8-8C-327.4,0.4-323.8,4-323.8,8.4"/>
		<path fill="#FFFFFF" d="M-297.8,8.4c0,4.4-3.6,8-8,8c-4.4,0-8-3.6-8-8c0-4.4,3.6-8,8-8C-301.4,0.4-297.8,4-297.8,8.4"/>
		<path fill="#FFFFFF" d="M-271.8,8.4c0,4.4-3.6,8-8,8c-4.4,0-8-3.6-8-8c0-4.4,3.6-8,8-8C-275.4,0.4-271.8,4-271.8,8.4"/>
		<path fill="#FFFFFF" d="M-245.9,8.4c0,4.4-3.6,8-8,8c-4.4,0-8-3.6-8-8c0-4.4,3.6-8,8-8C-249.4,0.4-245.9,4-245.9,8.4"/>
		<path fill="#FFFFFF" d="M-219.9,8.4c0,4.4-3.6,8-8,8c-4.4,0-8-3.6-8-8c0-4.4,3.6-8,8-8C-223.5,0.4-219.9,4-219.9,8.4"/>
		<path fill="#FFFFFF" d="M-310.8,32.4c0,4.4-3.6,8-8,8c-4.4,0-8-3.6-8-8c0-4.4,3.6-8,8-8C-314.4,24.4-310.8,27.9-310.8,32.4"/>
		<path fill="#FFFFFF" d="M-284.8,32.4c0,4.4-3.6,8-8,8c-4.4,0-8-3.6-8-8c0-4.4,3.6-8,8-8C-288.4,24.4-284.8,27.9-284.8,32.4"/>
		<path fill="#FFFFFF" d="M-258.9,32.4c0,4.4-3.6,8-8,8c-4.4,0-8-3.6-8-8c0-4.4,3.6-8,8-8C-262.4,24.4-258.9,27.9-258.9,32.4"/>
		<path fill="#FFFFFF" d="M-232.9,32.4c0,4.4-3.6,8-8,8c-4.4,0-8-3.6-8-8c0-4.4,3.6-8,8-8C-236.5,24.4-232.9,27.9-232.9,32.4"/>
		<path fill="#FFFFFF" d="M-206.9,32.4c0,4.4-3.6,8-8,8c-4.4,0-8-3.6-8-8c0-4.4,3.6-8,8-8C-210.5,24.4-206.9,27.9-206.9,32.4"/>
		<path fill="#FFFFFF" d="M-323.8,56.3c0,4.4-3.6,8-8,8c-4.4,0-8-3.6-8-8c0-4.4,3.6-8,8-8C-327.4,48.3-323.8,51.9-323.8,56.3"/>
		<path fill="#FFFFFF" d="M-297.8,56.3c0,4.4-3.6,8-8,8c-4.4,0-8-3.6-8-8c0-4.4,3.6-8,8-8C-301.4,48.3-297.8,51.9-297.8,56.3"/>
		<path fill="#FFFFFF" d="M-271.8,56.3c0,4.4-3.6,8-8,8c-4.4,0-8-3.6-8-8c0-4.4,3.6-8,8-8C-275.4,48.3-271.8,51.9-271.8,56.3"/>
		<path fill="#FFFFFF" d="M-245.9,56.3c0,4.4-3.6,8-8,8c-4.4,0-8-3.6-8-8c0-4.4,3.6-8,8-8C-249.4,48.3-245.9,51.9-245.9,56.3"/>
		<path fill="#FFFFFF" d="M-219.9,56.3c0,4.4-3.6,8-8,8c-4.4,0-8-3.6-8-8c0-4.4,3.6-8,8-8C-223.5,48.3-219.9,51.9-219.9,56.3"/>
		<path fill="#FFFFFF" d="M-440.7-111.5c0,4.4-3.6,8-8,8c-4.4,0-8-3.6-8-8c0-4.4,3.6-8,8-8C-444.3-119.5-440.7-115.9-440.7-111.5"/>
		<path fill="#FFFFFF" d="M-414.7-111.5c0,4.4-3.6,8-8,8c-4.4,0-8-3.6-8-8c0-4.4,3.6-8,8-8C-418.3-119.5-414.7-115.9-414.7-111.5"/>
		<path fill="#FFFFFF" d="M-388.7-111.5c0,4.4-3.6,8-8,8c-4.4,0-8-3.6-8-8c0-4.4,3.6-8,8-8C-392.3-119.5-388.7-115.9-388.7-111.5"/>
		<path fill="#FFFFFF" d="M-362.8-111.5c0,4.4-3.6,8-8,8c-4.4,0-8-3.6-8-8c0-4.4,3.6-8,8-8C-366.3-119.5-362.8-115.9-362.8-111.5"/>
		<path fill="#FFFFFF" d="M-336.8-111.5c0,4.4-3.6,8-8,8c-4.4,0-8-3.6-8-8c0-4.4,3.6-8,8-8C-340.4-119.5-336.8-115.9-336.8-111.5"/>
		<path fill="#FFFFFF" d="M-453.7-87.5c0,4.4-3.6,8-8,8c-4.4,0-8-3.6-8-8c0-4.4,3.6-8,8-8C-457.3-95.5-453.7-92-453.7-87.5"/>
		<path fill="#FFFFFF" d="M-427.7-87.5c0,4.4-3.6,8-8,8c-4.4,0-8-3.6-8-8c0-4.4,3.6-8,8-8C-431.3-95.5-427.7-92-427.7-87.5"/>
		<path fill="#FFFFFF" d="M-401.7-87.5c0,4.4-3.6,8-8,8c-4.4,0-8-3.6-8-8c0-4.4,3.6-8,8-8C-405.3-95.5-401.7-92-401.7-87.5"/>
		<path fill="#FFFFFF" d="M-375.7-87.5c0,4.4-3.6,8-8,8c-4.4,0-8-3.6-8-8c0-4.4,3.6-8,8-8C-379.3-95.5-375.7-92-375.7-87.5"/>
		<path fill="#FFFFFF" d="M-349.8-87.5c0,4.4-3.6,8-8,8c-4.4,0-8-3.6-8-8c0-4.4,3.6-8,8-8C-353.4-95.5-349.8-92-349.8-87.5"/>
		<path fill="#FFFFFF" d="M-440.7-63.6c0,4.4-3.6,8-8,8c-4.4,0-8-3.6-8-8c0-4.4,3.6-8,8-8C-444.3-71.6-440.7-68-440.7-63.6"/>
		<path fill="#FFFFFF" d="M-414.7-63.6c0,4.4-3.6,8-8,8c-4.4,0-8-3.6-8-8c0-4.4,3.6-8,8-8C-418.3-71.6-414.7-68-414.7-63.6"/>
		<path fill="#FFFFFF" d="M-388.7-63.6c0,4.4-3.6,8-8,8c-4.4,0-8-3.6-8-8c0-4.4,3.6-8,8-8C-392.3-71.6-388.7-68-388.7-63.6"/>
		<path fill="#FFFFFF" d="M-362.8-63.6c0,4.4-3.6,8-8,8c-4.4,0-8-3.6-8-8c0-4.4,3.6-8,8-8C-366.3-71.6-362.8-68-362.8-63.6"/>
		<path fill="#FFFFFF" d="M-336.8-63.6c0,4.4-3.6,8-8,8c-4.4,0-8-3.6-8-8c0-4.4,3.6-8,8-8C-340.4-71.6-336.8-68-336.8-63.6"/>
		<path fill="#FFFFFF" d="M-453.7-39.6c0,4.4-3.6,8-8,8c-4.4,0-8-3.6-8-8c0-4.4,3.6-8,8-8C-457.3-47.6-453.7-44-453.7-39.6"/>
		<path fill="#FFFFFF" d="M-427.7-39.6c0,4.4-3.6,8-8,8c-4.4,0-8-3.6-8-8c0-4.4,3.6-8,8-8C-431.3-47.6-427.7-44-427.7-39.6"/>
		<path fill="#FFFFFF" d="M-401.7-39.6c0,4.4-3.6,8-8,8c-4.4,0-8-3.6-8-8c0-4.4,3.6-8,8-8C-405.3-47.6-401.7-44-401.7-39.6"/>
		<path fill="#FFFFFF" d="M-375.7-39.6c0,4.4-3.6,8-8,8c-4.4,0-8-3.6-8-8c0-4.4,3.6-8,8-8C-379.3-47.6-375.7-44-375.7-39.6"/>
		<path fill="#FFFFFF" d="M-349.8-39.6c0,4.4-3.6,8-8,8c-4.4,0-8-3.6-8-8c0-4.4,3.6-8,8-8C-353.4-47.6-349.8-44-349.8-39.6"/>
		<path fill="#FFFFFF" d="M-440.7-15.6c0,4.4-3.6,8-8,8c-4.4,0-8-3.6-8-8c0-4.4,3.6-8,8-8C-444.3-23.6-440.7-20-440.7-15.6"/>
		<path fill="#FFFFFF" d="M-414.7-15.6c0,4.4-3.6,8-8,8c-4.4,0-8-3.6-8-8c0-4.4,3.6-8,8-8C-418.3-23.6-414.7-20-414.7-15.6"/>
		<path fill="#FFFFFF" d="M-388.7-15.6c0,4.4-3.6,8-8,8c-4.4,0-8-3.6-8-8c0-4.4,3.6-8,8-8C-392.3-23.6-388.7-20-388.7-15.6"/>
		<path fill="#FFFFFF" d="M-362.8-15.6c0,4.4-3.6,8-8,8c-4.4,0-8-3.6-8-8c0-4.4,3.6-8,8-8C-366.3-23.6-362.8-20-362.8-15.6"/>
		<path fill="#FFFFFF" d="M-336.8-15.6c0,4.4-3.6,8-8,8c-4.4,0-8-3.6-8-8c0-4.4,3.6-8,8-8C-340.4-23.6-336.8-20-336.8-15.6"/>
		<path fill="#FFFFFF" d="M-453.7,8.4c0,4.4-3.6,8-8,8c-4.4,0-8-3.6-8-8c0-4.4,3.6-8,8-8C-457.3,0.4-453.7,4-453.7,8.4"/>
		<path fill="#FFFFFF" d="M-427.7,8.4c0,4.4-3.6,8-8,8c-4.4,0-8-3.6-8-8c0-4.4,3.6-8,8-8C-431.3,0.4-427.7,4-427.7,8.4"/>
		<path fill="#FFFFFF" d="M-401.7,8.4c0,4.4-3.6,8-8,8c-4.4,0-8-3.6-8-8c0-4.4,3.6-8,8-8C-405.3,0.4-401.7,4-401.7,8.4"/>
		<path fill="#FFFFFF" d="M-375.7,8.4c0,4.4-3.6,8-8,8c-4.4,0-8-3.6-8-8c0-4.4,3.6-8,8-8C-379.3,0.4-375.7,4-375.7,8.4"/>
		<path fill="#FFFFFF" d="M-349.8,8.4c0,4.4-3.6,8-8,8c-4.4,0-8-3.6-8-8c0-4.4,3.6-8,8-8C-353.4,0.4-349.8,4-349.8,8.4"/>
		<path fill="#FFFFFF" d="M-440.7,32.4c0,4.4-3.6,8-8,8c-4.4,0-8-3.6-8-8c0-4.4,3.6-8,8-8C-444.3,24.4-440.7,27.9-440.7,32.4"/>
		<path fill="#FFFFFF" d="M-414.7,32.4c0,4.4-3.6,8-8,8c-4.4,0-8-3.6-8-8c0-4.4,3.6-8,8-8C-418.3,24.4-414.7,27.9-414.7,32.4"/>
		<path fill="#FFFFFF" d="M-388.7,32.4c0,4.4-3.6,8-8,8c-4.4,0-8-3.6-8-8c0-4.4,3.6-8,8-8C-392.3,24.4-388.7,27.9-388.7,32.4"/>
		<path fill="#FFFFFF" d="M-362.8,32.4c0,4.4-3.6,8-8,8c-4.4,0-8-3.6-8-8c0-4.4,3.6-8,8-8C-366.3,24.4-362.8,27.9-362.8,32.4"/>
		<path fill="#FFFFFF" d="M-336.8,32.4c0,4.4-3.6,8-8,8c-4.4,0-8-3.6-8-8c0-4.4,3.6-8,8-8C-340.4,24.4-336.8,27.9-336.8,32.4"/>
		<path fill="#FFFFFF" d="M-453.7,56.3c0,4.4-3.6,8-8,8c-4.4,0-8-3.6-8-8c0-4.4,3.6-8,8-8C-457.3,48.3-453.7,51.9-453.7,56.3"/>
		<path fill="#FFFFFF" d="M-427.7,56.3c0,4.4-3.6,8-8,8c-4.4,0-8-3.6-8-8c0-4.4,3.6-8,8-8C-431.3,48.3-427.7,51.9-427.7,56.3"/>
		<path fill="#FFFFFF" d="M-401.7,56.3c0,4.4-3.6,8-8,8c-4.4,0-8-3.6-8-8c0-4.4,3.6-8,8-8C-405.3,48.3-401.7,51.9-401.7,56.3"/>
		<path fill="#FFFFFF" d="M-375.7,56.3c0,4.4-3.6,8-8,8c-4.4,0-8-3.6-8-8c0-4.4,3.6-8,8-8C-379.3,48.3-375.7,51.9-375.7,56.3"/>
		<path fill="#FFFFFF" d="M-349.8,56.3c0,4.4-3.6,8-8,8c-4.4,0-8-3.6-8-8c0-4.4,3.6-8,8-8C-353.4,48.3-349.8,51.9-349.8,56.3"/>
		<path fill="#FFFFFF" d="M-51,80.3c0,4.4-3.6,8-8,8c-4.4,0-8-3.6-8-8c0-4.4,3.6-8,8-8C-54.6,72.3-51,75.9-51,80.3"/>
		<path fill="#FFFFFF" d="M-25.1,80.3c0,4.4-3.6,8-8,8c-4.4,0-8-3.6-8-8c0-4.4,3.6-8,8-8C-28.6,72.3-25.1,75.9-25.1,80.3"/>
		<path fill="#FFFFFF" d="M0.9,80.3c0,4.4-3.6,8-8,8c-4.4,0-8-3.6-8-8c0-4.4,3.6-8,8-8C-2.7,72.3,0.9,75.9,0.9,80.3"/>
		<path fill="#FFFFFF" d="M26.9,80.3c0,4.4-3.6,8-8,8c-4.4,0-8-3.6-8-8c0-4.4,3.6-8,8-8C23.3,72.3,26.9,75.9,26.9,80.3"/>
		<path fill="#FFFFFF" d="M52.9,80.3c0,4.4-3.6,8-8,8c-4.4,0-8-3.6-8-8c0-4.4,3.6-8,8-8C49.3,72.3,52.9,75.9,52.9,80.3"/>
		<path fill="#FFFFFF" d="M-64,104.3c0,4.4-3.6,8-8,8c-4.4,0-8-3.6-8-8c0-4.4,3.6-8,8-8C-67.6,96.3-64,99.9-64,104.3"/>
		<path fill="#FFFFFF" d="M-38,104.3c0,4.4-3.6,8-8,8c-4.4,0-8-3.6-8-8c0-4.4,3.6-8,8-8C-41.6,96.3-38,99.9-38,104.3"/>
		<path fill="#FFFFFF" d="M-12.1,104.3c0,4.4-3.6,8-8,8c-4.4,0-8-3.6-8-8c0-4.4,3.6-8,8-8C-15.6,96.3-12.1,99.9-12.1,104.3"/>
		<path fill="#FFFFFF" d="M13.9,104.3c0,4.4-3.6,8-8,8c-4.4,0-8-3.6-8-8c0-4.4,3.6-8,8-8C10.3,96.3,13.9,99.9,13.9,104.3"/>
		<path fill="#FFFFFF" d="M39.9,104.3c0,4.4-3.6,8-8,8c-4.4,0-8-3.6-8-8c0-4.4,3.6-8,8-8C36.3,96.3,39.9,99.9,39.9,104.3"/>
		<path fill="#FFFFFF" d="M-51,128.3c0,4.4-3.6,8-8,8c-4.4,0-8-3.6-8-8c0-4.4,3.6-8,8-8C-54.6,120.3-51,123.9-51,128.3"/>
		<path fill="#FFFFFF" d="M-25.1,128.3c0,4.4-3.6,8-8,8c-4.4,0-8-3.6-8-8c0-4.4,3.6-8,8-8C-28.6,120.3-25.1,123.9-25.1,128.3"/>
		<path fill="#FFFFFF" d="M0.9,128.3c0,4.4-3.6,8-8,8c-4.4,0-8-3.6-8-8c0-4.4,3.6-8,8-8C-2.7,120.3,0.9,123.9,0.9,128.3"/>
		<path fill="#FFFFFF" d="M26.9,128.3c0,4.4-3.6,8-8,8c-4.4,0-8-3.6-8-8c0-4.4,3.6-8,8-8C23.3,120.3,26.9,123.9,26.9,128.3"/>
		<path fill="#FFFFFF" d="M52.9,128.3c0,4.4-3.6,8-8,8c-4.4,0-8-3.6-8-8c0-4.4,3.6-8,8-8C49.3,120.3,52.9,123.9,52.9,128.3"/>
		<path fill="#FFFFFF" d="M-64,152.3c0,4.4-3.6,8-8,8c-4.4,0-8-3.6-8-8c0-4.4,3.6-8,8-8C-67.6,144.3-64,147.8-64,152.3"/>
		<path fill="#FFFFFF" d="M-38,152.3c0,4.4-3.6,8-8,8c-4.4,0-8-3.6-8-8c0-4.4,3.6-8,8-8C-41.6,144.3-38,147.8-38,152.3"/>
		<path fill="#FFFFFF" d="M-12.1,152.3c0,4.4-3.6,8-8,8c-4.4,0-8-3.6-8-8c0-4.4,3.6-8,8-8C-15.6,144.3-12.1,147.8-12.1,152.3"/>
		<path fill="#FFFFFF" d="M13.9,152.3c0,4.4-3.6,8-8,8c-4.4,0-8-3.6-8-8c0-4.4,3.6-8,8-8C10.3,144.3,13.9,147.8,13.9,152.3"/>
		<path fill="#FFFFFF" d="M39.9,152.3c0,4.4-3.6,8-8,8c-4.4,0-8-3.6-8-8c0-4.4,3.6-8,8-8C36.3,144.3,39.9,147.8,39.9,152.3"/>
		<path fill="#FFFFFF" d="M-51,176.2c0,4.4-3.6,8-8,8c-4.4,0-8-3.6-8-8c0-4.4,3.6-8,8-8C-54.6,168.2-51,171.8-51,176.2"/>
		<path fill="#FFFFFF" d="M-25.1,176.2c0,4.4-3.6,8-8,8c-4.4,0-8-3.6-8-8c0-4.4,3.6-8,8-8C-28.6,168.2-25.1,171.8-25.1,176.2"/>
		<path fill="#FFFFFF" d="M0.9,176.2c0,4.4-3.6,8-8,8c-4.4,0-8-3.6-8-8c0-4.4,3.6-8,8-8C-2.7,168.2,0.9,171.8,0.9,176.2"/>
		<path fill="#FFFFFF" d="M26.9,176.2c0,4.4-3.6,8-8,8c-4.4,0-8-3.6-8-8c0-4.4,3.6-8,8-8C23.3,168.2,26.9,171.8,26.9,176.2"/>
		<path fill="#FFFFFF" d="M52.9,176.2c0,4.4-3.6,8-8,8c-4.4,0-8-3.6-8-8c0-4.4,3.6-8,8-8C49.3,168.2,52.9,171.8,52.9,176.2"/>
		<path fill="#FFFFFF" d="M-64,200.2c0,4.4-3.6,8-8,8c-4.4,0-8-3.6-8-8c0-4.4,3.6-8,8-8C-67.6,192.2-64,195.8-64,200.2"/>
		<path fill="#FFFFFF" d="M-38,200.2c0,4.4-3.6,8-8,8c-4.4,0-8-3.6-8-8c0-4.4,3.6-8,8-8C-41.6,192.2-38,195.8-38,200.2"/>
		<path fill="#FFFFFF" d="M-12.1,200.2c0,4.4-3.6,8-8,8c-4.4,0-8-3.6-8-8c0-4.4,3.6-8,8-8C-15.6,192.2-12.1,195.8-12.1,200.2"/>
		<path fill="#FFFFFF" d="M13.9,200.2c0,4.4-3.6,8-8,8c-4.4,0-8-3.6-8-8c0-4.4,3.6-8,8-8C10.3,192.2,13.9,195.8,13.9,200.2"/>
		<path fill="#FFFFFF" d="M39.9,200.2c0,4.4-3.6,8-8,8c-4.4,0-8-3.6-8-8c0-4.4,3.6-8,8-8C36.3,192.2,39.9,195.8,39.9,200.2"/>
		<path fill="#FFFFFF" d="M-51,224.2c0,4.4-3.6,8-8,8c-4.4,0-8-3.6-8-8c0-4.4,3.6-8,8-8C-54.6,216.2-51,219.8-51,224.2"/>
		<path fill="#FFFFFF" d="M-25.1,224.2c0,4.4-3.6,8-8,8c-4.4,0-8-3.6-8-8c0-4.4,3.6-8,8-8C-28.6,216.2-25.1,219.8-25.1,224.2"/>
		<path fill="#FFFFFF" d="M0.9,224.2c0,4.4-3.6,8-8,8c-4.4,0-8-3.6-8-8c0-4.4,3.6-8,8-8C-2.7,216.2,0.9,219.8,0.9,224.2"/>
		<path fill="#FFFFFF" d="M26.9,224.2c0,4.4-3.6,8-8,8c-4.4,0-8-3.6-8-8c0-4.4,3.6-8,8-8C23.3,216.2,26.9,219.8,26.9,224.2"/>
		<path fill="#FFFFFF" d="M52.9,224.2c0,4.4-3.6,8-8,8c-4.4,0-8-3.6-8-8c0-4.4,3.6-8,8-8C49.3,216.2,52.9,219.8,52.9,224.2"/>
		<path fill="#FFFFFF" d="M-64,248.2c0,4.4-3.6,8-8,8c-4.4,0-8-3.6-8-8c0-4.4,3.6-8,8-8C-67.6,240.2-64,243.8-64,248.2"/>
		<path fill="#FFFFFF" d="M-38,248.2c0,4.4-3.6,8-8,8c-4.4,0-8-3.6-8-8c0-4.4,3.6-8,8-8C-41.6,240.2-38,243.8-38,248.2"/>
		<path fill="#FFFFFF" d="M-12.1,248.2c0,4.4-3.6,8-8,8c-4.4,0-8-3.6-8-8c0-4.4,3.6-8,8-8C-15.6,240.2-12.1,243.8-12.1,248.2"/>
		<path fill="#FFFFFF" d="M13.9,248.2c0,4.4-3.6,8-8,8c-4.4,0-8-3.6-8-8c0-4.4,3.6-8,8-8C10.3,240.2,13.9,243.8,13.9,248.2"/>
		<path fill="#FFFFFF" d="M39.9,248.2c0,4.4-3.6,8-8,8c-4.4,0-8-3.6-8-8c0-4.4,3.6-8,8-8C36.3,240.2,39.9,243.8,39.9,248.2"/>
		<path fill="#FFFFFF" d="M-180.9,80.3c0,4.4-3.6,8-8,8c-4.4,0-8-3.6-8-8c0-4.4,3.6-8,8-8C-184.5,72.3-180.9,75.9-180.9,80.3"/>
		<path fill="#FFFFFF" d="M-154.9,80.3c0,4.4-3.6,8-8,8c-4.4,0-8-3.6-8-8c0-4.4,3.6-8,8-8C-158.5,72.3-154.9,75.9-154.9,80.3"/>
		<path fill="#FFFFFF" d="M-129,80.3c0,4.4-3.6,8-8,8c-4.4,0-8-3.6-8-8c0-4.4,3.6-8,8-8C-132.5,72.3-129,75.9-129,80.3"/>
		<path fill="#FFFFFF" d="M-103,80.3c0,4.4-3.6,8-8,8c-4.4,0-8-3.6-8-8c0-4.4,3.6-8,8-8C-106.6,72.3-103,75.9-103,80.3"/>
		<path fill="#FFFFFF" d="M-77,80.3c0,4.4-3.6,8-8,8c-4.4,0-8-3.6-8-8c0-4.4,3.6-8,8-8C-80.6,72.3-77,75.9-77,80.3"/>
		<path fill="#FFFFFF" d="M-193.9,104.3c0,4.4-3.6,8-8,8c-4.4,0-8-3.6-8-8c0-4.4,3.6-8,8-8C-197.5,96.3-193.9,99.9-193.9,104.3"/>
		<path fill="#FFFFFF" d="M-167.9,104.3c0,4.4-3.6,8-8,8c-4.4,0-8-3.6-8-8c0-4.4,3.6-8,8-8C-171.5,96.3-167.9,99.9-167.9,104.3"/>
		<path fill="#FFFFFF" d="M-142,104.3c0,4.4-3.6,8-8,8c-4.4,0-8-3.6-8-8c0-4.4,3.6-8,8-8C-145.5,96.3-142,99.9-142,104.3"/>
		<path fill="#FFFFFF" d="M-116,104.3c0,4.4-3.6,8-8,8c-4.4,0-8-3.6-8-8c0-4.4,3.6-8,8-8C-119.6,96.3-116,99.9-116,104.3"/>
		<path fill="#FFFFFF" d="M-90,104.3c0,4.4-3.6,8-8,8c-4.4,0-8-3.6-8-8c0-4.4,3.6-8,8-8C-93.6,96.3-90,99.9-90,104.3"/>
		<path fill="#FFFFFF" d="M-180.9,128.3c0,4.4-3.6,8-8,8c-4.4,0-8-3.6-8-8c0-4.4,3.6-8,8-8C-184.5,120.3-180.9,123.9-180.9,128.3"/>
		<path fill="#FFFFFF" d="M-154.9,128.3c0,4.4-3.6,8-8,8c-4.4,0-8-3.6-8-8c0-4.4,3.6-8,8-8C-158.5,120.3-154.9,123.9-154.9,128.3"/>
		<path fill="#FFFFFF" d="M-129,128.3c0,4.4-3.6,8-8,8c-4.4,0-8-3.6-8-8c0-4.4,3.6-8,8-8C-132.5,120.3-129,123.9-129,128.3"/>
		<path fill="#FFFFFF" d="M-103,128.3c0,4.4-3.6,8-8,8c-4.4,0-8-3.6-8-8c0-4.4,3.6-8,8-8C-106.6,120.3-103,123.9-103,128.3"/>
		<path fill="#FFFFFF" d="M-77,128.3c0,4.4-3.6,8-8,8c-4.4,0-8-3.6-8-8c0-4.4,3.6-8,8-8C-80.6,120.3-77,123.9-77,128.3"/>
		<path fill="#FFFFFF" d="M-193.9,152.3c0,4.4-3.6,8-8,8c-4.4,0-8-3.6-8-8c0-4.4,3.6-8,8-8C-197.5,144.3-193.9,147.8-193.9,152.3"/>
		<path fill="#FFFFFF" d="M-167.9,152.3c0,4.4-3.6,8-8,8c-4.4,0-8-3.6-8-8c0-4.4,3.6-8,8-8C-171.5,144.3-167.9,147.8-167.9,152.3"/>
		<path fill="#FFFFFF" d="M-142,152.3c0,4.4-3.6,8-8,8c-4.4,0-8-3.6-8-8c0-4.4,3.6-8,8-8C-145.5,144.3-142,147.8-142,152.3"/>
		<path fill="#FFFFFF" d="M-116,152.3c0,4.4-3.6,8-8,8c-4.4,0-8-3.6-8-8c0-4.4,3.6-8,8-8C-119.6,144.3-116,147.8-116,152.3"/>
		<path fill="#FFFFFF" d="M-90,152.3c0,4.4-3.6,8-8,8c-4.4,0-8-3.6-8-8c0-4.4,3.6-8,8-8C-93.6,144.3-90,147.8-90,152.3"/>
		<path fill="#FFFFFF" d="M-180.9,176.2c0,4.4-3.6,8-8,8c-4.4,0-8-3.6-8-8c0-4.4,3.6-8,8-8C-184.5,168.2-180.9,171.8-180.9,176.2"/>
		<path fill="#FFFFFF" d="M-154.9,176.2c0,4.4-3.6,8-8,8c-4.4,0-8-3.6-8-8c0-4.4,3.6-8,8-8C-158.5,168.2-154.9,171.8-154.9,176.2"/>
		<path fill="#FFFFFF" d="M-129,176.2c0,4.4-3.6,8-8,8c-4.4,0-8-3.6-8-8c0-4.4,3.6-8,8-8C-132.5,168.2-129,171.8-129,176.2"/>
		<path fill="#FFFFFF" d="M-103,176.2c0,4.4-3.6,8-8,8c-4.4,0-8-3.6-8-8c0-4.4,3.6-8,8-8C-106.6,168.2-103,171.8-103,176.2"/>
		<path fill="#FFFFFF" d="M-77,176.2c0,4.4-3.6,8-8,8c-4.4,0-8-3.6-8-8c0-4.4,3.6-8,8-8C-80.6,168.2-77,171.8-77,176.2"/>
		<path fill="#FFFFFF" d="M-193.9,200.2c0,4.4-3.6,8-8,8c-4.4,0-8-3.6-8-8c0-4.4,3.6-8,8-8C-197.5,192.2-193.9,195.8-193.9,200.2"/>
		<path fill="#FFFFFF" d="M-167.9,200.2c0,4.4-3.6,8-8,8c-4.4,0-8-3.6-8-8c0-4.4,3.6-8,8-8C-171.5,192.2-167.9,195.8-167.9,200.2"/>
		<path fill="#FFFFFF" d="M-142,200.2c0,4.4-3.6,8-8,8c-4.4,0-8-3.6-8-8c0-4.4,3.6-8,8-8C-145.5,192.2-142,195.8-142,200.2"/>
		<path fill="#FFFFFF" d="M-116,200.2c0,4.4-3.6,8-8,8c-4.4,0-8-3.6-8-8c0-4.4,3.6-8,8-8C-119.6,192.2-116,195.8-116,200.2"/>
		<path fill="#FFFFFF" d="M-90,200.2c0,4.4-3.6,8-8,8c-4.4,0-8-3.6-8-8c0-4.4,3.6-8,8-8C-93.6,192.2-90,195.8-90,200.2"/>
		<path fill="#FFFFFF" d="M-180.9,224.2c0,4.4-3.6,8-8,8c-4.4,0-8-3.6-8-8c0-4.4,3.6-8,8-8C-184.5,216.2-180.9,219.8-180.9,224.2"/>
		<path fill="#FFFFFF" d="M-154.9,224.2c0,4.4-3.6,8-8,8c-4.4,0-8-3.6-8-8c0-4.4,3.6-8,8-8C-158.5,216.2-154.9,219.8-154.9,224.2"/>
		<path fill="#FFFFFF" d="M-129,224.2c0,4.4-3.6,8-8,8c-4.4,0-8-3.6-8-8c0-4.4,3.6-8,8-8C-132.5,216.2-129,219.8-129,224.2"/>
		<path fill="#FFFFFF" d="M-103,224.2c0,4.4-3.6,8-8,8c-4.4,0-8-3.6-8-8c0-4.4,3.6-8,8-8C-106.6,216.2-103,219.8-103,224.2"/>
		<path fill="#FFFFFF" d="M-77,224.2c0,4.4-3.6,8-8,8c-4.4,0-8-3.6-8-8c0-4.4,3.6-8,8-8C-80.6,216.2-77,219.8-77,224.2"/>
		<path fill="#FFFFFF" d="M-193.9,248.2c0,4.4-3.6,8-8,8c-4.4,0-8-3.6-8-8c0-4.4,3.6-8,8-8C-197.5,240.2-193.9,243.8-193.9,248.2"/>
		<path fill="#FFFFFF" d="M-167.9,248.2c0,4.4-3.6,8-8,8c-4.4,0-8-3.6-8-8c0-4.4,3.6-8,8-8C-171.5,240.2-167.9,243.8-167.9,248.2"/>
		<path fill="#FFFFFF" d="M-142,248.2c0,4.4-3.6,8-8,8c-4.4,0-8-3.6-8-8c0-4.4,3.6-8,8-8C-145.5,240.2-142,243.8-142,248.2"/>
		<path fill="#FFFFFF" d="M-116,248.2c0,4.4-3.6,8-8,8c-4.4,0-8-3.6-8-8c0-4.4,3.6-8,8-8C-119.6,240.2-116,243.8-116,248.2"/>
		<path fill="#FFFFFF" d="M-90,248.2c0,4.4-3.6,8-8,8c-4.4,0-8-3.6-8-8c0-4.4,3.6-8,8-8C-93.6,240.2-90,243.8-90,248.2"/>
		<path fill="#FFFFFF" d="M-310.8,80.3c0,4.4-3.6,8-8,8c-4.4,0-8-3.6-8-8c0-4.4,3.6-8,8-8C-314.4,72.3-310.8,75.9-310.8,80.3"/>
		<path fill="#FFFFFF" d="M-284.8,80.3c0,4.4-3.6,8-8,8c-4.4,0-8-3.6-8-8c0-4.4,3.6-8,8-8C-288.4,72.3-284.8,75.9-284.8,80.3"/>
		<path fill="#FFFFFF" d="M-258.9,80.3c0,4.4-3.6,8-8,8c-4.4,0-8-3.6-8-8c0-4.4,3.6-8,8-8C-262.4,72.3-258.9,75.9-258.9,80.3"/>
		<path fill="#FFFFFF" d="M-232.9,80.3c0,4.4-3.6,8-8,8c-4.4,0-8-3.6-8-8c0-4.4,3.6-8,8-8C-236.5,72.3-232.9,75.9-232.9,80.3"/>
		<path fill="#FFFFFF" d="M-206.9,80.3c0,4.4-3.6,8-8,8c-4.4,0-8-3.6-8-8c0-4.4,3.6-8,8-8C-210.5,72.3-206.9,75.9-206.9,80.3"/>
		<path fill="#FFFFFF" d="M-323.8,104.3c0,4.4-3.6,8-8,8c-4.4,0-8-3.6-8-8c0-4.4,3.6-8,8-8C-327.4,96.3-323.8,99.9-323.8,104.3"/>
		<path fill="#FFFFFF" d="M-297.8,104.3c0,4.4-3.6,8-8,8c-4.4,0-8-3.6-8-8c0-4.4,3.6-8,8-8C-301.4,96.3-297.8,99.9-297.8,104.3"/>
		<path fill="#FFFFFF" d="M-271.8,104.3c0,4.4-3.6,8-8,8c-4.4,0-8-3.6-8-8c0-4.4,3.6-8,8-8C-275.4,96.3-271.8,99.9-271.8,104.3"/>
		<path fill="#FFFFFF" d="M-245.9,104.3c0,4.4-3.6,8-8,8c-4.4,0-8-3.6-8-8c0-4.4,3.6-8,8-8C-249.4,96.3-245.9,99.9-245.9,104.3"/>
		<path fill="#FFFFFF" d="M-219.9,104.3c0,4.4-3.6,8-8,8c-4.4,0-8-3.6-8-8c0-4.4,3.6-8,8-8C-223.5,96.3-219.9,99.9-219.9,104.3"/>
		<path fill="#FFFFFF" d="M-310.8,128.3c0,4.4-3.6,8-8,8c-4.4,0-8-3.6-8-8c0-4.4,3.6-8,8-8C-314.4,120.3-310.8,123.9-310.8,128.3"/>
		<path fill="#FFFFFF" d="M-284.8,128.3c0,4.4-3.6,8-8,8c-4.4,0-8-3.6-8-8c0-4.4,3.6-8,8-8C-288.4,120.3-284.8,123.9-284.8,128.3"/>
		<path fill="#FFFFFF" d="M-258.9,128.3c0,4.4-3.6,8-8,8c-4.4,0-8-3.6-8-8c0-4.4,3.6-8,8-8C-262.4,120.3-258.9,123.9-258.9,128.3"/>
		<path fill="#FFFFFF" d="M-232.9,128.3c0,4.4-3.6,8-8,8c-4.4,0-8-3.6-8-8c0-4.4,3.6-8,8-8C-236.5,120.3-232.9,123.9-232.9,128.3"/>
		<path fill="#FFFFFF" d="M-206.9,128.3c0,4.4-3.6,8-8,8c-4.4,0-8-3.6-8-8c0-4.4,3.6-8,8-8C-210.5,120.3-206.9,123.9-206.9,128.3"/>
		<path fill="#FFFFFF" d="M-323.8,152.3c0,4.4-3.6,8-8,8c-4.4,0-8-3.6-8-8c0-4.4,3.6-8,8-8C-327.4,144.3-323.8,147.8-323.8,152.3"/>
		<path fill="#FFFFFF" d="M-297.8,152.3c0,4.4-3.6,8-8,8c-4.4,0-8-3.6-8-8c0-4.4,3.6-8,8-8C-301.4,144.3-297.8,147.8-297.8,152.3"/>
		<path fill="#FFFFFF" d="M-271.8,152.3c0,4.4-3.6,8-8,8c-4.4,0-8-3.6-8-8c0-4.4,3.6-8,8-8C-275.4,144.3-271.8,147.8-271.8,152.3"/>
		<path fill="#FFFFFF" d="M-245.9,152.3c0,4.4-3.6,8-8,8c-4.4,0-8-3.6-8-8c0-4.4,3.6-8,8-8C-249.4,144.3-245.9,147.8-245.9,152.3"/>
		<path fill="#FFFFFF" d="M-219.9,152.3c0,4.4-3.6,8-8,8c-4.4,0-8-3.6-8-8c0-4.4,3.6-8,8-8C-223.5,144.3-219.9,147.8-219.9,152.3"/>
		<path fill="#FFFFFF" d="M-310.8,176.2c0,4.4-3.6,8-8,8c-4.4,0-8-3.6-8-8c0-4.4,3.6-8,8-8C-314.4,168.2-310.8,171.8-310.8,176.2"/>
		<path fill="#FFFFFF" d="M-284.8,176.2c0,4.4-3.6,8-8,8c-4.4,0-8-3.6-8-8c0-4.4,3.6-8,8-8C-288.4,168.2-284.8,171.8-284.8,176.2"/>
		<path fill="#FFFFFF" d="M-258.9,176.2c0,4.4-3.6,8-8,8c-4.4,0-8-3.6-8-8c0-4.4,3.6-8,8-8C-262.4,168.2-258.9,171.8-258.9,176.2"/>
		<path fill="#FFFFFF" d="M-232.9,176.2c0,4.4-3.6,8-8,8c-4.4,0-8-3.6-8-8c0-4.4,3.6-8,8-8C-236.5,168.2-232.9,171.8-232.9,176.2"/>
		<path fill="#FFFFFF" d="M-206.9,176.2c0,4.4-3.6,8-8,8c-4.4,0-8-3.6-8-8c0-4.4,3.6-8,8-8C-210.5,168.2-206.9,171.8-206.9,176.2"/>
		<path fill="#FFFFFF" d="M-323.8,200.2c0,4.4-3.6,8-8,8c-4.4,0-8-3.6-8-8c0-4.4,3.6-8,8-8C-327.4,192.2-323.8,195.8-323.8,200.2"/>
		<path fill="#FFFFFF" d="M-297.8,200.2c0,4.4-3.6,8-8,8c-4.4,0-8-3.6-8-8c0-4.4,3.6-8,8-8C-301.4,192.2-297.8,195.8-297.8,200.2"/>
		<path fill="#FFFFFF" d="M-271.8,200.2c0,4.4-3.6,8-8,8c-4.4,0-8-3.6-8-8c0-4.4,3.6-8,8-8C-275.4,192.2-271.8,195.8-271.8,200.2"/>
		<path fill="#FFFFFF" d="M-245.9,200.2c0,4.4-3.6,8-8,8c-4.4,0-8-3.6-8-8c0-4.4,3.6-8,8-8C-249.4,192.2-245.9,195.8-245.9,200.2"/>
		<path fill="#FFFFFF" d="M-219.9,200.2c0,4.4-3.6,8-8,8c-4.4,0-8-3.6-8-8c0-4.4,3.6-8,8-8C-223.5,192.2-219.9,195.8-219.9,200.2"/>
		<path fill="#FFFFFF" d="M-310.8,224.2c0,4.4-3.6,8-8,8c-4.4,0-8-3.6-8-8c0-4.4,3.6-8,8-8C-314.4,216.2-310.8,219.8-310.8,224.2"/>
		<path fill="#FFFFFF" d="M-284.8,224.2c0,4.4-3.6,8-8,8c-4.4,0-8-3.6-8-8c0-4.4,3.6-8,8-8C-288.4,216.2-284.8,219.8-284.8,224.2"/>
		<path fill="#FFFFFF" d="M-258.9,224.2c0,4.4-3.6,8-8,8c-4.4,0-8-3.6-8-8c0-4.4,3.6-8,8-8C-262.4,216.2-258.9,219.8-258.9,224.2"/>
		<path fill="#FFFFFF" d="M-232.9,224.2c0,4.4-3.6,8-8,8c-4.4,0-8-3.6-8-8c0-4.4,3.6-8,8-8C-236.5,216.2-232.9,219.8-232.9,224.2"/>
		<path fill="#FFFFFF" d="M-206.9,224.2c0,4.4-3.6,8-8,8c-4.4,0-8-3.6-8-8c0-4.4,3.6-8,8-8C-210.5,216.2-206.9,219.8-206.9,224.2"/>
		<path fill="#FFFFFF" d="M-323.8,248.2c0,4.4-3.6,8-8,8c-4.4,0-8-3.6-8-8c0-4.4,3.6-8,8-8C-327.4,240.2-323.8,243.8-323.8,248.2"/>
		<path fill="#FFFFFF" d="M-297.8,248.2c0,4.4-3.6,8-8,8c-4.4,0-8-3.6-8-8c0-4.4,3.6-8,8-8C-301.4,240.2-297.8,243.8-297.8,248.2"/>
		<path fill="#FFFFFF" d="M-271.8,248.2c0,4.4-3.6,8-8,8c-4.4,0-8-3.6-8-8c0-4.4,3.6-8,8-8C-275.4,240.2-271.8,243.8-271.8,248.2"/>
		<path fill="#FFFFFF" d="M-245.9,248.2c0,4.4-3.6,8-8,8c-4.4,0-8-3.6-8-8c0-4.4,3.6-8,8-8C-249.4,240.2-245.9,243.8-245.9,248.2"/>
		<path fill="#FFFFFF" d="M-219.9,248.2c0,4.4-3.6,8-8,8c-4.4,0-8-3.6-8-8c0-4.4,3.6-8,8-8C-223.5,240.2-219.9,243.8-219.9,248.2"/>
		<path fill="#FFFFFF" d="M-440.7,80.3c0,4.4-3.6,8-8,8c-4.4,0-8-3.6-8-8c0-4.4,3.6-8,8-8C-444.3,72.3-440.7,75.9-440.7,80.3"/>
		<path fill="#FFFFFF" d="M-414.7,80.3c0,4.4-3.6,8-8,8c-4.4,0-8-3.6-8-8c0-4.4,3.6-8,8-8C-418.3,72.3-414.7,75.9-414.7,80.3"/>
		<path fill="#FFFFFF" d="M-388.7,80.3c0,4.4-3.6,8-8,8c-4.4,0-8-3.6-8-8c0-4.4,3.6-8,8-8C-392.3,72.3-388.7,75.9-388.7,80.3"/>
		<path fill="#FFFFFF" d="M-362.8,80.3c0,4.4-3.6,8-8,8c-4.4,0-8-3.6-8-8c0-4.4,3.6-8,8-8C-366.3,72.3-362.8,75.9-362.8,80.3"/>
		<path fill="#FFFFFF" d="M-336.8,80.3c0,4.4-3.6,8-8,8c-4.4,0-8-3.6-8-8c0-4.4,3.6-8,8-8C-340.4,72.3-336.8,75.9-336.8,80.3"/>
		<path fill="#FFFFFF" d="M-453.7,104.3c0,4.4-3.6,8-8,8c-4.4,0-8-3.6-8-8c0-4.4,3.6-8,8-8C-457.3,96.3-453.7,99.9-453.7,104.3"/>
		<path fill="#FFFFFF" d="M-427.7,104.3c0,4.4-3.6,8-8,8c-4.4,0-8-3.6-8-8c0-4.4,3.6-8,8-8C-431.3,96.3-427.7,99.9-427.7,104.3"/>
		<path fill="#FFFFFF" d="M-401.7,104.3c0,4.4-3.6,8-8,8c-4.4,0-8-3.6-8-8c0-4.4,3.6-8,8-8C-405.3,96.3-401.7,99.9-401.7,104.3"/>
		<path fill="#FFFFFF" d="M-375.7,104.3c0,4.4-3.6,8-8,8c-4.4,0-8-3.6-8-8c0-4.4,3.6-8,8-8C-379.3,96.3-375.7,99.9-375.7,104.3"/>
		<path fill="#FFFFFF" d="M-349.8,104.3c0,4.4-3.6,8-8,8c-4.4,0-8-3.6-8-8c0-4.4,3.6-8,8-8C-353.4,96.3-349.8,99.9-349.8,104.3"/>
		<path fill="#FFFFFF" d="M-440.7,128.3c0,4.4-3.6,8-8,8c-4.4,0-8-3.6-8-8c0-4.4,3.6-8,8-8C-444.3,120.3-440.7,123.9-440.7,128.3"/>
		<path fill="#FFFFFF" d="M-414.7,128.3c0,4.4-3.6,8-8,8c-4.4,0-8-3.6-8-8c0-4.4,3.6-8,8-8C-418.3,120.3-414.7,123.9-414.7,128.3"/>
		<path fill="#FFFFFF" d="M-388.7,128.3c0,4.4-3.6,8-8,8c-4.4,0-8-3.6-8-8c0-4.4,3.6-8,8-8C-392.3,120.3-388.7,123.9-388.7,128.3"/>
		<path fill="#FFFFFF" d="M-362.8,128.3c0,4.4-3.6,8-8,8c-4.4,0-8-3.6-8-8c0-4.4,3.6-8,8-8C-366.3,120.3-362.8,123.9-362.8,128.3"/>
		<path fill="#FFFFFF" d="M-336.8,128.3c0,4.4-3.6,8-8,8c-4.4,0-8-3.6-8-8c0-4.4,3.6-8,8-8C-340.4,120.3-336.8,123.9-336.8,128.3"/>
		<path fill="#FFFFFF" d="M-453.7,152.3c0,4.4-3.6,8-8,8c-4.4,0-8-3.6-8-8c0-4.4,3.6-8,8-8C-457.3,144.3-453.7,147.8-453.7,152.3"/>
		<path fill="#FFFFFF" d="M-427.7,152.3c0,4.4-3.6,8-8,8c-4.4,0-8-3.6-8-8c0-4.4,3.6-8,8-8C-431.3,144.3-427.7,147.8-427.7,152.3"/>
		<path fill="#FFFFFF" d="M-401.7,152.3c0,4.4-3.6,8-8,8c-4.4,0-8-3.6-8-8c0-4.4,3.6-8,8-8C-405.3,144.3-401.7,147.8-401.7,152.3"/>
		<path fill="#FFFFFF" d="M-375.7,152.3c0,4.4-3.6,8-8,8c-4.4,0-8-3.6-8-8c0-4.4,3.6-8,8-8C-379.3,144.3-375.7,147.8-375.7,152.3"/>
		<path fill="#FFFFFF" d="M-349.8,152.3c0,4.4-3.6,8-8,8c-4.4,0-8-3.6-8-8c0-4.4,3.6-8,8-8C-353.4,144.3-349.8,147.8-349.8,152.3"/>
		<path fill="#FFFFFF" d="M-440.7,176.2c0,4.4-3.6,8-8,8c-4.4,0-8-3.6-8-8c0-4.4,3.6-8,8-8C-444.3,168.2-440.7,171.8-440.7,176.2"/>
		<path fill="#FFFFFF" d="M-414.7,176.2c0,4.4-3.6,8-8,8c-4.4,0-8-3.6-8-8c0-4.4,3.6-8,8-8C-418.3,168.2-414.7,171.8-414.7,176.2"/>
		<path fill="#FFFFFF" d="M-388.7,176.2c0,4.4-3.6,8-8,8c-4.4,0-8-3.6-8-8c0-4.4,3.6-8,8-8C-392.3,168.2-388.7,171.8-388.7,176.2"/>
		<path fill="#FFFFFF" d="M-362.8,176.2c0,4.4-3.6,8-8,8c-4.4,0-8-3.6-8-8c0-4.4,3.6-8,8-8C-366.3,168.2-362.8,171.8-362.8,176.2"/>
		<path fill="#FFFFFF" d="M-336.8,176.2c0,4.4-3.6,8-8,8c-4.4,0-8-3.6-8-8c0-4.4,3.6-8,8-8C-340.4,168.2-336.8,171.8-336.8,176.2"/>
		<path fill="#FFFFFF" d="M-453.7,200.2c0,4.4-3.6,8-8,8c-4.4,0-8-3.6-8-8c0-4.4,3.6-8,8-8C-457.3,192.2-453.7,195.8-453.7,200.2"/>
		<path fill="#FFFFFF" d="M-427.7,200.2c0,4.4-3.6,8-8,8c-4.4,0-8-3.6-8-8c0-4.4,3.6-8,8-8C-431.3,192.2-427.7,195.8-427.7,200.2"/>
		<path fill="#FFFFFF" d="M-401.7,200.2c0,4.4-3.6,8-8,8c-4.4,0-8-3.6-8-8c0-4.4,3.6-8,8-8C-405.3,192.2-401.7,195.8-401.7,200.2"/>
		<path fill="#FFFFFF" d="M-375.7,200.2c0,4.4-3.6,8-8,8c-4.4,0-8-3.6-8-8c0-4.4,3.6-8,8-8C-379.3,192.2-375.7,195.8-375.7,200.2"/>
		<path fill="#FFFFFF" d="M-349.8,200.2c0,4.4-3.6,8-8,8c-4.4,0-8-3.6-8-8c0-4.4,3.6-8,8-8C-353.4,192.2-349.8,195.8-349.8,200.2"/>
		<path fill="#FFFFFF" d="M-440.7,224.2c0,4.4-3.6,8-8,8c-4.4,0-8-3.6-8-8c0-4.4,3.6-8,8-8C-444.3,216.2-440.7,219.8-440.7,224.2"/>
		<path fill="#FFFFFF" d="M-414.7,224.2c0,4.4-3.6,8-8,8c-4.4,0-8-3.6-8-8c0-4.4,3.6-8,8-8C-418.3,216.2-414.7,219.8-414.7,224.2"/>
		<path fill="#FFFFFF" d="M-388.7,224.2c0,4.4-3.6,8-8,8c-4.4,0-8-3.6-8-8c0-4.4,3.6-8,8-8C-392.3,216.2-388.7,219.8-388.7,224.2"/>
		<path fill="#FFFFFF" d="M-362.8,224.2c0,4.4-3.6,8-8,8c-4.4,0-8-3.6-8-8c0-4.4,3.6-8,8-8C-366.3,216.2-362.8,219.8-362.8,224.2"/>
		<path fill="#FFFFFF" d="M-336.8,224.2c0,4.4-3.6,8-8,8c-4.4,0-8-3.6-8-8c0-4.4,3.6-8,8-8C-340.4,216.2-336.8,219.8-336.8,224.2"/>
		<path fill="#FFFFFF" d="M-453.7,248.2c0,4.4-3.6,8-8,8c-4.4,0-8-3.6-8-8c0-4.4,3.6-8,8-8C-457.3,240.2-453.7,243.8-453.7,248.2"/>
		<path fill="#FFFFFF" d="M-427.7,248.2c0,4.4-3.6,8-8,8c-4.4,0-8-3.6-8-8c0-4.4,3.6-8,8-8C-431.3,240.2-427.7,243.8-427.7,248.2"/>
		<path fill="#FFFFFF" d="M-401.7,248.2c0,4.4-3.6,8-8,8c-4.4,0-8-3.6-8-8c0-4.4,3.6-8,8-8C-405.3,240.2-401.7,243.8-401.7,248.2"/>
		<path fill="#FFFFFF" d="M-375.7,248.2c0,4.4-3.6,8-8,8c-4.4,0-8-3.6-8-8c0-4.4,3.6-8,8-8C-379.3,240.2-375.7,243.8-375.7,248.2"/>
		<path fill="#FFFFFF" d="M-349.8,248.2c0,4.4-3.6,8-8,8c-4.4,0-8-3.6-8-8c0-4.4,3.6-8,8-8C-353.4,240.2-349.8,243.8-349.8,248.2"/>
	</g>
</g>
</svg>
