<?xml version="1.0" encoding="utf-8"?>
<!-- Generator: Adobe Illustrator 17.1.0, SVG Export Plug-In . SVG Version: 6.00 Build 0)  -->
<!DOCTYPE svg PUBLIC "-//W3C//DTD SVG 1.1//EN" "http://www.w3.org/Graphics/SVG/1.1/DTD/svg11.dtd">
<svg version="1.1" id="Layer_1" xmlns="http://www.w3.org/2000/svg" xmlns:xlink="http://www.w3.org/1999/xlink" x="0px" y="0px"
	 viewBox="0 0 200 161.5" enable-background="new 0 0 200 161.5" xml:space="preserve">
<line fill="none" stroke="#040407" stroke-width="5" stroke-miterlimit="10" x1="0" y1="159" x2="200" y2="159"/>
<g>
	<g>
		<path id="SVGID_1_" fill="none" stroke="#010101" stroke-width="5" stroke-miterlimit="10" d="M84,9.2h-3.3h-6.2h-6.7h-9.1h-6.4
			h-2.9h-6h-5.5h-3.4h-2.9c-0.6,1.7-1.2,3.4-1.9,5.1c-0.5,1.4-1,2.7-1.5,4.1c-0.6,1.5-1.1,3-1.7,4.6c-1.2,2.2-1.5,5.1-1.7,7.2
			c-0.1,1.4,0,2.4,0,2.4v0.9v40.9v63.2c-0.1,1.2,0,2.3,0.2,3.3c0.9,5.3,4.4,8.2,6.3,9.4c0.7,0.5,1.2,0.7,1.2,0.7
			c1.2,0.4,2.3,0.7,3.5,1.1c1.3,0.4,2.6,0.7,3.8,1c2.3,0.5,4.4,0.9,6.5,1.2c2.7,0.4,5.2,0.6,7.5,0.7c1.7,0.1,3.2,0.1,4.6,0
			c0.1,0,0.2,0,0.3,0c2.1,0.1,4.5,0,7.2-0.2c2-0.2,4.1-0.4,6.4-0.8c2.1-0.4,4.4-0.9,6.7-1.5c1.3-0.3,2.5-0.7,3.8-1.1
			c0.4-0.1,0.9-0.3,1.3-0.4c0,0,0.5-0.2,1.2-0.7c1.9-1.2,5.4-4.1,6.3-9.4c0.2-1,0.2-2.1,0.2-3.3V74.4V33.4v-0.9c0,0,0-1,0-2.4
			c-0.1-2.1-0.5-5-1.7-7.2c-0.6-1.5-1.1-3-1.7-4.6c-0.5-1.4-1-2.7-1.5-4.1c-0.6-1.7-1.2-3.4-1.9-5.1L84,9.2L84,9.2z"/>
	</g>
</g>
<g>
	<g>
		<path id="SVGID_3_" fill="none" stroke="#010101" stroke-width="5" stroke-miterlimit="10" d="M66,154.6
			c-7.8,0.7-14.9,0.2-20.5-0.6c-3.4-0.5-6.3-1.1-8.5-1.7c-2.9-0.7-4.6-1.4-4.6-1.4c-0.1,1.5,0.6,2.6,1.6,3.5
			c0.8,0.7,1.8,1.2,2.7,1.6c1.5,0.6,2.9,0.9,2.9,0.9c4.9,1.3,10,1.9,14.9,2c3.6,0.1,7.1-0.1,10.3-0.4c5.2-0.5,9.6-1.3,12.4-1.9
			c2.1-0.5,3.4-0.8,3.4-0.8c2.1-1.2,3.1-2.3,3.6-3.2c0.3-0.5,0.4-1,0.5-1.4c0-0.4,0-0.7,0-0.7C78.3,152.9,71.9,154.1,66,154.6"/>
	</g>
</g>
<g>
	<g>
		<path id="SVGID_5_" fill="#FFFFFF" d="M76.1,2.5H58.3H41.5h-9.3c-0.4,0-0.8,0.2-1,0.4c-0.2,0.2-0.3,0.5-0.3,0.8v3.7V8
			c0,0.3,0.1,0.6,0.3,0.8c0.2,0.3,0.6,0.4,1,0.4c3.1,0,6.2,0.4,9.3,0.4h16.8h17.9c2.8,0,5.5-0.4,8.3-0.4c0.4,0,0.8-0.2,1-0.4
			c0.2-0.2,0.3-0.5,0.3-0.8V7.5V3.8c0-0.3-0.1-0.6-0.3-0.8c-0.2-0.3-0.6-0.4-1-0.4H76.1z"/>
	</g>
	<g>
		<path id="SVGID_2_" fill="none" stroke="#010101" stroke-width="5" stroke-miterlimit="10" d="M76.1,2.5H58.3H41.5h-9.3
			c-0.4,0-0.8,0.2-1,0.4c-0.2,0.2-0.3,0.5-0.3,0.8v3.7V8c0,0.3,0.1,0.6,0.3,0.8c0.2,0.3,0.6,0.4,1,0.4c3.1,0,6.2,0.4,9.3,0.4h16.8
			h17.9c2.8,0,5.5-0.4,8.3-0.4c0.4,0,0.8-0.2,1-0.4c0.2-0.2,0.3-0.5,0.3-0.8V7.5V3.8c0-0.3-0.1-0.6-0.3-0.8c-0.2-0.3-0.6-0.4-1-0.4
			H76.1z"/>
	</g>
</g>
<g>
	<g>
		<path id="SVGID_7_" fill="none" stroke="#010101" stroke-width="5" stroke-miterlimit="10" d="M161.1,28.2h-3.3h-6.2h-6.7h-9.1
			h-6.4h-2.9h-6H115h-3.4h-2.9c-0.6,1.7-1.2,3.4-1.9,5.1c-0.5,1.4-1,2.7-1.5,4.1c-0.6,1.5-1.1,3-1.7,4.6c-1.2,2.2-1.5,5.1-1.7,7.2
			c-0.1,1.4,0,2.4,0,2.4v0.9v40.9v44.2c-0.1,1.2,0,2.3,0.2,3.3c0.9,5.3,4.4,8.2,6.3,9.4c0.7,0.5,1.2,0.7,1.2,0.7
			c1.2,0.4,2.3,0.7,3.5,1.1c1.3,0.4,2.6,0.7,3.8,1c2.3,0.5,4.4,0.9,6.5,1.2c2.7,0.4,5.2,0.6,7.5,0.7c1.7,0.1,3.2,0.1,4.6,0
			c0.1,0,0.2,0,0.3,0c2.1,0.1,4.5,0,7.2-0.2c2-0.2,4.1-0.4,6.4-0.8c2.1-0.4,4.4-0.9,6.7-1.5c1.3-0.3,2.5-0.7,3.9-1.1
			c0.4-0.1,0.9-0.3,1.3-0.4c0,0,0.5-0.2,1.2-0.7c1.9-1.2,5.4-4.1,6.3-9.4c0.2-1,0.2-2.1,0.2-3.3V93.4V52.4v-0.9c0,0,0-1,0-2.4
			c-0.1-2.1-0.5-5-1.7-7.2c-0.6-1.5-1.1-3-1.7-4.6c-0.5-1.4-1-2.7-1.5-4.1c-0.6-1.7-1.2-3.4-1.9-5.1L161.1,28.2L161.1,28.2z"/>
	</g>
</g>
<g>
	<g>
		<path id="SVGID_9_" fill="none" stroke="#010101" stroke-width="5" stroke-miterlimit="10" d="M143.1,154.6
			c-7.8,0.7-14.9,0.2-20.5-0.6c-3.4-0.5-6.3-1.1-8.5-1.7c-2.9-0.7-4.6-1.4-4.6-1.4c-0.1,1.5,0.6,2.6,1.6,3.5
			c0.8,0.7,1.8,1.2,2.7,1.6c1.5,0.6,2.9,0.9,2.9,0.9c4.9,1.3,10,1.9,14.9,2c3.6,0.1,7.1-0.1,10.3-0.4c5.2-0.5,9.6-1.3,12.4-1.9
			c2.1-0.5,3.4-0.8,3.4-0.8c2.1-1.2,3.1-2.3,3.6-3.2c0.3-0.5,0.4-1,0.5-1.4c0-0.4,0-0.7,0-0.7C155.4,152.9,149,154.1,143.1,154.6"/>
	</g>
</g>
<g>
	<g>
		<path id="SVGID_11_" fill="#FFFFFF" d="M153.3,21.5h-17.9h-16.8h-9.3c-0.4,0-0.8,0.2-1,0.4c-0.2,0.2-0.3,0.5-0.3,0.8v3.7V27
			c0,0.3,0.1,0.6,0.3,0.8c0.2,0.3,0.6,0.4,1,0.4c3.1,0,6.2,0.4,9.3,0.4h16.8h17.9c2.8,0,5.5-0.4,8.3-0.4c0.4,0,0.8-0.2,1-0.4
			c0.2-0.2,0.3-0.5,0.3-0.8v-0.5v-3.7c0-0.3-0.1-0.6-0.3-0.8c-0.2-0.3-0.6-0.4-1-0.4L153.3,21.5L153.3,21.5z"/>
	</g>
	<g>
		<path id="SVGID_4_" fill="none" stroke="#010101" stroke-width="5" stroke-miterlimit="10" d="M153.3,21.5h-17.9h-16.8h-9.3
			c-0.4,0-0.8,0.2-1,0.4c-0.2,0.2-0.3,0.5-0.3,0.8v3.7V27c0,0.3,0.1,0.6,0.3,0.8c0.2,0.3,0.6,0.4,1,0.4c3.1,0,6.2,0.4,9.3,0.4h16.8
			h17.9c2.8,0,5.5-0.4,8.3-0.4c0.4,0,0.8-0.2,1-0.4c0.2-0.2,0.3-0.5,0.3-0.8v-0.5v-3.7c0-0.3-0.1-0.6-0.3-0.8
			c-0.2-0.3-0.6-0.4-1-0.4L153.3,21.5L153.3,21.5z"/>
	</g>
</g>
<path fill="#040407" d="M32.4,68.2H31v-7h1.4V68.2z M32.7,61.2h2.5v1.4h-2.5V61.2z M32.7,64h1.8v1.4h-1.8V64z"/>
<path fill="#040407" d="M37.1,68.2h-1.4v-7h1.4V68.2z"/>
<path fill="#040407" d="M40.4,68.2H39l-1.4-7H39L40.4,68.2z M39.9,64l0.6-2.8h1.4l-1.3,6.3L39.9,64z"/>
<path fill="#040407" d="M43.8,68.2h-1.4v-7h1.4V68.2z M44,61.2h2.5v1.4H44V61.2z M44,64h1.8v1.4H44V64z M44,66.8h2.5v1.4H44V66.8z"
	/>
<path fill="#040407" d="M50.2,68.2h-1.4v-7h1.4V68.2z M50.5,61.2h0.4c1.2,0,2.1,0.9,2.1,2.1c0,1.2-0.9,2.1-2.1,2.1h-0.4V64h0.4
	c0.4,0,0.7-0.3,0.7-0.7c0-0.4-0.3-0.7-0.7-0.7h-0.4V61.2z M53,66.1c0,1.2-0.9,2.1-2.1,2.1h-0.4v-1.4h0.4c0.4,0,0.7-0.3,0.7-0.7
	c0-0.2-0.1-0.4-0.2-0.5c0.5-0.1,0.9-0.3,1.2-0.7C52.9,65.2,53,65.6,53,66.1z"/>
<path fill="#040407" d="M55.5,68.2c-1.2-0.1-2-1-2-2.1v-2.8c0-1.1,0.8-2,2-2.1v1.4c-0.3,0.1-0.6,0.3-0.6,0.7v2.8
	c0,0.4,0.2,0.6,0.6,0.7V68.2z M55.8,66.8c0.3,0,0.6-0.3,0.6-0.7v-2.8c0-0.4-0.2-0.6-0.6-0.7v-1.4c1.1,0.1,2,1,2,2.1v2.8
	c0,1.1-0.8,2.1-2,2.1V66.8z"/>
<path fill="#040407" d="M59.7,68.2h-1.4v-7h1.4V68.2z M60,61.2h0.4c1.2,0,2.1,0.9,2.1,2.1c0,1.2-0.9,2.1-2.1,2.1H60V64h0.4
	c0.4,0,0.7-0.3,0.7-0.7c0-0.4-0.3-0.7-0.7-0.7H60V61.2z M62.5,68.2h-1.4l-1-2.5h0.3c0.4,0,0.7-0.1,1-0.2L62.5,68.2z"/>
<path fill="#040407" d="M65,68.2c-1.2-0.1-2-1-2-2.1v-2.8c0-1.1,0.8-2,2-2.1v1.4c-0.3,0.1-0.6,0.3-0.6,0.7v2.8
	c0,0.4,0.2,0.6,0.6,0.7V68.2z M65.2,66.8c0.3,0,0.6-0.3,0.6-0.7v-2.8c0-0.4-0.2-0.6-0.6-0.7v-1.4c1.1,0.1,2,1,2,2.1v2.8
	c0,1.1-0.8,2.1-2,2.1V66.8z"/>
<path fill="#040407" d="M69.7,68.2c-1.2-0.1-2-1-2-2.1v-4.9h1.4v4.9c0,0.4,0.2,0.6,0.6,0.7V68.2z M70,66.8c0.3,0,0.6-0.3,0.6-0.7
	v-4.9h1.4v4.9c0,1.1-0.8,2.1-2,2.1V66.8z"/>
<path fill="#040407" d="M73.9,66.1c0,0.4,0.2,0.6,0.6,0.7v1.4c-1.2-0.1-2-1-2-2.1v-2.8c0-1.1,0.8-2,2-2.1v1.4
	c-0.3,0.1-0.6,0.3-0.6,0.7V66.1z M74.7,66.8c0.3,0,0.6-0.3,0.6-0.7v-0.7h-0.7V64h2.1v2.1c0,1.1-0.8,2.1-2,2.1
	C74.7,68.2,74.7,66.8,74.7,66.8z M74.7,61.2c1.1,0.1,2,1,2,2.1h-1.4c0-0.4-0.2-0.6-0.6-0.7V61.2z"/>
<path fill="#040407" d="M79.8,65.4h-1.1v2.8h-1.4v-7h1.4V64h1.1V65.4z M80,61.2h1.4v7H80V61.2z"/>
<path fill="#040407" d="M84.2,66.8c0.3,0,0.6-0.3,0.6-0.7c0-0.4-0.3-0.7-0.7-0.7c-1.2,0-2.1-0.9-2.1-2.1c0-1.1,0.8-2,2-2.1v1.4
	c-0.3,0-0.6,0.3-0.6,0.7c0,0.4,0.3,0.7,0.7,0.7c1.2,0,2.1,0.9,2.1,2.1c0,1.1-0.8,2.1-2,2.1C84.2,68.2,84.2,66.8,84.2,66.8z
	 M83.4,66.1c0,0.4,0.2,0.6,0.6,0.7v1.4c-1.2-0.1-2-1-2-2.1C82,66.1,83.4,66.1,83.4,66.1z M84.7,63.3c0-0.4-0.2-0.6-0.6-0.7v-1.4
	c1.1,0.1,2,1,2,2.1C86.1,63.3,84.7,63.3,84.7,63.3z"/>
<path fill="#040407" d="M32.4,77.5H31v-7h1.4V77.5z M32.7,70.5h0.4c1.2,0,2.1,0.9,2.1,2.1s-0.9,2.1-2.1,2.1h-0.4v-1.4h0.4
	c0.4,0,0.7-0.3,0.7-0.7c0-0.4-0.3-0.7-0.7-0.7h-0.4V70.5z M35.2,75.4c0,1.2-0.9,2.1-2.1,2.1h-0.4v-1.4h0.4c0.4,0,0.7-0.3,0.7-0.7
	c0-0.2-0.1-0.4-0.2-0.5c0.5-0.1,0.9-0.3,1.2-0.7C35.1,74.5,35.2,74.9,35.2,75.4z"/>
<path fill="#040407" d="M37.1,77.5h-1.4v-7h1.4V77.5z M37.4,70.5h0.4c1.2,0,2.1,0.9,2.1,2.1s-0.9,2.1-2.1,2.1h-0.4v-1.4h0.4
	c0.4,0,0.7-0.3,0.7-0.7c0-0.4-0.3-0.7-0.7-0.7h-0.4V70.5z M39.9,77.5h-1.4l-1-2.5h0.3c0.4,0,0.7-0.1,1-0.2L39.9,77.5z"/>
<path fill="#040407" d="M41.8,77.5h-1.4v-7h1.4V77.5z M42.1,70.5h2.5v1.4h-2.5V70.5z M42.1,73.3h1.8v1.4h-1.8V73.3z M42.1,76.1h2.5
	v1.4h-2.5V76.1z"/>
<path fill="#040407" d="M47.9,77.5h-1.4l-1.4-7h1.4L47.9,77.5z M47.4,73.3l0.6-2.8h1.4l-1.3,6.3L47.4,73.3z M50.7,77.5h-1.4
	l-0.6-2.8l0.7-3.5L50.7,77.5z M50.2,73.3l0.6-2.8h1.4l-1.3,6.3L50.2,73.3z"/>
<path fill="#040407" d="M54.1,77.5h-1.4v-7h1.4V77.5z"/>
<path fill="#040407" d="M54.7,70.5h1.4l2.8,7h-1.4L54.7,70.5z M56.1,74.7v2.8h-1.4v-6.3L56.1,74.7z M57.5,73.3v-2.8h1.4v6.3
	L57.5,73.3z"/>
<path fill="#040407" d="M60.8,75.4c0,0.4,0.2,0.6,0.6,0.7v1.4c-1.2,0-2-1-2-2.1v-2.8c0-1.1,0.8-2,2-2.1v1.4
	c-0.3,0.1-0.6,0.3-0.6,0.7V75.4z M61.7,76.1c0.3-0.1,0.6-0.3,0.6-0.7v-0.7h-0.7v-1.4h2.1v2.1c0,1.1-0.8,2.1-2,2.1V76.1z M61.7,70.5
	c1.1,0.1,2,1,2,2.1h-1.4c0-0.4-0.2-0.6-0.6-0.7V70.5z"/>
<path fill="#040407" d="M67.9,77.5c-1.2,0-2-1-2-2.1v-2.8c0-1.1,0.8-2,2-2.1v1.4c-0.3,0.1-0.6,0.3-0.6,0.7v2.8
	c0,0.4,0.2,0.6,0.6,0.7V77.5z M68.7,72.6c0-0.4-0.2-0.6-0.6-0.7v-1.4c1.1,0.1,2,1,2,2.1H68.7z M68.1,76.1c0.3-0.1,0.6-0.3,0.6-0.7
	h1.4c0,1.1-0.8,2.1-2,2.1V76.1z"/>
<path fill="#040407" d="M72.6,76.2c-1.2-0.1-2-1-2-2.1v-1.5c0-1.1,0.8-2,2-2.1v1.4C72.3,72,72,72.2,72,72.6v1.5
	c0,0.4,0.2,0.6,0.6,0.7V76.2z M72.9,74.8c0.3-0.1,0.6-0.3,0.6-0.7v-1.5c0-0.4-0.2-0.6-0.6-0.7v-1.4c1.1,0.1,2,1,2,2.1v1.5
	c0,1.1-0.8,2.1-2,2.1V74.8z"/>
<rect x="70.9" y="76.8" fill="#040407" width="3.7" height="0.7"/>
<path fill="#040407" d="M109.3,68.2h-1.4v-7h1.4V68.2z M109.6,61.2h2.5v1.4h-2.5V61.2z M109.6,64h1.8v1.4h-1.8V64z"/>
<path fill="#040407" d="M114,68.2h-1.4v-7h1.4V68.2z"/>
<path fill="#040407" d="M117.3,68.2h-1.4l-1.4-7h1.4L117.3,68.2z M116.7,64l0.6-2.8h1.4l-1.3,6.3L116.7,64z"/>
<path fill="#040407" d="M120.6,68.2h-1.4v-7h1.4V68.2z M120.9,61.2h2.5v1.4h-2.5V61.2z M120.9,64h1.8v1.4h-1.8V64z M120.9,66.8h2.5
	v1.4h-2.5V66.8z"/>
<path fill="#040407" d="M127.1,68.2h-1.4v-7h1.4V68.2z M127.4,61.2h0.4c1.2,0,2.1,0.9,2.1,2.1c0,1.2-0.9,2.1-2.1,2.1h-0.4V64h0.4
	c0.4,0,0.7-0.3,0.7-0.7c0-0.4-0.3-0.7-0.7-0.7h-0.4V61.2z M129.9,66.1c0,1.2-0.9,2.1-2.1,2.1h-0.4v-1.4h0.4c0.4,0,0.7-0.3,0.7-0.7
	c0-0.2-0.1-0.4-0.2-0.5c0.5-0.1,0.9-0.3,1.2-0.7C129.8,65.2,129.9,65.6,129.9,66.1z"/>
<path fill="#040407" d="M132.4,68.2c-1.2-0.1-2-1-2-2.1v-2.8c0-1.1,0.8-2,2-2.1v1.4c-0.3,0.1-0.6,0.3-0.6,0.7v2.8
	c0,0.4,0.2,0.6,0.6,0.7V68.2z M132.6,66.8c0.3,0,0.6-0.3,0.6-0.7v-2.8c0-0.4-0.2-0.6-0.6-0.7v-1.4c1.1,0.1,2,1,2,2.1v2.8
	c0,1.1-0.8,2.1-2,2.1V66.8z"/>
<path fill="#040407" d="M136.6,68.2h-1.4v-7h1.4V68.2z M136.8,61.2h0.4c1.2,0,2.1,0.9,2.1,2.1c0,1.2-0.9,2.1-2.1,2.1h-0.4V64h0.4
	c0.4,0,0.7-0.3,0.7-0.7c0-0.4-0.3-0.7-0.7-0.7h-0.4V61.2z M139.4,68.2H138l-1-2.5h0.3c0.4,0,0.7-0.1,1-0.2L139.4,68.2z"/>
<path fill="#040407" d="M141.9,68.2c-1.2-0.1-2-1-2-2.1v-2.8c0-1.1,0.8-2,2-2.1v1.4c-0.3,0.1-0.6,0.3-0.6,0.7v2.8
	c0,0.4,0.2,0.6,0.6,0.7V68.2z M142.1,66.8c0.3,0,0.6-0.3,0.6-0.7v-2.8c0-0.4-0.2-0.6-0.6-0.7v-1.4c1.1,0.1,2,1,2,2.1v2.8
	c0,1.1-0.8,2.1-2,2.1V66.8z"/>
<path fill="#040407" d="M146.6,68.2c-1.2-0.1-2-1-2-2.1v-4.9h1.4v4.9c0,0.4,0.2,0.6,0.6,0.7L146.6,68.2L146.6,68.2z M146.9,66.8
	c0.3,0,0.6-0.3,0.6-0.7v-4.9h1.4v4.9c0,1.1-0.8,2.1-2,2.1V66.8z"/>
<path fill="#040407" d="M150.8,66.1c0,0.4,0.2,0.6,0.6,0.7v1.4c-1.2-0.1-2-1-2-2.1v-2.8c0-1.1,0.8-2,2-2.1v1.4
	c-0.3,0.1-0.6,0.3-0.6,0.7V66.1z M151.6,66.8c0.3,0,0.6-0.3,0.6-0.7v-0.7h-0.7V64h2.1v2.1c0,1.1-0.8,2.1-2,2.1V66.8z M151.6,61.2
	c1.1,0.1,2,1,2,2.1h-1.4c0-0.4-0.2-0.6-0.6-0.7V61.2z"/>
<path fill="#040407" d="M156.6,65.4h-1.1v2.8h-1.4v-7h1.4V64h1.1V65.4z M156.9,61.2h1.4v7h-1.4V61.2z"/>
<path fill="#040407" d="M161.1,66.8c0.3,0,0.6-0.3,0.6-0.7c0-0.4-0.3-0.7-0.7-0.7c-1.2,0-2.1-0.9-2.1-2.1c0-1.1,0.8-2,2-2.1v1.4
	c-0.3,0-0.6,0.3-0.6,0.7c0,0.4,0.3,0.7,0.7,0.7c1.2,0,2.1,0.9,2.1,2.1c0,1.1-0.8,2.1-2,2.1L161.1,66.8L161.1,66.8z M160.2,66.1
	c0,0.4,0.2,0.6,0.6,0.7v1.4c-1.2-0.1-2-1-2-2.1C158.8,66.1,160.2,66.1,160.2,66.1z M161.6,63.3c0-0.4-0.2-0.6-0.6-0.7v-1.4
	c1.1,0.1,2,1,2,2.1C163,63.3,161.6,63.3,161.6,63.3z"/>
<path fill="#040407" d="M109.3,77.5h-1.4v-7h1.4V77.5z M109.6,70.5h0.4c1.2,0,2.1,0.9,2.1,2.1s-0.9,2.1-2.1,2.1h-0.4v-1.4h0.4
	c0.4,0,0.7-0.3,0.7-0.7c0-0.4-0.3-0.7-0.7-0.7h-0.4V70.5z M112.1,75.4c0,1.2-0.9,2.1-2.1,2.1h-0.4v-1.4h0.4c0.4,0,0.7-0.3,0.7-0.7
	c0-0.2-0.1-0.4-0.2-0.5c0.5-0.1,0.9-0.3,1.2-0.7C112,74.5,112.1,74.9,112.1,75.4z"/>
<path fill="#040407" d="M114,77.5h-1.4v-7h1.4V77.5z M114.3,70.5h0.4c1.2,0,2.1,0.9,2.1,2.1s-0.9,2.1-2.1,2.1h-0.4v-1.4h0.4
	c0.4,0,0.7-0.3,0.7-0.7c0-0.4-0.3-0.7-0.7-0.7h-0.4V70.5z M116.8,77.5h-1.4l-1-2.5h0.3c0.4,0,0.7-0.1,1-0.2L116.8,77.5z"/>
<path fill="#040407" d="M118.7,77.5h-1.4v-7h1.4V77.5z M119,70.5h2.5v1.4H119V70.5z M119,73.3h1.8v1.4H119V73.3z M119,76.1h2.5v1.4
	H119V76.1z"/>
<path fill="#040407" d="M124.8,77.5h-1.4l-1.4-7h1.4L124.8,77.5z M124.2,73.3l0.6-2.8h1.4l-1.3,6.3L124.2,73.3z M127.6,77.5h-1.4
	l-0.6-2.8l0.7-3.5L127.6,77.5z M127,73.3l0.6-2.8h1.4l-1.3,6.3L127,73.3z"/>
<path fill="#040407" d="M130.9,77.5h-1.4v-7h1.4V77.5z"/>
<path fill="#040407" d="M131.5,70.5h1.4l2.8,7h-1.4L131.5,70.5z M132.9,74.7v2.8h-1.4v-6.3L132.9,74.7z M134.3,73.3v-2.8h1.4v6.3
	L134.3,73.3z"/>
<path fill="#040407" d="M137.7,75.4c0,0.4,0.2,0.6,0.6,0.7v1.4c-1.2,0-2-1-2-2.1v-2.8c0-1.1,0.8-2,2-2.1v1.4
	c-0.3,0.1-0.6,0.3-0.6,0.7V75.4z M138.5,76.1c0.3-0.1,0.6-0.3,0.6-0.7v-0.7h-0.7v-1.4h2.1v2.1c0,1.1-0.8,2.1-2,2.1L138.5,76.1
	L138.5,76.1z M138.5,70.5c1.1,0.1,2,1,2,2.1h-1.4c0-0.4-0.2-0.6-0.6-0.7V70.5z"/>
<path fill="#040407" d="M144.8,77.5c-1.2,0-2-1-2-2.1v-2.8c0-1.1,0.8-2,2-2.1v1.4c-0.3,0.1-0.6,0.3-0.6,0.7v2.8
	c0,0.4,0.2,0.6,0.6,0.7V77.5z M145.6,72.6c0-0.4-0.2-0.6-0.6-0.7v-1.4c1.1,0.1,2,1,2,2.1H145.6z M145,76.1c0.3-0.1,0.6-0.3,0.6-0.7
	h1.4c0,1.1-0.8,2.1-2,2.1V76.1z"/>
<path fill="#040407" d="M149.5,76.2c-1.2-0.1-2-1-2-2.1v-1.5c0-1.1,0.8-2,2-2.1v1.4c-0.3,0.1-0.6,0.3-0.6,0.7v1.5
	c0,0.4,0.2,0.6,0.6,0.7V76.2z M149.7,74.8c0.3-0.1,0.6-0.3,0.6-0.7v-1.5c0-0.4-0.2-0.6-0.6-0.7v-1.4c1.1,0.1,2,1,2,2.1v1.5
	c0,1.1-0.8,2.1-2,2.1V74.8z"/>
<rect x="147.8" y="76.8" fill="#040407" width="3.7" height="0.7"/>
</svg>
