<?xml version="1.0" encoding="utf-8"?>
<!-- Generator: Adobe Illustrator 17.1.0, SVG Export Plug-In . SVG Version: 6.00 Build 0)  -->
<!DOCTYPE svg PUBLIC "-//W3C//DTD SVG 1.1//EN" "http://www.w3.org/Graphics/SVG/1.1/DTD/svg11.dtd">
<svg version="1.1" id="Layer_1" xmlns="http://www.w3.org/2000/svg" xmlns:xlink="http://www.w3.org/1999/xlink" x="0px" y="0px"
	 viewBox="0 0 205 187" enable-background="new 0 0 205 187" xml:space="preserve">
<line fill="none" stroke="#040407" stroke-width="5" stroke-miterlimit="10" x1="2.5" y1="184.5" x2="202.5" y2="184.5"/>
<line fill="none" stroke="#040407" stroke-width="5" stroke-miterlimit="10" x1="2.5" y1="78.5" x2="202.5" y2="78.5"/>
<line fill="none" stroke="#040407" stroke-width="5" stroke-miterlimit="10" x1="2.5" y1="58.5" x2="202.5" y2="58.5"/>
<line fill="none" stroke="#040407" stroke-width="5" stroke-miterlimit="10" x1="2.5" y1="38.5" x2="202.5" y2="38.5"/>
<rect x="2.5" y="118.5" fill="#6B6A6B" stroke="#040407" stroke-width="5" stroke-miterlimit="10" width="200" height="12"/>
<rect x="87.2" y="142.5" fill="#696A6C" stroke="#040407" stroke-width="5" stroke-miterlimit="10" width="30.7" height="12"/>
<rect x="96.5" y="26.5" fill="#FFFFFF" stroke="#040407" stroke-width="5" stroke-miterlimit="10" width="12" height="61.3"/>
<rect x="25.8" y="142.5" fill="#696A6C" stroke="#040407" stroke-width="5" stroke-miterlimit="10" width="30.7" height="12"/>
<rect x="148.5" y="142.5" fill="#696A6C" stroke="#040407" stroke-width="5" stroke-miterlimit="10" width="30.7" height="12"/>
<rect x="2.5" y="2.5" fill="#6B6A6B" stroke="#040407" stroke-width="5" stroke-miterlimit="10" width="200" height="12"/>
<line fill="none" stroke="#040407" stroke-width="5" stroke-miterlimit="10" x1="102.5" y1="154.5" x2="102.5" y2="184.5"/>
<line fill="none" stroke="#040407" stroke-width="5" stroke-miterlimit="10" x1="102.5" y1="87.8" x2="102.5" y2="95.3"/>
<rect x="64.5" y="26.5" fill="#FFFFFF" stroke="#040407" stroke-width="5" stroke-miterlimit="10" width="12" height="61.3"/>
<line fill="none" stroke="#040407" stroke-width="5" stroke-miterlimit="10" x1="70.5" y1="87.8" x2="70.5" y2="95.3"/>
<rect x="32.5" y="26.5" fill="#FFFFFF" stroke="#040407" stroke-width="5" stroke-miterlimit="10" width="12" height="61.3"/>
<line fill="none" stroke="#040407" stroke-width="5" stroke-miterlimit="10" x1="38.5" y1="87.8" x2="38.5" y2="95.3"/>
<rect x="128.5" y="26.5" fill="#FFFFFF" stroke="#040407" stroke-width="5" stroke-miterlimit="10" width="12" height="61.3"/>
<line fill="none" stroke="#040407" stroke-width="5" stroke-miterlimit="10" x1="134.5" y1="87.8" x2="134.5" y2="95.3"/>
<rect x="160.5" y="26.5" fill="#FFFFFF" stroke="#040407" stroke-width="5" stroke-miterlimit="10" width="12" height="61.3"/>
<line fill="none" stroke="#040407" stroke-width="5" stroke-miterlimit="10" x1="166.5" y1="87.8" x2="166.5" y2="95.3"/>
<line fill="none" stroke="#040407" stroke-width="5" stroke-miterlimit="10" x1="163.8" y1="154.5" x2="163.8" y2="184.5"/>
<line fill="none" stroke="#040407" stroke-width="5" stroke-miterlimit="10" x1="41.2" y1="154.5" x2="41.2" y2="184.5"/>
<rect x="96.5" y="26.5" fill="#FFFFFF" stroke="#040407" stroke-width="5" stroke-miterlimit="10" width="12" height="15.3"/>
<rect x="64.5" y="26.5" fill="#FFFFFF" stroke="#040407" stroke-width="5" stroke-miterlimit="10" width="12" height="15.3"/>
<rect x="32.5" y="26.5" fill="#FFFFFF" stroke="#040407" stroke-width="5" stroke-miterlimit="10" width="12" height="15.3"/>
<rect x="128.5" y="26.5" fill="#FFFFFF" stroke="#040407" stroke-width="5" stroke-miterlimit="10" width="12" height="15.3"/>
<rect x="160.5" y="26.5" fill="#FFFFFF" stroke="#040407" stroke-width="5" stroke-miterlimit="10" width="12" height="15.3"/>
</svg>
